G04 EAGLE Gerber RS-274X export*
G75*
%MOMM*%
%FSLAX34Y34*%
%LPD*%
%INBottom silk*%
%IPPOS*%
%AMOC8*
5,1,8,0,0,1.08239X$1,22.5*%
G01*
%ADD10C,0.330200*%
%ADD11C,0.000000*%
%ADD12C,0.279400*%
%ADD13C,0.254000*%
%ADD14C,0.203200*%
%ADD15C,0.152400*%


D10*
X648254Y219050D02*
X648254Y237592D01*
X643104Y237592D02*
X653405Y237592D01*
X635485Y237592D02*
X635485Y219050D01*
X635485Y229351D02*
X625184Y229351D01*
X625184Y237592D02*
X625184Y219050D01*
X615662Y219050D02*
X607421Y219050D01*
X615662Y219050D02*
X615662Y237592D01*
X607421Y237592D01*
X609481Y229351D02*
X615662Y229351D01*
X582546Y229351D02*
X579456Y229351D01*
X579456Y219050D01*
X585636Y219050D01*
X585763Y219052D01*
X585890Y219058D01*
X586016Y219068D01*
X586142Y219081D01*
X586268Y219099D01*
X586393Y219120D01*
X586517Y219145D01*
X586641Y219174D01*
X586763Y219207D01*
X586885Y219244D01*
X587005Y219284D01*
X587124Y219328D01*
X587242Y219376D01*
X587358Y219427D01*
X587472Y219482D01*
X587585Y219540D01*
X587696Y219602D01*
X587805Y219667D01*
X587912Y219736D01*
X588016Y219807D01*
X588119Y219882D01*
X588219Y219960D01*
X588317Y220041D01*
X588412Y220125D01*
X588504Y220212D01*
X588594Y220302D01*
X588681Y220394D01*
X588765Y220489D01*
X588846Y220587D01*
X588924Y220687D01*
X588999Y220790D01*
X589070Y220894D01*
X589139Y221001D01*
X589204Y221110D01*
X589266Y221221D01*
X589324Y221334D01*
X589379Y221448D01*
X589430Y221564D01*
X589478Y221682D01*
X589522Y221801D01*
X589562Y221921D01*
X589599Y222043D01*
X589632Y222165D01*
X589661Y222289D01*
X589686Y222413D01*
X589707Y222538D01*
X589725Y222664D01*
X589738Y222790D01*
X589748Y222916D01*
X589754Y223043D01*
X589756Y223170D01*
X589757Y223170D02*
X589757Y233472D01*
X589756Y233472D02*
X589754Y233599D01*
X589748Y233726D01*
X589738Y233852D01*
X589725Y233978D01*
X589707Y234104D01*
X589686Y234229D01*
X589661Y234353D01*
X589632Y234477D01*
X589599Y234599D01*
X589562Y234721D01*
X589522Y234841D01*
X589478Y234960D01*
X589430Y235078D01*
X589379Y235194D01*
X589324Y235308D01*
X589266Y235421D01*
X589204Y235532D01*
X589139Y235641D01*
X589070Y235748D01*
X588999Y235852D01*
X588924Y235955D01*
X588846Y236055D01*
X588765Y236153D01*
X588681Y236248D01*
X588594Y236340D01*
X588504Y236430D01*
X588412Y236517D01*
X588317Y236601D01*
X588219Y236682D01*
X588119Y236760D01*
X588016Y236835D01*
X587912Y236906D01*
X587805Y236975D01*
X587696Y237040D01*
X587585Y237102D01*
X587472Y237160D01*
X587358Y237215D01*
X587242Y237266D01*
X587124Y237314D01*
X587005Y237358D01*
X586885Y237398D01*
X586763Y237435D01*
X586641Y237468D01*
X586517Y237497D01*
X586393Y237522D01*
X586268Y237543D01*
X586142Y237561D01*
X586016Y237574D01*
X585890Y237584D01*
X585763Y237590D01*
X585636Y237592D01*
X579456Y237592D01*
X569845Y237592D02*
X569845Y219050D01*
X569845Y237592D02*
X564694Y237592D01*
X564552Y237590D01*
X564410Y237584D01*
X564269Y237574D01*
X564127Y237561D01*
X563986Y237543D01*
X563846Y237522D01*
X563706Y237496D01*
X563568Y237467D01*
X563430Y237434D01*
X563292Y237398D01*
X563156Y237357D01*
X563021Y237313D01*
X562888Y237265D01*
X562756Y237213D01*
X562625Y237158D01*
X562496Y237099D01*
X562368Y237037D01*
X562242Y236971D01*
X562119Y236902D01*
X561997Y236829D01*
X561877Y236753D01*
X561759Y236674D01*
X561643Y236591D01*
X561530Y236506D01*
X561419Y236417D01*
X561311Y236325D01*
X561205Y236231D01*
X561102Y236133D01*
X561002Y236033D01*
X560904Y235930D01*
X560810Y235824D01*
X560718Y235716D01*
X560629Y235605D01*
X560544Y235492D01*
X560461Y235376D01*
X560382Y235258D01*
X560306Y235138D01*
X560233Y235017D01*
X560164Y234893D01*
X560098Y234767D01*
X560036Y234639D01*
X559977Y234510D01*
X559922Y234379D01*
X559870Y234247D01*
X559822Y234114D01*
X559778Y233979D01*
X559737Y233843D01*
X559701Y233705D01*
X559668Y233567D01*
X559639Y233429D01*
X559613Y233289D01*
X559592Y233149D01*
X559574Y233008D01*
X559561Y232866D01*
X559551Y232725D01*
X559545Y232583D01*
X559543Y232441D01*
X559545Y232299D01*
X559551Y232157D01*
X559561Y232016D01*
X559574Y231874D01*
X559592Y231733D01*
X559613Y231593D01*
X559639Y231453D01*
X559668Y231315D01*
X559701Y231177D01*
X559737Y231039D01*
X559778Y230903D01*
X559822Y230768D01*
X559870Y230635D01*
X559922Y230503D01*
X559977Y230372D01*
X560036Y230243D01*
X560098Y230115D01*
X560164Y229989D01*
X560233Y229866D01*
X560306Y229744D01*
X560382Y229624D01*
X560461Y229506D01*
X560544Y229390D01*
X560629Y229277D01*
X560718Y229166D01*
X560810Y229058D01*
X560904Y228952D01*
X561002Y228849D01*
X561102Y228749D01*
X561205Y228651D01*
X561311Y228557D01*
X561419Y228465D01*
X561530Y228376D01*
X561643Y228291D01*
X561759Y228208D01*
X561877Y228129D01*
X561997Y228053D01*
X562118Y227980D01*
X562242Y227911D01*
X562368Y227845D01*
X562496Y227783D01*
X562625Y227724D01*
X562756Y227669D01*
X562888Y227617D01*
X563021Y227569D01*
X563156Y227525D01*
X563292Y227484D01*
X563430Y227448D01*
X563568Y227415D01*
X563706Y227386D01*
X563846Y227360D01*
X563986Y227339D01*
X564127Y227321D01*
X564269Y227308D01*
X564410Y227298D01*
X564552Y227292D01*
X564694Y227290D01*
X564694Y227291D02*
X569845Y227291D01*
X563664Y227291D02*
X559544Y219050D01*
X550826Y224201D02*
X550826Y237592D01*
X550827Y224201D02*
X550825Y224059D01*
X550819Y223917D01*
X550809Y223776D01*
X550796Y223634D01*
X550778Y223493D01*
X550757Y223353D01*
X550731Y223213D01*
X550702Y223075D01*
X550669Y222937D01*
X550633Y222799D01*
X550592Y222663D01*
X550548Y222528D01*
X550500Y222395D01*
X550448Y222263D01*
X550393Y222132D01*
X550334Y222003D01*
X550272Y221875D01*
X550206Y221749D01*
X550137Y221625D01*
X550064Y221504D01*
X549988Y221384D01*
X549909Y221266D01*
X549826Y221150D01*
X549741Y221037D01*
X549652Y220926D01*
X549560Y220818D01*
X549466Y220712D01*
X549368Y220609D01*
X549268Y220509D01*
X549165Y220411D01*
X549059Y220317D01*
X548951Y220225D01*
X548840Y220136D01*
X548727Y220051D01*
X548611Y219968D01*
X548493Y219889D01*
X548373Y219813D01*
X548251Y219740D01*
X548128Y219671D01*
X548002Y219605D01*
X547874Y219543D01*
X547745Y219484D01*
X547614Y219429D01*
X547482Y219377D01*
X547349Y219329D01*
X547214Y219285D01*
X547078Y219244D01*
X546940Y219208D01*
X546802Y219175D01*
X546664Y219146D01*
X546524Y219120D01*
X546384Y219099D01*
X546243Y219081D01*
X546101Y219068D01*
X545960Y219058D01*
X545818Y219052D01*
X545676Y219050D01*
X545534Y219052D01*
X545392Y219058D01*
X545251Y219068D01*
X545109Y219081D01*
X544968Y219099D01*
X544828Y219120D01*
X544688Y219146D01*
X544550Y219175D01*
X544412Y219208D01*
X544274Y219244D01*
X544138Y219285D01*
X544003Y219329D01*
X543870Y219377D01*
X543738Y219429D01*
X543607Y219484D01*
X543478Y219543D01*
X543350Y219605D01*
X543224Y219671D01*
X543101Y219740D01*
X542979Y219813D01*
X542859Y219889D01*
X542741Y219968D01*
X542625Y220051D01*
X542512Y220136D01*
X542401Y220225D01*
X542293Y220317D01*
X542187Y220411D01*
X542084Y220509D01*
X541984Y220609D01*
X541886Y220712D01*
X541792Y220818D01*
X541700Y220926D01*
X541611Y221037D01*
X541526Y221150D01*
X541443Y221266D01*
X541364Y221384D01*
X541288Y221504D01*
X541215Y221626D01*
X541146Y221749D01*
X541080Y221875D01*
X541018Y222003D01*
X540959Y222132D01*
X540904Y222263D01*
X540852Y222395D01*
X540804Y222528D01*
X540760Y222663D01*
X540719Y222799D01*
X540683Y222937D01*
X540650Y223075D01*
X540621Y223213D01*
X540595Y223353D01*
X540574Y223493D01*
X540556Y223634D01*
X540543Y223776D01*
X540533Y223917D01*
X540527Y224059D01*
X540525Y224201D01*
X540525Y237592D01*
X530734Y229351D02*
X525583Y229351D01*
X525583Y229352D02*
X525441Y229350D01*
X525299Y229344D01*
X525158Y229334D01*
X525016Y229321D01*
X524875Y229303D01*
X524735Y229282D01*
X524595Y229256D01*
X524457Y229227D01*
X524319Y229194D01*
X524181Y229158D01*
X524045Y229117D01*
X523910Y229073D01*
X523777Y229025D01*
X523645Y228973D01*
X523514Y228918D01*
X523385Y228859D01*
X523257Y228797D01*
X523131Y228731D01*
X523008Y228662D01*
X522886Y228589D01*
X522766Y228513D01*
X522648Y228434D01*
X522532Y228351D01*
X522419Y228266D01*
X522308Y228177D01*
X522200Y228085D01*
X522094Y227991D01*
X521991Y227893D01*
X521891Y227793D01*
X521793Y227690D01*
X521699Y227584D01*
X521607Y227476D01*
X521518Y227365D01*
X521433Y227252D01*
X521350Y227136D01*
X521271Y227018D01*
X521195Y226898D01*
X521122Y226777D01*
X521053Y226653D01*
X520987Y226527D01*
X520925Y226399D01*
X520866Y226270D01*
X520811Y226139D01*
X520759Y226007D01*
X520711Y225874D01*
X520667Y225739D01*
X520626Y225603D01*
X520590Y225465D01*
X520557Y225327D01*
X520528Y225189D01*
X520502Y225049D01*
X520481Y224909D01*
X520463Y224768D01*
X520450Y224626D01*
X520440Y224485D01*
X520434Y224343D01*
X520432Y224201D01*
X520434Y224059D01*
X520440Y223917D01*
X520450Y223776D01*
X520463Y223634D01*
X520481Y223493D01*
X520502Y223353D01*
X520528Y223213D01*
X520557Y223075D01*
X520590Y222937D01*
X520626Y222799D01*
X520667Y222663D01*
X520711Y222528D01*
X520759Y222395D01*
X520811Y222263D01*
X520866Y222132D01*
X520925Y222003D01*
X520987Y221875D01*
X521053Y221749D01*
X521122Y221626D01*
X521195Y221504D01*
X521271Y221384D01*
X521350Y221266D01*
X521433Y221150D01*
X521518Y221037D01*
X521607Y220926D01*
X521699Y220818D01*
X521793Y220712D01*
X521891Y220609D01*
X521991Y220509D01*
X522094Y220411D01*
X522200Y220317D01*
X522308Y220225D01*
X522419Y220136D01*
X522532Y220051D01*
X522648Y219968D01*
X522766Y219889D01*
X522886Y219813D01*
X523007Y219740D01*
X523131Y219671D01*
X523257Y219605D01*
X523385Y219543D01*
X523514Y219484D01*
X523645Y219429D01*
X523777Y219377D01*
X523910Y219329D01*
X524045Y219285D01*
X524181Y219244D01*
X524319Y219208D01*
X524457Y219175D01*
X524595Y219146D01*
X524735Y219120D01*
X524875Y219099D01*
X525016Y219081D01*
X525158Y219068D01*
X525299Y219058D01*
X525441Y219052D01*
X525583Y219050D01*
X530734Y219050D01*
X530734Y237592D01*
X525583Y237592D01*
X525456Y237590D01*
X525329Y237584D01*
X525203Y237574D01*
X525077Y237561D01*
X524951Y237543D01*
X524826Y237522D01*
X524702Y237497D01*
X524578Y237468D01*
X524456Y237435D01*
X524334Y237398D01*
X524214Y237358D01*
X524095Y237314D01*
X523977Y237266D01*
X523861Y237215D01*
X523747Y237160D01*
X523634Y237102D01*
X523523Y237040D01*
X523414Y236975D01*
X523307Y236906D01*
X523203Y236835D01*
X523100Y236760D01*
X523000Y236682D01*
X522902Y236601D01*
X522807Y236517D01*
X522715Y236430D01*
X522625Y236340D01*
X522538Y236248D01*
X522454Y236153D01*
X522373Y236055D01*
X522295Y235955D01*
X522220Y235852D01*
X522149Y235748D01*
X522080Y235641D01*
X522015Y235532D01*
X521953Y235421D01*
X521895Y235308D01*
X521840Y235194D01*
X521789Y235078D01*
X521741Y234960D01*
X521697Y234841D01*
X521657Y234721D01*
X521620Y234599D01*
X521587Y234477D01*
X521558Y234353D01*
X521533Y234229D01*
X521512Y234104D01*
X521494Y233978D01*
X521481Y233852D01*
X521471Y233726D01*
X521465Y233599D01*
X521463Y233472D01*
X521465Y233345D01*
X521471Y233218D01*
X521481Y233092D01*
X521494Y232966D01*
X521512Y232840D01*
X521533Y232715D01*
X521558Y232591D01*
X521587Y232467D01*
X521620Y232345D01*
X521657Y232223D01*
X521697Y232103D01*
X521741Y231984D01*
X521789Y231866D01*
X521840Y231750D01*
X521895Y231636D01*
X521953Y231523D01*
X522015Y231412D01*
X522080Y231303D01*
X522149Y231196D01*
X522220Y231092D01*
X522295Y230989D01*
X522373Y230889D01*
X522454Y230791D01*
X522538Y230696D01*
X522625Y230604D01*
X522715Y230514D01*
X522807Y230427D01*
X522902Y230343D01*
X523000Y230262D01*
X523100Y230184D01*
X523203Y230109D01*
X523307Y230038D01*
X523414Y229969D01*
X523523Y229904D01*
X523634Y229842D01*
X523747Y229784D01*
X523861Y229729D01*
X523977Y229678D01*
X524095Y229630D01*
X524214Y229586D01*
X524334Y229546D01*
X524456Y229509D01*
X524578Y229476D01*
X524702Y229447D01*
X524826Y229422D01*
X524951Y229401D01*
X525077Y229383D01*
X525203Y229370D01*
X525329Y229360D01*
X525456Y229354D01*
X525583Y229352D01*
X497682Y219050D02*
X497555Y219052D01*
X497428Y219058D01*
X497302Y219068D01*
X497176Y219081D01*
X497050Y219099D01*
X496925Y219120D01*
X496801Y219145D01*
X496677Y219174D01*
X496555Y219207D01*
X496433Y219244D01*
X496313Y219284D01*
X496194Y219328D01*
X496076Y219376D01*
X495960Y219427D01*
X495846Y219482D01*
X495733Y219540D01*
X495622Y219602D01*
X495513Y219667D01*
X495406Y219736D01*
X495302Y219807D01*
X495199Y219882D01*
X495099Y219960D01*
X495001Y220041D01*
X494906Y220125D01*
X494814Y220212D01*
X494724Y220302D01*
X494637Y220394D01*
X494553Y220489D01*
X494472Y220587D01*
X494394Y220687D01*
X494319Y220790D01*
X494248Y220894D01*
X494179Y221001D01*
X494114Y221110D01*
X494052Y221221D01*
X493994Y221334D01*
X493939Y221448D01*
X493888Y221564D01*
X493840Y221682D01*
X493796Y221801D01*
X493756Y221921D01*
X493719Y222043D01*
X493686Y222165D01*
X493657Y222289D01*
X493632Y222413D01*
X493611Y222538D01*
X493593Y222664D01*
X493580Y222790D01*
X493570Y222916D01*
X493564Y223043D01*
X493562Y223170D01*
X497682Y219050D02*
X497890Y219052D01*
X498098Y219060D01*
X498306Y219072D01*
X498514Y219090D01*
X498721Y219112D01*
X498927Y219140D01*
X499133Y219172D01*
X499338Y219209D01*
X499542Y219251D01*
X499745Y219298D01*
X499946Y219350D01*
X500147Y219406D01*
X500346Y219468D01*
X500543Y219534D01*
X500739Y219605D01*
X500933Y219680D01*
X501126Y219760D01*
X501316Y219845D01*
X501504Y219934D01*
X501690Y220028D01*
X501874Y220126D01*
X502055Y220228D01*
X502234Y220335D01*
X502410Y220446D01*
X502583Y220561D01*
X502754Y220681D01*
X502922Y220804D01*
X503087Y220931D01*
X503248Y221063D01*
X503407Y221198D01*
X503562Y221337D01*
X503714Y221479D01*
X503862Y221625D01*
X503347Y233472D02*
X503345Y233599D01*
X503339Y233726D01*
X503329Y233852D01*
X503316Y233978D01*
X503298Y234104D01*
X503277Y234229D01*
X503252Y234353D01*
X503223Y234477D01*
X503190Y234599D01*
X503153Y234721D01*
X503113Y234841D01*
X503069Y234960D01*
X503021Y235078D01*
X502970Y235194D01*
X502915Y235308D01*
X502857Y235421D01*
X502795Y235532D01*
X502730Y235641D01*
X502661Y235748D01*
X502590Y235852D01*
X502515Y235955D01*
X502437Y236055D01*
X502356Y236153D01*
X502272Y236248D01*
X502185Y236340D01*
X502095Y236430D01*
X502003Y236517D01*
X501908Y236601D01*
X501810Y236682D01*
X501710Y236760D01*
X501607Y236835D01*
X501503Y236906D01*
X501396Y236975D01*
X501287Y237040D01*
X501176Y237102D01*
X501063Y237160D01*
X500949Y237215D01*
X500833Y237266D01*
X500715Y237314D01*
X500596Y237358D01*
X500476Y237398D01*
X500354Y237435D01*
X500232Y237468D01*
X500108Y237497D01*
X499984Y237522D01*
X499859Y237543D01*
X499733Y237561D01*
X499607Y237574D01*
X499481Y237584D01*
X499354Y237590D01*
X499227Y237592D01*
X499043Y237590D01*
X498859Y237583D01*
X498675Y237572D01*
X498492Y237557D01*
X498308Y237537D01*
X498126Y237513D01*
X497944Y237485D01*
X497763Y237452D01*
X497582Y237415D01*
X497403Y237374D01*
X497225Y237328D01*
X497047Y237278D01*
X496871Y237224D01*
X496697Y237166D01*
X496523Y237104D01*
X496352Y237037D01*
X496182Y236966D01*
X496013Y236892D01*
X495847Y236813D01*
X495682Y236731D01*
X495520Y236644D01*
X495359Y236554D01*
X495201Y236460D01*
X495045Y236362D01*
X494891Y236261D01*
X494740Y236155D01*
X494591Y236047D01*
X501288Y229866D02*
X501397Y229933D01*
X501504Y230003D01*
X501609Y230076D01*
X501711Y230152D01*
X501811Y230232D01*
X501909Y230314D01*
X502004Y230399D01*
X502097Y230487D01*
X502186Y230578D01*
X502273Y230672D01*
X502357Y230768D01*
X502439Y230867D01*
X502517Y230968D01*
X502591Y231072D01*
X502663Y231178D01*
X502732Y231286D01*
X502797Y231396D01*
X502858Y231508D01*
X502917Y231621D01*
X502971Y231737D01*
X503023Y231854D01*
X503070Y231972D01*
X503114Y232092D01*
X503154Y232214D01*
X503191Y232336D01*
X503224Y232460D01*
X503253Y232584D01*
X503278Y232709D01*
X503299Y232835D01*
X503317Y232962D01*
X503330Y233089D01*
X503340Y233217D01*
X503346Y233344D01*
X503348Y233472D01*
X495621Y226776D02*
X495512Y226709D01*
X495405Y226639D01*
X495300Y226566D01*
X495198Y226490D01*
X495098Y226410D01*
X495000Y226328D01*
X494905Y226243D01*
X494812Y226155D01*
X494723Y226064D01*
X494636Y225970D01*
X494552Y225874D01*
X494470Y225775D01*
X494392Y225674D01*
X494318Y225570D01*
X494246Y225464D01*
X494178Y225356D01*
X494112Y225246D01*
X494051Y225134D01*
X493992Y225021D01*
X493938Y224905D01*
X493886Y224788D01*
X493839Y224670D01*
X493795Y224550D01*
X493755Y224428D01*
X493718Y224306D01*
X493685Y224182D01*
X493656Y224058D01*
X493631Y223933D01*
X493610Y223807D01*
X493592Y223680D01*
X493579Y223553D01*
X493569Y223425D01*
X493563Y223298D01*
X493561Y223170D01*
X495622Y226776D02*
X501287Y229866D01*
X486561Y237592D02*
X482440Y219050D01*
X478320Y231411D01*
X474199Y219050D01*
X470079Y237592D01*
X461017Y237592D02*
X461017Y219050D01*
X458957Y219050D02*
X463078Y219050D01*
X463078Y237592D02*
X458957Y237592D01*
X447423Y237592D02*
X447423Y219050D01*
X452573Y237592D02*
X442272Y237592D01*
X431205Y219050D02*
X427085Y219050D01*
X431205Y219050D02*
X431332Y219052D01*
X431459Y219058D01*
X431585Y219068D01*
X431711Y219081D01*
X431837Y219099D01*
X431962Y219120D01*
X432086Y219145D01*
X432210Y219174D01*
X432332Y219207D01*
X432454Y219244D01*
X432574Y219284D01*
X432693Y219328D01*
X432811Y219376D01*
X432927Y219427D01*
X433041Y219482D01*
X433154Y219540D01*
X433265Y219602D01*
X433374Y219667D01*
X433481Y219736D01*
X433585Y219807D01*
X433688Y219882D01*
X433788Y219960D01*
X433886Y220041D01*
X433981Y220125D01*
X434073Y220212D01*
X434163Y220302D01*
X434250Y220394D01*
X434334Y220489D01*
X434415Y220587D01*
X434493Y220687D01*
X434568Y220790D01*
X434639Y220894D01*
X434708Y221001D01*
X434773Y221110D01*
X434835Y221221D01*
X434893Y221334D01*
X434948Y221448D01*
X434999Y221564D01*
X435047Y221682D01*
X435091Y221801D01*
X435131Y221921D01*
X435168Y222043D01*
X435201Y222165D01*
X435230Y222289D01*
X435255Y222413D01*
X435276Y222538D01*
X435294Y222664D01*
X435307Y222790D01*
X435317Y222916D01*
X435323Y223043D01*
X435325Y223170D01*
X435326Y223170D02*
X435326Y233472D01*
X435325Y233472D02*
X435323Y233599D01*
X435317Y233726D01*
X435307Y233852D01*
X435294Y233978D01*
X435276Y234104D01*
X435255Y234229D01*
X435230Y234353D01*
X435201Y234477D01*
X435168Y234599D01*
X435131Y234721D01*
X435091Y234841D01*
X435047Y234960D01*
X434999Y235078D01*
X434948Y235194D01*
X434893Y235308D01*
X434835Y235421D01*
X434773Y235532D01*
X434708Y235641D01*
X434639Y235748D01*
X434568Y235852D01*
X434493Y235955D01*
X434415Y236055D01*
X434334Y236153D01*
X434250Y236248D01*
X434163Y236340D01*
X434073Y236430D01*
X433981Y236517D01*
X433886Y236601D01*
X433788Y236682D01*
X433688Y236760D01*
X433585Y236835D01*
X433481Y236906D01*
X433374Y236975D01*
X433265Y237040D01*
X433154Y237102D01*
X433041Y237160D01*
X432927Y237215D01*
X432811Y237266D01*
X432693Y237314D01*
X432574Y237358D01*
X432454Y237398D01*
X432332Y237435D01*
X432210Y237468D01*
X432086Y237497D01*
X431962Y237522D01*
X431837Y237543D01*
X431711Y237561D01*
X431585Y237574D01*
X431459Y237584D01*
X431332Y237590D01*
X431205Y237592D01*
X427085Y237592D01*
X419204Y237592D02*
X419204Y219050D01*
X419204Y229351D02*
X408903Y229351D01*
X408903Y237592D02*
X408903Y219050D01*
D11*
X680000Y0D02*
X0Y0D01*
X680000Y0D02*
X680000Y250000D01*
X0Y250000D01*
X0Y0D01*
D12*
X248821Y201549D02*
X252984Y198219D01*
X248821Y201549D02*
X248821Y186563D01*
X252984Y186563D02*
X244658Y186563D01*
X209924Y216409D02*
X209804Y216407D01*
X209684Y216401D01*
X209564Y216392D01*
X209445Y216378D01*
X209326Y216361D01*
X209208Y216340D01*
X209090Y216315D01*
X208974Y216286D01*
X208858Y216254D01*
X208743Y216218D01*
X208630Y216178D01*
X208518Y216135D01*
X208407Y216088D01*
X208298Y216038D01*
X208191Y215984D01*
X208085Y215927D01*
X207982Y215866D01*
X207880Y215802D01*
X207780Y215735D01*
X207683Y215665D01*
X207588Y215592D01*
X207495Y215515D01*
X207405Y215436D01*
X207317Y215354D01*
X207232Y215269D01*
X207150Y215181D01*
X207071Y215091D01*
X206994Y214998D01*
X206921Y214903D01*
X206851Y214806D01*
X206784Y214706D01*
X206720Y214604D01*
X206659Y214501D01*
X206602Y214395D01*
X206548Y214288D01*
X206498Y214179D01*
X206451Y214068D01*
X206408Y213956D01*
X206368Y213843D01*
X206332Y213728D01*
X206300Y213612D01*
X206271Y213496D01*
X206246Y213378D01*
X206225Y213260D01*
X206208Y213141D01*
X206194Y213022D01*
X206185Y212902D01*
X206179Y212782D01*
X206177Y212662D01*
X209924Y216408D02*
X210062Y216406D01*
X210199Y216400D01*
X210336Y216390D01*
X210473Y216377D01*
X210609Y216359D01*
X210745Y216337D01*
X210881Y216312D01*
X211015Y216283D01*
X211148Y216250D01*
X211281Y216213D01*
X211412Y216172D01*
X211543Y216128D01*
X211671Y216080D01*
X211799Y216028D01*
X211925Y215972D01*
X212049Y215913D01*
X212172Y215851D01*
X212292Y215785D01*
X212411Y215716D01*
X212528Y215643D01*
X212643Y215567D01*
X212755Y215487D01*
X212865Y215405D01*
X212973Y215319D01*
X213078Y215231D01*
X213180Y215139D01*
X213280Y215045D01*
X213378Y214947D01*
X213472Y214847D01*
X213564Y214744D01*
X213652Y214639D01*
X213737Y214531D01*
X213820Y214421D01*
X213899Y214309D01*
X213975Y214194D01*
X214048Y214077D01*
X214117Y213958D01*
X214183Y213838D01*
X214245Y213715D01*
X214304Y213591D01*
X214359Y213465D01*
X214411Y213337D01*
X214459Y213208D01*
X214503Y213078D01*
X207427Y209748D02*
X207337Y209836D01*
X207251Y209927D01*
X207167Y210020D01*
X207086Y210116D01*
X207008Y210214D01*
X206934Y210314D01*
X206862Y210417D01*
X206794Y210522D01*
X206729Y210630D01*
X206667Y210739D01*
X206609Y210850D01*
X206554Y210963D01*
X206503Y211077D01*
X206456Y211193D01*
X206412Y211310D01*
X206372Y211429D01*
X206335Y211549D01*
X206302Y211670D01*
X206273Y211792D01*
X206248Y211914D01*
X206227Y212038D01*
X206209Y212162D01*
X206196Y212287D01*
X206186Y212412D01*
X206180Y212537D01*
X206178Y212662D01*
X207426Y209748D02*
X214503Y201422D01*
X206177Y201422D01*
X176403Y204752D02*
X173073Y216408D01*
X176403Y204752D02*
X168077Y204752D01*
X170575Y208082D02*
X170575Y201422D01*
X137414Y190599D02*
X137412Y190727D01*
X137406Y190855D01*
X137396Y190983D01*
X137382Y191111D01*
X137365Y191238D01*
X137343Y191364D01*
X137318Y191490D01*
X137288Y191614D01*
X137255Y191738D01*
X137218Y191861D01*
X137177Y191983D01*
X137133Y192103D01*
X137085Y192222D01*
X137033Y192339D01*
X136978Y192455D01*
X136919Y192568D01*
X136856Y192681D01*
X136790Y192791D01*
X136721Y192898D01*
X136649Y193004D01*
X136573Y193108D01*
X136494Y193209D01*
X136412Y193308D01*
X136327Y193404D01*
X136240Y193497D01*
X136149Y193588D01*
X136056Y193675D01*
X135960Y193760D01*
X135861Y193842D01*
X135760Y193921D01*
X135656Y193997D01*
X135550Y194069D01*
X135443Y194138D01*
X135333Y194204D01*
X135220Y194267D01*
X135107Y194326D01*
X134991Y194381D01*
X134874Y194433D01*
X134755Y194481D01*
X134635Y194525D01*
X134513Y194566D01*
X134390Y194603D01*
X134266Y194636D01*
X134142Y194666D01*
X134016Y194691D01*
X133890Y194713D01*
X133763Y194730D01*
X133635Y194744D01*
X133507Y194754D01*
X133379Y194760D01*
X133251Y194762D01*
X133123Y194760D01*
X132995Y194754D01*
X132867Y194744D01*
X132739Y194730D01*
X132612Y194713D01*
X132486Y194691D01*
X132360Y194666D01*
X132236Y194636D01*
X132112Y194603D01*
X131989Y194566D01*
X131867Y194525D01*
X131747Y194481D01*
X131628Y194433D01*
X131511Y194381D01*
X131395Y194326D01*
X131282Y194267D01*
X131170Y194204D01*
X131059Y194138D01*
X130952Y194069D01*
X130846Y193997D01*
X130742Y193921D01*
X130641Y193842D01*
X130542Y193760D01*
X130446Y193675D01*
X130353Y193588D01*
X130262Y193497D01*
X130175Y193404D01*
X130090Y193308D01*
X130008Y193209D01*
X129929Y193108D01*
X129853Y193004D01*
X129781Y192898D01*
X129712Y192791D01*
X129646Y192681D01*
X129583Y192568D01*
X129524Y192455D01*
X129469Y192339D01*
X129417Y192222D01*
X129369Y192103D01*
X129325Y191983D01*
X129284Y191861D01*
X129247Y191738D01*
X129214Y191614D01*
X129184Y191490D01*
X129159Y191364D01*
X129137Y191238D01*
X129120Y191111D01*
X129106Y190983D01*
X129096Y190855D01*
X129090Y190727D01*
X129088Y190599D01*
X129090Y190471D01*
X129096Y190343D01*
X129106Y190215D01*
X129120Y190087D01*
X129137Y189960D01*
X129159Y189834D01*
X129184Y189708D01*
X129214Y189584D01*
X129247Y189460D01*
X129284Y189337D01*
X129325Y189215D01*
X129369Y189095D01*
X129417Y188976D01*
X129469Y188859D01*
X129524Y188743D01*
X129583Y188630D01*
X129646Y188518D01*
X129712Y188407D01*
X129781Y188300D01*
X129853Y188194D01*
X129929Y188090D01*
X130008Y187989D01*
X130090Y187890D01*
X130175Y187794D01*
X130262Y187701D01*
X130353Y187610D01*
X130446Y187523D01*
X130542Y187438D01*
X130641Y187356D01*
X130742Y187277D01*
X130846Y187201D01*
X130952Y187129D01*
X131059Y187060D01*
X131170Y186994D01*
X131282Y186931D01*
X131395Y186872D01*
X131511Y186817D01*
X131628Y186765D01*
X131747Y186717D01*
X131867Y186673D01*
X131989Y186632D01*
X132112Y186595D01*
X132236Y186562D01*
X132360Y186532D01*
X132486Y186507D01*
X132612Y186485D01*
X132739Y186468D01*
X132867Y186454D01*
X132995Y186444D01*
X133123Y186438D01*
X133251Y186436D01*
X133379Y186438D01*
X133507Y186444D01*
X133635Y186454D01*
X133763Y186468D01*
X133890Y186485D01*
X134016Y186507D01*
X134142Y186532D01*
X134266Y186562D01*
X134390Y186595D01*
X134513Y186632D01*
X134635Y186673D01*
X134755Y186717D01*
X134874Y186765D01*
X134991Y186817D01*
X135107Y186872D01*
X135220Y186931D01*
X135332Y186994D01*
X135443Y187060D01*
X135550Y187129D01*
X135656Y187201D01*
X135760Y187277D01*
X135861Y187356D01*
X135960Y187438D01*
X136056Y187523D01*
X136149Y187610D01*
X136240Y187701D01*
X136327Y187794D01*
X136412Y187890D01*
X136494Y187989D01*
X136573Y188090D01*
X136649Y188194D01*
X136721Y188300D01*
X136790Y188407D01*
X136856Y188517D01*
X136919Y188630D01*
X136978Y188743D01*
X137033Y188859D01*
X137085Y188976D01*
X137133Y189095D01*
X137177Y189215D01*
X137218Y189337D01*
X137255Y189460D01*
X137288Y189584D01*
X137318Y189708D01*
X137343Y189834D01*
X137365Y189960D01*
X137382Y190087D01*
X137396Y190215D01*
X137406Y190343D01*
X137412Y190471D01*
X137414Y190599D01*
X136581Y198092D02*
X136579Y198206D01*
X136573Y198319D01*
X136564Y198433D01*
X136550Y198545D01*
X136533Y198658D01*
X136511Y198770D01*
X136486Y198880D01*
X136458Y198990D01*
X136425Y199099D01*
X136389Y199207D01*
X136349Y199314D01*
X136305Y199419D01*
X136258Y199522D01*
X136208Y199624D01*
X136154Y199724D01*
X136096Y199822D01*
X136035Y199918D01*
X135972Y200012D01*
X135904Y200104D01*
X135834Y200194D01*
X135761Y200280D01*
X135685Y200365D01*
X135606Y200447D01*
X135524Y200526D01*
X135439Y200602D01*
X135353Y200675D01*
X135263Y200745D01*
X135171Y200813D01*
X135077Y200876D01*
X134981Y200937D01*
X134883Y200995D01*
X134783Y201049D01*
X134681Y201099D01*
X134578Y201146D01*
X134473Y201190D01*
X134366Y201230D01*
X134258Y201266D01*
X134149Y201299D01*
X134039Y201327D01*
X133929Y201352D01*
X133817Y201374D01*
X133704Y201391D01*
X133592Y201405D01*
X133478Y201414D01*
X133365Y201420D01*
X133251Y201422D01*
X133137Y201420D01*
X133024Y201414D01*
X132910Y201405D01*
X132798Y201391D01*
X132685Y201374D01*
X132573Y201352D01*
X132463Y201327D01*
X132353Y201299D01*
X132244Y201266D01*
X132136Y201230D01*
X132029Y201190D01*
X131924Y201146D01*
X131821Y201099D01*
X131719Y201049D01*
X131619Y200995D01*
X131521Y200937D01*
X131425Y200876D01*
X131331Y200813D01*
X131239Y200745D01*
X131149Y200675D01*
X131063Y200602D01*
X130978Y200526D01*
X130896Y200447D01*
X130817Y200365D01*
X130741Y200280D01*
X130668Y200194D01*
X130598Y200104D01*
X130530Y200012D01*
X130467Y199918D01*
X130406Y199822D01*
X130348Y199724D01*
X130294Y199624D01*
X130244Y199522D01*
X130197Y199419D01*
X130153Y199314D01*
X130113Y199207D01*
X130077Y199099D01*
X130044Y198990D01*
X130016Y198880D01*
X129991Y198770D01*
X129969Y198658D01*
X129952Y198545D01*
X129938Y198433D01*
X129929Y198319D01*
X129923Y198206D01*
X129921Y198092D01*
X129923Y197978D01*
X129929Y197865D01*
X129938Y197751D01*
X129952Y197639D01*
X129969Y197526D01*
X129991Y197414D01*
X130016Y197304D01*
X130044Y197194D01*
X130077Y197085D01*
X130113Y196977D01*
X130153Y196870D01*
X130197Y196765D01*
X130244Y196662D01*
X130294Y196560D01*
X130348Y196460D01*
X130406Y196362D01*
X130467Y196266D01*
X130530Y196172D01*
X130598Y196080D01*
X130668Y195990D01*
X130741Y195904D01*
X130817Y195819D01*
X130896Y195737D01*
X130978Y195658D01*
X131063Y195582D01*
X131149Y195509D01*
X131239Y195439D01*
X131331Y195371D01*
X131425Y195308D01*
X131521Y195247D01*
X131619Y195189D01*
X131719Y195135D01*
X131821Y195085D01*
X131924Y195038D01*
X132029Y194994D01*
X132136Y194954D01*
X132244Y194918D01*
X132353Y194885D01*
X132463Y194857D01*
X132573Y194832D01*
X132685Y194810D01*
X132798Y194793D01*
X132910Y194779D01*
X133024Y194770D01*
X133137Y194764D01*
X133251Y194762D01*
X133365Y194764D01*
X133478Y194770D01*
X133592Y194779D01*
X133704Y194793D01*
X133817Y194810D01*
X133929Y194832D01*
X134039Y194857D01*
X134149Y194885D01*
X134258Y194918D01*
X134366Y194954D01*
X134473Y194994D01*
X134578Y195038D01*
X134681Y195085D01*
X134783Y195135D01*
X134883Y195189D01*
X134981Y195247D01*
X135077Y195308D01*
X135171Y195371D01*
X135263Y195439D01*
X135353Y195509D01*
X135439Y195582D01*
X135524Y195658D01*
X135606Y195737D01*
X135685Y195819D01*
X135761Y195904D01*
X135834Y195990D01*
X135904Y196080D01*
X135972Y196172D01*
X136035Y196266D01*
X136096Y196362D01*
X136154Y196460D01*
X136208Y196560D01*
X136258Y196662D01*
X136305Y196765D01*
X136349Y196870D01*
X136389Y196977D01*
X136425Y197085D01*
X136458Y197194D01*
X136486Y197304D01*
X136511Y197414D01*
X136533Y197526D01*
X136550Y197639D01*
X136564Y197751D01*
X136573Y197865D01*
X136579Y197978D01*
X136581Y198092D01*
X22923Y64790D02*
X22923Y60628D01*
X22923Y64790D02*
X22921Y64918D01*
X22915Y65046D01*
X22905Y65174D01*
X22891Y65302D01*
X22874Y65429D01*
X22852Y65555D01*
X22827Y65681D01*
X22797Y65805D01*
X22764Y65929D01*
X22727Y66052D01*
X22686Y66174D01*
X22642Y66294D01*
X22594Y66413D01*
X22542Y66530D01*
X22487Y66646D01*
X22428Y66759D01*
X22365Y66872D01*
X22299Y66982D01*
X22230Y67089D01*
X22158Y67195D01*
X22082Y67299D01*
X22003Y67400D01*
X21921Y67499D01*
X21836Y67595D01*
X21749Y67688D01*
X21658Y67779D01*
X21565Y67866D01*
X21469Y67951D01*
X21370Y68033D01*
X21269Y68112D01*
X21165Y68188D01*
X21059Y68260D01*
X20952Y68329D01*
X20842Y68395D01*
X20729Y68458D01*
X20616Y68517D01*
X20500Y68572D01*
X20383Y68624D01*
X20264Y68672D01*
X20144Y68716D01*
X20022Y68757D01*
X19899Y68794D01*
X19775Y68827D01*
X19651Y68857D01*
X19525Y68882D01*
X19399Y68904D01*
X19272Y68921D01*
X19144Y68935D01*
X19016Y68945D01*
X18888Y68951D01*
X18760Y68953D01*
X18632Y68951D01*
X18504Y68945D01*
X18376Y68935D01*
X18248Y68921D01*
X18121Y68904D01*
X17995Y68882D01*
X17869Y68857D01*
X17745Y68827D01*
X17621Y68794D01*
X17498Y68757D01*
X17376Y68716D01*
X17256Y68672D01*
X17137Y68624D01*
X17020Y68572D01*
X16904Y68517D01*
X16791Y68458D01*
X16679Y68395D01*
X16568Y68329D01*
X16461Y68260D01*
X16355Y68188D01*
X16251Y68112D01*
X16150Y68033D01*
X16051Y67951D01*
X15955Y67866D01*
X15862Y67779D01*
X15771Y67688D01*
X15684Y67595D01*
X15599Y67499D01*
X15517Y67400D01*
X15438Y67299D01*
X15362Y67195D01*
X15290Y67089D01*
X15221Y66982D01*
X15155Y66872D01*
X15092Y66759D01*
X15033Y66646D01*
X14978Y66530D01*
X14926Y66413D01*
X14878Y66294D01*
X14834Y66174D01*
X14793Y66052D01*
X14756Y65929D01*
X14723Y65805D01*
X14693Y65681D01*
X14668Y65555D01*
X14646Y65429D01*
X14629Y65302D01*
X14615Y65174D01*
X14605Y65046D01*
X14599Y64918D01*
X14597Y64790D01*
X14598Y64790D02*
X14598Y60628D01*
X29584Y60628D01*
X29584Y64790D01*
X29583Y64790D02*
X29581Y64904D01*
X29575Y65017D01*
X29566Y65131D01*
X29552Y65243D01*
X29535Y65356D01*
X29513Y65468D01*
X29488Y65578D01*
X29460Y65688D01*
X29427Y65797D01*
X29391Y65905D01*
X29351Y66012D01*
X29307Y66117D01*
X29260Y66220D01*
X29210Y66322D01*
X29156Y66422D01*
X29098Y66520D01*
X29037Y66616D01*
X28974Y66710D01*
X28906Y66802D01*
X28836Y66892D01*
X28763Y66978D01*
X28687Y67063D01*
X28608Y67145D01*
X28526Y67224D01*
X28441Y67300D01*
X28355Y67373D01*
X28265Y67443D01*
X28173Y67511D01*
X28079Y67574D01*
X27983Y67635D01*
X27885Y67693D01*
X27785Y67747D01*
X27683Y67797D01*
X27580Y67844D01*
X27475Y67888D01*
X27368Y67928D01*
X27260Y67964D01*
X27151Y67997D01*
X27041Y68025D01*
X26931Y68050D01*
X26819Y68072D01*
X26706Y68089D01*
X26594Y68103D01*
X26480Y68112D01*
X26367Y68118D01*
X26253Y68120D01*
X26139Y68118D01*
X26026Y68112D01*
X25912Y68103D01*
X25800Y68089D01*
X25687Y68072D01*
X25575Y68050D01*
X25465Y68025D01*
X25355Y67997D01*
X25246Y67964D01*
X25138Y67928D01*
X25031Y67888D01*
X24926Y67844D01*
X24823Y67797D01*
X24721Y67747D01*
X24621Y67693D01*
X24523Y67635D01*
X24427Y67574D01*
X24333Y67511D01*
X24241Y67443D01*
X24151Y67373D01*
X24065Y67300D01*
X23980Y67224D01*
X23898Y67145D01*
X23819Y67063D01*
X23743Y66978D01*
X23670Y66892D01*
X23600Y66802D01*
X23532Y66710D01*
X23469Y66616D01*
X23408Y66520D01*
X23350Y66422D01*
X23296Y66322D01*
X23246Y66220D01*
X23199Y66117D01*
X23155Y66012D01*
X23115Y65905D01*
X23079Y65797D01*
X23046Y65688D01*
X23018Y65578D01*
X22993Y65468D01*
X22971Y65356D01*
X22954Y65243D01*
X22940Y65131D01*
X22931Y65017D01*
X22925Y64904D01*
X22923Y64790D01*
X24588Y74893D02*
X14598Y74893D01*
X28751Y74477D02*
X29584Y74477D01*
X29584Y75309D01*
X28751Y75309D01*
X28751Y74477D01*
X24588Y81984D02*
X14598Y81984D01*
X24588Y81984D02*
X24588Y86146D01*
X24586Y86244D01*
X24580Y86342D01*
X24571Y86440D01*
X24557Y86537D01*
X24540Y86633D01*
X24519Y86729D01*
X24494Y86824D01*
X24466Y86918D01*
X24434Y87011D01*
X24398Y87102D01*
X24359Y87192D01*
X24316Y87280D01*
X24270Y87367D01*
X24220Y87451D01*
X24167Y87534D01*
X24111Y87614D01*
X24052Y87692D01*
X23990Y87768D01*
X23924Y87842D01*
X23856Y87912D01*
X23786Y87980D01*
X23712Y88045D01*
X23637Y88108D01*
X23558Y88167D01*
X23478Y88223D01*
X23395Y88276D01*
X23311Y88325D01*
X23224Y88372D01*
X23136Y88415D01*
X23046Y88454D01*
X22955Y88490D01*
X22862Y88522D01*
X22768Y88550D01*
X22673Y88575D01*
X22577Y88596D01*
X22481Y88613D01*
X22384Y88627D01*
X22286Y88636D01*
X22188Y88642D01*
X22090Y88644D01*
X22091Y88644D02*
X14598Y88644D01*
X20425Y98855D02*
X20425Y102602D01*
X20425Y98855D02*
X20423Y98749D01*
X20417Y98642D01*
X20408Y98536D01*
X20394Y98431D01*
X20377Y98326D01*
X20355Y98221D01*
X20330Y98118D01*
X20301Y98015D01*
X20269Y97914D01*
X20233Y97814D01*
X20193Y97715D01*
X20149Y97618D01*
X20103Y97523D01*
X20052Y97429D01*
X19998Y97337D01*
X19941Y97247D01*
X19881Y97159D01*
X19817Y97074D01*
X19751Y96991D01*
X19681Y96910D01*
X19609Y96832D01*
X19534Y96757D01*
X19456Y96685D01*
X19375Y96615D01*
X19292Y96549D01*
X19207Y96485D01*
X19119Y96425D01*
X19029Y96368D01*
X18937Y96314D01*
X18843Y96263D01*
X18748Y96217D01*
X18651Y96173D01*
X18552Y96133D01*
X18452Y96097D01*
X18351Y96065D01*
X18248Y96036D01*
X18145Y96011D01*
X18040Y95989D01*
X17935Y95972D01*
X17830Y95958D01*
X17724Y95949D01*
X17617Y95943D01*
X17511Y95941D01*
X17405Y95943D01*
X17298Y95949D01*
X17192Y95958D01*
X17087Y95972D01*
X16982Y95989D01*
X16877Y96011D01*
X16774Y96036D01*
X16671Y96065D01*
X16570Y96097D01*
X16470Y96133D01*
X16371Y96173D01*
X16274Y96217D01*
X16179Y96263D01*
X16085Y96314D01*
X15993Y96368D01*
X15903Y96425D01*
X15815Y96485D01*
X15730Y96549D01*
X15647Y96615D01*
X15566Y96685D01*
X15488Y96757D01*
X15413Y96832D01*
X15341Y96910D01*
X15271Y96991D01*
X15205Y97074D01*
X15141Y97159D01*
X15081Y97247D01*
X15024Y97337D01*
X14970Y97429D01*
X14919Y97523D01*
X14873Y97618D01*
X14829Y97715D01*
X14789Y97814D01*
X14753Y97914D01*
X14721Y98015D01*
X14692Y98118D01*
X14667Y98221D01*
X14645Y98326D01*
X14628Y98431D01*
X14614Y98536D01*
X14605Y98642D01*
X14599Y98749D01*
X14597Y98855D01*
X14598Y98855D02*
X14598Y102602D01*
X22091Y102602D01*
X22189Y102600D01*
X22287Y102594D01*
X22385Y102585D01*
X22482Y102571D01*
X22578Y102554D01*
X22674Y102533D01*
X22769Y102508D01*
X22863Y102480D01*
X22956Y102448D01*
X23047Y102412D01*
X23137Y102373D01*
X23225Y102330D01*
X23312Y102283D01*
X23396Y102234D01*
X23479Y102181D01*
X23559Y102125D01*
X23638Y102066D01*
X23713Y102003D01*
X23787Y101938D01*
X23857Y101870D01*
X23925Y101800D01*
X23991Y101726D01*
X24053Y101650D01*
X24112Y101572D01*
X24168Y101492D01*
X24221Y101409D01*
X24271Y101325D01*
X24317Y101238D01*
X24360Y101150D01*
X24399Y101060D01*
X24435Y100969D01*
X24467Y100876D01*
X24495Y100782D01*
X24520Y100687D01*
X24541Y100591D01*
X24558Y100495D01*
X24572Y100398D01*
X24581Y100300D01*
X24587Y100202D01*
X24589Y100104D01*
X24588Y100104D02*
X24588Y96774D01*
X24588Y110769D02*
X14598Y110769D01*
X24588Y110769D02*
X24588Y115764D01*
X22923Y115764D01*
X9602Y120541D02*
X9602Y122206D01*
X24588Y127201D01*
X24588Y120541D02*
X14598Y123871D01*
X14598Y142843D02*
X24588Y142843D01*
X24588Y150336D01*
X24589Y150336D02*
X24587Y150434D01*
X24581Y150532D01*
X24572Y150630D01*
X24558Y150727D01*
X24541Y150823D01*
X24520Y150919D01*
X24495Y151014D01*
X24467Y151108D01*
X24435Y151201D01*
X24399Y151292D01*
X24360Y151382D01*
X24317Y151470D01*
X24270Y151557D01*
X24221Y151641D01*
X24168Y151724D01*
X24112Y151804D01*
X24053Y151882D01*
X23990Y151958D01*
X23925Y152032D01*
X23857Y152102D01*
X23787Y152170D01*
X23713Y152235D01*
X23637Y152298D01*
X23559Y152357D01*
X23479Y152413D01*
X23396Y152466D01*
X23312Y152515D01*
X23225Y152562D01*
X23137Y152605D01*
X23047Y152644D01*
X22956Y152680D01*
X22863Y152712D01*
X22769Y152740D01*
X22674Y152765D01*
X22578Y152786D01*
X22482Y152803D01*
X22385Y152817D01*
X22287Y152826D01*
X22189Y152832D01*
X22091Y152834D01*
X14598Y152834D01*
X14598Y147839D02*
X24588Y147839D01*
X21258Y160661D02*
X17928Y160661D01*
X21258Y160661D02*
X21372Y160663D01*
X21485Y160669D01*
X21599Y160678D01*
X21711Y160692D01*
X21824Y160709D01*
X21936Y160731D01*
X22046Y160756D01*
X22156Y160784D01*
X22265Y160817D01*
X22373Y160853D01*
X22480Y160893D01*
X22585Y160937D01*
X22688Y160984D01*
X22790Y161034D01*
X22890Y161088D01*
X22988Y161146D01*
X23084Y161207D01*
X23178Y161270D01*
X23270Y161338D01*
X23360Y161408D01*
X23446Y161481D01*
X23531Y161557D01*
X23613Y161636D01*
X23692Y161718D01*
X23768Y161803D01*
X23841Y161889D01*
X23911Y161979D01*
X23979Y162071D01*
X24042Y162165D01*
X24103Y162261D01*
X24161Y162359D01*
X24215Y162459D01*
X24265Y162561D01*
X24312Y162664D01*
X24356Y162769D01*
X24396Y162876D01*
X24432Y162984D01*
X24465Y163093D01*
X24493Y163203D01*
X24518Y163313D01*
X24540Y163425D01*
X24557Y163538D01*
X24571Y163650D01*
X24580Y163764D01*
X24586Y163877D01*
X24588Y163991D01*
X24586Y164105D01*
X24580Y164218D01*
X24571Y164332D01*
X24557Y164444D01*
X24540Y164557D01*
X24518Y164669D01*
X24493Y164779D01*
X24465Y164889D01*
X24432Y164998D01*
X24396Y165106D01*
X24356Y165213D01*
X24312Y165318D01*
X24265Y165421D01*
X24215Y165523D01*
X24161Y165623D01*
X24103Y165721D01*
X24042Y165817D01*
X23979Y165911D01*
X23911Y166003D01*
X23841Y166093D01*
X23768Y166179D01*
X23692Y166264D01*
X23613Y166346D01*
X23531Y166425D01*
X23446Y166501D01*
X23360Y166574D01*
X23270Y166644D01*
X23178Y166712D01*
X23084Y166775D01*
X22988Y166836D01*
X22890Y166894D01*
X22790Y166948D01*
X22688Y166998D01*
X22585Y167045D01*
X22480Y167089D01*
X22373Y167129D01*
X22265Y167165D01*
X22156Y167198D01*
X22046Y167226D01*
X21936Y167251D01*
X21824Y167273D01*
X21711Y167290D01*
X21599Y167304D01*
X21485Y167313D01*
X21372Y167319D01*
X21258Y167321D01*
X17928Y167321D01*
X17814Y167319D01*
X17701Y167313D01*
X17587Y167304D01*
X17475Y167290D01*
X17362Y167273D01*
X17250Y167251D01*
X17140Y167226D01*
X17030Y167198D01*
X16921Y167165D01*
X16813Y167129D01*
X16706Y167089D01*
X16601Y167045D01*
X16498Y166998D01*
X16396Y166948D01*
X16296Y166894D01*
X16198Y166836D01*
X16102Y166775D01*
X16008Y166712D01*
X15916Y166644D01*
X15826Y166574D01*
X15740Y166501D01*
X15655Y166425D01*
X15573Y166346D01*
X15494Y166264D01*
X15418Y166179D01*
X15345Y166093D01*
X15275Y166003D01*
X15207Y165911D01*
X15144Y165817D01*
X15083Y165721D01*
X15025Y165623D01*
X14971Y165523D01*
X14921Y165421D01*
X14874Y165318D01*
X14830Y165213D01*
X14790Y165106D01*
X14754Y164998D01*
X14721Y164889D01*
X14693Y164779D01*
X14668Y164669D01*
X14646Y164557D01*
X14629Y164444D01*
X14615Y164332D01*
X14606Y164218D01*
X14600Y164105D01*
X14598Y163991D01*
X14600Y163877D01*
X14606Y163764D01*
X14615Y163650D01*
X14629Y163538D01*
X14646Y163425D01*
X14668Y163313D01*
X14693Y163203D01*
X14721Y163093D01*
X14754Y162984D01*
X14790Y162876D01*
X14830Y162769D01*
X14874Y162664D01*
X14921Y162561D01*
X14971Y162459D01*
X15025Y162359D01*
X15083Y162261D01*
X15144Y162165D01*
X15207Y162071D01*
X15275Y161979D01*
X15345Y161889D01*
X15418Y161803D01*
X15494Y161718D01*
X15573Y161636D01*
X15655Y161557D01*
X15740Y161481D01*
X15826Y161408D01*
X15916Y161338D01*
X16008Y161270D01*
X16102Y161207D01*
X16198Y161146D01*
X16296Y161088D01*
X16396Y161034D01*
X16498Y160984D01*
X16601Y160937D01*
X16706Y160893D01*
X16813Y160853D01*
X16921Y160817D01*
X17030Y160784D01*
X17140Y160756D01*
X17250Y160731D01*
X17362Y160709D01*
X17475Y160692D01*
X17587Y160678D01*
X17701Y160669D01*
X17814Y160663D01*
X17928Y160661D01*
X14598Y180758D02*
X29584Y180758D01*
X14598Y180758D02*
X14598Y176595D01*
X14597Y176595D02*
X14599Y176497D01*
X14605Y176399D01*
X14614Y176301D01*
X14628Y176204D01*
X14645Y176108D01*
X14666Y176012D01*
X14691Y175917D01*
X14719Y175823D01*
X14751Y175730D01*
X14787Y175639D01*
X14826Y175549D01*
X14869Y175461D01*
X14916Y175374D01*
X14965Y175290D01*
X15018Y175207D01*
X15074Y175127D01*
X15133Y175049D01*
X15196Y174973D01*
X15261Y174899D01*
X15329Y174829D01*
X15399Y174761D01*
X15473Y174696D01*
X15549Y174633D01*
X15627Y174574D01*
X15707Y174518D01*
X15790Y174465D01*
X15874Y174416D01*
X15961Y174369D01*
X16049Y174326D01*
X16139Y174287D01*
X16230Y174251D01*
X16323Y174219D01*
X16417Y174191D01*
X16512Y174166D01*
X16608Y174145D01*
X16704Y174128D01*
X16801Y174114D01*
X16899Y174105D01*
X16997Y174099D01*
X17095Y174097D01*
X22091Y174097D01*
X22189Y174099D01*
X22287Y174105D01*
X22385Y174114D01*
X22482Y174128D01*
X22578Y174145D01*
X22674Y174166D01*
X22769Y174191D01*
X22863Y174219D01*
X22956Y174251D01*
X23047Y174287D01*
X23137Y174326D01*
X23225Y174369D01*
X23312Y174416D01*
X23396Y174465D01*
X23479Y174518D01*
X23559Y174574D01*
X23638Y174633D01*
X23713Y174696D01*
X23787Y174761D01*
X23857Y174829D01*
X23925Y174899D01*
X23991Y174973D01*
X24053Y175049D01*
X24112Y175127D01*
X24168Y175207D01*
X24221Y175290D01*
X24271Y175374D01*
X24317Y175461D01*
X24360Y175549D01*
X24399Y175639D01*
X24435Y175730D01*
X24467Y175823D01*
X24495Y175917D01*
X24520Y176012D01*
X24541Y176108D01*
X24558Y176204D01*
X24572Y176301D01*
X24581Y176399D01*
X24587Y176497D01*
X24589Y176595D01*
X24588Y176595D02*
X24588Y180758D01*
X14598Y190774D02*
X14598Y194936D01*
X14597Y190774D02*
X14599Y190676D01*
X14605Y190578D01*
X14614Y190480D01*
X14628Y190383D01*
X14645Y190287D01*
X14666Y190191D01*
X14691Y190096D01*
X14719Y190002D01*
X14751Y189909D01*
X14787Y189818D01*
X14826Y189728D01*
X14869Y189640D01*
X14916Y189553D01*
X14965Y189469D01*
X15018Y189386D01*
X15074Y189306D01*
X15133Y189228D01*
X15196Y189152D01*
X15261Y189078D01*
X15329Y189008D01*
X15399Y188940D01*
X15473Y188875D01*
X15549Y188812D01*
X15627Y188753D01*
X15707Y188697D01*
X15790Y188644D01*
X15874Y188595D01*
X15961Y188548D01*
X16049Y188505D01*
X16139Y188466D01*
X16230Y188430D01*
X16323Y188398D01*
X16417Y188370D01*
X16512Y188345D01*
X16608Y188324D01*
X16704Y188307D01*
X16801Y188293D01*
X16899Y188284D01*
X16997Y188278D01*
X17095Y188276D01*
X21258Y188276D01*
X21372Y188278D01*
X21485Y188284D01*
X21599Y188293D01*
X21711Y188307D01*
X21824Y188324D01*
X21936Y188346D01*
X22046Y188371D01*
X22156Y188399D01*
X22265Y188432D01*
X22373Y188468D01*
X22480Y188508D01*
X22585Y188552D01*
X22688Y188599D01*
X22790Y188649D01*
X22890Y188703D01*
X22988Y188761D01*
X23084Y188822D01*
X23178Y188885D01*
X23270Y188953D01*
X23360Y189023D01*
X23446Y189096D01*
X23531Y189172D01*
X23613Y189251D01*
X23692Y189333D01*
X23768Y189418D01*
X23841Y189504D01*
X23911Y189594D01*
X23979Y189686D01*
X24042Y189780D01*
X24103Y189876D01*
X24161Y189974D01*
X24215Y190074D01*
X24265Y190176D01*
X24312Y190279D01*
X24356Y190384D01*
X24396Y190491D01*
X24432Y190599D01*
X24465Y190708D01*
X24493Y190818D01*
X24518Y190928D01*
X24540Y191040D01*
X24557Y191153D01*
X24571Y191265D01*
X24580Y191379D01*
X24586Y191492D01*
X24588Y191606D01*
X24586Y191720D01*
X24580Y191833D01*
X24571Y191947D01*
X24557Y192059D01*
X24540Y192172D01*
X24518Y192284D01*
X24493Y192394D01*
X24465Y192504D01*
X24432Y192613D01*
X24396Y192721D01*
X24356Y192828D01*
X24312Y192933D01*
X24265Y193036D01*
X24215Y193138D01*
X24161Y193238D01*
X24103Y193336D01*
X24042Y193432D01*
X23979Y193526D01*
X23911Y193618D01*
X23841Y193708D01*
X23768Y193794D01*
X23692Y193879D01*
X23613Y193961D01*
X23531Y194040D01*
X23446Y194116D01*
X23360Y194189D01*
X23270Y194259D01*
X23178Y194327D01*
X23084Y194390D01*
X22988Y194451D01*
X22890Y194509D01*
X22790Y194563D01*
X22688Y194613D01*
X22585Y194660D01*
X22480Y194704D01*
X22373Y194744D01*
X22265Y194780D01*
X22156Y194813D01*
X22046Y194841D01*
X21936Y194866D01*
X21824Y194888D01*
X21711Y194905D01*
X21599Y194919D01*
X21485Y194928D01*
X21372Y194934D01*
X21258Y194936D01*
X19593Y194936D01*
X19593Y188276D01*
D13*
X550325Y40058D02*
X555066Y40058D01*
X550325Y40057D02*
X550215Y40059D01*
X550105Y40065D01*
X549995Y40074D01*
X549885Y40088D01*
X549776Y40105D01*
X549668Y40126D01*
X549560Y40151D01*
X549454Y40179D01*
X549348Y40212D01*
X549244Y40248D01*
X549141Y40287D01*
X549039Y40330D01*
X548939Y40377D01*
X548841Y40427D01*
X548745Y40480D01*
X548650Y40537D01*
X548557Y40597D01*
X548467Y40661D01*
X548379Y40727D01*
X548293Y40797D01*
X548210Y40869D01*
X548129Y40944D01*
X548051Y41022D01*
X547976Y41103D01*
X547904Y41186D01*
X547834Y41272D01*
X547768Y41360D01*
X547704Y41450D01*
X547644Y41543D01*
X547588Y41637D01*
X547534Y41734D01*
X547484Y41832D01*
X547437Y41932D01*
X547394Y42034D01*
X547355Y42137D01*
X547319Y42241D01*
X547286Y42347D01*
X547258Y42453D01*
X547233Y42561D01*
X547212Y42669D01*
X547195Y42778D01*
X547181Y42888D01*
X547172Y42997D01*
X547166Y43108D01*
X547164Y43218D01*
X547164Y44799D01*
X547166Y44909D01*
X547172Y45020D01*
X547181Y45129D01*
X547195Y45239D01*
X547212Y45348D01*
X547233Y45456D01*
X547258Y45564D01*
X547286Y45670D01*
X547319Y45776D01*
X547355Y45880D01*
X547394Y45983D01*
X547437Y46085D01*
X547484Y46185D01*
X547534Y46283D01*
X547587Y46380D01*
X547644Y46474D01*
X547704Y46567D01*
X547768Y46657D01*
X547834Y46745D01*
X547904Y46831D01*
X547976Y46914D01*
X548051Y46995D01*
X548129Y47073D01*
X548210Y47148D01*
X548293Y47220D01*
X548379Y47290D01*
X548467Y47356D01*
X548557Y47420D01*
X548650Y47480D01*
X548745Y47537D01*
X548841Y47590D01*
X548939Y47640D01*
X549039Y47687D01*
X549141Y47730D01*
X549244Y47769D01*
X549348Y47805D01*
X549454Y47838D01*
X549560Y47866D01*
X549668Y47891D01*
X549776Y47912D01*
X549885Y47929D01*
X549995Y47943D01*
X550105Y47952D01*
X550215Y47958D01*
X550325Y47960D01*
X555066Y47960D01*
X555066Y54282D01*
X547164Y54282D01*
X540990Y54282D02*
X536249Y40058D01*
X531508Y54282D01*
D14*
X647226Y190226D02*
X649936Y190226D01*
X650037Y190228D01*
X650138Y190234D01*
X650239Y190243D01*
X650340Y190256D01*
X650440Y190273D01*
X650539Y190294D01*
X650637Y190318D01*
X650734Y190346D01*
X650831Y190378D01*
X650926Y190413D01*
X651019Y190452D01*
X651111Y190494D01*
X651202Y190540D01*
X651291Y190589D01*
X651377Y190641D01*
X651462Y190697D01*
X651545Y190755D01*
X651625Y190817D01*
X651703Y190882D01*
X651779Y190949D01*
X651852Y191019D01*
X651922Y191092D01*
X651989Y191168D01*
X652054Y191246D01*
X652116Y191326D01*
X652174Y191409D01*
X652230Y191494D01*
X652282Y191580D01*
X652331Y191669D01*
X652377Y191760D01*
X652419Y191852D01*
X652458Y191945D01*
X652493Y192040D01*
X652525Y192137D01*
X652553Y192234D01*
X652577Y192332D01*
X652598Y192431D01*
X652615Y192531D01*
X652628Y192632D01*
X652637Y192733D01*
X652643Y192834D01*
X652645Y192935D01*
X652645Y199709D01*
X652643Y199810D01*
X652637Y199911D01*
X652628Y200012D01*
X652615Y200113D01*
X652598Y200213D01*
X652577Y200312D01*
X652553Y200410D01*
X652525Y200507D01*
X652493Y200604D01*
X652458Y200699D01*
X652419Y200792D01*
X652377Y200884D01*
X652331Y200975D01*
X652282Y201064D01*
X652230Y201150D01*
X652174Y201235D01*
X652116Y201318D01*
X652054Y201398D01*
X651989Y201476D01*
X651922Y201552D01*
X651852Y201625D01*
X651779Y201695D01*
X651703Y201762D01*
X651625Y201827D01*
X651545Y201889D01*
X651462Y201947D01*
X651377Y202003D01*
X651291Y202055D01*
X651202Y202104D01*
X651111Y202150D01*
X651019Y202192D01*
X650926Y202231D01*
X650831Y202266D01*
X650734Y202298D01*
X650637Y202326D01*
X650539Y202350D01*
X650440Y202371D01*
X650340Y202388D01*
X650239Y202401D01*
X650138Y202410D01*
X650037Y202416D01*
X649936Y202418D01*
X647226Y202418D01*
X641675Y198354D02*
X641675Y192258D01*
X641673Y192169D01*
X641667Y192081D01*
X641658Y191993D01*
X641644Y191905D01*
X641627Y191818D01*
X641606Y191732D01*
X641581Y191647D01*
X641552Y191563D01*
X641520Y191480D01*
X641485Y191399D01*
X641445Y191320D01*
X641403Y191242D01*
X641357Y191166D01*
X641308Y191092D01*
X641255Y191021D01*
X641200Y190952D01*
X641141Y190885D01*
X641080Y190821D01*
X641016Y190760D01*
X640949Y190701D01*
X640880Y190646D01*
X640809Y190593D01*
X640735Y190544D01*
X640659Y190498D01*
X640581Y190456D01*
X640502Y190416D01*
X640421Y190381D01*
X640338Y190349D01*
X640254Y190320D01*
X640169Y190295D01*
X640083Y190274D01*
X639996Y190257D01*
X639908Y190243D01*
X639820Y190234D01*
X639732Y190228D01*
X639643Y190226D01*
X636256Y190226D01*
X636256Y198354D01*
X629137Y194967D02*
X625751Y193613D01*
X629137Y194968D02*
X629213Y195000D01*
X629287Y195036D01*
X629360Y195076D01*
X629431Y195118D01*
X629499Y195164D01*
X629565Y195214D01*
X629629Y195266D01*
X629691Y195321D01*
X629749Y195379D01*
X629805Y195440D01*
X629858Y195504D01*
X629908Y195569D01*
X629955Y195637D01*
X629999Y195708D01*
X630039Y195780D01*
X630076Y195854D01*
X630109Y195929D01*
X630138Y196006D01*
X630164Y196085D01*
X630187Y196164D01*
X630205Y196245D01*
X630220Y196326D01*
X630231Y196408D01*
X630238Y196490D01*
X630241Y196573D01*
X630240Y196656D01*
X630235Y196738D01*
X630227Y196820D01*
X630215Y196902D01*
X630198Y196983D01*
X630178Y197063D01*
X630155Y197142D01*
X630127Y197220D01*
X630096Y197296D01*
X630061Y197371D01*
X630023Y197445D01*
X629982Y197516D01*
X629937Y197586D01*
X629889Y197653D01*
X629838Y197718D01*
X629784Y197780D01*
X629727Y197840D01*
X629667Y197897D01*
X629605Y197951D01*
X629540Y198002D01*
X629473Y198050D01*
X629403Y198095D01*
X629332Y198136D01*
X629258Y198174D01*
X629183Y198209D01*
X629107Y198240D01*
X629029Y198268D01*
X628950Y198291D01*
X628870Y198311D01*
X628789Y198328D01*
X628707Y198340D01*
X628625Y198348D01*
X628543Y198353D01*
X628460Y198354D01*
X628275Y198349D01*
X628090Y198340D01*
X627906Y198326D01*
X627722Y198308D01*
X627538Y198286D01*
X627355Y198259D01*
X627173Y198227D01*
X626992Y198191D01*
X626811Y198151D01*
X626632Y198107D01*
X626453Y198058D01*
X626276Y198005D01*
X626100Y197948D01*
X625926Y197886D01*
X625753Y197821D01*
X625582Y197751D01*
X625412Y197677D01*
X625751Y193612D02*
X625675Y193580D01*
X625601Y193544D01*
X625528Y193504D01*
X625457Y193462D01*
X625389Y193416D01*
X625323Y193366D01*
X625259Y193314D01*
X625197Y193259D01*
X625139Y193201D01*
X625083Y193140D01*
X625030Y193076D01*
X624980Y193011D01*
X624933Y192943D01*
X624889Y192872D01*
X624849Y192800D01*
X624813Y192726D01*
X624779Y192651D01*
X624750Y192574D01*
X624724Y192495D01*
X624701Y192416D01*
X624683Y192335D01*
X624668Y192254D01*
X624657Y192172D01*
X624650Y192090D01*
X624647Y192007D01*
X624648Y191925D01*
X624653Y191842D01*
X624661Y191760D01*
X624673Y191678D01*
X624690Y191597D01*
X624710Y191517D01*
X624733Y191438D01*
X624761Y191360D01*
X624792Y191284D01*
X624827Y191209D01*
X624865Y191135D01*
X624906Y191064D01*
X624951Y190995D01*
X624999Y190927D01*
X625050Y190862D01*
X625104Y190800D01*
X625161Y190740D01*
X625221Y190683D01*
X625283Y190629D01*
X625348Y190578D01*
X625415Y190530D01*
X625485Y190485D01*
X625556Y190444D01*
X625630Y190406D01*
X625705Y190371D01*
X625781Y190340D01*
X625859Y190312D01*
X625938Y190289D01*
X626018Y190269D01*
X626099Y190252D01*
X626181Y190240D01*
X626263Y190232D01*
X626345Y190227D01*
X626428Y190226D01*
X626699Y190233D01*
X626971Y190247D01*
X627242Y190267D01*
X627512Y190293D01*
X627782Y190326D01*
X628051Y190365D01*
X628319Y190410D01*
X628585Y190462D01*
X628851Y190520D01*
X629115Y190584D01*
X629377Y190655D01*
X629638Y190732D01*
X629896Y190815D01*
X630153Y190903D01*
X620232Y198354D02*
X616168Y198354D01*
X618877Y202418D02*
X618877Y192258D01*
X618875Y192169D01*
X618869Y192081D01*
X618860Y191993D01*
X618846Y191905D01*
X618829Y191818D01*
X618808Y191732D01*
X618783Y191647D01*
X618754Y191563D01*
X618722Y191480D01*
X618687Y191399D01*
X618647Y191320D01*
X618605Y191242D01*
X618559Y191166D01*
X618510Y191092D01*
X618457Y191021D01*
X618402Y190952D01*
X618343Y190885D01*
X618282Y190821D01*
X618218Y190760D01*
X618151Y190701D01*
X618082Y190646D01*
X618011Y190593D01*
X617937Y190544D01*
X617861Y190498D01*
X617783Y190456D01*
X617704Y190416D01*
X617623Y190381D01*
X617540Y190349D01*
X617456Y190320D01*
X617371Y190295D01*
X617285Y190274D01*
X617198Y190257D01*
X617110Y190243D01*
X617022Y190234D01*
X616934Y190228D01*
X616845Y190226D01*
X616168Y190226D01*
X610951Y192935D02*
X610951Y195645D01*
X610949Y195748D01*
X610943Y195850D01*
X610934Y195952D01*
X610920Y196054D01*
X610903Y196155D01*
X610881Y196255D01*
X610856Y196354D01*
X610828Y196453D01*
X610795Y196550D01*
X610759Y196646D01*
X610720Y196741D01*
X610676Y196834D01*
X610630Y196925D01*
X610579Y197014D01*
X610526Y197102D01*
X610469Y197187D01*
X610409Y197270D01*
X610346Y197351D01*
X610280Y197430D01*
X610211Y197505D01*
X610139Y197579D01*
X610065Y197649D01*
X609988Y197717D01*
X609908Y197781D01*
X609826Y197843D01*
X609742Y197901D01*
X609655Y197956D01*
X609567Y198008D01*
X609476Y198056D01*
X609384Y198101D01*
X609291Y198143D01*
X609195Y198181D01*
X609099Y198215D01*
X609001Y198246D01*
X608902Y198272D01*
X608802Y198296D01*
X608701Y198315D01*
X608600Y198330D01*
X608498Y198342D01*
X608396Y198350D01*
X608293Y198354D01*
X608191Y198354D01*
X608088Y198350D01*
X607986Y198342D01*
X607884Y198330D01*
X607783Y198315D01*
X607682Y198296D01*
X607582Y198272D01*
X607483Y198246D01*
X607385Y198215D01*
X607289Y198181D01*
X607193Y198143D01*
X607100Y198101D01*
X607008Y198056D01*
X606917Y198008D01*
X606829Y197956D01*
X606742Y197901D01*
X606658Y197843D01*
X606576Y197781D01*
X606496Y197717D01*
X606419Y197649D01*
X606345Y197579D01*
X606273Y197505D01*
X606204Y197430D01*
X606138Y197351D01*
X606075Y197270D01*
X606015Y197187D01*
X605958Y197102D01*
X605905Y197014D01*
X605854Y196925D01*
X605808Y196834D01*
X605764Y196741D01*
X605725Y196646D01*
X605689Y196550D01*
X605656Y196453D01*
X605628Y196354D01*
X605603Y196255D01*
X605581Y196155D01*
X605564Y196054D01*
X605550Y195952D01*
X605541Y195850D01*
X605535Y195748D01*
X605533Y195645D01*
X605532Y195645D02*
X605532Y192935D01*
X605533Y192935D02*
X605535Y192832D01*
X605541Y192730D01*
X605550Y192628D01*
X605564Y192526D01*
X605581Y192425D01*
X605603Y192325D01*
X605628Y192226D01*
X605656Y192127D01*
X605689Y192030D01*
X605725Y191934D01*
X605764Y191839D01*
X605808Y191746D01*
X605854Y191655D01*
X605905Y191566D01*
X605958Y191478D01*
X606015Y191393D01*
X606075Y191310D01*
X606138Y191229D01*
X606204Y191150D01*
X606273Y191075D01*
X606345Y191001D01*
X606419Y190931D01*
X606496Y190863D01*
X606576Y190799D01*
X606658Y190737D01*
X606742Y190679D01*
X606829Y190624D01*
X606917Y190572D01*
X607008Y190524D01*
X607100Y190479D01*
X607193Y190437D01*
X607289Y190399D01*
X607385Y190365D01*
X607483Y190334D01*
X607582Y190308D01*
X607682Y190284D01*
X607783Y190265D01*
X607884Y190250D01*
X607986Y190238D01*
X608088Y190230D01*
X608191Y190226D01*
X608293Y190226D01*
X608396Y190230D01*
X608498Y190238D01*
X608600Y190250D01*
X608701Y190265D01*
X608802Y190284D01*
X608902Y190308D01*
X609001Y190334D01*
X609099Y190365D01*
X609195Y190399D01*
X609291Y190437D01*
X609384Y190479D01*
X609476Y190524D01*
X609567Y190572D01*
X609655Y190624D01*
X609742Y190679D01*
X609826Y190737D01*
X609908Y190799D01*
X609988Y190863D01*
X610065Y190931D01*
X610139Y191001D01*
X610211Y191075D01*
X610280Y191150D01*
X610346Y191229D01*
X610409Y191310D01*
X610469Y191393D01*
X610526Y191478D01*
X610579Y191566D01*
X610630Y191655D01*
X610676Y191746D01*
X610720Y191839D01*
X610759Y191934D01*
X610795Y192030D01*
X610828Y192127D01*
X610856Y192226D01*
X610881Y192325D01*
X610903Y192425D01*
X610920Y192526D01*
X610934Y192628D01*
X610943Y192730D01*
X610949Y192832D01*
X610951Y192935D01*
X599077Y190226D02*
X599077Y198354D01*
X592981Y198354D01*
X592892Y198352D01*
X592804Y198346D01*
X592716Y198337D01*
X592628Y198323D01*
X592541Y198306D01*
X592455Y198285D01*
X592370Y198260D01*
X592286Y198231D01*
X592203Y198199D01*
X592122Y198164D01*
X592043Y198124D01*
X591965Y198082D01*
X591889Y198036D01*
X591815Y197987D01*
X591744Y197934D01*
X591675Y197879D01*
X591608Y197820D01*
X591544Y197759D01*
X591483Y197695D01*
X591424Y197628D01*
X591369Y197559D01*
X591316Y197488D01*
X591267Y197414D01*
X591221Y197338D01*
X591179Y197260D01*
X591139Y197181D01*
X591104Y197100D01*
X591072Y197017D01*
X591043Y196933D01*
X591018Y196848D01*
X590997Y196762D01*
X590980Y196675D01*
X590966Y196587D01*
X590957Y196499D01*
X590951Y196411D01*
X590949Y196322D01*
X590949Y190226D01*
X595013Y190226D02*
X595013Y198354D01*
X577064Y202418D02*
X577064Y190226D01*
X577064Y196999D02*
X570291Y196999D01*
X570291Y202418D02*
X570291Y190226D01*
X561733Y194967D02*
X558685Y194967D01*
X561733Y194968D02*
X561830Y194966D01*
X561926Y194960D01*
X562022Y194950D01*
X562118Y194936D01*
X562213Y194919D01*
X562308Y194897D01*
X562401Y194872D01*
X562493Y194843D01*
X562584Y194810D01*
X562674Y194773D01*
X562762Y194733D01*
X562848Y194689D01*
X562932Y194642D01*
X563015Y194592D01*
X563095Y194538D01*
X563173Y194480D01*
X563249Y194420D01*
X563322Y194357D01*
X563392Y194291D01*
X563460Y194221D01*
X563525Y194150D01*
X563587Y194075D01*
X563645Y193998D01*
X563701Y193919D01*
X563753Y193838D01*
X563802Y193754D01*
X563848Y193669D01*
X563890Y193582D01*
X563928Y193493D01*
X563963Y193403D01*
X563994Y193311D01*
X564021Y193218D01*
X564045Y193125D01*
X564064Y193030D01*
X564080Y192934D01*
X564092Y192838D01*
X564100Y192742D01*
X564104Y192645D01*
X564104Y192549D01*
X564100Y192452D01*
X564092Y192356D01*
X564080Y192260D01*
X564064Y192164D01*
X564045Y192069D01*
X564021Y191976D01*
X563994Y191883D01*
X563963Y191791D01*
X563928Y191701D01*
X563890Y191612D01*
X563848Y191525D01*
X563802Y191440D01*
X563753Y191356D01*
X563701Y191275D01*
X563645Y191196D01*
X563587Y191119D01*
X563525Y191044D01*
X563460Y190973D01*
X563392Y190903D01*
X563322Y190837D01*
X563249Y190774D01*
X563173Y190714D01*
X563095Y190656D01*
X563015Y190602D01*
X562932Y190552D01*
X562848Y190505D01*
X562762Y190461D01*
X562674Y190421D01*
X562584Y190384D01*
X562493Y190351D01*
X562401Y190322D01*
X562308Y190297D01*
X562213Y190275D01*
X562118Y190258D01*
X562022Y190244D01*
X561926Y190234D01*
X561830Y190228D01*
X561733Y190226D01*
X558685Y190226D01*
X558685Y196322D01*
X558687Y196411D01*
X558693Y196499D01*
X558702Y196587D01*
X558716Y196675D01*
X558733Y196762D01*
X558754Y196848D01*
X558779Y196933D01*
X558808Y197017D01*
X558840Y197100D01*
X558875Y197181D01*
X558915Y197260D01*
X558957Y197338D01*
X559003Y197414D01*
X559052Y197488D01*
X559105Y197559D01*
X559160Y197628D01*
X559219Y197695D01*
X559280Y197759D01*
X559344Y197820D01*
X559411Y197879D01*
X559480Y197934D01*
X559551Y197987D01*
X559625Y198036D01*
X559701Y198082D01*
X559779Y198124D01*
X559858Y198164D01*
X559939Y198199D01*
X560022Y198231D01*
X560106Y198260D01*
X560191Y198285D01*
X560277Y198306D01*
X560364Y198323D01*
X560452Y198337D01*
X560540Y198346D01*
X560628Y198352D01*
X560717Y198354D01*
X563426Y198354D01*
X551960Y198354D02*
X551960Y190226D01*
X551960Y198354D02*
X547896Y198354D01*
X547896Y196999D01*
X538202Y202418D02*
X538202Y190226D01*
X541589Y190226D01*
X541678Y190228D01*
X541766Y190234D01*
X541854Y190243D01*
X541942Y190257D01*
X542029Y190274D01*
X542115Y190295D01*
X542200Y190320D01*
X542284Y190349D01*
X542367Y190381D01*
X542448Y190416D01*
X542527Y190456D01*
X542605Y190498D01*
X542681Y190544D01*
X542755Y190593D01*
X542826Y190646D01*
X542895Y190701D01*
X542962Y190760D01*
X543026Y190821D01*
X543087Y190885D01*
X543146Y190952D01*
X543201Y191021D01*
X543254Y191092D01*
X543303Y191166D01*
X543349Y191242D01*
X543391Y191320D01*
X543431Y191399D01*
X543466Y191480D01*
X543498Y191563D01*
X543527Y191647D01*
X543552Y191732D01*
X543573Y191818D01*
X543590Y191905D01*
X543604Y191993D01*
X543613Y192081D01*
X543619Y192169D01*
X543621Y192258D01*
X543621Y196322D01*
X543619Y196411D01*
X543613Y196499D01*
X543604Y196587D01*
X543590Y196675D01*
X543573Y196762D01*
X543552Y196848D01*
X543527Y196933D01*
X543498Y197017D01*
X543466Y197100D01*
X543431Y197181D01*
X543391Y197260D01*
X543349Y197338D01*
X543303Y197414D01*
X543254Y197488D01*
X543201Y197559D01*
X543146Y197628D01*
X543087Y197695D01*
X543026Y197759D01*
X542962Y197820D01*
X542895Y197879D01*
X542826Y197934D01*
X542755Y197987D01*
X542681Y198036D01*
X542605Y198082D01*
X542527Y198124D01*
X542448Y198164D01*
X542367Y198199D01*
X542284Y198231D01*
X542200Y198260D01*
X542115Y198285D01*
X542029Y198306D01*
X541942Y198323D01*
X541854Y198337D01*
X541766Y198346D01*
X541678Y198352D01*
X541589Y198354D01*
X538202Y198354D01*
X532082Y198354D02*
X530050Y190226D01*
X528018Y195645D01*
X525986Y190226D01*
X523954Y198354D01*
X516074Y194967D02*
X513026Y194967D01*
X516074Y194968D02*
X516171Y194966D01*
X516267Y194960D01*
X516363Y194950D01*
X516459Y194936D01*
X516554Y194919D01*
X516649Y194897D01*
X516742Y194872D01*
X516834Y194843D01*
X516925Y194810D01*
X517015Y194773D01*
X517103Y194733D01*
X517189Y194689D01*
X517273Y194642D01*
X517356Y194592D01*
X517436Y194538D01*
X517514Y194480D01*
X517590Y194420D01*
X517663Y194357D01*
X517733Y194291D01*
X517801Y194221D01*
X517866Y194150D01*
X517928Y194075D01*
X517986Y193998D01*
X518042Y193919D01*
X518094Y193838D01*
X518143Y193754D01*
X518189Y193669D01*
X518231Y193582D01*
X518269Y193493D01*
X518304Y193403D01*
X518335Y193311D01*
X518362Y193218D01*
X518386Y193125D01*
X518405Y193030D01*
X518421Y192934D01*
X518433Y192838D01*
X518441Y192742D01*
X518445Y192645D01*
X518445Y192549D01*
X518441Y192452D01*
X518433Y192356D01*
X518421Y192260D01*
X518405Y192164D01*
X518386Y192069D01*
X518362Y191976D01*
X518335Y191883D01*
X518304Y191791D01*
X518269Y191701D01*
X518231Y191612D01*
X518189Y191525D01*
X518143Y191440D01*
X518094Y191356D01*
X518042Y191275D01*
X517986Y191196D01*
X517928Y191119D01*
X517866Y191044D01*
X517801Y190973D01*
X517733Y190903D01*
X517663Y190837D01*
X517590Y190774D01*
X517514Y190714D01*
X517436Y190656D01*
X517356Y190602D01*
X517273Y190552D01*
X517189Y190505D01*
X517103Y190461D01*
X517015Y190421D01*
X516925Y190384D01*
X516834Y190351D01*
X516742Y190322D01*
X516649Y190297D01*
X516554Y190275D01*
X516459Y190258D01*
X516363Y190244D01*
X516267Y190234D01*
X516171Y190228D01*
X516074Y190226D01*
X513026Y190226D01*
X513026Y196322D01*
X513028Y196411D01*
X513034Y196499D01*
X513043Y196587D01*
X513057Y196675D01*
X513074Y196762D01*
X513095Y196848D01*
X513120Y196933D01*
X513149Y197017D01*
X513181Y197100D01*
X513216Y197181D01*
X513256Y197260D01*
X513298Y197338D01*
X513344Y197414D01*
X513393Y197488D01*
X513446Y197559D01*
X513501Y197628D01*
X513560Y197695D01*
X513621Y197759D01*
X513685Y197820D01*
X513752Y197879D01*
X513821Y197934D01*
X513892Y197987D01*
X513966Y198036D01*
X514042Y198082D01*
X514120Y198124D01*
X514199Y198164D01*
X514280Y198199D01*
X514363Y198231D01*
X514447Y198260D01*
X514532Y198285D01*
X514618Y198306D01*
X514705Y198323D01*
X514793Y198337D01*
X514881Y198346D01*
X514969Y198352D01*
X515058Y198354D01*
X517767Y198354D01*
X506301Y198354D02*
X506301Y190226D01*
X506301Y198354D02*
X502237Y198354D01*
X502237Y196999D01*
X495838Y190226D02*
X492452Y190226D01*
X495838Y190226D02*
X495927Y190228D01*
X496015Y190234D01*
X496103Y190243D01*
X496191Y190257D01*
X496278Y190274D01*
X496364Y190295D01*
X496449Y190320D01*
X496533Y190349D01*
X496616Y190381D01*
X496697Y190416D01*
X496776Y190456D01*
X496854Y190498D01*
X496930Y190544D01*
X497004Y190593D01*
X497075Y190646D01*
X497144Y190701D01*
X497211Y190760D01*
X497275Y190821D01*
X497336Y190885D01*
X497395Y190952D01*
X497450Y191021D01*
X497503Y191092D01*
X497552Y191166D01*
X497598Y191242D01*
X497640Y191320D01*
X497680Y191399D01*
X497715Y191480D01*
X497747Y191563D01*
X497776Y191647D01*
X497801Y191732D01*
X497822Y191818D01*
X497839Y191905D01*
X497853Y191993D01*
X497862Y192081D01*
X497868Y192169D01*
X497870Y192258D01*
X497870Y195645D01*
X497868Y195748D01*
X497862Y195850D01*
X497853Y195952D01*
X497839Y196054D01*
X497822Y196155D01*
X497800Y196255D01*
X497775Y196354D01*
X497747Y196453D01*
X497714Y196550D01*
X497678Y196646D01*
X497639Y196741D01*
X497595Y196834D01*
X497549Y196925D01*
X497498Y197014D01*
X497445Y197102D01*
X497388Y197187D01*
X497328Y197270D01*
X497265Y197351D01*
X497199Y197430D01*
X497130Y197505D01*
X497058Y197579D01*
X496984Y197649D01*
X496907Y197717D01*
X496827Y197781D01*
X496745Y197843D01*
X496661Y197901D01*
X496574Y197956D01*
X496486Y198008D01*
X496395Y198056D01*
X496303Y198101D01*
X496210Y198143D01*
X496114Y198181D01*
X496018Y198215D01*
X495920Y198246D01*
X495821Y198272D01*
X495721Y198296D01*
X495620Y198315D01*
X495519Y198330D01*
X495417Y198342D01*
X495315Y198350D01*
X495212Y198354D01*
X495110Y198354D01*
X495007Y198350D01*
X494905Y198342D01*
X494803Y198330D01*
X494702Y198315D01*
X494601Y198296D01*
X494501Y198272D01*
X494402Y198246D01*
X494304Y198215D01*
X494208Y198181D01*
X494112Y198143D01*
X494019Y198101D01*
X493927Y198056D01*
X493836Y198008D01*
X493748Y197956D01*
X493661Y197901D01*
X493577Y197843D01*
X493495Y197781D01*
X493415Y197717D01*
X493338Y197649D01*
X493264Y197579D01*
X493192Y197505D01*
X493123Y197430D01*
X493057Y197351D01*
X492994Y197270D01*
X492934Y197187D01*
X492877Y197102D01*
X492824Y197014D01*
X492773Y196925D01*
X492727Y196834D01*
X492683Y196741D01*
X492644Y196646D01*
X492608Y196550D01*
X492575Y196453D01*
X492547Y196354D01*
X492522Y196255D01*
X492500Y196155D01*
X492483Y196054D01*
X492469Y195952D01*
X492460Y195850D01*
X492454Y195748D01*
X492452Y195645D01*
X492452Y194290D01*
X497870Y194290D01*
X472403Y190226D02*
X472403Y202418D01*
X469016Y202418D01*
X468900Y202416D01*
X468785Y202410D01*
X468670Y202400D01*
X468555Y202386D01*
X468441Y202369D01*
X468327Y202347D01*
X468214Y202322D01*
X468102Y202292D01*
X467991Y202259D01*
X467882Y202222D01*
X467773Y202182D01*
X467667Y202138D01*
X467561Y202090D01*
X467458Y202038D01*
X467356Y201983D01*
X467256Y201925D01*
X467158Y201863D01*
X467063Y201798D01*
X466969Y201730D01*
X466879Y201658D01*
X466790Y201584D01*
X466704Y201506D01*
X466621Y201426D01*
X466541Y201343D01*
X466463Y201257D01*
X466389Y201168D01*
X466317Y201078D01*
X466249Y200984D01*
X466184Y200889D01*
X466122Y200791D01*
X466064Y200691D01*
X466009Y200589D01*
X465957Y200486D01*
X465909Y200380D01*
X465865Y200274D01*
X465825Y200165D01*
X465788Y200056D01*
X465755Y199945D01*
X465725Y199833D01*
X465700Y199720D01*
X465678Y199606D01*
X465661Y199492D01*
X465647Y199377D01*
X465637Y199262D01*
X465631Y199147D01*
X465629Y199031D01*
X465631Y198915D01*
X465637Y198800D01*
X465647Y198685D01*
X465661Y198570D01*
X465678Y198456D01*
X465700Y198342D01*
X465725Y198229D01*
X465755Y198117D01*
X465788Y198006D01*
X465825Y197897D01*
X465865Y197788D01*
X465909Y197682D01*
X465957Y197576D01*
X466009Y197473D01*
X466064Y197371D01*
X466122Y197271D01*
X466184Y197173D01*
X466249Y197078D01*
X466317Y196984D01*
X466389Y196894D01*
X466463Y196805D01*
X466541Y196719D01*
X466621Y196636D01*
X466704Y196556D01*
X466790Y196478D01*
X466879Y196404D01*
X466969Y196332D01*
X467063Y196264D01*
X467158Y196199D01*
X467256Y196137D01*
X467356Y196079D01*
X467458Y196024D01*
X467561Y195972D01*
X467667Y195924D01*
X467773Y195880D01*
X467882Y195840D01*
X467991Y195803D01*
X468102Y195770D01*
X468214Y195740D01*
X468327Y195715D01*
X468441Y195693D01*
X468555Y195676D01*
X468670Y195662D01*
X468785Y195652D01*
X468900Y195646D01*
X469016Y195644D01*
X469016Y195645D02*
X472403Y195645D01*
X468339Y195645D02*
X465629Y190226D01*
X457860Y190226D02*
X454473Y190226D01*
X457860Y190226D02*
X457949Y190228D01*
X458037Y190234D01*
X458125Y190243D01*
X458213Y190257D01*
X458300Y190274D01*
X458386Y190295D01*
X458471Y190320D01*
X458555Y190349D01*
X458638Y190381D01*
X458719Y190416D01*
X458798Y190456D01*
X458876Y190498D01*
X458952Y190544D01*
X459026Y190593D01*
X459097Y190646D01*
X459166Y190701D01*
X459233Y190760D01*
X459297Y190821D01*
X459358Y190885D01*
X459417Y190952D01*
X459472Y191021D01*
X459525Y191092D01*
X459574Y191166D01*
X459620Y191242D01*
X459662Y191320D01*
X459702Y191399D01*
X459737Y191480D01*
X459769Y191563D01*
X459798Y191647D01*
X459823Y191732D01*
X459844Y191818D01*
X459861Y191905D01*
X459875Y191993D01*
X459884Y192081D01*
X459890Y192169D01*
X459892Y192258D01*
X459892Y195645D01*
X459890Y195748D01*
X459884Y195850D01*
X459875Y195952D01*
X459861Y196054D01*
X459844Y196155D01*
X459822Y196255D01*
X459797Y196354D01*
X459769Y196453D01*
X459736Y196550D01*
X459700Y196646D01*
X459661Y196741D01*
X459617Y196834D01*
X459571Y196925D01*
X459520Y197014D01*
X459467Y197102D01*
X459410Y197187D01*
X459350Y197270D01*
X459287Y197351D01*
X459221Y197430D01*
X459152Y197505D01*
X459080Y197579D01*
X459006Y197649D01*
X458929Y197717D01*
X458849Y197781D01*
X458767Y197843D01*
X458683Y197901D01*
X458596Y197956D01*
X458508Y198008D01*
X458417Y198056D01*
X458325Y198101D01*
X458232Y198143D01*
X458136Y198181D01*
X458040Y198215D01*
X457942Y198246D01*
X457843Y198272D01*
X457743Y198296D01*
X457642Y198315D01*
X457541Y198330D01*
X457439Y198342D01*
X457337Y198350D01*
X457234Y198354D01*
X457132Y198354D01*
X457029Y198350D01*
X456927Y198342D01*
X456825Y198330D01*
X456724Y198315D01*
X456623Y198296D01*
X456523Y198272D01*
X456424Y198246D01*
X456326Y198215D01*
X456230Y198181D01*
X456134Y198143D01*
X456041Y198101D01*
X455949Y198056D01*
X455858Y198008D01*
X455770Y197956D01*
X455683Y197901D01*
X455599Y197843D01*
X455517Y197781D01*
X455437Y197717D01*
X455360Y197649D01*
X455286Y197579D01*
X455214Y197505D01*
X455145Y197430D01*
X455079Y197351D01*
X455016Y197270D01*
X454956Y197187D01*
X454899Y197102D01*
X454846Y197014D01*
X454795Y196925D01*
X454749Y196834D01*
X454705Y196741D01*
X454666Y196646D01*
X454630Y196550D01*
X454597Y196453D01*
X454569Y196354D01*
X454544Y196255D01*
X454522Y196155D01*
X454505Y196054D01*
X454491Y195952D01*
X454482Y195850D01*
X454476Y195748D01*
X454474Y195645D01*
X454473Y195645D02*
X454473Y194290D01*
X459892Y194290D01*
X449224Y198354D02*
X446515Y190226D01*
X443805Y198354D01*
X439173Y190903D02*
X439173Y190226D01*
X439173Y190903D02*
X438495Y190903D01*
X438495Y190226D01*
X439173Y190226D01*
X432569Y196999D02*
X429182Y196999D01*
X429182Y197000D02*
X429066Y196998D01*
X428951Y196992D01*
X428836Y196982D01*
X428721Y196968D01*
X428607Y196951D01*
X428493Y196929D01*
X428380Y196904D01*
X428268Y196874D01*
X428157Y196841D01*
X428048Y196804D01*
X427939Y196764D01*
X427833Y196720D01*
X427727Y196672D01*
X427624Y196620D01*
X427522Y196565D01*
X427422Y196507D01*
X427324Y196445D01*
X427229Y196380D01*
X427135Y196312D01*
X427045Y196240D01*
X426956Y196166D01*
X426870Y196088D01*
X426787Y196008D01*
X426707Y195925D01*
X426629Y195839D01*
X426555Y195750D01*
X426483Y195660D01*
X426415Y195566D01*
X426350Y195471D01*
X426288Y195373D01*
X426230Y195273D01*
X426175Y195171D01*
X426123Y195068D01*
X426075Y194962D01*
X426031Y194856D01*
X425991Y194747D01*
X425954Y194638D01*
X425921Y194527D01*
X425891Y194415D01*
X425866Y194302D01*
X425844Y194188D01*
X425827Y194074D01*
X425813Y193959D01*
X425803Y193844D01*
X425797Y193729D01*
X425795Y193613D01*
X425797Y193497D01*
X425803Y193382D01*
X425813Y193267D01*
X425827Y193152D01*
X425844Y193038D01*
X425866Y192924D01*
X425891Y192811D01*
X425921Y192699D01*
X425954Y192588D01*
X425991Y192479D01*
X426031Y192370D01*
X426075Y192264D01*
X426123Y192158D01*
X426175Y192055D01*
X426230Y191953D01*
X426288Y191853D01*
X426350Y191755D01*
X426415Y191660D01*
X426483Y191566D01*
X426555Y191476D01*
X426629Y191387D01*
X426707Y191301D01*
X426787Y191218D01*
X426870Y191138D01*
X426956Y191060D01*
X427045Y190986D01*
X427135Y190914D01*
X427229Y190846D01*
X427324Y190781D01*
X427422Y190719D01*
X427522Y190661D01*
X427624Y190606D01*
X427727Y190554D01*
X427833Y190506D01*
X427939Y190462D01*
X428048Y190422D01*
X428157Y190385D01*
X428268Y190352D01*
X428380Y190322D01*
X428493Y190297D01*
X428607Y190275D01*
X428721Y190258D01*
X428836Y190244D01*
X428951Y190234D01*
X429066Y190228D01*
X429182Y190226D01*
X432569Y190226D01*
X432569Y202418D01*
X429182Y202418D01*
X429079Y202416D01*
X428977Y202410D01*
X428875Y202401D01*
X428773Y202387D01*
X428672Y202370D01*
X428572Y202348D01*
X428473Y202323D01*
X428374Y202295D01*
X428277Y202262D01*
X428181Y202226D01*
X428086Y202187D01*
X427993Y202143D01*
X427902Y202097D01*
X427813Y202046D01*
X427725Y201993D01*
X427640Y201936D01*
X427557Y201876D01*
X427476Y201813D01*
X427397Y201747D01*
X427322Y201678D01*
X427248Y201606D01*
X427178Y201532D01*
X427110Y201455D01*
X427046Y201375D01*
X426984Y201293D01*
X426926Y201209D01*
X426871Y201122D01*
X426819Y201034D01*
X426771Y200943D01*
X426726Y200851D01*
X426684Y200758D01*
X426646Y200662D01*
X426612Y200566D01*
X426581Y200468D01*
X426555Y200369D01*
X426531Y200269D01*
X426512Y200168D01*
X426497Y200067D01*
X426485Y199965D01*
X426477Y199863D01*
X426473Y199760D01*
X426473Y199658D01*
X426477Y199555D01*
X426485Y199453D01*
X426497Y199351D01*
X426512Y199250D01*
X426531Y199149D01*
X426555Y199049D01*
X426581Y198950D01*
X426612Y198852D01*
X426646Y198756D01*
X426684Y198660D01*
X426726Y198567D01*
X426771Y198475D01*
X426819Y198384D01*
X426871Y198296D01*
X426926Y198209D01*
X426984Y198125D01*
X427046Y198043D01*
X427110Y197963D01*
X427178Y197886D01*
X427248Y197812D01*
X427322Y197740D01*
X427397Y197671D01*
X427476Y197605D01*
X427557Y197542D01*
X427640Y197482D01*
X427725Y197425D01*
X427813Y197372D01*
X427902Y197321D01*
X427993Y197275D01*
X428086Y197231D01*
X428181Y197192D01*
X428277Y197156D01*
X428374Y197123D01*
X428473Y197095D01*
X428572Y197070D01*
X428672Y197048D01*
X428773Y197031D01*
X428875Y197017D01*
X428977Y197008D01*
X429079Y197002D01*
X429182Y197000D01*
D13*
X547164Y123535D02*
X549534Y123535D01*
X547164Y123535D02*
X547164Y115633D01*
X551905Y115633D01*
X551905Y115632D02*
X552015Y115634D01*
X552126Y115640D01*
X552235Y115649D01*
X552345Y115663D01*
X552454Y115680D01*
X552562Y115701D01*
X552670Y115726D01*
X552776Y115754D01*
X552882Y115787D01*
X552986Y115823D01*
X553089Y115862D01*
X553191Y115905D01*
X553291Y115952D01*
X553389Y116002D01*
X553486Y116055D01*
X553580Y116112D01*
X553673Y116172D01*
X553763Y116236D01*
X553851Y116302D01*
X553937Y116372D01*
X554020Y116444D01*
X554101Y116519D01*
X554179Y116597D01*
X554254Y116678D01*
X554326Y116761D01*
X554396Y116847D01*
X554462Y116935D01*
X554526Y117025D01*
X554586Y117118D01*
X554643Y117212D01*
X554696Y117309D01*
X554746Y117407D01*
X554793Y117507D01*
X554836Y117609D01*
X554875Y117712D01*
X554911Y117816D01*
X554944Y117922D01*
X554972Y118028D01*
X554997Y118136D01*
X555018Y118244D01*
X555035Y118353D01*
X555049Y118463D01*
X555058Y118572D01*
X555064Y118683D01*
X555066Y118793D01*
X555066Y126696D01*
X555064Y126806D01*
X555058Y126917D01*
X555049Y127026D01*
X555035Y127136D01*
X555018Y127245D01*
X554997Y127353D01*
X554972Y127461D01*
X554944Y127567D01*
X554911Y127673D01*
X554875Y127777D01*
X554836Y127880D01*
X554793Y127982D01*
X554746Y128082D01*
X554696Y128180D01*
X554643Y128277D01*
X554586Y128371D01*
X554526Y128464D01*
X554462Y128554D01*
X554396Y128642D01*
X554326Y128728D01*
X554254Y128811D01*
X554179Y128892D01*
X554101Y128970D01*
X554020Y129045D01*
X553937Y129117D01*
X553851Y129187D01*
X553763Y129253D01*
X553673Y129317D01*
X553580Y129377D01*
X553486Y129434D01*
X553389Y129487D01*
X553291Y129537D01*
X553191Y129584D01*
X553089Y129627D01*
X552986Y129666D01*
X552882Y129702D01*
X552776Y129735D01*
X552670Y129763D01*
X552562Y129788D01*
X552454Y129809D01*
X552345Y129826D01*
X552235Y129840D01*
X552126Y129849D01*
X552015Y129855D01*
X551905Y129857D01*
X547164Y129857D01*
X539209Y129857D02*
X539209Y115633D01*
X531307Y115633D02*
X539209Y129857D01*
X531307Y129857D02*
X531307Y115633D01*
X523352Y115633D02*
X523352Y129857D01*
X519401Y129857D01*
X519401Y129856D02*
X519277Y129854D01*
X519153Y129848D01*
X519029Y129838D01*
X518906Y129825D01*
X518783Y129807D01*
X518661Y129786D01*
X518539Y129761D01*
X518418Y129732D01*
X518299Y129699D01*
X518180Y129663D01*
X518063Y129622D01*
X517947Y129579D01*
X517832Y129531D01*
X517719Y129480D01*
X517607Y129425D01*
X517498Y129367D01*
X517390Y129306D01*
X517284Y129241D01*
X517180Y129173D01*
X517079Y129101D01*
X516979Y129027D01*
X516883Y128949D01*
X516788Y128869D01*
X516696Y128785D01*
X516607Y128699D01*
X516521Y128610D01*
X516437Y128518D01*
X516357Y128423D01*
X516279Y128327D01*
X516205Y128227D01*
X516133Y128126D01*
X516065Y128022D01*
X516000Y127916D01*
X515939Y127808D01*
X515881Y127699D01*
X515826Y127587D01*
X515775Y127474D01*
X515727Y127359D01*
X515684Y127243D01*
X515643Y127126D01*
X515607Y127007D01*
X515574Y126888D01*
X515545Y126767D01*
X515520Y126645D01*
X515499Y126523D01*
X515481Y126400D01*
X515468Y126277D01*
X515458Y126153D01*
X515452Y126029D01*
X515450Y125905D01*
X515450Y119584D01*
X515452Y119460D01*
X515458Y119336D01*
X515468Y119212D01*
X515481Y119089D01*
X515499Y118966D01*
X515520Y118844D01*
X515545Y118722D01*
X515574Y118601D01*
X515607Y118482D01*
X515643Y118363D01*
X515684Y118246D01*
X515727Y118130D01*
X515775Y118015D01*
X515826Y117902D01*
X515881Y117790D01*
X515939Y117681D01*
X516000Y117573D01*
X516065Y117467D01*
X516133Y117363D01*
X516205Y117262D01*
X516279Y117162D01*
X516357Y117066D01*
X516437Y116971D01*
X516521Y116879D01*
X516607Y116790D01*
X516696Y116704D01*
X516788Y116620D01*
X516883Y116540D01*
X516979Y116462D01*
X517079Y116388D01*
X517180Y116316D01*
X517284Y116248D01*
X517390Y116183D01*
X517498Y116122D01*
X517607Y116064D01*
X517719Y116009D01*
X517832Y115958D01*
X517947Y115910D01*
X518063Y115867D01*
X518180Y115826D01*
X518299Y115790D01*
X518418Y115757D01*
X518539Y115728D01*
X518661Y115703D01*
X518783Y115682D01*
X518906Y115664D01*
X519029Y115651D01*
X519153Y115641D01*
X519277Y115635D01*
X519401Y115633D01*
X523352Y115633D01*
X555066Y104969D02*
X555066Y90745D01*
X555066Y104969D02*
X551115Y104969D01*
X550991Y104967D01*
X550867Y104961D01*
X550743Y104951D01*
X550620Y104938D01*
X550497Y104920D01*
X550375Y104899D01*
X550253Y104874D01*
X550132Y104845D01*
X550013Y104812D01*
X549894Y104776D01*
X549777Y104735D01*
X549661Y104692D01*
X549546Y104644D01*
X549433Y104593D01*
X549321Y104538D01*
X549212Y104480D01*
X549104Y104419D01*
X548998Y104354D01*
X548894Y104286D01*
X548793Y104214D01*
X548693Y104140D01*
X548597Y104062D01*
X548502Y103982D01*
X548410Y103898D01*
X548321Y103812D01*
X548235Y103723D01*
X548151Y103631D01*
X548071Y103536D01*
X547993Y103440D01*
X547919Y103340D01*
X547847Y103239D01*
X547779Y103135D01*
X547714Y103029D01*
X547653Y102921D01*
X547595Y102812D01*
X547540Y102700D01*
X547489Y102587D01*
X547441Y102472D01*
X547398Y102356D01*
X547357Y102239D01*
X547321Y102120D01*
X547288Y102001D01*
X547259Y101880D01*
X547234Y101758D01*
X547213Y101636D01*
X547195Y101513D01*
X547182Y101390D01*
X547172Y101266D01*
X547166Y101142D01*
X547164Y101018D01*
X547164Y94696D01*
X547166Y94572D01*
X547172Y94448D01*
X547182Y94324D01*
X547195Y94201D01*
X547213Y94078D01*
X547234Y93956D01*
X547259Y93834D01*
X547288Y93713D01*
X547321Y93594D01*
X547357Y93475D01*
X547398Y93358D01*
X547441Y93242D01*
X547489Y93127D01*
X547540Y93014D01*
X547595Y92902D01*
X547653Y92793D01*
X547714Y92685D01*
X547779Y92579D01*
X547847Y92475D01*
X547919Y92374D01*
X547993Y92274D01*
X548071Y92178D01*
X548151Y92083D01*
X548235Y91991D01*
X548321Y91902D01*
X548410Y91816D01*
X548502Y91732D01*
X548597Y91652D01*
X548693Y91574D01*
X548793Y91500D01*
X548894Y91428D01*
X548998Y91360D01*
X549104Y91295D01*
X549212Y91234D01*
X549321Y91176D01*
X549433Y91121D01*
X549546Y91070D01*
X549661Y91022D01*
X549777Y90979D01*
X549894Y90938D01*
X550013Y90902D01*
X550132Y90869D01*
X550253Y90840D01*
X550375Y90815D01*
X550497Y90794D01*
X550620Y90776D01*
X550743Y90763D01*
X550867Y90753D01*
X550991Y90747D01*
X551115Y90745D01*
X555066Y90745D01*
X539504Y96277D02*
X530021Y96277D01*
X534762Y101018D02*
X534762Y91535D01*
X555066Y79169D02*
X555066Y64945D01*
X555066Y79169D02*
X551115Y79169D01*
X550991Y79167D01*
X550867Y79161D01*
X550743Y79151D01*
X550620Y79138D01*
X550497Y79120D01*
X550375Y79099D01*
X550253Y79074D01*
X550132Y79045D01*
X550013Y79012D01*
X549894Y78976D01*
X549777Y78935D01*
X549661Y78892D01*
X549546Y78844D01*
X549433Y78793D01*
X549321Y78738D01*
X549212Y78680D01*
X549104Y78619D01*
X548998Y78554D01*
X548894Y78486D01*
X548793Y78414D01*
X548693Y78340D01*
X548597Y78262D01*
X548502Y78182D01*
X548410Y78098D01*
X548321Y78012D01*
X548235Y77923D01*
X548151Y77831D01*
X548071Y77736D01*
X547993Y77640D01*
X547919Y77540D01*
X547847Y77439D01*
X547779Y77335D01*
X547714Y77229D01*
X547653Y77121D01*
X547595Y77012D01*
X547540Y76900D01*
X547489Y76787D01*
X547441Y76672D01*
X547398Y76556D01*
X547357Y76439D01*
X547321Y76320D01*
X547288Y76201D01*
X547259Y76080D01*
X547234Y75958D01*
X547213Y75836D01*
X547195Y75713D01*
X547182Y75590D01*
X547172Y75466D01*
X547166Y75342D01*
X547164Y75218D01*
X547164Y68896D01*
X547166Y68772D01*
X547172Y68648D01*
X547182Y68524D01*
X547195Y68401D01*
X547213Y68278D01*
X547234Y68156D01*
X547259Y68034D01*
X547288Y67913D01*
X547321Y67794D01*
X547357Y67675D01*
X547398Y67558D01*
X547441Y67442D01*
X547489Y67327D01*
X547540Y67214D01*
X547595Y67102D01*
X547653Y66993D01*
X547714Y66885D01*
X547779Y66779D01*
X547847Y66675D01*
X547919Y66574D01*
X547993Y66474D01*
X548071Y66378D01*
X548151Y66283D01*
X548235Y66191D01*
X548321Y66102D01*
X548410Y66016D01*
X548502Y65932D01*
X548597Y65852D01*
X548693Y65774D01*
X548793Y65700D01*
X548894Y65628D01*
X548998Y65560D01*
X549104Y65495D01*
X549212Y65434D01*
X549321Y65376D01*
X549433Y65321D01*
X549546Y65270D01*
X549661Y65222D01*
X549777Y65179D01*
X549894Y65138D01*
X550013Y65102D01*
X550132Y65069D01*
X550253Y65040D01*
X550375Y65015D01*
X550497Y64994D01*
X550620Y64976D01*
X550743Y64963D01*
X550867Y64953D01*
X550991Y64947D01*
X551115Y64945D01*
X555066Y64945D01*
X539504Y70477D02*
X530021Y70477D01*
X555066Y142620D02*
X555066Y152103D01*
X551115Y152103D01*
X551020Y152101D01*
X550924Y152095D01*
X550829Y152086D01*
X550735Y152072D01*
X550641Y152055D01*
X550548Y152034D01*
X550455Y152009D01*
X550364Y151981D01*
X550274Y151949D01*
X550186Y151913D01*
X550099Y151874D01*
X550013Y151831D01*
X549930Y151785D01*
X549848Y151736D01*
X549768Y151683D01*
X549691Y151627D01*
X549615Y151569D01*
X549543Y151507D01*
X549473Y151442D01*
X549405Y151374D01*
X549340Y151304D01*
X549278Y151232D01*
X549220Y151156D01*
X549164Y151079D01*
X549111Y150999D01*
X549062Y150918D01*
X549016Y150834D01*
X548973Y150748D01*
X548934Y150661D01*
X548898Y150573D01*
X548866Y150483D01*
X548838Y150392D01*
X548813Y150299D01*
X548792Y150206D01*
X548775Y150112D01*
X548761Y150018D01*
X548752Y149923D01*
X548746Y149828D01*
X548744Y149732D01*
X548744Y142620D01*
X542390Y142620D02*
X542390Y143410D01*
X541599Y143410D01*
X541599Y142620D01*
X542390Y142620D01*
X533345Y142620D02*
X530184Y142620D01*
X533345Y142620D02*
X533440Y142622D01*
X533536Y142628D01*
X533631Y142637D01*
X533725Y142651D01*
X533819Y142668D01*
X533912Y142689D01*
X534005Y142714D01*
X534096Y142742D01*
X534186Y142774D01*
X534274Y142810D01*
X534361Y142849D01*
X534447Y142892D01*
X534531Y142938D01*
X534612Y142987D01*
X534692Y143040D01*
X534769Y143096D01*
X534845Y143154D01*
X534917Y143216D01*
X534987Y143281D01*
X535055Y143349D01*
X535120Y143419D01*
X535182Y143491D01*
X535240Y143567D01*
X535296Y143644D01*
X535349Y143724D01*
X535398Y143806D01*
X535444Y143889D01*
X535487Y143975D01*
X535526Y144062D01*
X535562Y144150D01*
X535594Y144240D01*
X535622Y144331D01*
X535647Y144424D01*
X535668Y144517D01*
X535685Y144611D01*
X535699Y144705D01*
X535708Y144800D01*
X535714Y144896D01*
X535716Y144991D01*
X535716Y149732D01*
X535714Y149827D01*
X535708Y149923D01*
X535699Y150018D01*
X535685Y150112D01*
X535668Y150206D01*
X535647Y150299D01*
X535622Y150392D01*
X535594Y150483D01*
X535562Y150573D01*
X535526Y150661D01*
X535487Y150748D01*
X535444Y150834D01*
X535398Y150918D01*
X535349Y150999D01*
X535296Y151079D01*
X535240Y151156D01*
X535182Y151232D01*
X535120Y151304D01*
X535055Y151374D01*
X534987Y151442D01*
X534917Y151507D01*
X534845Y151569D01*
X534769Y151627D01*
X534692Y151683D01*
X534612Y151736D01*
X534531Y151785D01*
X534447Y151831D01*
X534361Y151874D01*
X534274Y151913D01*
X534186Y151949D01*
X534096Y151981D01*
X534005Y152009D01*
X533912Y152034D01*
X533819Y152055D01*
X533725Y152072D01*
X533631Y152086D01*
X533536Y152095D01*
X533440Y152101D01*
X533345Y152103D01*
X530184Y152103D01*
X525046Y143410D02*
X525046Y142620D01*
X525046Y143410D02*
X524256Y143410D01*
X524256Y142620D01*
X525046Y142620D01*
D15*
X60942Y124750D02*
X60981Y127948D01*
X61099Y131144D01*
X61295Y134336D01*
X61569Y137522D01*
X61922Y140701D01*
X62352Y143870D01*
X62860Y147028D01*
X63446Y150172D01*
X64108Y153301D01*
X64847Y156412D01*
X65662Y159505D01*
X66553Y162576D01*
X67519Y165625D01*
X68559Y168649D01*
X69674Y171647D01*
X70861Y174617D01*
X72121Y177556D01*
X73453Y180464D01*
X74856Y183338D01*
X76329Y186177D01*
X77871Y188979D01*
X79481Y191742D01*
X81159Y194464D01*
X82903Y197145D01*
X84712Y199782D01*
X86586Y202374D01*
X88522Y204920D01*
X90521Y207417D01*
X92580Y209864D01*
X94698Y212260D01*
X96875Y214603D01*
X99108Y216892D01*
X101397Y219125D01*
X103740Y221302D01*
X106136Y223420D01*
X108583Y225479D01*
X111080Y227478D01*
X113626Y229414D01*
X116218Y231288D01*
X118855Y233097D01*
X121536Y234841D01*
X124258Y236519D01*
X127021Y238129D01*
X129823Y239671D01*
X132662Y241144D01*
X135536Y242547D01*
X138444Y243879D01*
X141383Y245139D01*
X144353Y246326D01*
X147351Y247441D01*
X150375Y248481D01*
X153424Y249447D01*
X156495Y250338D01*
X159588Y251153D01*
X162699Y251892D01*
X165828Y252554D01*
X168972Y253140D01*
X172130Y253648D01*
X175299Y254078D01*
X178478Y254431D01*
X181664Y254705D01*
X184856Y254901D01*
X188052Y255019D01*
X191250Y255058D01*
X194448Y255019D01*
X197644Y254901D01*
X200836Y254705D01*
X204022Y254431D01*
X207201Y254078D01*
X210370Y253648D01*
X213528Y253140D01*
X216672Y252554D01*
X219801Y251892D01*
X222912Y251153D01*
X226005Y250338D01*
X229076Y249447D01*
X232125Y248481D01*
X235149Y247441D01*
X238147Y246326D01*
X241117Y245139D01*
X244056Y243879D01*
X246964Y242547D01*
X249838Y241144D01*
X252677Y239671D01*
X255479Y238129D01*
X258242Y236519D01*
X260964Y234841D01*
X263645Y233097D01*
X266282Y231288D01*
X268874Y229414D01*
X271420Y227478D01*
X273917Y225479D01*
X276364Y223420D01*
X278760Y221302D01*
X281103Y219125D01*
X283392Y216892D01*
X285625Y214603D01*
X287802Y212260D01*
X289920Y209864D01*
X291979Y207417D01*
X293978Y204920D01*
X295914Y202374D01*
X297788Y199782D01*
X299597Y197145D01*
X301341Y194464D01*
X303019Y191742D01*
X304629Y188979D01*
X306171Y186177D01*
X307644Y183338D01*
X309047Y180464D01*
X310379Y177556D01*
X311639Y174617D01*
X312826Y171647D01*
X313941Y168649D01*
X314981Y165625D01*
X315947Y162576D01*
X316838Y159505D01*
X317653Y156412D01*
X318392Y153301D01*
X319054Y150172D01*
X319640Y147028D01*
X320148Y143870D01*
X320578Y140701D01*
X320931Y137522D01*
X321205Y134336D01*
X321401Y131144D01*
X321519Y127948D01*
X321558Y124750D01*
X321519Y121552D01*
X321401Y118356D01*
X321205Y115164D01*
X320931Y111978D01*
X320578Y108799D01*
X320148Y105630D01*
X319640Y102472D01*
X319054Y99328D01*
X318392Y96199D01*
X317653Y93088D01*
X316838Y89995D01*
X315947Y86924D01*
X314981Y83875D01*
X313941Y80851D01*
X312826Y77853D01*
X311639Y74883D01*
X310379Y71944D01*
X309047Y69036D01*
X307644Y66162D01*
X306171Y63323D01*
X304629Y60521D01*
X303019Y57758D01*
X301341Y55036D01*
X299597Y52355D01*
X297788Y49718D01*
X295914Y47126D01*
X293978Y44580D01*
X291979Y42083D01*
X289920Y39636D01*
X287802Y37240D01*
X285625Y34897D01*
X283392Y32608D01*
X281103Y30375D01*
X278760Y28198D01*
X276364Y26080D01*
X273917Y24021D01*
X271420Y22022D01*
X268874Y20086D01*
X266282Y18212D01*
X263645Y16403D01*
X260964Y14659D01*
X258242Y12981D01*
X255479Y11371D01*
X252677Y9829D01*
X249838Y8356D01*
X246964Y6953D01*
X244056Y5621D01*
X241117Y4361D01*
X238147Y3174D01*
X235149Y2059D01*
X232125Y1019D01*
X229076Y53D01*
X226005Y-838D01*
X222912Y-1653D01*
X219801Y-2392D01*
X216672Y-3054D01*
X213528Y-3640D01*
X210370Y-4148D01*
X207201Y-4578D01*
X204022Y-4931D01*
X200836Y-5205D01*
X197644Y-5401D01*
X194448Y-5519D01*
X191250Y-5558D01*
X188052Y-5519D01*
X184856Y-5401D01*
X181664Y-5205D01*
X178478Y-4931D01*
X175299Y-4578D01*
X172130Y-4148D01*
X168972Y-3640D01*
X165828Y-3054D01*
X162699Y-2392D01*
X159588Y-1653D01*
X156495Y-838D01*
X153424Y53D01*
X150375Y1019D01*
X147351Y2059D01*
X144353Y3174D01*
X141383Y4361D01*
X138444Y5621D01*
X135536Y6953D01*
X132662Y8356D01*
X129823Y9829D01*
X127021Y11371D01*
X124258Y12981D01*
X121536Y14659D01*
X118855Y16403D01*
X116218Y18212D01*
X113626Y20086D01*
X111080Y22022D01*
X108583Y24021D01*
X106136Y26080D01*
X103740Y28198D01*
X101397Y30375D01*
X99108Y32608D01*
X96875Y34897D01*
X94698Y37240D01*
X92580Y39636D01*
X90521Y42083D01*
X88522Y44580D01*
X86586Y47126D01*
X84712Y49718D01*
X82903Y52355D01*
X81159Y55036D01*
X79481Y57758D01*
X77871Y60521D01*
X76329Y63323D01*
X74856Y66162D01*
X73453Y69036D01*
X72121Y71944D01*
X70861Y74883D01*
X69674Y77853D01*
X68559Y80851D01*
X67519Y83875D01*
X66553Y86924D01*
X65662Y89995D01*
X64847Y93088D01*
X64108Y96199D01*
X63446Y99328D01*
X62860Y102472D01*
X62352Y105630D01*
X61922Y108799D01*
X61569Y111978D01*
X61295Y115164D01*
X61099Y118356D01*
X60981Y121552D01*
X60942Y124750D01*
X8950Y46013D02*
X8950Y7838D01*
X8950Y46013D02*
X34625Y46013D01*
X34625Y7838D01*
X8950Y7838D01*
X204851Y147130D02*
X204851Y159703D01*
X204851Y147130D02*
X213932Y138049D01*
X226314Y138049D01*
X235331Y147066D01*
X235331Y159449D01*
X226314Y168466D01*
X213614Y168466D01*
X204851Y159703D01*
X154083Y174022D02*
X285845Y174022D01*
X154083Y174022D02*
X154083Y85122D01*
X285845Y85122D01*
X285845Y174022D01*
D12*
X256159Y137894D02*
X251996Y141224D01*
X251996Y126238D01*
X256159Y126238D02*
X247833Y126238D01*
X189286Y141796D02*
X189166Y141794D01*
X189046Y141788D01*
X188926Y141779D01*
X188807Y141765D01*
X188688Y141748D01*
X188570Y141727D01*
X188452Y141702D01*
X188336Y141673D01*
X188220Y141641D01*
X188105Y141605D01*
X187992Y141565D01*
X187880Y141522D01*
X187769Y141475D01*
X187660Y141425D01*
X187553Y141371D01*
X187447Y141314D01*
X187344Y141253D01*
X187242Y141189D01*
X187142Y141122D01*
X187045Y141052D01*
X186950Y140979D01*
X186857Y140902D01*
X186767Y140823D01*
X186679Y140741D01*
X186594Y140656D01*
X186512Y140568D01*
X186433Y140478D01*
X186356Y140385D01*
X186283Y140290D01*
X186213Y140193D01*
X186146Y140093D01*
X186082Y139991D01*
X186021Y139888D01*
X185964Y139782D01*
X185910Y139675D01*
X185860Y139566D01*
X185813Y139455D01*
X185770Y139343D01*
X185730Y139230D01*
X185694Y139115D01*
X185662Y138999D01*
X185633Y138883D01*
X185608Y138765D01*
X185587Y138647D01*
X185570Y138528D01*
X185556Y138409D01*
X185547Y138289D01*
X185541Y138169D01*
X185539Y138049D01*
X189286Y141795D02*
X189424Y141793D01*
X189561Y141787D01*
X189698Y141777D01*
X189835Y141764D01*
X189971Y141746D01*
X190107Y141724D01*
X190243Y141699D01*
X190377Y141670D01*
X190510Y141637D01*
X190643Y141600D01*
X190774Y141559D01*
X190905Y141515D01*
X191033Y141467D01*
X191161Y141415D01*
X191287Y141359D01*
X191411Y141300D01*
X191534Y141238D01*
X191654Y141172D01*
X191773Y141103D01*
X191890Y141030D01*
X192005Y140954D01*
X192117Y140874D01*
X192227Y140792D01*
X192335Y140706D01*
X192440Y140618D01*
X192542Y140526D01*
X192642Y140432D01*
X192740Y140334D01*
X192834Y140234D01*
X192926Y140131D01*
X193014Y140026D01*
X193099Y139918D01*
X193182Y139808D01*
X193261Y139696D01*
X193337Y139581D01*
X193410Y139464D01*
X193479Y139345D01*
X193545Y139225D01*
X193607Y139102D01*
X193666Y138978D01*
X193721Y138852D01*
X193773Y138724D01*
X193821Y138595D01*
X193865Y138465D01*
X186789Y135135D02*
X186699Y135223D01*
X186613Y135314D01*
X186529Y135407D01*
X186448Y135503D01*
X186370Y135601D01*
X186296Y135701D01*
X186224Y135804D01*
X186156Y135909D01*
X186091Y136017D01*
X186029Y136126D01*
X185971Y136237D01*
X185916Y136350D01*
X185865Y136464D01*
X185818Y136580D01*
X185774Y136697D01*
X185734Y136816D01*
X185697Y136936D01*
X185664Y137057D01*
X185635Y137179D01*
X185610Y137301D01*
X185589Y137425D01*
X185571Y137549D01*
X185558Y137674D01*
X185548Y137799D01*
X185542Y137924D01*
X185540Y138049D01*
X186789Y135135D02*
X193866Y126810D01*
X185540Y126810D01*
M02*
