G04 EAGLE Gerber RS-274X export*
G75*
%MOMM*%
%FSLAX34Y34*%
%LPD*%
%INSlot drill/holes/outline*%
%IPPOS*%
%AMOC8*
5,1,8,0,0,1.08239X$1,22.5*%
G01*
%ADD10C,0.000000*%
%ADD11C,0.010000*%


D10*
X0Y0D02*
X680000Y0D01*
X680000Y250000D01*
X0Y250000D01*
X0Y0D01*
D11*
X630025Y39075D02*
X630027Y38947D01*
X630033Y38818D01*
X630042Y38690D01*
X630056Y38563D01*
X630073Y38436D01*
X630095Y38309D01*
X630120Y38183D01*
X630148Y38058D01*
X630181Y37934D01*
X630217Y37811D01*
X630257Y37689D01*
X630301Y37568D01*
X630349Y37449D01*
X630399Y37331D01*
X630454Y37214D01*
X630512Y37100D01*
X630573Y36987D01*
X630638Y36876D01*
X630706Y36767D01*
X630777Y36661D01*
X630852Y36556D01*
X630929Y36454D01*
X631010Y36354D01*
X631094Y36257D01*
X631180Y36162D01*
X631270Y36070D01*
X631362Y35980D01*
X631457Y35894D01*
X631554Y35810D01*
X631654Y35729D01*
X631756Y35652D01*
X631861Y35577D01*
X631967Y35506D01*
X632076Y35438D01*
X632187Y35373D01*
X632300Y35312D01*
X632414Y35254D01*
X632531Y35199D01*
X632649Y35149D01*
X632768Y35101D01*
X632889Y35057D01*
X633011Y35017D01*
X633134Y34981D01*
X633258Y34948D01*
X633383Y34920D01*
X633509Y34895D01*
X633636Y34873D01*
X633763Y34856D01*
X633890Y34842D01*
X634018Y34833D01*
X634147Y34827D01*
X634275Y34825D01*
X634275Y43325D02*
X649775Y43325D01*
X649775Y34825D02*
X634275Y34825D01*
X649775Y34825D02*
X649903Y34827D01*
X650032Y34833D01*
X650160Y34842D01*
X650287Y34856D01*
X650414Y34873D01*
X650541Y34895D01*
X650667Y34920D01*
X650792Y34948D01*
X650916Y34981D01*
X651039Y35017D01*
X651161Y35057D01*
X651282Y35101D01*
X651401Y35149D01*
X651519Y35199D01*
X651636Y35254D01*
X651750Y35312D01*
X651863Y35373D01*
X651974Y35438D01*
X652083Y35506D01*
X652189Y35577D01*
X652294Y35652D01*
X652396Y35729D01*
X652496Y35810D01*
X652593Y35894D01*
X652688Y35980D01*
X652780Y36070D01*
X652870Y36162D01*
X652956Y36257D01*
X653040Y36354D01*
X653121Y36454D01*
X653198Y36556D01*
X653273Y36661D01*
X653344Y36767D01*
X653412Y36876D01*
X653477Y36987D01*
X653538Y37100D01*
X653596Y37214D01*
X653651Y37331D01*
X653701Y37449D01*
X653749Y37568D01*
X653793Y37689D01*
X653833Y37811D01*
X653869Y37934D01*
X653902Y38058D01*
X653930Y38183D01*
X653955Y38309D01*
X653977Y38436D01*
X653994Y38563D01*
X654008Y38690D01*
X654017Y38818D01*
X654023Y38947D01*
X654025Y39075D01*
X654023Y39203D01*
X654017Y39332D01*
X654008Y39460D01*
X653994Y39587D01*
X653977Y39714D01*
X653955Y39841D01*
X653930Y39967D01*
X653902Y40092D01*
X653869Y40216D01*
X653833Y40339D01*
X653793Y40461D01*
X653749Y40582D01*
X653701Y40701D01*
X653651Y40819D01*
X653596Y40936D01*
X653538Y41050D01*
X653477Y41163D01*
X653412Y41274D01*
X653344Y41383D01*
X653273Y41489D01*
X653198Y41594D01*
X653121Y41696D01*
X653040Y41796D01*
X652956Y41893D01*
X652870Y41988D01*
X652780Y42080D01*
X652688Y42170D01*
X652593Y42256D01*
X652496Y42340D01*
X652396Y42421D01*
X652294Y42498D01*
X652189Y42573D01*
X652083Y42644D01*
X651974Y42712D01*
X651863Y42777D01*
X651750Y42838D01*
X651636Y42896D01*
X651519Y42951D01*
X651401Y43001D01*
X651282Y43049D01*
X651161Y43093D01*
X651039Y43133D01*
X650916Y43169D01*
X650792Y43202D01*
X650667Y43230D01*
X650541Y43255D01*
X650414Y43277D01*
X650287Y43294D01*
X650160Y43308D01*
X650032Y43317D01*
X649903Y43323D01*
X649775Y43325D01*
X634275Y43325D02*
X634147Y43323D01*
X634018Y43317D01*
X633890Y43308D01*
X633763Y43294D01*
X633636Y43277D01*
X633509Y43255D01*
X633383Y43230D01*
X633258Y43202D01*
X633134Y43169D01*
X633011Y43133D01*
X632889Y43093D01*
X632768Y43049D01*
X632649Y43001D01*
X632531Y42951D01*
X632414Y42896D01*
X632300Y42838D01*
X632187Y42777D01*
X632076Y42712D01*
X631967Y42644D01*
X631861Y42573D01*
X631756Y42498D01*
X631654Y42421D01*
X631554Y42340D01*
X631457Y42256D01*
X631362Y42170D01*
X631270Y42080D01*
X631180Y41988D01*
X631094Y41893D01*
X631010Y41796D01*
X630929Y41696D01*
X630852Y41594D01*
X630777Y41489D01*
X630706Y41383D01*
X630638Y41274D01*
X630573Y41163D01*
X630512Y41050D01*
X630454Y40936D01*
X630399Y40819D01*
X630349Y40701D01*
X630301Y40582D01*
X630257Y40461D01*
X630217Y40339D01*
X630181Y40216D01*
X630148Y40092D01*
X630120Y39967D01*
X630095Y39841D01*
X630073Y39714D01*
X630056Y39587D01*
X630042Y39460D01*
X630033Y39332D01*
X630027Y39203D01*
X630025Y39075D01*
X634275Y107825D02*
X634147Y107827D01*
X634018Y107833D01*
X633890Y107842D01*
X633763Y107856D01*
X633636Y107873D01*
X633509Y107895D01*
X633383Y107920D01*
X633258Y107948D01*
X633134Y107981D01*
X633011Y108017D01*
X632889Y108057D01*
X632768Y108101D01*
X632649Y108149D01*
X632531Y108199D01*
X632414Y108254D01*
X632300Y108312D01*
X632187Y108373D01*
X632076Y108438D01*
X631967Y108506D01*
X631861Y108577D01*
X631756Y108652D01*
X631654Y108729D01*
X631554Y108810D01*
X631457Y108894D01*
X631362Y108980D01*
X631270Y109070D01*
X631180Y109162D01*
X631094Y109257D01*
X631010Y109354D01*
X630929Y109454D01*
X630852Y109556D01*
X630777Y109661D01*
X630706Y109767D01*
X630638Y109876D01*
X630573Y109987D01*
X630512Y110100D01*
X630454Y110214D01*
X630399Y110331D01*
X630349Y110449D01*
X630301Y110568D01*
X630257Y110689D01*
X630217Y110811D01*
X630181Y110934D01*
X630148Y111058D01*
X630120Y111183D01*
X630095Y111309D01*
X630073Y111436D01*
X630056Y111563D01*
X630042Y111690D01*
X630033Y111818D01*
X630027Y111947D01*
X630025Y112075D01*
X634275Y116325D02*
X649775Y116325D01*
X649775Y107825D02*
X634275Y107825D01*
X649775Y107825D02*
X649903Y107827D01*
X650032Y107833D01*
X650160Y107842D01*
X650287Y107856D01*
X650414Y107873D01*
X650541Y107895D01*
X650667Y107920D01*
X650792Y107948D01*
X650916Y107981D01*
X651039Y108017D01*
X651161Y108057D01*
X651282Y108101D01*
X651401Y108149D01*
X651519Y108199D01*
X651636Y108254D01*
X651750Y108312D01*
X651863Y108373D01*
X651974Y108438D01*
X652083Y108506D01*
X652189Y108577D01*
X652294Y108652D01*
X652396Y108729D01*
X652496Y108810D01*
X652593Y108894D01*
X652688Y108980D01*
X652780Y109070D01*
X652870Y109162D01*
X652956Y109257D01*
X653040Y109354D01*
X653121Y109454D01*
X653198Y109556D01*
X653273Y109661D01*
X653344Y109767D01*
X653412Y109876D01*
X653477Y109987D01*
X653538Y110100D01*
X653596Y110214D01*
X653651Y110331D01*
X653701Y110449D01*
X653749Y110568D01*
X653793Y110689D01*
X653833Y110811D01*
X653869Y110934D01*
X653902Y111058D01*
X653930Y111183D01*
X653955Y111309D01*
X653977Y111436D01*
X653994Y111563D01*
X654008Y111690D01*
X654017Y111818D01*
X654023Y111947D01*
X654025Y112075D01*
X654023Y112203D01*
X654017Y112332D01*
X654008Y112460D01*
X653994Y112587D01*
X653977Y112714D01*
X653955Y112841D01*
X653930Y112967D01*
X653902Y113092D01*
X653869Y113216D01*
X653833Y113339D01*
X653793Y113461D01*
X653749Y113582D01*
X653701Y113701D01*
X653651Y113819D01*
X653596Y113936D01*
X653538Y114050D01*
X653477Y114163D01*
X653412Y114274D01*
X653344Y114383D01*
X653273Y114489D01*
X653198Y114594D01*
X653121Y114696D01*
X653040Y114796D01*
X652956Y114893D01*
X652870Y114988D01*
X652780Y115080D01*
X652688Y115170D01*
X652593Y115256D01*
X652496Y115340D01*
X652396Y115421D01*
X652294Y115498D01*
X652189Y115573D01*
X652083Y115644D01*
X651974Y115712D01*
X651863Y115777D01*
X651750Y115838D01*
X651636Y115896D01*
X651519Y115951D01*
X651401Y116001D01*
X651282Y116049D01*
X651161Y116093D01*
X651039Y116133D01*
X650916Y116169D01*
X650792Y116202D01*
X650667Y116230D01*
X650541Y116255D01*
X650414Y116277D01*
X650287Y116294D01*
X650160Y116308D01*
X650032Y116317D01*
X649903Y116323D01*
X649775Y116325D01*
X634275Y116325D02*
X634147Y116323D01*
X634018Y116317D01*
X633890Y116308D01*
X633763Y116294D01*
X633636Y116277D01*
X633509Y116255D01*
X633383Y116230D01*
X633258Y116202D01*
X633134Y116169D01*
X633011Y116133D01*
X632889Y116093D01*
X632768Y116049D01*
X632649Y116001D01*
X632531Y115951D01*
X632414Y115896D01*
X632300Y115838D01*
X632187Y115777D01*
X632076Y115712D01*
X631967Y115644D01*
X631861Y115573D01*
X631756Y115498D01*
X631654Y115421D01*
X631554Y115340D01*
X631457Y115256D01*
X631362Y115170D01*
X631270Y115080D01*
X631180Y114988D01*
X631094Y114893D01*
X631010Y114796D01*
X630929Y114696D01*
X630852Y114594D01*
X630777Y114489D01*
X630706Y114383D01*
X630638Y114274D01*
X630573Y114163D01*
X630512Y114050D01*
X630454Y113936D01*
X630399Y113819D01*
X630349Y113701D01*
X630301Y113582D01*
X630257Y113461D01*
X630217Y113339D01*
X630181Y113216D01*
X630148Y113092D01*
X630120Y112967D01*
X630095Y112841D01*
X630073Y112714D01*
X630056Y112587D01*
X630042Y112460D01*
X630033Y112332D01*
X630027Y112203D01*
X630025Y112075D01*
M02*
