G04 EAGLE Gerber RS-274X export*
G75*
%MOMM*%
%FSLAX34Y34*%
%LPD*%
%INBottom solder mask*%
%IPPOS*%
%AMOC8*
5,1,8,0,0,1.08239X$1,22.5*%
G01*
%ADD10C,0.000000*%
%ADD11P,3.037944X8X292.500000*%
%ADD12P,2.254402X8X292.500000*%
%ADD13C,1.625600*%
%ADD14R,1.701800X1.270000*%
%ADD15R,1.828800X0.152400*%
%ADD16C,1.778000*%
%ADD17C,1.309600*%
%ADD18C,1.701600*%
%ADD19R,2.006600X2.006600*%
%ADD20C,2.006600*%

G36*
X653546Y103080D02*
X653546Y103080D01*
X653574Y103078D01*
X655232Y103241D01*
X655270Y103253D01*
X655328Y103261D01*
X656923Y103744D01*
X656958Y103763D01*
X657013Y103782D01*
X658483Y104567D01*
X658513Y104593D01*
X658564Y104622D01*
X659852Y105679D01*
X659876Y105708D01*
X659900Y105724D01*
X659907Y105735D01*
X659921Y105748D01*
X660978Y107036D01*
X660997Y107071D01*
X661033Y107117D01*
X661818Y108587D01*
X661830Y108625D01*
X661856Y108677D01*
X662339Y110272D01*
X662343Y110311D01*
X662359Y110368D01*
X662522Y112026D01*
X662519Y112056D01*
X662523Y112079D01*
X662520Y112092D01*
X662522Y112124D01*
X662359Y113782D01*
X662347Y113820D01*
X662339Y113878D01*
X661856Y115473D01*
X661837Y115508D01*
X661818Y115563D01*
X661033Y117033D01*
X661008Y117063D01*
X660978Y117114D01*
X659921Y118402D01*
X659899Y118420D01*
X659897Y118423D01*
X659891Y118427D01*
X659852Y118471D01*
X658564Y119528D01*
X658529Y119547D01*
X658483Y119583D01*
X657013Y120368D01*
X656975Y120380D01*
X656923Y120406D01*
X655328Y120889D01*
X655289Y120893D01*
X655232Y120909D01*
X653574Y121072D01*
X653552Y121070D01*
X653525Y121074D01*
X630525Y121074D01*
X630504Y121070D01*
X630476Y121072D01*
X628818Y120909D01*
X628780Y120897D01*
X628722Y120889D01*
X627127Y120406D01*
X627092Y120387D01*
X627037Y120368D01*
X625567Y119583D01*
X625537Y119558D01*
X625486Y119528D01*
X624198Y118471D01*
X624173Y118441D01*
X624129Y118402D01*
X623072Y117114D01*
X623053Y117079D01*
X623017Y117033D01*
X622232Y115563D01*
X622220Y115525D01*
X622194Y115473D01*
X621711Y113878D01*
X621707Y113839D01*
X621691Y113782D01*
X621528Y112124D01*
X621532Y112085D01*
X621531Y112068D01*
X621527Y112046D01*
X621529Y112039D01*
X621528Y112026D01*
X621691Y110368D01*
X621703Y110330D01*
X621711Y110272D01*
X622194Y108677D01*
X622213Y108642D01*
X622232Y108587D01*
X623017Y107117D01*
X623043Y107087D01*
X623072Y107036D01*
X624129Y105748D01*
X624156Y105725D01*
X624174Y105701D01*
X624183Y105696D01*
X624198Y105679D01*
X625486Y104622D01*
X625521Y104603D01*
X625567Y104567D01*
X627037Y103782D01*
X627075Y103770D01*
X627127Y103744D01*
X628722Y103261D01*
X628761Y103257D01*
X628818Y103241D01*
X630476Y103078D01*
X630498Y103080D01*
X630525Y103076D01*
X653525Y103076D01*
X653546Y103080D01*
G37*
G36*
X653546Y30080D02*
X653546Y30080D01*
X653574Y30078D01*
X655232Y30241D01*
X655270Y30253D01*
X655328Y30261D01*
X656923Y30744D01*
X656958Y30763D01*
X657013Y30782D01*
X658483Y31567D01*
X658513Y31593D01*
X658564Y31622D01*
X659852Y32679D01*
X659876Y32708D01*
X659900Y32724D01*
X659907Y32735D01*
X659921Y32748D01*
X660978Y34036D01*
X660997Y34071D01*
X661033Y34117D01*
X661818Y35587D01*
X661830Y35625D01*
X661856Y35677D01*
X662339Y37272D01*
X662343Y37311D01*
X662359Y37368D01*
X662522Y39026D01*
X662519Y39056D01*
X662523Y39079D01*
X662520Y39092D01*
X662522Y39124D01*
X662359Y40782D01*
X662347Y40820D01*
X662339Y40878D01*
X661856Y42473D01*
X661837Y42508D01*
X661818Y42563D01*
X661033Y44033D01*
X661008Y44063D01*
X660978Y44114D01*
X659921Y45402D01*
X659899Y45420D01*
X659897Y45423D01*
X659891Y45427D01*
X659852Y45471D01*
X658564Y46528D01*
X658529Y46547D01*
X658483Y46583D01*
X657013Y47368D01*
X656975Y47380D01*
X656923Y47406D01*
X655328Y47889D01*
X655289Y47893D01*
X655232Y47909D01*
X653574Y48072D01*
X653552Y48070D01*
X653525Y48074D01*
X630525Y48074D01*
X630504Y48070D01*
X630476Y48072D01*
X628818Y47909D01*
X628780Y47897D01*
X628722Y47889D01*
X627127Y47406D01*
X627092Y47387D01*
X627037Y47368D01*
X625567Y46583D01*
X625537Y46558D01*
X625486Y46528D01*
X624198Y45471D01*
X624173Y45441D01*
X624129Y45402D01*
X623072Y44114D01*
X623053Y44079D01*
X623017Y44033D01*
X622232Y42563D01*
X622220Y42525D01*
X622194Y42473D01*
X621711Y40878D01*
X621707Y40839D01*
X621691Y40782D01*
X621528Y39124D01*
X621532Y39085D01*
X621531Y39068D01*
X621527Y39046D01*
X621529Y39039D01*
X621528Y39026D01*
X621691Y37368D01*
X621703Y37330D01*
X621711Y37272D01*
X622194Y35677D01*
X622213Y35642D01*
X622232Y35587D01*
X623017Y34117D01*
X623043Y34087D01*
X623072Y34036D01*
X624129Y32748D01*
X624156Y32725D01*
X624174Y32701D01*
X624183Y32696D01*
X624198Y32679D01*
X625486Y31622D01*
X625521Y31603D01*
X625567Y31567D01*
X627037Y30782D01*
X627075Y30770D01*
X627127Y30744D01*
X628722Y30261D01*
X628761Y30257D01*
X628818Y30241D01*
X630476Y30078D01*
X630498Y30080D01*
X630525Y30076D01*
X653525Y30076D01*
X653546Y30080D01*
G37*
G36*
X658046Y85080D02*
X658046Y85080D01*
X658074Y85078D01*
X659244Y85193D01*
X659282Y85205D01*
X659340Y85213D01*
X660466Y85554D01*
X660501Y85573D01*
X660556Y85591D01*
X661594Y86146D01*
X661624Y86171D01*
X661675Y86200D01*
X662584Y86946D01*
X662609Y86977D01*
X662654Y87016D01*
X663400Y87925D01*
X663418Y87960D01*
X663454Y88006D01*
X664009Y89044D01*
X664020Y89082D01*
X664046Y89134D01*
X664387Y90260D01*
X664391Y90299D01*
X664407Y90356D01*
X664522Y91526D01*
X664519Y91557D01*
X664523Y91583D01*
X664520Y91596D01*
X664522Y91624D01*
X664407Y92794D01*
X664395Y92832D01*
X664387Y92890D01*
X664046Y94016D01*
X664027Y94051D01*
X664009Y94106D01*
X663454Y95144D01*
X663429Y95174D01*
X663400Y95225D01*
X662654Y96134D01*
X662623Y96159D01*
X662584Y96204D01*
X661675Y96950D01*
X661640Y96968D01*
X661594Y97004D01*
X660556Y97559D01*
X660519Y97570D01*
X660466Y97596D01*
X659340Y97937D01*
X659301Y97941D01*
X659244Y97957D01*
X658074Y98072D01*
X658052Y98070D01*
X658025Y98074D01*
X652025Y98074D01*
X652004Y98070D01*
X651976Y98072D01*
X650806Y97957D01*
X650768Y97945D01*
X650710Y97937D01*
X649584Y97596D01*
X649549Y97577D01*
X649494Y97559D01*
X648456Y97004D01*
X648426Y96979D01*
X648375Y96950D01*
X647466Y96204D01*
X647441Y96173D01*
X647396Y96134D01*
X646650Y95225D01*
X646632Y95190D01*
X646596Y95144D01*
X646041Y94106D01*
X646030Y94069D01*
X646004Y94016D01*
X645663Y92890D01*
X645659Y92851D01*
X645643Y92794D01*
X645528Y91624D01*
X645532Y91585D01*
X645532Y91578D01*
X645527Y91549D01*
X645529Y91540D01*
X645528Y91526D01*
X645643Y90356D01*
X645655Y90318D01*
X645663Y90260D01*
X646004Y89134D01*
X646023Y89099D01*
X646041Y89044D01*
X646596Y88006D01*
X646621Y87976D01*
X646650Y87925D01*
X647396Y87016D01*
X647427Y86991D01*
X647466Y86946D01*
X648375Y86200D01*
X648410Y86182D01*
X648456Y86146D01*
X649494Y85591D01*
X649532Y85580D01*
X649584Y85554D01*
X650710Y85213D01*
X650749Y85209D01*
X650806Y85193D01*
X651976Y85078D01*
X651998Y85080D01*
X652025Y85076D01*
X658025Y85076D01*
X658046Y85080D01*
G37*
G36*
X632046Y77080D02*
X632046Y77080D01*
X632074Y77078D01*
X633244Y77193D01*
X633282Y77205D01*
X633340Y77213D01*
X634466Y77554D01*
X634501Y77573D01*
X634556Y77591D01*
X635594Y78146D01*
X635624Y78171D01*
X635675Y78200D01*
X636584Y78946D01*
X636609Y78977D01*
X636654Y79016D01*
X637400Y79925D01*
X637418Y79960D01*
X637454Y80006D01*
X638009Y81044D01*
X638020Y81082D01*
X638046Y81134D01*
X638387Y82260D01*
X638391Y82299D01*
X638407Y82356D01*
X638522Y83526D01*
X638519Y83557D01*
X638523Y83583D01*
X638520Y83596D01*
X638522Y83624D01*
X638407Y84794D01*
X638395Y84832D01*
X638387Y84890D01*
X638046Y86016D01*
X638027Y86051D01*
X638009Y86106D01*
X637454Y87144D01*
X637429Y87174D01*
X637400Y87225D01*
X636654Y88134D01*
X636623Y88159D01*
X636584Y88204D01*
X635675Y88950D01*
X635640Y88968D01*
X635594Y89004D01*
X634556Y89559D01*
X634519Y89570D01*
X634466Y89596D01*
X633340Y89937D01*
X633301Y89941D01*
X633244Y89957D01*
X632074Y90072D01*
X632052Y90070D01*
X632025Y90074D01*
X626025Y90074D01*
X626004Y90070D01*
X625976Y90072D01*
X624806Y89957D01*
X624768Y89945D01*
X624710Y89937D01*
X623584Y89596D01*
X623549Y89577D01*
X623494Y89559D01*
X622456Y89004D01*
X622426Y88979D01*
X622375Y88950D01*
X621466Y88204D01*
X621441Y88173D01*
X621396Y88134D01*
X620650Y87225D01*
X620632Y87190D01*
X620596Y87144D01*
X620041Y86106D01*
X620030Y86069D01*
X620004Y86016D01*
X619663Y84890D01*
X619659Y84851D01*
X619643Y84794D01*
X619528Y83624D01*
X619532Y83585D01*
X619532Y83578D01*
X619527Y83549D01*
X619529Y83540D01*
X619528Y83526D01*
X619643Y82356D01*
X619655Y82318D01*
X619663Y82260D01*
X620004Y81134D01*
X620023Y81099D01*
X620041Y81044D01*
X620596Y80006D01*
X620621Y79976D01*
X620650Y79925D01*
X621396Y79016D01*
X621427Y78991D01*
X621466Y78946D01*
X622375Y78200D01*
X622410Y78182D01*
X622456Y78146D01*
X623494Y77591D01*
X623532Y77580D01*
X623584Y77554D01*
X624710Y77213D01*
X624749Y77209D01*
X624806Y77193D01*
X625976Y77078D01*
X625998Y77080D01*
X626025Y77076D01*
X632025Y77076D01*
X632046Y77080D01*
G37*
G36*
X658046Y69080D02*
X658046Y69080D01*
X658074Y69078D01*
X659244Y69193D01*
X659282Y69205D01*
X659340Y69213D01*
X660466Y69554D01*
X660501Y69573D01*
X660556Y69591D01*
X661594Y70146D01*
X661624Y70171D01*
X661675Y70200D01*
X662584Y70946D01*
X662609Y70977D01*
X662654Y71016D01*
X663400Y71925D01*
X663418Y71960D01*
X663454Y72006D01*
X664009Y73044D01*
X664020Y73082D01*
X664046Y73134D01*
X664387Y74260D01*
X664391Y74299D01*
X664407Y74356D01*
X664522Y75526D01*
X664519Y75557D01*
X664523Y75583D01*
X664520Y75596D01*
X664522Y75624D01*
X664407Y76794D01*
X664395Y76832D01*
X664387Y76890D01*
X664046Y78016D01*
X664027Y78051D01*
X664009Y78106D01*
X663454Y79144D01*
X663429Y79174D01*
X663400Y79225D01*
X662654Y80134D01*
X662623Y80159D01*
X662584Y80204D01*
X661675Y80950D01*
X661640Y80968D01*
X661594Y81004D01*
X660556Y81559D01*
X660519Y81570D01*
X660466Y81596D01*
X659340Y81937D01*
X659301Y81941D01*
X659244Y81957D01*
X658074Y82072D01*
X658052Y82070D01*
X658025Y82074D01*
X652025Y82074D01*
X652004Y82070D01*
X651976Y82072D01*
X650806Y81957D01*
X650768Y81945D01*
X650710Y81937D01*
X649584Y81596D01*
X649549Y81577D01*
X649494Y81559D01*
X648456Y81004D01*
X648426Y80979D01*
X648375Y80950D01*
X647466Y80204D01*
X647441Y80173D01*
X647396Y80134D01*
X646650Y79225D01*
X646632Y79190D01*
X646596Y79144D01*
X646041Y78106D01*
X646030Y78069D01*
X646004Y78016D01*
X645663Y76890D01*
X645659Y76851D01*
X645643Y76794D01*
X645528Y75624D01*
X645532Y75585D01*
X645532Y75578D01*
X645527Y75549D01*
X645529Y75540D01*
X645528Y75526D01*
X645643Y74356D01*
X645655Y74318D01*
X645663Y74260D01*
X646004Y73134D01*
X646023Y73099D01*
X646041Y73044D01*
X646596Y72006D01*
X646621Y71976D01*
X646650Y71925D01*
X647396Y71016D01*
X647427Y70991D01*
X647466Y70946D01*
X648375Y70200D01*
X648410Y70182D01*
X648456Y70146D01*
X649494Y69591D01*
X649532Y69580D01*
X649584Y69554D01*
X650710Y69213D01*
X650749Y69209D01*
X650806Y69193D01*
X651976Y69078D01*
X651998Y69080D01*
X652025Y69076D01*
X658025Y69076D01*
X658046Y69080D01*
G37*
G36*
X632046Y61080D02*
X632046Y61080D01*
X632074Y61078D01*
X633244Y61193D01*
X633282Y61205D01*
X633340Y61213D01*
X634466Y61554D01*
X634501Y61573D01*
X634556Y61591D01*
X635594Y62146D01*
X635624Y62171D01*
X635675Y62200D01*
X636584Y62946D01*
X636609Y62977D01*
X636654Y63016D01*
X637400Y63925D01*
X637418Y63960D01*
X637454Y64006D01*
X638009Y65044D01*
X638020Y65082D01*
X638046Y65134D01*
X638387Y66260D01*
X638391Y66299D01*
X638407Y66356D01*
X638522Y67526D01*
X638519Y67557D01*
X638523Y67583D01*
X638520Y67596D01*
X638522Y67624D01*
X638407Y68794D01*
X638395Y68832D01*
X638387Y68890D01*
X638046Y70016D01*
X638027Y70051D01*
X638009Y70106D01*
X637454Y71144D01*
X637429Y71174D01*
X637400Y71225D01*
X636654Y72134D01*
X636623Y72159D01*
X636584Y72204D01*
X635675Y72950D01*
X635640Y72968D01*
X635594Y73004D01*
X634556Y73559D01*
X634519Y73570D01*
X634466Y73596D01*
X633340Y73937D01*
X633301Y73941D01*
X633244Y73957D01*
X632074Y74072D01*
X632052Y74070D01*
X632025Y74074D01*
X626025Y74074D01*
X626004Y74070D01*
X625976Y74072D01*
X624806Y73957D01*
X624768Y73945D01*
X624710Y73937D01*
X623584Y73596D01*
X623549Y73577D01*
X623494Y73559D01*
X622456Y73004D01*
X622426Y72979D01*
X622375Y72950D01*
X621466Y72204D01*
X621441Y72173D01*
X621396Y72134D01*
X620650Y71225D01*
X620632Y71190D01*
X620596Y71144D01*
X620041Y70106D01*
X620030Y70069D01*
X620004Y70016D01*
X619663Y68890D01*
X619659Y68851D01*
X619643Y68794D01*
X619528Y67624D01*
X619532Y67585D01*
X619532Y67578D01*
X619527Y67549D01*
X619529Y67540D01*
X619528Y67526D01*
X619643Y66356D01*
X619655Y66318D01*
X619663Y66260D01*
X620004Y65134D01*
X620023Y65099D01*
X620041Y65044D01*
X620596Y64006D01*
X620621Y63976D01*
X620650Y63925D01*
X621396Y63016D01*
X621427Y62991D01*
X621466Y62946D01*
X622375Y62200D01*
X622410Y62182D01*
X622456Y62146D01*
X623494Y61591D01*
X623532Y61580D01*
X623584Y61554D01*
X624710Y61213D01*
X624749Y61209D01*
X624806Y61193D01*
X625976Y61078D01*
X625998Y61080D01*
X626025Y61076D01*
X632025Y61076D01*
X632046Y61080D01*
G37*
G36*
X658046Y53080D02*
X658046Y53080D01*
X658074Y53078D01*
X659244Y53193D01*
X659282Y53205D01*
X659340Y53213D01*
X660466Y53554D01*
X660501Y53573D01*
X660556Y53591D01*
X661594Y54146D01*
X661624Y54171D01*
X661675Y54200D01*
X662584Y54946D01*
X662609Y54977D01*
X662654Y55016D01*
X663400Y55925D01*
X663418Y55960D01*
X663454Y56006D01*
X664009Y57044D01*
X664020Y57082D01*
X664046Y57134D01*
X664387Y58260D01*
X664391Y58299D01*
X664407Y58356D01*
X664522Y59526D01*
X664519Y59557D01*
X664523Y59583D01*
X664520Y59596D01*
X664522Y59624D01*
X664407Y60794D01*
X664395Y60832D01*
X664387Y60890D01*
X664046Y62016D01*
X664027Y62051D01*
X664009Y62106D01*
X663454Y63144D01*
X663429Y63174D01*
X663400Y63225D01*
X662654Y64134D01*
X662623Y64159D01*
X662584Y64204D01*
X661675Y64950D01*
X661640Y64968D01*
X661594Y65004D01*
X660556Y65559D01*
X660519Y65570D01*
X660466Y65596D01*
X659340Y65937D01*
X659301Y65941D01*
X659244Y65957D01*
X658074Y66072D01*
X658052Y66070D01*
X658025Y66074D01*
X652025Y66074D01*
X652004Y66070D01*
X651976Y66072D01*
X650806Y65957D01*
X650768Y65945D01*
X650710Y65937D01*
X649584Y65596D01*
X649549Y65577D01*
X649494Y65559D01*
X648456Y65004D01*
X648426Y64979D01*
X648375Y64950D01*
X647466Y64204D01*
X647441Y64173D01*
X647396Y64134D01*
X646650Y63225D01*
X646632Y63190D01*
X646596Y63144D01*
X646041Y62106D01*
X646030Y62069D01*
X646004Y62016D01*
X645663Y60890D01*
X645659Y60851D01*
X645643Y60794D01*
X645528Y59624D01*
X645532Y59585D01*
X645532Y59578D01*
X645527Y59549D01*
X645529Y59540D01*
X645528Y59526D01*
X645643Y58356D01*
X645655Y58318D01*
X645663Y58260D01*
X646004Y57134D01*
X646023Y57099D01*
X646041Y57044D01*
X646596Y56006D01*
X646621Y55976D01*
X646650Y55925D01*
X647396Y55016D01*
X647427Y54991D01*
X647466Y54946D01*
X648375Y54200D01*
X648410Y54182D01*
X648456Y54146D01*
X649494Y53591D01*
X649532Y53580D01*
X649584Y53554D01*
X650710Y53213D01*
X650749Y53209D01*
X650806Y53193D01*
X651976Y53078D01*
X651998Y53080D01*
X652025Y53076D01*
X658025Y53076D01*
X658046Y53080D01*
G37*
D10*
X0Y0D02*
X680000Y0D01*
X680000Y250000D01*
X0Y250000D01*
X0Y0D01*
D11*
X219952Y153402D03*
D12*
X268974Y202424D03*
X297422Y153148D03*
X297422Y96252D03*
X268974Y46976D03*
X219698Y18528D03*
X162802Y18528D03*
X113526Y46976D03*
X85078Y96252D03*
X85078Y153148D03*
X113526Y202424D03*
X162802Y230872D03*
X219698Y230872D03*
D13*
X570765Y46700D02*
X586005Y46700D01*
X586005Y72100D02*
X570765Y72100D01*
X570765Y97500D02*
X586005Y97500D01*
X586005Y122900D02*
X570765Y122900D01*
X570765Y148300D02*
X586005Y148300D01*
D14*
X21918Y19170D03*
X21918Y34410D03*
D15*
X21918Y26790D03*
D13*
X46990Y217805D02*
X46990Y233045D01*
X72390Y233045D02*
X72390Y217805D01*
D16*
X53721Y52959D03*
X53721Y27559D03*
X53721Y78359D03*
D17*
X655025Y75575D03*
X655025Y91575D03*
X655025Y59575D03*
X629025Y67575D03*
X629025Y83575D03*
D18*
X642025Y112075D03*
X642025Y39075D03*
D13*
X665780Y155595D02*
X665780Y170835D01*
X640380Y170835D02*
X640380Y155595D01*
D11*
X267018Y153353D03*
X173038Y153353D03*
X173038Y105093D03*
X220028Y105093D03*
X267018Y105093D03*
D19*
X431800Y133350D03*
D20*
X406400Y133350D03*
X431800Y107950D03*
X406400Y107950D03*
X431800Y82550D03*
X406400Y82550D03*
M02*
