G04 EAGLE Gerber RS-274X export*
G75*
%MOMM*%
%FSLAX34Y34*%
%LPD*%
%INTop silk*%
%IPPOS*%
%AMOC8*
5,1,8,0,0,1.08239X$1,22.5*%
G01*
%ADD10C,0.254000*%
%ADD11C,0.000000*%
%ADD12C,0.203200*%
%ADD13C,0.279400*%
%ADD14C,0.152400*%
%ADD15C,0.400000*%
%ADD16R,0.400000X5.200000*%
%ADD17R,0.300000X0.400000*%
%ADD18C,0.330200*%
%ADD19R,2.032000X0.508000*%
%ADD20R,2.032000X0.254000*%
%ADD21R,1.778000X0.254000*%
%ADD22R,0.508000X2.032000*%
%ADD23R,0.254000X2.032000*%
%ADD24R,0.254000X1.778000*%
%ADD25C,1.016000*%


D10*
X18212Y112655D02*
X18212Y126879D01*
X14261Y123718D01*
X18212Y126879D02*
X22164Y123718D01*
X23744Y138905D02*
X9520Y135744D01*
X14261Y142066D02*
X23744Y138905D01*
X23744Y145227D02*
X14261Y142066D01*
X9520Y148388D02*
X23744Y145227D01*
X23744Y155590D02*
X9520Y155590D01*
X9520Y159541D01*
X9522Y159665D01*
X9528Y159789D01*
X9538Y159913D01*
X9551Y160036D01*
X9569Y160159D01*
X9590Y160281D01*
X9615Y160403D01*
X9644Y160524D01*
X9677Y160643D01*
X9713Y160762D01*
X9754Y160879D01*
X9797Y160995D01*
X9845Y161110D01*
X9896Y161223D01*
X9951Y161335D01*
X10009Y161444D01*
X10070Y161552D01*
X10135Y161658D01*
X10203Y161762D01*
X10275Y161863D01*
X10349Y161963D01*
X10427Y162059D01*
X10507Y162154D01*
X10591Y162246D01*
X10677Y162335D01*
X10766Y162421D01*
X10858Y162505D01*
X10953Y162585D01*
X11049Y162663D01*
X11149Y162737D01*
X11250Y162809D01*
X11354Y162877D01*
X11460Y162942D01*
X11568Y163003D01*
X11677Y163061D01*
X11789Y163116D01*
X11902Y163167D01*
X12017Y163215D01*
X12133Y163258D01*
X12250Y163299D01*
X12369Y163335D01*
X12488Y163368D01*
X12609Y163397D01*
X12731Y163422D01*
X12853Y163443D01*
X12976Y163461D01*
X13099Y163474D01*
X13223Y163484D01*
X13347Y163490D01*
X13471Y163492D01*
X13595Y163490D01*
X13719Y163484D01*
X13843Y163474D01*
X13966Y163461D01*
X14089Y163443D01*
X14211Y163422D01*
X14333Y163397D01*
X14454Y163368D01*
X14573Y163335D01*
X14692Y163299D01*
X14809Y163258D01*
X14925Y163215D01*
X15040Y163167D01*
X15153Y163116D01*
X15265Y163061D01*
X15374Y163003D01*
X15482Y162942D01*
X15588Y162877D01*
X15692Y162809D01*
X15793Y162737D01*
X15893Y162663D01*
X15989Y162585D01*
X16084Y162505D01*
X16176Y162421D01*
X16265Y162335D01*
X16351Y162246D01*
X16435Y162154D01*
X16515Y162059D01*
X16593Y161963D01*
X16667Y161863D01*
X16739Y161762D01*
X16807Y161658D01*
X16872Y161552D01*
X16933Y161444D01*
X16991Y161335D01*
X17046Y161223D01*
X17097Y161110D01*
X17145Y160995D01*
X17188Y160879D01*
X17229Y160762D01*
X17265Y160643D01*
X17298Y160524D01*
X17327Y160403D01*
X17352Y160281D01*
X17373Y160159D01*
X17391Y160036D01*
X17404Y159913D01*
X17414Y159789D01*
X17420Y159665D01*
X17422Y159541D01*
X17422Y155590D01*
X17422Y160331D02*
X23744Y163492D01*
X25324Y169628D02*
X25324Y175949D01*
X23744Y183016D02*
X9520Y183016D01*
X9520Y186967D01*
X9522Y187091D01*
X9528Y187215D01*
X9538Y187339D01*
X9551Y187462D01*
X9569Y187585D01*
X9590Y187707D01*
X9615Y187829D01*
X9644Y187950D01*
X9677Y188069D01*
X9713Y188188D01*
X9754Y188305D01*
X9797Y188421D01*
X9845Y188536D01*
X9896Y188649D01*
X9951Y188761D01*
X10009Y188870D01*
X10070Y188978D01*
X10135Y189084D01*
X10203Y189188D01*
X10275Y189289D01*
X10349Y189389D01*
X10427Y189485D01*
X10507Y189580D01*
X10591Y189672D01*
X10677Y189761D01*
X10766Y189847D01*
X10858Y189931D01*
X10953Y190011D01*
X11049Y190089D01*
X11149Y190163D01*
X11250Y190235D01*
X11354Y190303D01*
X11460Y190368D01*
X11568Y190429D01*
X11677Y190487D01*
X11789Y190542D01*
X11902Y190593D01*
X12017Y190641D01*
X12133Y190684D01*
X12250Y190725D01*
X12369Y190761D01*
X12488Y190794D01*
X12609Y190823D01*
X12731Y190848D01*
X12853Y190869D01*
X12976Y190887D01*
X13099Y190900D01*
X13223Y190910D01*
X13347Y190916D01*
X13471Y190918D01*
X13595Y190916D01*
X13719Y190910D01*
X13843Y190900D01*
X13966Y190887D01*
X14089Y190869D01*
X14211Y190848D01*
X14333Y190823D01*
X14454Y190794D01*
X14573Y190761D01*
X14692Y190725D01*
X14809Y190684D01*
X14925Y190641D01*
X15040Y190593D01*
X15153Y190542D01*
X15265Y190487D01*
X15374Y190429D01*
X15482Y190368D01*
X15588Y190303D01*
X15692Y190235D01*
X15793Y190163D01*
X15893Y190089D01*
X15989Y190011D01*
X16084Y189931D01*
X16176Y189847D01*
X16265Y189761D01*
X16351Y189672D01*
X16435Y189580D01*
X16515Y189485D01*
X16593Y189389D01*
X16667Y189289D01*
X16739Y189188D01*
X16807Y189084D01*
X16872Y188978D01*
X16933Y188870D01*
X16991Y188761D01*
X17046Y188649D01*
X17097Y188536D01*
X17145Y188421D01*
X17188Y188305D01*
X17229Y188188D01*
X17265Y188069D01*
X17298Y187950D01*
X17327Y187829D01*
X17352Y187707D01*
X17373Y187585D01*
X17391Y187462D01*
X17404Y187339D01*
X17414Y187215D01*
X17420Y187091D01*
X17422Y186967D01*
X17422Y183016D01*
X23744Y197710D02*
X9520Y197710D01*
X9520Y201661D01*
X9522Y201785D01*
X9528Y201909D01*
X9538Y202033D01*
X9551Y202156D01*
X9569Y202279D01*
X9590Y202401D01*
X9615Y202523D01*
X9644Y202644D01*
X9677Y202763D01*
X9713Y202882D01*
X9754Y202999D01*
X9797Y203115D01*
X9845Y203230D01*
X9896Y203343D01*
X9951Y203455D01*
X10009Y203564D01*
X10070Y203672D01*
X10135Y203778D01*
X10203Y203882D01*
X10275Y203983D01*
X10349Y204083D01*
X10427Y204179D01*
X10507Y204274D01*
X10591Y204366D01*
X10677Y204455D01*
X10766Y204541D01*
X10858Y204625D01*
X10953Y204705D01*
X11049Y204783D01*
X11149Y204857D01*
X11250Y204929D01*
X11354Y204997D01*
X11460Y205062D01*
X11568Y205123D01*
X11677Y205181D01*
X11789Y205236D01*
X11902Y205287D01*
X12017Y205335D01*
X12133Y205378D01*
X12250Y205419D01*
X12369Y205455D01*
X12488Y205488D01*
X12609Y205517D01*
X12731Y205542D01*
X12853Y205563D01*
X12976Y205581D01*
X13099Y205594D01*
X13223Y205604D01*
X13347Y205610D01*
X13471Y205612D01*
X13595Y205610D01*
X13719Y205604D01*
X13843Y205594D01*
X13966Y205581D01*
X14089Y205563D01*
X14211Y205542D01*
X14333Y205517D01*
X14454Y205488D01*
X14573Y205455D01*
X14692Y205419D01*
X14809Y205378D01*
X14925Y205335D01*
X15040Y205287D01*
X15153Y205236D01*
X15265Y205181D01*
X15374Y205123D01*
X15482Y205062D01*
X15588Y204997D01*
X15692Y204929D01*
X15793Y204857D01*
X15893Y204783D01*
X15989Y204705D01*
X16084Y204625D01*
X16176Y204541D01*
X16265Y204455D01*
X16351Y204366D01*
X16435Y204274D01*
X16515Y204179D01*
X16593Y204083D01*
X16667Y203983D01*
X16739Y203882D01*
X16807Y203778D01*
X16872Y203672D01*
X16933Y203564D01*
X16991Y203455D01*
X17046Y203343D01*
X17097Y203230D01*
X17145Y203115D01*
X17188Y202999D01*
X17229Y202882D01*
X17265Y202763D01*
X17298Y202644D01*
X17327Y202523D01*
X17352Y202401D01*
X17373Y202279D01*
X17391Y202156D01*
X17404Y202033D01*
X17414Y201909D01*
X17420Y201785D01*
X17422Y201661D01*
X17422Y197710D01*
X17422Y202451D02*
X23744Y205612D01*
X19793Y212444D02*
X13471Y212444D01*
X13347Y212446D01*
X13223Y212452D01*
X13099Y212462D01*
X12976Y212475D01*
X12853Y212493D01*
X12731Y212514D01*
X12609Y212539D01*
X12488Y212568D01*
X12369Y212601D01*
X12250Y212637D01*
X12133Y212678D01*
X12017Y212721D01*
X11902Y212769D01*
X11789Y212820D01*
X11677Y212875D01*
X11568Y212933D01*
X11460Y212994D01*
X11354Y213059D01*
X11250Y213127D01*
X11149Y213199D01*
X11049Y213273D01*
X10953Y213351D01*
X10858Y213431D01*
X10766Y213515D01*
X10677Y213601D01*
X10591Y213690D01*
X10507Y213782D01*
X10427Y213877D01*
X10349Y213973D01*
X10275Y214073D01*
X10203Y214174D01*
X10135Y214278D01*
X10070Y214384D01*
X10009Y214492D01*
X9951Y214601D01*
X9896Y214713D01*
X9845Y214826D01*
X9797Y214941D01*
X9754Y215057D01*
X9713Y215174D01*
X9677Y215293D01*
X9644Y215412D01*
X9615Y215533D01*
X9590Y215655D01*
X9569Y215777D01*
X9551Y215900D01*
X9538Y216023D01*
X9528Y216147D01*
X9522Y216271D01*
X9520Y216395D01*
X9522Y216519D01*
X9528Y216643D01*
X9538Y216767D01*
X9551Y216890D01*
X9569Y217013D01*
X9590Y217135D01*
X9615Y217257D01*
X9644Y217378D01*
X9677Y217497D01*
X9713Y217616D01*
X9754Y217733D01*
X9797Y217849D01*
X9845Y217964D01*
X9896Y218077D01*
X9951Y218189D01*
X10009Y218298D01*
X10070Y218406D01*
X10135Y218512D01*
X10203Y218616D01*
X10275Y218717D01*
X10349Y218817D01*
X10427Y218913D01*
X10507Y219008D01*
X10591Y219100D01*
X10677Y219189D01*
X10766Y219275D01*
X10858Y219359D01*
X10953Y219439D01*
X11049Y219517D01*
X11149Y219591D01*
X11250Y219663D01*
X11354Y219731D01*
X11460Y219796D01*
X11568Y219857D01*
X11677Y219915D01*
X11789Y219970D01*
X11902Y220021D01*
X12017Y220069D01*
X12133Y220112D01*
X12250Y220153D01*
X12369Y220189D01*
X12488Y220222D01*
X12609Y220251D01*
X12731Y220276D01*
X12853Y220297D01*
X12976Y220315D01*
X13099Y220328D01*
X13223Y220338D01*
X13347Y220344D01*
X13471Y220346D01*
X19793Y220346D01*
X19917Y220344D01*
X20041Y220338D01*
X20165Y220328D01*
X20288Y220315D01*
X20411Y220297D01*
X20533Y220276D01*
X20655Y220251D01*
X20776Y220222D01*
X20895Y220189D01*
X21014Y220153D01*
X21131Y220112D01*
X21247Y220069D01*
X21362Y220021D01*
X21475Y219970D01*
X21587Y219915D01*
X21696Y219857D01*
X21804Y219796D01*
X21910Y219731D01*
X22014Y219663D01*
X22115Y219591D01*
X22215Y219517D01*
X22311Y219439D01*
X22406Y219359D01*
X22498Y219275D01*
X22587Y219189D01*
X22673Y219100D01*
X22757Y219008D01*
X22837Y218913D01*
X22915Y218817D01*
X22989Y218717D01*
X23061Y218616D01*
X23129Y218512D01*
X23194Y218406D01*
X23255Y218298D01*
X23313Y218189D01*
X23368Y218077D01*
X23419Y217964D01*
X23467Y217849D01*
X23510Y217733D01*
X23551Y217616D01*
X23587Y217497D01*
X23620Y217378D01*
X23649Y217257D01*
X23674Y217135D01*
X23695Y217013D01*
X23713Y216890D01*
X23726Y216767D01*
X23736Y216643D01*
X23742Y216519D01*
X23744Y216395D01*
X23742Y216271D01*
X23736Y216147D01*
X23726Y216023D01*
X23713Y215900D01*
X23695Y215777D01*
X23674Y215655D01*
X23649Y215533D01*
X23620Y215412D01*
X23587Y215293D01*
X23551Y215174D01*
X23510Y215057D01*
X23467Y214941D01*
X23419Y214826D01*
X23368Y214713D01*
X23313Y214601D01*
X23255Y214492D01*
X23194Y214384D01*
X23129Y214278D01*
X23061Y214174D01*
X22989Y214073D01*
X22915Y213973D01*
X22837Y213877D01*
X22757Y213782D01*
X22673Y213690D01*
X22587Y213601D01*
X22498Y213515D01*
X22406Y213431D01*
X22311Y213351D01*
X22215Y213273D01*
X22115Y213199D01*
X22014Y213127D01*
X21910Y213059D01*
X21804Y212994D01*
X21696Y212933D01*
X21587Y212875D01*
X21475Y212820D01*
X21362Y212769D01*
X21247Y212721D01*
X21131Y212678D01*
X21014Y212637D01*
X20895Y212601D01*
X20776Y212568D01*
X20655Y212539D01*
X20533Y212514D01*
X20411Y212493D01*
X20288Y212475D01*
X20165Y212462D01*
X20041Y212452D01*
X19917Y212446D01*
X19793Y212444D01*
X23744Y230269D02*
X9520Y230269D01*
X9520Y226318D02*
X9520Y234221D01*
D11*
X0Y0D02*
X680000Y0D01*
X680000Y250000D01*
X0Y250000D01*
X0Y0D01*
D12*
X597664Y41754D02*
X601220Y41754D01*
X601220Y41753D02*
X601315Y41755D01*
X601411Y41761D01*
X601506Y41770D01*
X601600Y41784D01*
X601694Y41801D01*
X601787Y41822D01*
X601880Y41847D01*
X601971Y41875D01*
X602061Y41907D01*
X602149Y41943D01*
X602236Y41982D01*
X602322Y42025D01*
X602406Y42071D01*
X602487Y42120D01*
X602567Y42173D01*
X602644Y42229D01*
X602720Y42287D01*
X602792Y42349D01*
X602862Y42414D01*
X602930Y42482D01*
X602995Y42552D01*
X603057Y42624D01*
X603115Y42700D01*
X603171Y42777D01*
X603224Y42857D01*
X603273Y42939D01*
X603319Y43022D01*
X603362Y43108D01*
X603401Y43195D01*
X603437Y43283D01*
X603469Y43373D01*
X603497Y43464D01*
X603522Y43557D01*
X603543Y43650D01*
X603560Y43744D01*
X603574Y43838D01*
X603583Y43933D01*
X603589Y44029D01*
X603591Y44124D01*
X603591Y45310D01*
X603589Y45405D01*
X603583Y45501D01*
X603574Y45596D01*
X603560Y45690D01*
X603543Y45784D01*
X603522Y45877D01*
X603497Y45970D01*
X603469Y46061D01*
X603437Y46151D01*
X603401Y46239D01*
X603362Y46326D01*
X603319Y46412D01*
X603273Y46496D01*
X603224Y46577D01*
X603171Y46657D01*
X603115Y46734D01*
X603057Y46810D01*
X602995Y46882D01*
X602930Y46952D01*
X602862Y47020D01*
X602792Y47085D01*
X602720Y47147D01*
X602644Y47205D01*
X602567Y47261D01*
X602487Y47314D01*
X602406Y47363D01*
X602322Y47409D01*
X602236Y47452D01*
X602149Y47491D01*
X602061Y47527D01*
X601971Y47559D01*
X601880Y47587D01*
X601787Y47612D01*
X601694Y47633D01*
X601600Y47650D01*
X601506Y47664D01*
X601411Y47673D01*
X601315Y47679D01*
X601220Y47681D01*
X601220Y47680D02*
X597664Y47680D01*
X597664Y52422D01*
X603591Y52422D01*
X608502Y52422D02*
X612058Y41754D01*
X615614Y52422D01*
D10*
X655059Y186728D02*
X669283Y186728D01*
X655059Y186728D02*
X655059Y190680D01*
X655061Y190804D01*
X655067Y190928D01*
X655077Y191052D01*
X655090Y191175D01*
X655108Y191298D01*
X655129Y191420D01*
X655154Y191542D01*
X655183Y191663D01*
X655216Y191782D01*
X655252Y191901D01*
X655293Y192018D01*
X655336Y192134D01*
X655384Y192249D01*
X655435Y192362D01*
X655490Y192474D01*
X655548Y192583D01*
X655609Y192691D01*
X655674Y192797D01*
X655742Y192901D01*
X655814Y193002D01*
X655888Y193102D01*
X655966Y193198D01*
X656046Y193293D01*
X656130Y193385D01*
X656216Y193474D01*
X656305Y193560D01*
X656397Y193644D01*
X656492Y193724D01*
X656588Y193802D01*
X656688Y193876D01*
X656789Y193948D01*
X656893Y194016D01*
X656999Y194081D01*
X657107Y194142D01*
X657216Y194200D01*
X657328Y194255D01*
X657441Y194306D01*
X657556Y194354D01*
X657672Y194397D01*
X657789Y194438D01*
X657908Y194474D01*
X658027Y194507D01*
X658148Y194536D01*
X658270Y194561D01*
X658392Y194582D01*
X658515Y194600D01*
X658638Y194613D01*
X658762Y194623D01*
X658886Y194629D01*
X659010Y194631D01*
X659134Y194629D01*
X659258Y194623D01*
X659382Y194613D01*
X659505Y194600D01*
X659628Y194582D01*
X659750Y194561D01*
X659872Y194536D01*
X659993Y194507D01*
X660112Y194474D01*
X660231Y194438D01*
X660348Y194397D01*
X660464Y194354D01*
X660579Y194306D01*
X660692Y194255D01*
X660804Y194200D01*
X660913Y194142D01*
X661021Y194081D01*
X661127Y194016D01*
X661231Y193948D01*
X661332Y193876D01*
X661432Y193802D01*
X661528Y193724D01*
X661623Y193644D01*
X661715Y193560D01*
X661804Y193474D01*
X661890Y193385D01*
X661974Y193293D01*
X662054Y193198D01*
X662132Y193102D01*
X662206Y193002D01*
X662278Y192901D01*
X662346Y192797D01*
X662411Y192691D01*
X662472Y192583D01*
X662530Y192474D01*
X662585Y192362D01*
X662636Y192249D01*
X662684Y192134D01*
X662727Y192018D01*
X662768Y191901D01*
X662804Y191782D01*
X662837Y191663D01*
X662866Y191542D01*
X662891Y191420D01*
X662912Y191298D01*
X662930Y191175D01*
X662943Y191052D01*
X662953Y190928D01*
X662959Y190804D01*
X662961Y190680D01*
X662961Y186728D01*
X669283Y201423D02*
X655059Y201423D01*
X655059Y205374D01*
X655061Y205498D01*
X655067Y205622D01*
X655077Y205746D01*
X655090Y205869D01*
X655108Y205992D01*
X655129Y206114D01*
X655154Y206236D01*
X655183Y206357D01*
X655216Y206476D01*
X655252Y206595D01*
X655293Y206712D01*
X655336Y206828D01*
X655384Y206943D01*
X655435Y207056D01*
X655490Y207168D01*
X655548Y207277D01*
X655609Y207385D01*
X655674Y207491D01*
X655742Y207595D01*
X655814Y207696D01*
X655888Y207796D01*
X655966Y207892D01*
X656046Y207987D01*
X656130Y208079D01*
X656216Y208168D01*
X656305Y208254D01*
X656397Y208338D01*
X656492Y208418D01*
X656588Y208496D01*
X656688Y208570D01*
X656789Y208642D01*
X656893Y208710D01*
X656999Y208775D01*
X657107Y208836D01*
X657216Y208894D01*
X657328Y208949D01*
X657441Y209000D01*
X657556Y209048D01*
X657672Y209091D01*
X657789Y209132D01*
X657908Y209168D01*
X658027Y209201D01*
X658148Y209230D01*
X658270Y209255D01*
X658392Y209276D01*
X658515Y209294D01*
X658638Y209307D01*
X658762Y209317D01*
X658886Y209323D01*
X659010Y209325D01*
X659134Y209323D01*
X659258Y209317D01*
X659382Y209307D01*
X659505Y209294D01*
X659628Y209276D01*
X659750Y209255D01*
X659872Y209230D01*
X659993Y209201D01*
X660112Y209168D01*
X660231Y209132D01*
X660348Y209091D01*
X660464Y209048D01*
X660579Y209000D01*
X660692Y208949D01*
X660804Y208894D01*
X660913Y208836D01*
X661021Y208775D01*
X661127Y208710D01*
X661231Y208642D01*
X661332Y208570D01*
X661432Y208496D01*
X661528Y208418D01*
X661623Y208338D01*
X661715Y208254D01*
X661804Y208168D01*
X661890Y208079D01*
X661974Y207987D01*
X662054Y207892D01*
X662132Y207796D01*
X662206Y207696D01*
X662278Y207595D01*
X662346Y207491D01*
X662411Y207385D01*
X662472Y207277D01*
X662530Y207168D01*
X662585Y207056D01*
X662636Y206943D01*
X662684Y206828D01*
X662727Y206712D01*
X662768Y206595D01*
X662804Y206476D01*
X662837Y206357D01*
X662866Y206236D01*
X662891Y206114D01*
X662912Y205992D01*
X662930Y205869D01*
X662943Y205746D01*
X662953Y205622D01*
X662959Y205498D01*
X662961Y205374D01*
X662961Y201423D01*
X662961Y206164D02*
X669283Y209325D01*
X665331Y216156D02*
X659010Y216156D01*
X659010Y216157D02*
X658886Y216159D01*
X658762Y216165D01*
X658638Y216175D01*
X658515Y216188D01*
X658392Y216206D01*
X658270Y216227D01*
X658148Y216252D01*
X658027Y216281D01*
X657908Y216314D01*
X657789Y216350D01*
X657672Y216391D01*
X657556Y216434D01*
X657441Y216482D01*
X657328Y216533D01*
X657216Y216588D01*
X657107Y216646D01*
X656999Y216707D01*
X656893Y216772D01*
X656789Y216840D01*
X656688Y216912D01*
X656588Y216986D01*
X656492Y217064D01*
X656397Y217144D01*
X656305Y217228D01*
X656216Y217314D01*
X656130Y217403D01*
X656046Y217495D01*
X655966Y217590D01*
X655888Y217686D01*
X655814Y217786D01*
X655742Y217887D01*
X655674Y217991D01*
X655609Y218097D01*
X655548Y218205D01*
X655490Y218314D01*
X655435Y218426D01*
X655384Y218539D01*
X655336Y218654D01*
X655293Y218770D01*
X655252Y218887D01*
X655216Y219006D01*
X655183Y219125D01*
X655154Y219246D01*
X655129Y219368D01*
X655108Y219490D01*
X655090Y219613D01*
X655077Y219736D01*
X655067Y219860D01*
X655061Y219984D01*
X655059Y220108D01*
X655061Y220232D01*
X655067Y220356D01*
X655077Y220480D01*
X655090Y220603D01*
X655108Y220726D01*
X655129Y220848D01*
X655154Y220970D01*
X655183Y221091D01*
X655216Y221210D01*
X655252Y221329D01*
X655293Y221446D01*
X655336Y221562D01*
X655384Y221677D01*
X655435Y221790D01*
X655490Y221902D01*
X655548Y222011D01*
X655609Y222119D01*
X655674Y222225D01*
X655742Y222329D01*
X655814Y222430D01*
X655888Y222530D01*
X655966Y222626D01*
X656046Y222721D01*
X656130Y222813D01*
X656216Y222902D01*
X656305Y222988D01*
X656397Y223072D01*
X656492Y223152D01*
X656588Y223230D01*
X656688Y223304D01*
X656789Y223376D01*
X656893Y223444D01*
X656999Y223509D01*
X657107Y223570D01*
X657216Y223628D01*
X657328Y223683D01*
X657441Y223734D01*
X657556Y223782D01*
X657672Y223825D01*
X657789Y223866D01*
X657908Y223902D01*
X658027Y223935D01*
X658148Y223964D01*
X658270Y223989D01*
X658392Y224010D01*
X658515Y224028D01*
X658638Y224041D01*
X658762Y224051D01*
X658886Y224057D01*
X659010Y224059D01*
X665331Y224059D01*
X665455Y224057D01*
X665579Y224051D01*
X665703Y224041D01*
X665826Y224028D01*
X665949Y224010D01*
X666071Y223989D01*
X666193Y223964D01*
X666314Y223935D01*
X666433Y223902D01*
X666552Y223866D01*
X666669Y223825D01*
X666785Y223782D01*
X666900Y223734D01*
X667013Y223683D01*
X667125Y223628D01*
X667234Y223570D01*
X667342Y223509D01*
X667448Y223444D01*
X667552Y223376D01*
X667653Y223304D01*
X667753Y223230D01*
X667849Y223152D01*
X667944Y223072D01*
X668036Y222988D01*
X668125Y222902D01*
X668211Y222813D01*
X668295Y222721D01*
X668375Y222626D01*
X668453Y222530D01*
X668527Y222430D01*
X668599Y222329D01*
X668667Y222225D01*
X668732Y222119D01*
X668793Y222011D01*
X668851Y221902D01*
X668906Y221790D01*
X668957Y221677D01*
X669005Y221562D01*
X669048Y221446D01*
X669089Y221329D01*
X669125Y221210D01*
X669158Y221091D01*
X669187Y220970D01*
X669212Y220848D01*
X669233Y220726D01*
X669251Y220603D01*
X669264Y220480D01*
X669274Y220356D01*
X669280Y220232D01*
X669282Y220108D01*
X669280Y219984D01*
X669274Y219860D01*
X669264Y219736D01*
X669251Y219613D01*
X669233Y219490D01*
X669212Y219368D01*
X669187Y219246D01*
X669158Y219125D01*
X669125Y219006D01*
X669089Y218887D01*
X669048Y218770D01*
X669005Y218654D01*
X668957Y218539D01*
X668906Y218426D01*
X668851Y218314D01*
X668793Y218205D01*
X668732Y218097D01*
X668667Y217991D01*
X668599Y217887D01*
X668527Y217786D01*
X668453Y217686D01*
X668375Y217590D01*
X668295Y217495D01*
X668211Y217403D01*
X668125Y217314D01*
X668036Y217228D01*
X667944Y217144D01*
X667849Y217064D01*
X667753Y216986D01*
X667653Y216912D01*
X667552Y216840D01*
X667448Y216772D01*
X667342Y216707D01*
X667234Y216646D01*
X667125Y216588D01*
X667013Y216533D01*
X666900Y216482D01*
X666785Y216434D01*
X666669Y216391D01*
X666552Y216350D01*
X666433Y216314D01*
X666314Y216281D01*
X666193Y216252D01*
X666071Y216227D01*
X665949Y216206D01*
X665826Y216188D01*
X665703Y216175D01*
X665579Y216165D01*
X665455Y216159D01*
X665331Y216157D01*
X661380Y237049D02*
X661380Y239420D01*
X669283Y239420D01*
X669283Y234679D01*
X669281Y234569D01*
X669275Y234458D01*
X669266Y234349D01*
X669252Y234239D01*
X669235Y234130D01*
X669214Y234022D01*
X669189Y233914D01*
X669161Y233808D01*
X669128Y233702D01*
X669092Y233598D01*
X669053Y233495D01*
X669010Y233393D01*
X668963Y233293D01*
X668913Y233195D01*
X668860Y233098D01*
X668803Y233004D01*
X668743Y232911D01*
X668679Y232821D01*
X668613Y232733D01*
X668543Y232647D01*
X668471Y232564D01*
X668396Y232483D01*
X668318Y232405D01*
X668237Y232330D01*
X668154Y232258D01*
X668068Y232188D01*
X667980Y232122D01*
X667890Y232058D01*
X667797Y231998D01*
X667703Y231941D01*
X667606Y231888D01*
X667508Y231838D01*
X667408Y231791D01*
X667306Y231748D01*
X667203Y231709D01*
X667099Y231673D01*
X666993Y231640D01*
X666887Y231612D01*
X666779Y231587D01*
X666671Y231566D01*
X666562Y231549D01*
X666452Y231535D01*
X666343Y231526D01*
X666232Y231520D01*
X666122Y231518D01*
X658219Y231518D01*
X658109Y231520D01*
X657999Y231526D01*
X657889Y231535D01*
X657779Y231549D01*
X657670Y231566D01*
X657562Y231587D01*
X657454Y231612D01*
X657348Y231640D01*
X657242Y231673D01*
X657138Y231709D01*
X657035Y231748D01*
X656933Y231791D01*
X656833Y231838D01*
X656735Y231888D01*
X656639Y231941D01*
X656544Y231998D01*
X656451Y232058D01*
X656361Y232122D01*
X656273Y232188D01*
X656187Y232258D01*
X656104Y232330D01*
X656023Y232405D01*
X655945Y232483D01*
X655870Y232564D01*
X655798Y232647D01*
X655728Y232733D01*
X655662Y232821D01*
X655598Y232911D01*
X655538Y233004D01*
X655482Y233098D01*
X655428Y233195D01*
X655378Y233293D01*
X655331Y233393D01*
X655288Y233495D01*
X655249Y233598D01*
X655213Y233702D01*
X655180Y233808D01*
X655152Y233914D01*
X655127Y234022D01*
X655106Y234130D01*
X655089Y234239D01*
X655075Y234349D01*
X655066Y234458D01*
X655060Y234569D01*
X655058Y234679D01*
X655059Y234679D02*
X655059Y239420D01*
D12*
X598491Y151641D02*
X598491Y144529D01*
X598491Y151641D02*
X601455Y151641D01*
X601537Y151639D01*
X601619Y151633D01*
X601701Y151624D01*
X601782Y151611D01*
X601862Y151594D01*
X601942Y151573D01*
X602020Y151549D01*
X602097Y151521D01*
X602173Y151490D01*
X602248Y151455D01*
X602320Y151416D01*
X602391Y151375D01*
X602460Y151330D01*
X602526Y151282D01*
X602591Y151231D01*
X602653Y151177D01*
X602712Y151120D01*
X602769Y151061D01*
X602823Y150999D01*
X602874Y150934D01*
X602922Y150868D01*
X602967Y150799D01*
X603008Y150728D01*
X603047Y150656D01*
X603082Y150581D01*
X603113Y150505D01*
X603141Y150428D01*
X603165Y150350D01*
X603186Y150270D01*
X603203Y150190D01*
X603216Y150109D01*
X603225Y150027D01*
X603231Y149945D01*
X603233Y149863D01*
X603233Y144529D01*
D13*
X259560Y187833D02*
X255397Y184503D01*
X259560Y187833D02*
X259560Y172847D01*
X255397Y172847D02*
X263723Y172847D01*
X222448Y209169D02*
X222446Y209289D01*
X222440Y209409D01*
X222431Y209529D01*
X222417Y209648D01*
X222400Y209767D01*
X222379Y209885D01*
X222354Y210003D01*
X222325Y210119D01*
X222293Y210235D01*
X222257Y210350D01*
X222217Y210463D01*
X222174Y210575D01*
X222127Y210686D01*
X222077Y210795D01*
X222023Y210902D01*
X221966Y211008D01*
X221905Y211111D01*
X221841Y211213D01*
X221774Y211313D01*
X221704Y211410D01*
X221631Y211505D01*
X221554Y211598D01*
X221475Y211688D01*
X221393Y211776D01*
X221308Y211861D01*
X221220Y211943D01*
X221130Y212022D01*
X221037Y212099D01*
X220942Y212172D01*
X220845Y212242D01*
X220745Y212309D01*
X220643Y212373D01*
X220540Y212434D01*
X220434Y212491D01*
X220327Y212545D01*
X220218Y212595D01*
X220107Y212642D01*
X219995Y212685D01*
X219882Y212725D01*
X219767Y212761D01*
X219651Y212793D01*
X219535Y212822D01*
X219417Y212847D01*
X219299Y212868D01*
X219180Y212885D01*
X219061Y212899D01*
X218941Y212908D01*
X218821Y212914D01*
X218701Y212916D01*
X218701Y212915D02*
X218563Y212913D01*
X218426Y212907D01*
X218289Y212897D01*
X218152Y212884D01*
X218016Y212866D01*
X217880Y212844D01*
X217744Y212819D01*
X217610Y212790D01*
X217477Y212757D01*
X217344Y212720D01*
X217213Y212679D01*
X217082Y212635D01*
X216954Y212587D01*
X216826Y212535D01*
X216700Y212479D01*
X216576Y212420D01*
X216453Y212358D01*
X216333Y212292D01*
X216214Y212223D01*
X216097Y212150D01*
X215983Y212074D01*
X215870Y211994D01*
X215760Y211912D01*
X215652Y211826D01*
X215547Y211738D01*
X215445Y211646D01*
X215345Y211552D01*
X215247Y211454D01*
X215153Y211354D01*
X215062Y211251D01*
X214973Y211146D01*
X214888Y211038D01*
X214805Y210928D01*
X214726Y210816D01*
X214650Y210701D01*
X214577Y210584D01*
X214508Y210465D01*
X214442Y210345D01*
X214380Y210222D01*
X214321Y210098D01*
X214266Y209972D01*
X214214Y209844D01*
X214166Y209715D01*
X214122Y209585D01*
X221198Y206255D02*
X221288Y206343D01*
X221374Y206434D01*
X221458Y206527D01*
X221539Y206623D01*
X221617Y206721D01*
X221691Y206821D01*
X221763Y206924D01*
X221831Y207029D01*
X221896Y207137D01*
X221958Y207246D01*
X222016Y207357D01*
X222071Y207470D01*
X222122Y207584D01*
X222169Y207700D01*
X222213Y207817D01*
X222253Y207936D01*
X222290Y208056D01*
X222323Y208177D01*
X222352Y208299D01*
X222377Y208421D01*
X222398Y208545D01*
X222416Y208669D01*
X222429Y208794D01*
X222439Y208919D01*
X222445Y209044D01*
X222447Y209169D01*
X221199Y206255D02*
X214122Y197930D01*
X222448Y197930D01*
X170660Y198247D02*
X166497Y198247D01*
X170660Y198247D02*
X170788Y198249D01*
X170916Y198255D01*
X171044Y198265D01*
X171172Y198279D01*
X171299Y198296D01*
X171425Y198318D01*
X171551Y198343D01*
X171675Y198373D01*
X171799Y198406D01*
X171922Y198443D01*
X172044Y198484D01*
X172164Y198528D01*
X172283Y198576D01*
X172400Y198628D01*
X172516Y198683D01*
X172629Y198742D01*
X172742Y198805D01*
X172852Y198871D01*
X172959Y198940D01*
X173065Y199012D01*
X173169Y199088D01*
X173270Y199167D01*
X173369Y199249D01*
X173465Y199334D01*
X173558Y199421D01*
X173649Y199512D01*
X173736Y199605D01*
X173821Y199701D01*
X173903Y199800D01*
X173982Y199901D01*
X174058Y200005D01*
X174130Y200111D01*
X174199Y200218D01*
X174265Y200329D01*
X174328Y200441D01*
X174387Y200554D01*
X174442Y200670D01*
X174494Y200787D01*
X174542Y200906D01*
X174586Y201026D01*
X174627Y201148D01*
X174664Y201271D01*
X174697Y201395D01*
X174727Y201519D01*
X174752Y201645D01*
X174774Y201771D01*
X174791Y201898D01*
X174805Y202026D01*
X174815Y202154D01*
X174821Y202282D01*
X174823Y202410D01*
X174821Y202538D01*
X174815Y202666D01*
X174805Y202794D01*
X174791Y202922D01*
X174774Y203049D01*
X174752Y203175D01*
X174727Y203301D01*
X174697Y203425D01*
X174664Y203549D01*
X174627Y203672D01*
X174586Y203794D01*
X174542Y203914D01*
X174494Y204033D01*
X174442Y204150D01*
X174387Y204266D01*
X174328Y204379D01*
X174265Y204491D01*
X174199Y204602D01*
X174130Y204709D01*
X174058Y204815D01*
X173982Y204919D01*
X173903Y205020D01*
X173821Y205119D01*
X173736Y205215D01*
X173649Y205308D01*
X173558Y205399D01*
X173465Y205486D01*
X173369Y205571D01*
X173270Y205653D01*
X173169Y205732D01*
X173065Y205808D01*
X172959Y205880D01*
X172852Y205949D01*
X172742Y206015D01*
X172629Y206078D01*
X172516Y206137D01*
X172400Y206192D01*
X172283Y206244D01*
X172164Y206292D01*
X172044Y206336D01*
X171922Y206377D01*
X171799Y206414D01*
X171675Y206447D01*
X171551Y206477D01*
X171425Y206502D01*
X171299Y206524D01*
X171172Y206541D01*
X171044Y206555D01*
X170916Y206565D01*
X170788Y206571D01*
X170660Y206573D01*
X171492Y213233D02*
X166497Y213233D01*
X171492Y213233D02*
X171606Y213231D01*
X171719Y213225D01*
X171833Y213216D01*
X171945Y213202D01*
X172058Y213185D01*
X172170Y213163D01*
X172280Y213138D01*
X172390Y213110D01*
X172499Y213077D01*
X172607Y213041D01*
X172714Y213001D01*
X172819Y212957D01*
X172922Y212910D01*
X173024Y212860D01*
X173124Y212806D01*
X173222Y212748D01*
X173318Y212687D01*
X173412Y212624D01*
X173504Y212556D01*
X173594Y212486D01*
X173680Y212413D01*
X173765Y212337D01*
X173847Y212258D01*
X173926Y212176D01*
X174002Y212091D01*
X174075Y212005D01*
X174145Y211915D01*
X174213Y211823D01*
X174276Y211729D01*
X174337Y211633D01*
X174395Y211535D01*
X174449Y211435D01*
X174499Y211333D01*
X174546Y211230D01*
X174590Y211125D01*
X174630Y211018D01*
X174666Y210910D01*
X174699Y210801D01*
X174727Y210691D01*
X174752Y210581D01*
X174774Y210469D01*
X174791Y210356D01*
X174805Y210244D01*
X174814Y210130D01*
X174820Y210017D01*
X174822Y209903D01*
X174820Y209789D01*
X174814Y209676D01*
X174805Y209562D01*
X174791Y209450D01*
X174774Y209337D01*
X174752Y209225D01*
X174727Y209115D01*
X174699Y209005D01*
X174666Y208896D01*
X174630Y208788D01*
X174590Y208681D01*
X174546Y208576D01*
X174499Y208473D01*
X174449Y208371D01*
X174395Y208271D01*
X174337Y208173D01*
X174276Y208077D01*
X174213Y207983D01*
X174145Y207891D01*
X174075Y207801D01*
X174002Y207715D01*
X173926Y207630D01*
X173847Y207548D01*
X173765Y207469D01*
X173680Y207393D01*
X173594Y207320D01*
X173504Y207250D01*
X173412Y207182D01*
X173318Y207119D01*
X173222Y207058D01*
X173124Y207000D01*
X173024Y206946D01*
X172922Y206896D01*
X172819Y206849D01*
X172714Y206805D01*
X172607Y206765D01*
X172499Y206729D01*
X172390Y206696D01*
X172280Y206668D01*
X172170Y206643D01*
X172058Y206621D01*
X171945Y206604D01*
X171833Y206590D01*
X171719Y206581D01*
X171606Y206575D01*
X171492Y206573D01*
X168162Y206573D01*
X131727Y197358D02*
X128397Y185702D01*
X136723Y185702D01*
X134225Y189032D02*
X134225Y182372D01*
X106405Y144272D02*
X101410Y144272D01*
X106405Y144272D02*
X106519Y144274D01*
X106632Y144280D01*
X106746Y144289D01*
X106858Y144303D01*
X106971Y144320D01*
X107083Y144342D01*
X107193Y144367D01*
X107303Y144395D01*
X107412Y144428D01*
X107520Y144464D01*
X107627Y144504D01*
X107732Y144548D01*
X107835Y144595D01*
X107937Y144645D01*
X108037Y144699D01*
X108135Y144757D01*
X108231Y144818D01*
X108325Y144881D01*
X108417Y144949D01*
X108507Y145019D01*
X108593Y145092D01*
X108678Y145168D01*
X108760Y145247D01*
X108839Y145329D01*
X108915Y145414D01*
X108988Y145500D01*
X109058Y145590D01*
X109126Y145682D01*
X109189Y145776D01*
X109250Y145872D01*
X109308Y145970D01*
X109362Y146070D01*
X109412Y146172D01*
X109459Y146275D01*
X109503Y146380D01*
X109543Y146487D01*
X109579Y146595D01*
X109612Y146704D01*
X109640Y146814D01*
X109665Y146925D01*
X109687Y147036D01*
X109704Y147149D01*
X109718Y147261D01*
X109727Y147375D01*
X109733Y147488D01*
X109735Y147602D01*
X109735Y149267D01*
X109733Y149381D01*
X109727Y149494D01*
X109718Y149608D01*
X109704Y149720D01*
X109687Y149833D01*
X109665Y149945D01*
X109640Y150055D01*
X109612Y150165D01*
X109579Y150274D01*
X109543Y150382D01*
X109503Y150489D01*
X109459Y150594D01*
X109412Y150697D01*
X109362Y150799D01*
X109308Y150899D01*
X109250Y150997D01*
X109189Y151093D01*
X109126Y151187D01*
X109058Y151279D01*
X108988Y151369D01*
X108915Y151455D01*
X108839Y151540D01*
X108760Y151622D01*
X108678Y151701D01*
X108593Y151777D01*
X108507Y151850D01*
X108417Y151920D01*
X108325Y151988D01*
X108231Y152051D01*
X108135Y152112D01*
X108037Y152170D01*
X107937Y152224D01*
X107835Y152274D01*
X107732Y152321D01*
X107627Y152365D01*
X107520Y152405D01*
X107412Y152441D01*
X107303Y152474D01*
X107193Y152502D01*
X107083Y152527D01*
X106971Y152549D01*
X106858Y152566D01*
X106746Y152580D01*
X106632Y152589D01*
X106519Y152595D01*
X106405Y152597D01*
X106405Y152598D02*
X101410Y152598D01*
X101410Y159258D01*
X109735Y159258D01*
X107992Y104973D02*
X102997Y104973D01*
X107992Y104972D02*
X108106Y104970D01*
X108219Y104964D01*
X108333Y104955D01*
X108445Y104941D01*
X108558Y104924D01*
X108670Y104902D01*
X108780Y104877D01*
X108890Y104849D01*
X108999Y104816D01*
X109107Y104780D01*
X109214Y104740D01*
X109319Y104696D01*
X109422Y104649D01*
X109524Y104599D01*
X109624Y104545D01*
X109722Y104487D01*
X109818Y104426D01*
X109912Y104363D01*
X110004Y104295D01*
X110094Y104225D01*
X110180Y104152D01*
X110265Y104076D01*
X110347Y103997D01*
X110426Y103915D01*
X110502Y103830D01*
X110575Y103744D01*
X110645Y103654D01*
X110713Y103562D01*
X110776Y103468D01*
X110837Y103372D01*
X110895Y103274D01*
X110949Y103174D01*
X110999Y103072D01*
X111046Y102969D01*
X111090Y102864D01*
X111130Y102757D01*
X111166Y102649D01*
X111199Y102540D01*
X111227Y102430D01*
X111252Y102320D01*
X111274Y102208D01*
X111291Y102095D01*
X111305Y101983D01*
X111314Y101869D01*
X111320Y101756D01*
X111322Y101642D01*
X111323Y101642D02*
X111323Y100810D01*
X111321Y100682D01*
X111315Y100554D01*
X111305Y100426D01*
X111291Y100298D01*
X111274Y100171D01*
X111252Y100045D01*
X111227Y99919D01*
X111197Y99795D01*
X111164Y99671D01*
X111127Y99548D01*
X111086Y99426D01*
X111042Y99306D01*
X110994Y99187D01*
X110942Y99070D01*
X110887Y98954D01*
X110828Y98841D01*
X110765Y98728D01*
X110699Y98618D01*
X110630Y98511D01*
X110558Y98405D01*
X110482Y98301D01*
X110403Y98200D01*
X110321Y98101D01*
X110236Y98005D01*
X110149Y97912D01*
X110058Y97821D01*
X109965Y97734D01*
X109869Y97649D01*
X109770Y97567D01*
X109669Y97488D01*
X109565Y97412D01*
X109459Y97340D01*
X109352Y97271D01*
X109241Y97205D01*
X109129Y97142D01*
X109016Y97083D01*
X108900Y97028D01*
X108783Y96976D01*
X108664Y96928D01*
X108544Y96884D01*
X108422Y96843D01*
X108299Y96806D01*
X108175Y96773D01*
X108051Y96743D01*
X107925Y96718D01*
X107799Y96696D01*
X107672Y96679D01*
X107544Y96665D01*
X107416Y96655D01*
X107288Y96649D01*
X107160Y96647D01*
X107032Y96649D01*
X106904Y96655D01*
X106776Y96665D01*
X106648Y96679D01*
X106521Y96696D01*
X106395Y96718D01*
X106269Y96743D01*
X106145Y96773D01*
X106021Y96806D01*
X105898Y96843D01*
X105776Y96884D01*
X105656Y96928D01*
X105537Y96976D01*
X105420Y97028D01*
X105304Y97083D01*
X105191Y97142D01*
X105078Y97205D01*
X104968Y97271D01*
X104861Y97340D01*
X104755Y97412D01*
X104651Y97488D01*
X104550Y97567D01*
X104451Y97649D01*
X104355Y97734D01*
X104262Y97821D01*
X104171Y97912D01*
X104084Y98005D01*
X103999Y98101D01*
X103917Y98200D01*
X103838Y98301D01*
X103762Y98405D01*
X103690Y98511D01*
X103621Y98618D01*
X103555Y98729D01*
X103492Y98841D01*
X103433Y98954D01*
X103378Y99070D01*
X103326Y99187D01*
X103278Y99306D01*
X103234Y99426D01*
X103193Y99548D01*
X103156Y99671D01*
X103123Y99795D01*
X103093Y99919D01*
X103068Y100045D01*
X103046Y100171D01*
X103029Y100298D01*
X103015Y100426D01*
X103005Y100554D01*
X102999Y100682D01*
X102997Y100810D01*
X102997Y104973D01*
X102999Y105136D01*
X103005Y105300D01*
X103015Y105463D01*
X103029Y105626D01*
X103047Y105788D01*
X103069Y105950D01*
X103095Y106112D01*
X103125Y106272D01*
X103159Y106432D01*
X103197Y106591D01*
X103238Y106749D01*
X103284Y106906D01*
X103333Y107062D01*
X103386Y107217D01*
X103443Y107370D01*
X103504Y107522D01*
X103568Y107672D01*
X103636Y107821D01*
X103708Y107967D01*
X103783Y108112D01*
X103862Y108256D01*
X103945Y108397D01*
X104030Y108536D01*
X104119Y108673D01*
X104212Y108808D01*
X104308Y108940D01*
X104407Y109070D01*
X104509Y109198D01*
X104614Y109323D01*
X104722Y109446D01*
X104834Y109565D01*
X104948Y109682D01*
X105065Y109796D01*
X105184Y109908D01*
X105307Y110016D01*
X105432Y110121D01*
X105560Y110223D01*
X105690Y110322D01*
X105822Y110418D01*
X105957Y110511D01*
X106094Y110600D01*
X106233Y110685D01*
X106374Y110768D01*
X106517Y110847D01*
X106663Y110922D01*
X106809Y110994D01*
X106958Y111062D01*
X107108Y111126D01*
X107260Y111187D01*
X107413Y111244D01*
X107568Y111297D01*
X107724Y111346D01*
X107881Y111392D01*
X108039Y111433D01*
X108198Y111471D01*
X108358Y111505D01*
X108518Y111535D01*
X108680Y111561D01*
X108842Y111583D01*
X109004Y111601D01*
X109167Y111615D01*
X109330Y111625D01*
X109494Y111631D01*
X109657Y111633D01*
X126810Y73533D02*
X126810Y71868D01*
X126810Y73533D02*
X135135Y73533D01*
X130972Y58547D01*
X169672Y42072D02*
X169674Y42200D01*
X169680Y42328D01*
X169690Y42456D01*
X169704Y42584D01*
X169721Y42711D01*
X169743Y42837D01*
X169768Y42963D01*
X169798Y43087D01*
X169831Y43211D01*
X169868Y43334D01*
X169909Y43456D01*
X169953Y43576D01*
X170001Y43695D01*
X170053Y43812D01*
X170108Y43928D01*
X170167Y44041D01*
X170230Y44154D01*
X170296Y44264D01*
X170365Y44371D01*
X170437Y44477D01*
X170513Y44581D01*
X170592Y44682D01*
X170674Y44781D01*
X170759Y44877D01*
X170846Y44970D01*
X170937Y45061D01*
X171030Y45148D01*
X171126Y45233D01*
X171225Y45315D01*
X171326Y45394D01*
X171430Y45470D01*
X171536Y45542D01*
X171643Y45611D01*
X171754Y45677D01*
X171866Y45740D01*
X171979Y45799D01*
X172095Y45854D01*
X172212Y45906D01*
X172331Y45954D01*
X172451Y45998D01*
X172573Y46039D01*
X172696Y46076D01*
X172820Y46109D01*
X172944Y46139D01*
X173070Y46164D01*
X173196Y46186D01*
X173323Y46203D01*
X173451Y46217D01*
X173579Y46227D01*
X173707Y46233D01*
X173835Y46235D01*
X173963Y46233D01*
X174091Y46227D01*
X174219Y46217D01*
X174347Y46203D01*
X174474Y46186D01*
X174600Y46164D01*
X174726Y46139D01*
X174850Y46109D01*
X174974Y46076D01*
X175097Y46039D01*
X175219Y45998D01*
X175339Y45954D01*
X175458Y45906D01*
X175575Y45854D01*
X175691Y45799D01*
X175804Y45740D01*
X175917Y45677D01*
X176027Y45611D01*
X176134Y45542D01*
X176240Y45470D01*
X176344Y45394D01*
X176445Y45315D01*
X176544Y45233D01*
X176640Y45148D01*
X176733Y45061D01*
X176824Y44970D01*
X176911Y44877D01*
X176996Y44781D01*
X177078Y44682D01*
X177157Y44581D01*
X177233Y44477D01*
X177305Y44371D01*
X177374Y44264D01*
X177440Y44154D01*
X177503Y44041D01*
X177562Y43928D01*
X177617Y43812D01*
X177669Y43695D01*
X177717Y43576D01*
X177761Y43456D01*
X177802Y43334D01*
X177839Y43211D01*
X177872Y43087D01*
X177902Y42963D01*
X177927Y42837D01*
X177949Y42711D01*
X177966Y42584D01*
X177980Y42456D01*
X177990Y42328D01*
X177996Y42200D01*
X177998Y42072D01*
X177996Y41944D01*
X177990Y41816D01*
X177980Y41688D01*
X177966Y41560D01*
X177949Y41433D01*
X177927Y41307D01*
X177902Y41181D01*
X177872Y41057D01*
X177839Y40933D01*
X177802Y40810D01*
X177761Y40688D01*
X177717Y40568D01*
X177669Y40449D01*
X177617Y40332D01*
X177562Y40216D01*
X177503Y40103D01*
X177440Y39990D01*
X177374Y39880D01*
X177305Y39773D01*
X177233Y39667D01*
X177157Y39563D01*
X177078Y39462D01*
X176996Y39363D01*
X176911Y39267D01*
X176824Y39174D01*
X176733Y39083D01*
X176640Y38996D01*
X176544Y38911D01*
X176445Y38829D01*
X176344Y38750D01*
X176240Y38674D01*
X176134Y38602D01*
X176027Y38533D01*
X175916Y38467D01*
X175804Y38404D01*
X175691Y38345D01*
X175575Y38290D01*
X175458Y38238D01*
X175339Y38190D01*
X175219Y38146D01*
X175097Y38105D01*
X174974Y38068D01*
X174850Y38035D01*
X174726Y38005D01*
X174600Y37980D01*
X174474Y37958D01*
X174347Y37941D01*
X174219Y37927D01*
X174091Y37917D01*
X173963Y37911D01*
X173835Y37909D01*
X173707Y37911D01*
X173579Y37917D01*
X173451Y37927D01*
X173323Y37941D01*
X173196Y37958D01*
X173070Y37980D01*
X172944Y38005D01*
X172820Y38035D01*
X172696Y38068D01*
X172573Y38105D01*
X172451Y38146D01*
X172331Y38190D01*
X172212Y38238D01*
X172095Y38290D01*
X171979Y38345D01*
X171866Y38404D01*
X171754Y38467D01*
X171643Y38533D01*
X171536Y38602D01*
X171430Y38674D01*
X171326Y38750D01*
X171225Y38829D01*
X171126Y38911D01*
X171030Y38996D01*
X170937Y39083D01*
X170846Y39174D01*
X170759Y39267D01*
X170674Y39363D01*
X170592Y39462D01*
X170513Y39563D01*
X170437Y39667D01*
X170365Y39773D01*
X170296Y39880D01*
X170230Y39991D01*
X170167Y40103D01*
X170108Y40216D01*
X170053Y40332D01*
X170001Y40449D01*
X169953Y40568D01*
X169909Y40688D01*
X169868Y40810D01*
X169831Y40933D01*
X169798Y41057D01*
X169768Y41181D01*
X169743Y41307D01*
X169721Y41433D01*
X169704Y41560D01*
X169690Y41688D01*
X169680Y41816D01*
X169674Y41944D01*
X169672Y42072D01*
X170505Y49565D02*
X170507Y49679D01*
X170513Y49792D01*
X170522Y49906D01*
X170536Y50018D01*
X170553Y50131D01*
X170575Y50243D01*
X170600Y50353D01*
X170628Y50463D01*
X170661Y50572D01*
X170697Y50680D01*
X170737Y50787D01*
X170781Y50892D01*
X170828Y50995D01*
X170878Y51097D01*
X170932Y51197D01*
X170990Y51295D01*
X171051Y51391D01*
X171114Y51485D01*
X171182Y51577D01*
X171252Y51667D01*
X171325Y51753D01*
X171401Y51838D01*
X171480Y51920D01*
X171562Y51999D01*
X171647Y52075D01*
X171733Y52148D01*
X171823Y52218D01*
X171915Y52286D01*
X172009Y52349D01*
X172105Y52410D01*
X172203Y52468D01*
X172303Y52522D01*
X172405Y52572D01*
X172508Y52619D01*
X172613Y52663D01*
X172720Y52703D01*
X172828Y52739D01*
X172937Y52772D01*
X173047Y52800D01*
X173157Y52825D01*
X173269Y52847D01*
X173382Y52864D01*
X173494Y52878D01*
X173608Y52887D01*
X173721Y52893D01*
X173835Y52895D01*
X173949Y52893D01*
X174062Y52887D01*
X174176Y52878D01*
X174288Y52864D01*
X174401Y52847D01*
X174513Y52825D01*
X174623Y52800D01*
X174733Y52772D01*
X174842Y52739D01*
X174950Y52703D01*
X175057Y52663D01*
X175162Y52619D01*
X175265Y52572D01*
X175367Y52522D01*
X175467Y52468D01*
X175565Y52410D01*
X175661Y52349D01*
X175755Y52286D01*
X175847Y52218D01*
X175937Y52148D01*
X176023Y52075D01*
X176108Y51999D01*
X176190Y51920D01*
X176269Y51838D01*
X176345Y51753D01*
X176418Y51667D01*
X176488Y51577D01*
X176556Y51485D01*
X176619Y51391D01*
X176680Y51295D01*
X176738Y51197D01*
X176792Y51097D01*
X176842Y50995D01*
X176889Y50892D01*
X176933Y50787D01*
X176973Y50680D01*
X177009Y50572D01*
X177042Y50463D01*
X177070Y50353D01*
X177095Y50243D01*
X177117Y50131D01*
X177134Y50018D01*
X177148Y49906D01*
X177157Y49792D01*
X177163Y49679D01*
X177165Y49565D01*
X177163Y49451D01*
X177157Y49338D01*
X177148Y49224D01*
X177134Y49112D01*
X177117Y48999D01*
X177095Y48887D01*
X177070Y48777D01*
X177042Y48667D01*
X177009Y48558D01*
X176973Y48450D01*
X176933Y48343D01*
X176889Y48238D01*
X176842Y48135D01*
X176792Y48033D01*
X176738Y47933D01*
X176680Y47835D01*
X176619Y47739D01*
X176556Y47645D01*
X176488Y47553D01*
X176418Y47463D01*
X176345Y47377D01*
X176269Y47292D01*
X176190Y47210D01*
X176108Y47131D01*
X176023Y47055D01*
X175937Y46982D01*
X175847Y46912D01*
X175755Y46844D01*
X175661Y46781D01*
X175565Y46720D01*
X175467Y46662D01*
X175367Y46608D01*
X175265Y46558D01*
X175162Y46511D01*
X175057Y46467D01*
X174950Y46427D01*
X174842Y46391D01*
X174733Y46358D01*
X174623Y46330D01*
X174513Y46305D01*
X174401Y46283D01*
X174288Y46266D01*
X174176Y46252D01*
X174062Y46243D01*
X173949Y46237D01*
X173835Y46235D01*
X173721Y46237D01*
X173608Y46243D01*
X173494Y46252D01*
X173382Y46266D01*
X173269Y46283D01*
X173157Y46305D01*
X173047Y46330D01*
X172937Y46358D01*
X172828Y46391D01*
X172720Y46427D01*
X172613Y46467D01*
X172508Y46511D01*
X172405Y46558D01*
X172303Y46608D01*
X172203Y46662D01*
X172105Y46720D01*
X172009Y46781D01*
X171915Y46844D01*
X171823Y46912D01*
X171733Y46982D01*
X171647Y47055D01*
X171562Y47131D01*
X171480Y47210D01*
X171401Y47292D01*
X171325Y47377D01*
X171252Y47463D01*
X171182Y47553D01*
X171114Y47645D01*
X171051Y47739D01*
X170990Y47835D01*
X170932Y47933D01*
X170878Y48033D01*
X170828Y48135D01*
X170781Y48238D01*
X170737Y48343D01*
X170697Y48450D01*
X170661Y48558D01*
X170628Y48667D01*
X170600Y48777D01*
X170575Y48887D01*
X170553Y48999D01*
X170536Y49112D01*
X170522Y49224D01*
X170513Y49338D01*
X170507Y49451D01*
X170505Y49565D01*
X226977Y41395D02*
X231973Y41395D01*
X226977Y41395D02*
X226863Y41397D01*
X226750Y41403D01*
X226636Y41412D01*
X226524Y41426D01*
X226411Y41443D01*
X226299Y41465D01*
X226189Y41490D01*
X226079Y41518D01*
X225970Y41551D01*
X225862Y41587D01*
X225755Y41627D01*
X225650Y41671D01*
X225547Y41718D01*
X225445Y41768D01*
X225345Y41822D01*
X225247Y41880D01*
X225151Y41941D01*
X225057Y42004D01*
X224965Y42072D01*
X224875Y42142D01*
X224789Y42215D01*
X224704Y42291D01*
X224622Y42370D01*
X224543Y42452D01*
X224467Y42537D01*
X224394Y42623D01*
X224324Y42713D01*
X224256Y42805D01*
X224193Y42899D01*
X224132Y42995D01*
X224074Y43093D01*
X224020Y43193D01*
X223970Y43295D01*
X223923Y43398D01*
X223879Y43503D01*
X223839Y43610D01*
X223803Y43718D01*
X223770Y43827D01*
X223742Y43937D01*
X223717Y44047D01*
X223695Y44159D01*
X223678Y44272D01*
X223664Y44384D01*
X223655Y44498D01*
X223649Y44611D01*
X223647Y44725D01*
X223647Y45558D01*
X223649Y45686D01*
X223655Y45814D01*
X223665Y45942D01*
X223679Y46070D01*
X223696Y46197D01*
X223718Y46323D01*
X223743Y46449D01*
X223773Y46573D01*
X223806Y46697D01*
X223843Y46820D01*
X223884Y46942D01*
X223928Y47062D01*
X223976Y47181D01*
X224028Y47298D01*
X224083Y47414D01*
X224142Y47527D01*
X224205Y47640D01*
X224271Y47750D01*
X224340Y47857D01*
X224412Y47963D01*
X224488Y48067D01*
X224567Y48168D01*
X224649Y48267D01*
X224734Y48363D01*
X224821Y48456D01*
X224912Y48547D01*
X225005Y48634D01*
X225101Y48719D01*
X225200Y48801D01*
X225301Y48880D01*
X225405Y48956D01*
X225511Y49028D01*
X225618Y49097D01*
X225729Y49163D01*
X225841Y49226D01*
X225954Y49285D01*
X226070Y49340D01*
X226187Y49392D01*
X226306Y49440D01*
X226426Y49484D01*
X226548Y49525D01*
X226671Y49562D01*
X226795Y49595D01*
X226919Y49625D01*
X227045Y49650D01*
X227171Y49672D01*
X227298Y49689D01*
X227426Y49703D01*
X227554Y49713D01*
X227682Y49719D01*
X227810Y49721D01*
X227938Y49719D01*
X228066Y49713D01*
X228194Y49703D01*
X228322Y49689D01*
X228449Y49672D01*
X228575Y49650D01*
X228701Y49625D01*
X228825Y49595D01*
X228949Y49562D01*
X229072Y49525D01*
X229194Y49484D01*
X229314Y49440D01*
X229433Y49392D01*
X229550Y49340D01*
X229666Y49285D01*
X229779Y49226D01*
X229892Y49163D01*
X230002Y49097D01*
X230109Y49028D01*
X230215Y48956D01*
X230319Y48880D01*
X230420Y48801D01*
X230519Y48719D01*
X230615Y48634D01*
X230708Y48547D01*
X230799Y48456D01*
X230886Y48363D01*
X230971Y48267D01*
X231053Y48168D01*
X231132Y48067D01*
X231208Y47963D01*
X231280Y47857D01*
X231349Y47750D01*
X231415Y47640D01*
X231478Y47527D01*
X231537Y47414D01*
X231592Y47298D01*
X231644Y47181D01*
X231692Y47062D01*
X231736Y46942D01*
X231777Y46820D01*
X231814Y46697D01*
X231847Y46573D01*
X231877Y46449D01*
X231902Y46323D01*
X231924Y46197D01*
X231941Y46070D01*
X231955Y45942D01*
X231965Y45814D01*
X231971Y45686D01*
X231973Y45558D01*
X231973Y41395D01*
X231972Y41395D02*
X231970Y41234D01*
X231964Y41073D01*
X231955Y40913D01*
X231941Y40752D01*
X231923Y40592D01*
X231902Y40433D01*
X231877Y40274D01*
X231848Y40115D01*
X231815Y39958D01*
X231778Y39801D01*
X231738Y39645D01*
X231694Y39491D01*
X231646Y39337D01*
X231594Y39184D01*
X231539Y39033D01*
X231480Y38884D01*
X231418Y38735D01*
X231352Y38588D01*
X231282Y38443D01*
X231209Y38300D01*
X231133Y38158D01*
X231053Y38019D01*
X230969Y37881D01*
X230883Y37745D01*
X230793Y37612D01*
X230700Y37480D01*
X230604Y37351D01*
X230505Y37225D01*
X230402Y37100D01*
X230297Y36979D01*
X230189Y36859D01*
X230078Y36743D01*
X229964Y36629D01*
X229848Y36518D01*
X229728Y36410D01*
X229607Y36305D01*
X229482Y36202D01*
X229356Y36103D01*
X229227Y36007D01*
X229095Y35914D01*
X228962Y35824D01*
X228826Y35738D01*
X228688Y35654D01*
X228549Y35574D01*
X228407Y35498D01*
X228264Y35425D01*
X228119Y35355D01*
X227972Y35289D01*
X227823Y35227D01*
X227674Y35168D01*
X227523Y35113D01*
X227370Y35061D01*
X227216Y35013D01*
X227062Y34969D01*
X226906Y34929D01*
X226749Y34892D01*
X226592Y34859D01*
X226433Y34830D01*
X226274Y34805D01*
X226115Y34784D01*
X225955Y34766D01*
X225794Y34752D01*
X225634Y34743D01*
X225473Y34737D01*
X225312Y34735D01*
X285560Y63853D02*
X289722Y67183D01*
X289722Y52197D01*
X285560Y52197D02*
X293885Y52197D01*
X301190Y59690D02*
X301194Y59985D01*
X301204Y60279D01*
X301222Y60574D01*
X301246Y60868D01*
X301278Y61161D01*
X301316Y61453D01*
X301362Y61744D01*
X301415Y62034D01*
X301474Y62323D01*
X301540Y62610D01*
X301613Y62896D01*
X301693Y63180D01*
X301780Y63462D01*
X301873Y63741D01*
X301973Y64019D01*
X302080Y64293D01*
X302193Y64566D01*
X302313Y64835D01*
X302439Y65102D01*
X302477Y65205D01*
X302518Y65306D01*
X302562Y65405D01*
X302610Y65504D01*
X302661Y65600D01*
X302716Y65694D01*
X302774Y65787D01*
X302835Y65877D01*
X302900Y65965D01*
X302967Y66051D01*
X303038Y66134D01*
X303111Y66215D01*
X303187Y66293D01*
X303266Y66369D01*
X303348Y66441D01*
X303432Y66511D01*
X303519Y66577D01*
X303607Y66641D01*
X303698Y66701D01*
X303792Y66758D01*
X303887Y66812D01*
X303984Y66862D01*
X304082Y66909D01*
X304182Y66952D01*
X304284Y66992D01*
X304387Y67028D01*
X304491Y67060D01*
X304597Y67089D01*
X304703Y67114D01*
X304810Y67135D01*
X304918Y67152D01*
X305026Y67166D01*
X305135Y67175D01*
X305244Y67181D01*
X305353Y67183D01*
X305462Y67181D01*
X305571Y67175D01*
X305680Y67166D01*
X305788Y67152D01*
X305896Y67135D01*
X306003Y67114D01*
X306109Y67089D01*
X306215Y67060D01*
X306319Y67028D01*
X306422Y66992D01*
X306524Y66952D01*
X306624Y66909D01*
X306722Y66862D01*
X306819Y66812D01*
X306914Y66758D01*
X307008Y66701D01*
X307099Y66641D01*
X307187Y66577D01*
X307274Y66511D01*
X307358Y66441D01*
X307440Y66369D01*
X307519Y66293D01*
X307595Y66215D01*
X307668Y66134D01*
X307739Y66051D01*
X307806Y65965D01*
X307871Y65877D01*
X307932Y65787D01*
X307990Y65694D01*
X308045Y65600D01*
X308096Y65504D01*
X308144Y65405D01*
X308188Y65306D01*
X308229Y65205D01*
X308267Y65102D01*
X308268Y65102D02*
X308394Y64835D01*
X308514Y64566D01*
X308627Y64293D01*
X308734Y64019D01*
X308834Y63741D01*
X308927Y63462D01*
X309014Y63180D01*
X309094Y62896D01*
X309167Y62610D01*
X309233Y62323D01*
X309292Y62034D01*
X309345Y61744D01*
X309391Y61453D01*
X309429Y61161D01*
X309461Y60868D01*
X309485Y60574D01*
X309503Y60279D01*
X309513Y59985D01*
X309517Y59690D01*
X301191Y59690D02*
X301195Y59395D01*
X301205Y59101D01*
X301223Y58806D01*
X301247Y58512D01*
X301279Y58219D01*
X301317Y57927D01*
X301363Y57636D01*
X301416Y57346D01*
X301475Y57057D01*
X301541Y56770D01*
X301614Y56484D01*
X301694Y56200D01*
X301781Y55918D01*
X301874Y55639D01*
X301974Y55361D01*
X302081Y55087D01*
X302194Y54814D01*
X302314Y54545D01*
X302440Y54278D01*
X302439Y54278D02*
X302477Y54175D01*
X302518Y54074D01*
X302562Y53975D01*
X302610Y53876D01*
X302661Y53780D01*
X302716Y53686D01*
X302774Y53593D01*
X302835Y53503D01*
X302900Y53415D01*
X302967Y53329D01*
X303038Y53246D01*
X303111Y53165D01*
X303187Y53087D01*
X303266Y53011D01*
X303348Y52939D01*
X303432Y52869D01*
X303519Y52803D01*
X303607Y52739D01*
X303698Y52679D01*
X303792Y52622D01*
X303887Y52568D01*
X303984Y52518D01*
X304082Y52471D01*
X304182Y52428D01*
X304284Y52388D01*
X304387Y52352D01*
X304491Y52320D01*
X304597Y52291D01*
X304703Y52266D01*
X304810Y52245D01*
X304918Y52228D01*
X305026Y52214D01*
X305135Y52205D01*
X305244Y52199D01*
X305353Y52197D01*
X308267Y54278D02*
X308393Y54545D01*
X308513Y54814D01*
X308626Y55087D01*
X308733Y55361D01*
X308833Y55639D01*
X308926Y55918D01*
X309013Y56200D01*
X309093Y56484D01*
X309166Y56770D01*
X309232Y57057D01*
X309291Y57346D01*
X309344Y57636D01*
X309390Y57927D01*
X309428Y58219D01*
X309460Y58512D01*
X309484Y58806D01*
X309502Y59101D01*
X309512Y59395D01*
X309516Y59690D01*
X308267Y54278D02*
X308229Y54175D01*
X308188Y54074D01*
X308144Y53975D01*
X308096Y53876D01*
X308045Y53780D01*
X307990Y53686D01*
X307932Y53593D01*
X307871Y53503D01*
X307806Y53415D01*
X307739Y53329D01*
X307668Y53246D01*
X307595Y53165D01*
X307519Y53087D01*
X307440Y53011D01*
X307358Y52939D01*
X307274Y52869D01*
X307187Y52803D01*
X307099Y52739D01*
X307007Y52679D01*
X306914Y52622D01*
X306819Y52568D01*
X306722Y52518D01*
X306624Y52471D01*
X306524Y52428D01*
X306422Y52388D01*
X306319Y52352D01*
X306215Y52320D01*
X306109Y52291D01*
X306003Y52266D01*
X305896Y52245D01*
X305788Y52228D01*
X305680Y52214D01*
X305571Y52205D01*
X305462Y52199D01*
X305353Y52197D01*
X302023Y55527D02*
X308684Y63853D01*
X315722Y109890D02*
X319885Y113221D01*
X319885Y98235D01*
X315722Y98235D02*
X324048Y98235D01*
X331353Y109890D02*
X335516Y113221D01*
X335516Y98235D01*
X331353Y98235D02*
X339679Y98235D01*
X140390Y137859D02*
X136227Y134528D01*
X140390Y137859D02*
X140390Y122873D01*
X136227Y122873D02*
X144553Y122873D01*
X151128Y121207D02*
X157788Y139524D01*
X164675Y132863D02*
X164675Y122873D01*
X164675Y132863D02*
X168838Y132863D01*
X168936Y132861D01*
X169034Y132855D01*
X169132Y132846D01*
X169229Y132832D01*
X169325Y132815D01*
X169421Y132794D01*
X169516Y132769D01*
X169610Y132741D01*
X169703Y132709D01*
X169794Y132673D01*
X169884Y132634D01*
X169972Y132591D01*
X170059Y132545D01*
X170143Y132495D01*
X170226Y132442D01*
X170306Y132386D01*
X170384Y132327D01*
X170460Y132265D01*
X170534Y132199D01*
X170604Y132131D01*
X170672Y132061D01*
X170737Y131987D01*
X170800Y131912D01*
X170859Y131833D01*
X170915Y131753D01*
X170968Y131670D01*
X171017Y131586D01*
X171064Y131499D01*
X171107Y131411D01*
X171146Y131321D01*
X171182Y131230D01*
X171214Y131137D01*
X171242Y131043D01*
X171267Y130948D01*
X171288Y130852D01*
X171305Y130756D01*
X171319Y130659D01*
X171328Y130561D01*
X171334Y130463D01*
X171336Y130365D01*
X171335Y130366D02*
X171335Y122873D01*
X179162Y128700D02*
X189153Y128700D01*
X197399Y132863D02*
X197399Y122873D01*
X197399Y132863D02*
X204892Y132863D01*
X204892Y132864D02*
X204990Y132862D01*
X205088Y132856D01*
X205186Y132847D01*
X205283Y132833D01*
X205379Y132816D01*
X205475Y132795D01*
X205570Y132770D01*
X205664Y132742D01*
X205757Y132710D01*
X205848Y132674D01*
X205938Y132635D01*
X206026Y132592D01*
X206113Y132545D01*
X206197Y132496D01*
X206280Y132443D01*
X206360Y132387D01*
X206438Y132328D01*
X206514Y132265D01*
X206588Y132200D01*
X206658Y132132D01*
X206726Y132062D01*
X206791Y131988D01*
X206854Y131912D01*
X206913Y131834D01*
X206969Y131754D01*
X207022Y131671D01*
X207071Y131587D01*
X207118Y131500D01*
X207161Y131412D01*
X207200Y131322D01*
X207236Y131231D01*
X207268Y131138D01*
X207296Y131044D01*
X207321Y130949D01*
X207342Y130853D01*
X207359Y130757D01*
X207373Y130660D01*
X207382Y130562D01*
X207388Y130464D01*
X207390Y130366D01*
X207389Y130366D02*
X207389Y122873D01*
X202394Y122873D02*
X202394Y132863D01*
X215216Y129533D02*
X215216Y126203D01*
X215216Y129533D02*
X215218Y129647D01*
X215224Y129760D01*
X215233Y129874D01*
X215247Y129986D01*
X215264Y130099D01*
X215286Y130211D01*
X215311Y130321D01*
X215339Y130431D01*
X215372Y130540D01*
X215408Y130648D01*
X215448Y130755D01*
X215492Y130860D01*
X215539Y130963D01*
X215589Y131065D01*
X215643Y131165D01*
X215701Y131263D01*
X215762Y131359D01*
X215825Y131453D01*
X215893Y131545D01*
X215963Y131635D01*
X216036Y131721D01*
X216112Y131806D01*
X216191Y131888D01*
X216273Y131967D01*
X216358Y132043D01*
X216444Y132116D01*
X216534Y132186D01*
X216626Y132254D01*
X216720Y132317D01*
X216816Y132378D01*
X216914Y132436D01*
X217014Y132490D01*
X217116Y132540D01*
X217219Y132587D01*
X217324Y132631D01*
X217431Y132671D01*
X217539Y132707D01*
X217648Y132740D01*
X217758Y132768D01*
X217868Y132793D01*
X217980Y132815D01*
X218093Y132832D01*
X218205Y132846D01*
X218319Y132855D01*
X218432Y132861D01*
X218546Y132863D01*
X218660Y132861D01*
X218773Y132855D01*
X218887Y132846D01*
X218999Y132832D01*
X219112Y132815D01*
X219224Y132793D01*
X219334Y132768D01*
X219444Y132740D01*
X219553Y132707D01*
X219661Y132671D01*
X219768Y132631D01*
X219873Y132587D01*
X219976Y132540D01*
X220078Y132490D01*
X220178Y132436D01*
X220276Y132378D01*
X220372Y132317D01*
X220466Y132254D01*
X220558Y132186D01*
X220648Y132116D01*
X220734Y132043D01*
X220819Y131967D01*
X220901Y131888D01*
X220980Y131806D01*
X221056Y131721D01*
X221129Y131635D01*
X221199Y131545D01*
X221267Y131453D01*
X221330Y131359D01*
X221391Y131263D01*
X221449Y131165D01*
X221503Y131065D01*
X221553Y130963D01*
X221600Y130860D01*
X221644Y130755D01*
X221684Y130648D01*
X221720Y130540D01*
X221753Y130431D01*
X221781Y130321D01*
X221806Y130211D01*
X221828Y130099D01*
X221845Y129986D01*
X221859Y129874D01*
X221868Y129760D01*
X221874Y129647D01*
X221876Y129533D01*
X221876Y126203D01*
X221874Y126089D01*
X221868Y125976D01*
X221859Y125862D01*
X221845Y125750D01*
X221828Y125637D01*
X221806Y125525D01*
X221781Y125415D01*
X221753Y125305D01*
X221720Y125196D01*
X221684Y125088D01*
X221644Y124981D01*
X221600Y124876D01*
X221553Y124773D01*
X221503Y124671D01*
X221449Y124571D01*
X221391Y124473D01*
X221330Y124377D01*
X221267Y124283D01*
X221199Y124191D01*
X221129Y124101D01*
X221056Y124015D01*
X220980Y123930D01*
X220901Y123848D01*
X220819Y123769D01*
X220734Y123693D01*
X220648Y123620D01*
X220558Y123550D01*
X220466Y123482D01*
X220372Y123419D01*
X220276Y123358D01*
X220178Y123300D01*
X220078Y123246D01*
X219976Y123196D01*
X219873Y123149D01*
X219768Y123105D01*
X219661Y123065D01*
X219553Y123029D01*
X219444Y122996D01*
X219334Y122968D01*
X219224Y122943D01*
X219112Y122921D01*
X218999Y122904D01*
X218887Y122890D01*
X218773Y122881D01*
X218660Y122875D01*
X218546Y122873D01*
X218432Y122875D01*
X218319Y122881D01*
X218205Y122890D01*
X218093Y122904D01*
X217980Y122921D01*
X217868Y122943D01*
X217758Y122968D01*
X217648Y122996D01*
X217539Y123029D01*
X217431Y123065D01*
X217324Y123105D01*
X217219Y123149D01*
X217116Y123196D01*
X217014Y123246D01*
X216914Y123300D01*
X216816Y123358D01*
X216720Y123419D01*
X216626Y123482D01*
X216534Y123550D01*
X216444Y123620D01*
X216358Y123693D01*
X216273Y123769D01*
X216191Y123848D01*
X216112Y123930D01*
X216036Y124015D01*
X215963Y124101D01*
X215893Y124191D01*
X215825Y124283D01*
X215762Y124377D01*
X215701Y124473D01*
X215643Y124571D01*
X215589Y124671D01*
X215539Y124773D01*
X215492Y124876D01*
X215448Y124981D01*
X215408Y125088D01*
X215372Y125196D01*
X215339Y125305D01*
X215311Y125415D01*
X215286Y125525D01*
X215264Y125637D01*
X215247Y125750D01*
X215233Y125862D01*
X215224Y125976D01*
X215218Y126089D01*
X215216Y126203D01*
X235313Y122873D02*
X235313Y137859D01*
X235313Y122873D02*
X231150Y122873D01*
X231150Y122872D02*
X231052Y122874D01*
X230954Y122880D01*
X230856Y122889D01*
X230759Y122903D01*
X230663Y122920D01*
X230567Y122941D01*
X230472Y122966D01*
X230378Y122994D01*
X230285Y123026D01*
X230194Y123062D01*
X230104Y123101D01*
X230016Y123144D01*
X229929Y123191D01*
X229845Y123240D01*
X229762Y123293D01*
X229682Y123349D01*
X229604Y123408D01*
X229528Y123471D01*
X229454Y123536D01*
X229384Y123604D01*
X229316Y123674D01*
X229251Y123748D01*
X229188Y123824D01*
X229129Y123902D01*
X229073Y123982D01*
X229020Y124065D01*
X228971Y124149D01*
X228924Y124236D01*
X228881Y124324D01*
X228842Y124414D01*
X228806Y124505D01*
X228774Y124598D01*
X228746Y124692D01*
X228721Y124787D01*
X228700Y124883D01*
X228683Y124979D01*
X228669Y125076D01*
X228660Y125174D01*
X228654Y125272D01*
X228652Y125370D01*
X228653Y125370D02*
X228653Y130366D01*
X228652Y130366D02*
X228654Y130464D01*
X228660Y130562D01*
X228669Y130660D01*
X228683Y130757D01*
X228700Y130853D01*
X228721Y130949D01*
X228746Y131044D01*
X228774Y131138D01*
X228806Y131231D01*
X228842Y131322D01*
X228881Y131412D01*
X228924Y131500D01*
X228971Y131587D01*
X229020Y131671D01*
X229073Y131754D01*
X229129Y131834D01*
X229188Y131913D01*
X229251Y131988D01*
X229316Y132062D01*
X229384Y132132D01*
X229454Y132200D01*
X229528Y132266D01*
X229604Y132328D01*
X229682Y132387D01*
X229762Y132443D01*
X229845Y132496D01*
X229929Y132546D01*
X230016Y132592D01*
X230104Y132635D01*
X230194Y132674D01*
X230285Y132710D01*
X230378Y132742D01*
X230472Y132770D01*
X230567Y132795D01*
X230663Y132816D01*
X230759Y132833D01*
X230856Y132847D01*
X230954Y132856D01*
X231052Y132862D01*
X231150Y132864D01*
X231150Y132863D02*
X235313Y132863D01*
X245329Y122873D02*
X249492Y122873D01*
X245329Y122872D02*
X245231Y122874D01*
X245133Y122880D01*
X245035Y122889D01*
X244938Y122903D01*
X244842Y122920D01*
X244746Y122941D01*
X244651Y122966D01*
X244557Y122994D01*
X244464Y123026D01*
X244373Y123062D01*
X244283Y123101D01*
X244195Y123144D01*
X244108Y123191D01*
X244024Y123240D01*
X243941Y123293D01*
X243861Y123349D01*
X243783Y123408D01*
X243707Y123471D01*
X243633Y123536D01*
X243563Y123604D01*
X243495Y123674D01*
X243430Y123748D01*
X243367Y123824D01*
X243308Y123902D01*
X243252Y123982D01*
X243199Y124065D01*
X243150Y124149D01*
X243103Y124236D01*
X243060Y124324D01*
X243021Y124414D01*
X242985Y124505D01*
X242953Y124598D01*
X242925Y124692D01*
X242900Y124787D01*
X242879Y124883D01*
X242862Y124979D01*
X242848Y125076D01*
X242839Y125174D01*
X242833Y125272D01*
X242831Y125370D01*
X242831Y129533D01*
X242833Y129647D01*
X242839Y129760D01*
X242848Y129874D01*
X242862Y129986D01*
X242879Y130099D01*
X242901Y130211D01*
X242926Y130321D01*
X242954Y130431D01*
X242987Y130540D01*
X243023Y130648D01*
X243063Y130755D01*
X243107Y130860D01*
X243154Y130963D01*
X243204Y131065D01*
X243258Y131165D01*
X243316Y131263D01*
X243377Y131359D01*
X243440Y131453D01*
X243508Y131545D01*
X243578Y131635D01*
X243651Y131721D01*
X243727Y131806D01*
X243806Y131888D01*
X243888Y131967D01*
X243973Y132043D01*
X244059Y132116D01*
X244149Y132186D01*
X244241Y132254D01*
X244335Y132317D01*
X244431Y132378D01*
X244529Y132436D01*
X244629Y132490D01*
X244731Y132540D01*
X244834Y132587D01*
X244939Y132631D01*
X245046Y132671D01*
X245154Y132707D01*
X245263Y132740D01*
X245373Y132768D01*
X245483Y132793D01*
X245595Y132815D01*
X245708Y132832D01*
X245820Y132846D01*
X245934Y132855D01*
X246047Y132861D01*
X246161Y132863D01*
X246275Y132861D01*
X246388Y132855D01*
X246502Y132846D01*
X246614Y132832D01*
X246727Y132815D01*
X246839Y132793D01*
X246949Y132768D01*
X247059Y132740D01*
X247168Y132707D01*
X247276Y132671D01*
X247383Y132631D01*
X247488Y132587D01*
X247591Y132540D01*
X247693Y132490D01*
X247793Y132436D01*
X247891Y132378D01*
X247987Y132317D01*
X248081Y132254D01*
X248173Y132186D01*
X248263Y132116D01*
X248349Y132043D01*
X248434Y131967D01*
X248516Y131888D01*
X248595Y131806D01*
X248671Y131721D01*
X248744Y131635D01*
X248814Y131545D01*
X248882Y131453D01*
X248945Y131359D01*
X249006Y131263D01*
X249064Y131165D01*
X249118Y131065D01*
X249168Y130963D01*
X249215Y130860D01*
X249259Y130755D01*
X249299Y130648D01*
X249335Y130540D01*
X249368Y130431D01*
X249396Y130321D01*
X249421Y130211D01*
X249443Y130099D01*
X249460Y129986D01*
X249474Y129874D01*
X249483Y129760D01*
X249489Y129647D01*
X249491Y129533D01*
X249492Y129533D02*
X249492Y127868D01*
X242831Y127868D01*
D14*
X60025Y158650D02*
X34350Y158650D01*
X34350Y196825D02*
X60025Y196825D01*
X60025Y158650D01*
X34350Y158650D02*
X34350Y196825D01*
D12*
X378460Y160020D02*
X378460Y71755D01*
X378460Y160020D02*
X382270Y163830D01*
X470535Y163830D01*
X474345Y160020D01*
X474345Y71755D01*
X470535Y67945D01*
X382270Y67945D01*
X378460Y71755D01*
X462387Y76200D02*
X462389Y76321D01*
X462395Y76442D01*
X462405Y76563D01*
X462419Y76683D01*
X462436Y76803D01*
X462458Y76922D01*
X462484Y77041D01*
X462513Y77158D01*
X462546Y77275D01*
X462584Y77390D01*
X462624Y77504D01*
X462669Y77617D01*
X462717Y77728D01*
X462769Y77838D01*
X462824Y77946D01*
X462883Y78051D01*
X462945Y78155D01*
X463011Y78257D01*
X463080Y78357D01*
X463152Y78454D01*
X463228Y78549D01*
X463306Y78642D01*
X463387Y78731D01*
X463472Y78818D01*
X463559Y78903D01*
X463648Y78984D01*
X463741Y79062D01*
X463836Y79138D01*
X463933Y79210D01*
X464033Y79279D01*
X464135Y79345D01*
X464238Y79407D01*
X464344Y79466D01*
X464452Y79521D01*
X464562Y79573D01*
X464673Y79621D01*
X464786Y79666D01*
X464900Y79706D01*
X465015Y79744D01*
X465132Y79777D01*
X465249Y79806D01*
X465368Y79832D01*
X465487Y79854D01*
X465607Y79871D01*
X465727Y79885D01*
X465848Y79895D01*
X465969Y79901D01*
X466090Y79903D01*
X466211Y79901D01*
X466332Y79895D01*
X466453Y79885D01*
X466573Y79871D01*
X466693Y79854D01*
X466812Y79832D01*
X466931Y79806D01*
X467048Y79777D01*
X467165Y79744D01*
X467280Y79706D01*
X467394Y79666D01*
X467507Y79621D01*
X467618Y79573D01*
X467728Y79521D01*
X467836Y79466D01*
X467941Y79407D01*
X468045Y79345D01*
X468147Y79279D01*
X468247Y79210D01*
X468344Y79138D01*
X468439Y79062D01*
X468532Y78984D01*
X468621Y78903D01*
X468708Y78818D01*
X468793Y78731D01*
X468874Y78642D01*
X468952Y78549D01*
X469028Y78454D01*
X469100Y78357D01*
X469169Y78257D01*
X469235Y78155D01*
X469297Y78052D01*
X469356Y77946D01*
X469411Y77838D01*
X469463Y77728D01*
X469511Y77617D01*
X469556Y77504D01*
X469596Y77390D01*
X469634Y77275D01*
X469667Y77158D01*
X469696Y77041D01*
X469722Y76922D01*
X469744Y76803D01*
X469761Y76683D01*
X469775Y76563D01*
X469785Y76442D01*
X469791Y76321D01*
X469793Y76200D01*
X469791Y76079D01*
X469785Y75958D01*
X469775Y75837D01*
X469761Y75717D01*
X469744Y75597D01*
X469722Y75478D01*
X469696Y75359D01*
X469667Y75242D01*
X469634Y75125D01*
X469596Y75010D01*
X469556Y74896D01*
X469511Y74783D01*
X469463Y74672D01*
X469411Y74562D01*
X469356Y74454D01*
X469297Y74349D01*
X469235Y74245D01*
X469169Y74143D01*
X469100Y74043D01*
X469028Y73946D01*
X468952Y73851D01*
X468874Y73758D01*
X468793Y73669D01*
X468708Y73582D01*
X468621Y73497D01*
X468532Y73416D01*
X468439Y73338D01*
X468344Y73262D01*
X468247Y73190D01*
X468147Y73121D01*
X468045Y73055D01*
X467942Y72993D01*
X467836Y72934D01*
X467728Y72879D01*
X467618Y72827D01*
X467507Y72779D01*
X467394Y72734D01*
X467280Y72694D01*
X467165Y72656D01*
X467048Y72623D01*
X466931Y72594D01*
X466812Y72568D01*
X466693Y72546D01*
X466573Y72529D01*
X466453Y72515D01*
X466332Y72505D01*
X466211Y72499D01*
X466090Y72497D01*
X465969Y72499D01*
X465848Y72505D01*
X465727Y72515D01*
X465607Y72529D01*
X465487Y72546D01*
X465368Y72568D01*
X465249Y72594D01*
X465132Y72623D01*
X465015Y72656D01*
X464900Y72694D01*
X464786Y72734D01*
X464673Y72779D01*
X464562Y72827D01*
X464452Y72879D01*
X464344Y72934D01*
X464239Y72993D01*
X464135Y73055D01*
X464033Y73121D01*
X463933Y73190D01*
X463836Y73262D01*
X463741Y73338D01*
X463648Y73416D01*
X463559Y73497D01*
X463472Y73582D01*
X463387Y73669D01*
X463306Y73758D01*
X463228Y73851D01*
X463152Y73946D01*
X463080Y74043D01*
X463011Y74143D01*
X462945Y74245D01*
X462883Y74348D01*
X462824Y74454D01*
X462769Y74562D01*
X462717Y74672D01*
X462669Y74783D01*
X462624Y74896D01*
X462584Y75010D01*
X462546Y75125D01*
X462513Y75242D01*
X462484Y75359D01*
X462458Y75478D01*
X462436Y75597D01*
X462419Y75717D01*
X462405Y75837D01*
X462395Y75958D01*
X462389Y76079D01*
X462387Y76200D01*
X44450Y102870D02*
X0Y102870D01*
X44450Y102870D02*
X44450Y2540D01*
X0Y2540D01*
X588386Y237744D02*
X634106Y237744D01*
X634106Y191516D01*
X588386Y191516D01*
X588386Y237744D01*
X597975Y215138D02*
X597979Y215451D01*
X597990Y215764D01*
X598010Y216077D01*
X598036Y216389D01*
X598071Y216700D01*
X598113Y217011D01*
X598163Y217320D01*
X598220Y217628D01*
X598285Y217934D01*
X598357Y218239D01*
X598437Y218542D01*
X598525Y218843D01*
X598619Y219142D01*
X598721Y219438D01*
X598830Y219731D01*
X598947Y220022D01*
X599070Y220310D01*
X599200Y220595D01*
X599338Y220876D01*
X599482Y221154D01*
X599633Y221429D01*
X599791Y221699D01*
X599955Y221966D01*
X600126Y222229D01*
X600303Y222487D01*
X600487Y222741D01*
X600676Y222990D01*
X600872Y223235D01*
X601074Y223474D01*
X601281Y223709D01*
X601494Y223939D01*
X601713Y224163D01*
X601937Y224382D01*
X602167Y224595D01*
X602402Y224802D01*
X602641Y225004D01*
X602886Y225200D01*
X603135Y225389D01*
X603389Y225573D01*
X603647Y225750D01*
X603910Y225921D01*
X604177Y226085D01*
X604447Y226243D01*
X604722Y226394D01*
X605000Y226538D01*
X605281Y226676D01*
X605566Y226806D01*
X605854Y226929D01*
X606145Y227046D01*
X606438Y227155D01*
X606734Y227257D01*
X607033Y227351D01*
X607334Y227439D01*
X607637Y227519D01*
X607942Y227591D01*
X608248Y227656D01*
X608556Y227713D01*
X608865Y227763D01*
X609176Y227805D01*
X609487Y227840D01*
X609799Y227866D01*
X610112Y227886D01*
X610425Y227897D01*
X610738Y227901D01*
X611051Y227897D01*
X611364Y227886D01*
X611677Y227866D01*
X611989Y227840D01*
X612300Y227805D01*
X612611Y227763D01*
X612920Y227713D01*
X613228Y227656D01*
X613534Y227591D01*
X613839Y227519D01*
X614142Y227439D01*
X614443Y227351D01*
X614742Y227257D01*
X615038Y227155D01*
X615331Y227046D01*
X615622Y226929D01*
X615910Y226806D01*
X616195Y226676D01*
X616476Y226538D01*
X616754Y226394D01*
X617029Y226243D01*
X617299Y226085D01*
X617566Y225921D01*
X617829Y225750D01*
X618087Y225573D01*
X618341Y225389D01*
X618590Y225200D01*
X618835Y225004D01*
X619074Y224802D01*
X619309Y224595D01*
X619539Y224382D01*
X619763Y224163D01*
X619982Y223939D01*
X620195Y223709D01*
X620402Y223474D01*
X620604Y223235D01*
X620800Y222990D01*
X620989Y222741D01*
X621173Y222487D01*
X621350Y222229D01*
X621521Y221966D01*
X621685Y221699D01*
X621843Y221429D01*
X621994Y221154D01*
X622138Y220876D01*
X622276Y220595D01*
X622406Y220310D01*
X622529Y220022D01*
X622646Y219731D01*
X622755Y219438D01*
X622857Y219142D01*
X622951Y218843D01*
X623039Y218542D01*
X623119Y218239D01*
X623191Y217934D01*
X623256Y217628D01*
X623313Y217320D01*
X623363Y217011D01*
X623405Y216700D01*
X623440Y216389D01*
X623466Y216077D01*
X623486Y215764D01*
X623497Y215451D01*
X623501Y215138D01*
X623497Y214825D01*
X623486Y214512D01*
X623466Y214199D01*
X623440Y213887D01*
X623405Y213576D01*
X623363Y213265D01*
X623313Y212956D01*
X623256Y212648D01*
X623191Y212342D01*
X623119Y212037D01*
X623039Y211734D01*
X622951Y211433D01*
X622857Y211134D01*
X622755Y210838D01*
X622646Y210545D01*
X622529Y210254D01*
X622406Y209966D01*
X622276Y209681D01*
X622138Y209400D01*
X621994Y209122D01*
X621843Y208847D01*
X621685Y208577D01*
X621521Y208310D01*
X621350Y208047D01*
X621173Y207789D01*
X620989Y207535D01*
X620800Y207286D01*
X620604Y207041D01*
X620402Y206802D01*
X620195Y206567D01*
X619982Y206337D01*
X619763Y206113D01*
X619539Y205894D01*
X619309Y205681D01*
X619074Y205474D01*
X618835Y205272D01*
X618590Y205076D01*
X618341Y204887D01*
X618087Y204703D01*
X617829Y204526D01*
X617566Y204355D01*
X617299Y204191D01*
X617029Y204033D01*
X616754Y203882D01*
X616476Y203738D01*
X616195Y203600D01*
X615910Y203470D01*
X615622Y203347D01*
X615331Y203230D01*
X615038Y203121D01*
X614742Y203019D01*
X614443Y202925D01*
X614142Y202837D01*
X613839Y202757D01*
X613534Y202685D01*
X613228Y202620D01*
X612920Y202563D01*
X612611Y202513D01*
X612300Y202471D01*
X611989Y202436D01*
X611677Y202410D01*
X611364Y202390D01*
X611051Y202379D01*
X610738Y202375D01*
X610425Y202379D01*
X610112Y202390D01*
X609799Y202410D01*
X609487Y202436D01*
X609176Y202471D01*
X608865Y202513D01*
X608556Y202563D01*
X608248Y202620D01*
X607942Y202685D01*
X607637Y202757D01*
X607334Y202837D01*
X607033Y202925D01*
X606734Y203019D01*
X606438Y203121D01*
X606145Y203230D01*
X605854Y203347D01*
X605566Y203470D01*
X605281Y203600D01*
X605000Y203738D01*
X604722Y203882D01*
X604447Y204033D01*
X604177Y204191D01*
X603910Y204355D01*
X603647Y204526D01*
X603389Y204703D01*
X603135Y204887D01*
X602886Y205076D01*
X602641Y205272D01*
X602402Y205474D01*
X602167Y205681D01*
X601937Y205894D01*
X601713Y206113D01*
X601494Y206337D01*
X601281Y206567D01*
X601074Y206802D01*
X600872Y207041D01*
X600676Y207286D01*
X600487Y207535D01*
X600303Y207789D01*
X600126Y208047D01*
X599955Y208310D01*
X599791Y208577D01*
X599633Y208847D01*
X599482Y209122D01*
X599338Y209400D01*
X599200Y209681D01*
X599070Y209966D01*
X598947Y210254D01*
X598830Y210545D01*
X598721Y210838D01*
X598619Y211134D01*
X598525Y211433D01*
X598437Y211734D01*
X598357Y212037D01*
X598285Y212342D01*
X598220Y212648D01*
X598163Y212956D01*
X598113Y213265D01*
X598071Y213576D01*
X598036Y213887D01*
X598010Y214199D01*
X597990Y214512D01*
X597979Y214825D01*
X597975Y215138D01*
D14*
X426720Y215900D02*
X426720Y233680D01*
X426720Y215900D02*
X431800Y215900D01*
X431800Y233680D01*
X426720Y233680D01*
X435610Y233680D02*
X435610Y224790D01*
X435610Y215900D01*
X422910Y224790D02*
X422910Y233680D01*
X422910Y224790D02*
X422910Y215900D01*
X422910Y224790D02*
X419100Y224790D01*
X435610Y224790D02*
X439420Y224790D01*
D12*
X408000Y241000D02*
X404000Y237000D01*
X408000Y241000D02*
X450000Y241000D01*
X454000Y237000D01*
X454000Y228000D01*
X452000Y228000D01*
X452000Y221000D01*
X454000Y221000D01*
X454000Y213000D01*
X450000Y209000D01*
X408000Y209000D01*
X404000Y213000D01*
X404000Y221000D01*
X406000Y221000D01*
X406000Y228000D01*
X404000Y228000D01*
X404000Y237000D01*
D14*
X204851Y159703D02*
X204851Y147130D01*
X213932Y138049D01*
X226314Y138049D01*
X235331Y147066D01*
X235331Y159449D01*
X226314Y168466D01*
X213614Y168466D01*
X204851Y159703D01*
D15*
X625000Y112000D02*
X625000Y39000D01*
X625000Y112000D02*
X641000Y112000D01*
X641000Y39000D02*
X625000Y39000D01*
X660000Y44000D02*
X660000Y107000D01*
X660000Y44000D02*
X644000Y44000D01*
X645000Y107000D02*
X660000Y107000D01*
X645000Y107000D02*
X641000Y112000D01*
X644000Y44000D02*
X641000Y39000D01*
D16*
X641000Y75500D03*
D17*
X644500Y91500D03*
X644500Y83500D03*
X644500Y75500D03*
X644500Y67500D03*
X644500Y59500D03*
D12*
X598158Y92199D02*
X598158Y102867D01*
X601121Y102867D01*
X601121Y102866D02*
X601227Y102864D01*
X601332Y102858D01*
X601438Y102849D01*
X601543Y102836D01*
X601647Y102819D01*
X601751Y102798D01*
X601854Y102774D01*
X601956Y102746D01*
X602057Y102714D01*
X602156Y102679D01*
X602255Y102640D01*
X602352Y102598D01*
X602447Y102553D01*
X602541Y102504D01*
X602633Y102451D01*
X602723Y102396D01*
X602811Y102337D01*
X602897Y102275D01*
X602980Y102210D01*
X603061Y102142D01*
X603140Y102072D01*
X603216Y101998D01*
X603290Y101922D01*
X603360Y101843D01*
X603428Y101762D01*
X603493Y101679D01*
X603555Y101593D01*
X603614Y101505D01*
X603669Y101415D01*
X603722Y101323D01*
X603771Y101229D01*
X603816Y101134D01*
X603858Y101037D01*
X603897Y100938D01*
X603932Y100839D01*
X603964Y100738D01*
X603992Y100636D01*
X604016Y100533D01*
X604037Y100429D01*
X604054Y100325D01*
X604067Y100220D01*
X604076Y100114D01*
X604082Y100009D01*
X604084Y99903D01*
X604084Y95162D01*
X604082Y95056D01*
X604076Y94951D01*
X604067Y94845D01*
X604054Y94740D01*
X604037Y94636D01*
X604016Y94532D01*
X603992Y94429D01*
X603964Y94327D01*
X603932Y94226D01*
X603897Y94127D01*
X603858Y94028D01*
X603816Y93931D01*
X603771Y93836D01*
X603722Y93742D01*
X603669Y93650D01*
X603614Y93560D01*
X603555Y93472D01*
X603493Y93386D01*
X603428Y93303D01*
X603360Y93222D01*
X603290Y93143D01*
X603216Y93067D01*
X603140Y92993D01*
X603061Y92923D01*
X602980Y92855D01*
X602897Y92790D01*
X602811Y92728D01*
X602723Y92669D01*
X602633Y92614D01*
X602541Y92561D01*
X602447Y92512D01*
X602352Y92467D01*
X602255Y92425D01*
X602156Y92386D01*
X602057Y92351D01*
X601956Y92319D01*
X601854Y92291D01*
X601751Y92267D01*
X601647Y92246D01*
X601543Y92229D01*
X601438Y92216D01*
X601332Y92207D01*
X601227Y92201D01*
X601121Y92199D01*
X598158Y92199D01*
X610138Y96347D02*
X617250Y96347D01*
X613694Y92791D02*
X613694Y99903D01*
X598158Y77232D02*
X598158Y66564D01*
X598158Y77232D02*
X601121Y77232D01*
X601121Y77231D02*
X601227Y77229D01*
X601332Y77223D01*
X601438Y77214D01*
X601543Y77201D01*
X601647Y77184D01*
X601751Y77163D01*
X601854Y77139D01*
X601956Y77111D01*
X602057Y77079D01*
X602156Y77044D01*
X602255Y77005D01*
X602352Y76963D01*
X602447Y76918D01*
X602541Y76869D01*
X602633Y76816D01*
X602723Y76761D01*
X602811Y76702D01*
X602897Y76640D01*
X602980Y76575D01*
X603061Y76507D01*
X603140Y76437D01*
X603216Y76363D01*
X603290Y76287D01*
X603360Y76208D01*
X603428Y76127D01*
X603493Y76044D01*
X603555Y75958D01*
X603614Y75870D01*
X603669Y75780D01*
X603722Y75688D01*
X603771Y75594D01*
X603816Y75499D01*
X603858Y75402D01*
X603897Y75303D01*
X603932Y75204D01*
X603964Y75103D01*
X603992Y75001D01*
X604016Y74898D01*
X604037Y74794D01*
X604054Y74690D01*
X604067Y74585D01*
X604076Y74479D01*
X604082Y74374D01*
X604084Y74268D01*
X604084Y69527D01*
X604082Y69421D01*
X604076Y69316D01*
X604067Y69210D01*
X604054Y69105D01*
X604037Y69001D01*
X604016Y68897D01*
X603992Y68794D01*
X603964Y68692D01*
X603932Y68591D01*
X603897Y68492D01*
X603858Y68393D01*
X603816Y68296D01*
X603771Y68201D01*
X603722Y68107D01*
X603669Y68015D01*
X603614Y67925D01*
X603555Y67837D01*
X603493Y67751D01*
X603428Y67668D01*
X603360Y67587D01*
X603290Y67508D01*
X603216Y67432D01*
X603140Y67358D01*
X603061Y67288D01*
X602980Y67220D01*
X602897Y67155D01*
X602811Y67093D01*
X602723Y67034D01*
X602633Y66979D01*
X602541Y66926D01*
X602447Y66877D01*
X602352Y66832D01*
X602255Y66790D01*
X602156Y66751D01*
X602057Y66716D01*
X601956Y66684D01*
X601854Y66656D01*
X601751Y66632D01*
X601647Y66611D01*
X601543Y66594D01*
X601438Y66581D01*
X601332Y66572D01*
X601227Y66566D01*
X601121Y66564D01*
X598158Y66564D01*
X610138Y70712D02*
X617250Y70712D01*
X604236Y123845D02*
X602458Y123845D01*
X604236Y123845D02*
X604236Y117919D01*
X600680Y117919D01*
X600680Y117918D02*
X600585Y117920D01*
X600489Y117926D01*
X600394Y117935D01*
X600300Y117949D01*
X600206Y117966D01*
X600113Y117987D01*
X600020Y118012D01*
X599929Y118040D01*
X599839Y118072D01*
X599751Y118108D01*
X599664Y118147D01*
X599578Y118190D01*
X599495Y118236D01*
X599413Y118285D01*
X599333Y118338D01*
X599256Y118394D01*
X599180Y118452D01*
X599108Y118514D01*
X599038Y118579D01*
X598970Y118647D01*
X598905Y118717D01*
X598843Y118789D01*
X598785Y118865D01*
X598729Y118942D01*
X598676Y119022D01*
X598627Y119104D01*
X598581Y119187D01*
X598538Y119273D01*
X598499Y119360D01*
X598463Y119448D01*
X598431Y119538D01*
X598403Y119629D01*
X598378Y119722D01*
X598357Y119815D01*
X598340Y119909D01*
X598326Y120003D01*
X598317Y120098D01*
X598311Y120194D01*
X598309Y120289D01*
X598309Y126216D01*
X598311Y126311D01*
X598317Y126407D01*
X598326Y126502D01*
X598340Y126596D01*
X598357Y126690D01*
X598378Y126783D01*
X598403Y126876D01*
X598431Y126967D01*
X598463Y127057D01*
X598499Y127145D01*
X598538Y127232D01*
X598581Y127318D01*
X598627Y127401D01*
X598676Y127483D01*
X598729Y127563D01*
X598785Y127640D01*
X598843Y127716D01*
X598905Y127788D01*
X598970Y127858D01*
X599038Y127926D01*
X599108Y127991D01*
X599180Y128053D01*
X599256Y128111D01*
X599333Y128167D01*
X599413Y128220D01*
X599494Y128269D01*
X599578Y128315D01*
X599664Y128358D01*
X599751Y128397D01*
X599839Y128433D01*
X599929Y128465D01*
X600020Y128493D01*
X600113Y128518D01*
X600206Y128539D01*
X600300Y128556D01*
X600394Y128570D01*
X600489Y128579D01*
X600584Y128585D01*
X600680Y128587D01*
X604236Y128587D01*
X619899Y128587D02*
X619899Y117919D01*
X619899Y128587D02*
X622863Y128587D01*
X622863Y128586D02*
X622969Y128584D01*
X623074Y128578D01*
X623180Y128569D01*
X623285Y128556D01*
X623389Y128539D01*
X623493Y128518D01*
X623596Y128494D01*
X623698Y128466D01*
X623799Y128434D01*
X623898Y128399D01*
X623997Y128360D01*
X624094Y128318D01*
X624189Y128273D01*
X624283Y128224D01*
X624375Y128171D01*
X624465Y128116D01*
X624553Y128057D01*
X624639Y127995D01*
X624722Y127930D01*
X624803Y127862D01*
X624882Y127792D01*
X624958Y127718D01*
X625032Y127642D01*
X625102Y127563D01*
X625170Y127482D01*
X625235Y127399D01*
X625297Y127313D01*
X625356Y127225D01*
X625411Y127135D01*
X625464Y127043D01*
X625513Y126949D01*
X625558Y126854D01*
X625600Y126757D01*
X625639Y126658D01*
X625674Y126559D01*
X625706Y126458D01*
X625734Y126356D01*
X625758Y126253D01*
X625779Y126149D01*
X625796Y126045D01*
X625809Y125940D01*
X625818Y125834D01*
X625824Y125729D01*
X625826Y125623D01*
X625826Y120882D01*
X625824Y120776D01*
X625818Y120671D01*
X625809Y120565D01*
X625796Y120460D01*
X625779Y120356D01*
X625758Y120252D01*
X625734Y120149D01*
X625706Y120047D01*
X625674Y119946D01*
X625639Y119847D01*
X625600Y119748D01*
X625558Y119651D01*
X625513Y119556D01*
X625464Y119462D01*
X625411Y119370D01*
X625356Y119280D01*
X625297Y119192D01*
X625235Y119106D01*
X625170Y119023D01*
X625102Y118942D01*
X625032Y118863D01*
X624958Y118787D01*
X624882Y118713D01*
X624803Y118643D01*
X624722Y118575D01*
X624639Y118510D01*
X624553Y118448D01*
X624465Y118389D01*
X624375Y118334D01*
X624283Y118281D01*
X624189Y118232D01*
X624094Y118187D01*
X623997Y118145D01*
X623898Y118106D01*
X623799Y118071D01*
X623698Y118039D01*
X623596Y118011D01*
X623493Y117987D01*
X623389Y117966D01*
X623285Y117949D01*
X623180Y117936D01*
X623074Y117927D01*
X622969Y117921D01*
X622863Y117919D01*
X619899Y117919D01*
X609104Y117919D02*
X609104Y128587D01*
X615031Y117919D01*
X615031Y128587D01*
X606746Y144529D02*
X606746Y145121D01*
X607339Y145121D01*
X607339Y144529D01*
X606746Y144529D01*
X612334Y144529D02*
X614705Y144529D01*
X612334Y144529D02*
X612252Y144531D01*
X612170Y144537D01*
X612088Y144546D01*
X612007Y144559D01*
X611927Y144576D01*
X611847Y144597D01*
X611769Y144621D01*
X611692Y144649D01*
X611616Y144680D01*
X611541Y144715D01*
X611469Y144754D01*
X611398Y144795D01*
X611329Y144840D01*
X611263Y144888D01*
X611198Y144939D01*
X611136Y144993D01*
X611077Y145050D01*
X611020Y145109D01*
X610966Y145171D01*
X610915Y145236D01*
X610867Y145302D01*
X610822Y145371D01*
X610781Y145442D01*
X610742Y145514D01*
X610707Y145589D01*
X610676Y145665D01*
X610648Y145742D01*
X610624Y145820D01*
X610603Y145900D01*
X610586Y145980D01*
X610573Y146061D01*
X610564Y146143D01*
X610558Y146225D01*
X610556Y146307D01*
X610556Y149863D01*
X610558Y149945D01*
X610564Y150027D01*
X610573Y150109D01*
X610586Y150190D01*
X610603Y150270D01*
X610624Y150350D01*
X610648Y150428D01*
X610676Y150505D01*
X610707Y150581D01*
X610742Y150656D01*
X610781Y150728D01*
X610822Y150799D01*
X610867Y150868D01*
X610915Y150934D01*
X610966Y150999D01*
X611020Y151061D01*
X611077Y151120D01*
X611136Y151177D01*
X611198Y151231D01*
X611263Y151282D01*
X611329Y151330D01*
X611398Y151375D01*
X611469Y151416D01*
X611541Y151455D01*
X611616Y151490D01*
X611692Y151521D01*
X611769Y151549D01*
X611847Y151573D01*
X611927Y151594D01*
X612007Y151611D01*
X612088Y151624D01*
X612170Y151633D01*
X612252Y151639D01*
X612334Y151641D01*
X614705Y151641D01*
X618176Y145121D02*
X618176Y144529D01*
X618176Y145121D02*
X618769Y145121D01*
X618769Y144529D01*
X618176Y144529D01*
D14*
X212027Y219266D02*
X181864Y168466D01*
X269177Y170053D02*
X269177Y189103D01*
X502539Y47816D02*
X502539Y35116D01*
X489839Y35116D02*
X489839Y47816D01*
X502539Y41466D01*
X489839Y35116D01*
X486664Y41466D02*
X505714Y41466D01*
X496189Y50991D02*
X500952Y55753D01*
X500952Y52578D01*
X508889Y52578D02*
X508889Y55753D01*
X504127Y50991D01*
X500952Y55753D02*
X497777Y55753D01*
X505714Y55753D02*
X508889Y55753D01*
D18*
X402590Y101029D02*
X397256Y101029D01*
X402590Y101029D02*
X402706Y101027D01*
X402823Y101021D01*
X402939Y101012D01*
X403054Y100999D01*
X403169Y100982D01*
X403284Y100961D01*
X403397Y100936D01*
X403510Y100908D01*
X403622Y100876D01*
X403733Y100840D01*
X403843Y100801D01*
X403951Y100758D01*
X404058Y100712D01*
X404163Y100662D01*
X404266Y100609D01*
X404368Y100553D01*
X404468Y100493D01*
X404566Y100430D01*
X404661Y100363D01*
X404755Y100294D01*
X404846Y100222D01*
X404935Y100147D01*
X405021Y100068D01*
X405104Y99987D01*
X405185Y99904D01*
X405264Y99818D01*
X405339Y99729D01*
X405411Y99638D01*
X405480Y99544D01*
X405547Y99449D01*
X405610Y99351D01*
X405670Y99251D01*
X405726Y99149D01*
X405779Y99046D01*
X405829Y98941D01*
X405875Y98834D01*
X405918Y98726D01*
X405957Y98616D01*
X405993Y98505D01*
X406025Y98393D01*
X406053Y98280D01*
X406078Y98167D01*
X406099Y98052D01*
X406116Y97937D01*
X406129Y97822D01*
X406138Y97706D01*
X406144Y97589D01*
X406146Y97473D01*
X406146Y96584D01*
X406144Y96452D01*
X406138Y96321D01*
X406128Y96189D01*
X406115Y96058D01*
X406097Y95928D01*
X406076Y95798D01*
X406051Y95668D01*
X406022Y95540D01*
X405989Y95412D01*
X405952Y95286D01*
X405912Y95160D01*
X405868Y95036D01*
X405820Y94913D01*
X405769Y94792D01*
X405714Y94672D01*
X405656Y94554D01*
X405594Y94438D01*
X405528Y94324D01*
X405460Y94211D01*
X405388Y94101D01*
X405313Y93993D01*
X405234Y93887D01*
X405153Y93783D01*
X405068Y93682D01*
X404981Y93584D01*
X404890Y93488D01*
X404797Y93395D01*
X404701Y93304D01*
X404603Y93217D01*
X404502Y93132D01*
X404398Y93051D01*
X404292Y92972D01*
X404184Y92897D01*
X404074Y92825D01*
X403961Y92757D01*
X403847Y92691D01*
X403731Y92629D01*
X403613Y92571D01*
X403493Y92516D01*
X403372Y92465D01*
X403249Y92417D01*
X403125Y92373D01*
X402999Y92333D01*
X402873Y92296D01*
X402745Y92263D01*
X402617Y92234D01*
X402487Y92209D01*
X402357Y92188D01*
X402227Y92170D01*
X402096Y92157D01*
X401964Y92147D01*
X401833Y92141D01*
X401701Y92139D01*
X401569Y92141D01*
X401438Y92147D01*
X401306Y92157D01*
X401175Y92170D01*
X401045Y92188D01*
X400915Y92209D01*
X400785Y92234D01*
X400657Y92263D01*
X400529Y92296D01*
X400403Y92333D01*
X400277Y92373D01*
X400153Y92417D01*
X400030Y92465D01*
X399909Y92516D01*
X399789Y92571D01*
X399671Y92629D01*
X399555Y92691D01*
X399441Y92757D01*
X399328Y92825D01*
X399218Y92897D01*
X399110Y92972D01*
X399004Y93051D01*
X398900Y93132D01*
X398799Y93217D01*
X398701Y93304D01*
X398605Y93395D01*
X398512Y93488D01*
X398421Y93584D01*
X398334Y93682D01*
X398249Y93783D01*
X398168Y93887D01*
X398089Y93993D01*
X398014Y94101D01*
X397942Y94211D01*
X397874Y94324D01*
X397808Y94438D01*
X397746Y94554D01*
X397688Y94672D01*
X397633Y94792D01*
X397582Y94913D01*
X397534Y95036D01*
X397490Y95160D01*
X397450Y95286D01*
X397413Y95412D01*
X397380Y95540D01*
X397351Y95668D01*
X397326Y95798D01*
X397305Y95928D01*
X397287Y96058D01*
X397274Y96189D01*
X397264Y96321D01*
X397258Y96452D01*
X397256Y96584D01*
X397256Y101029D01*
X397258Y101201D01*
X397264Y101373D01*
X397275Y101544D01*
X397289Y101715D01*
X397308Y101886D01*
X397331Y102057D01*
X397358Y102226D01*
X397388Y102395D01*
X397424Y102564D01*
X397463Y102731D01*
X397506Y102897D01*
X397553Y103063D01*
X397604Y103227D01*
X397659Y103390D01*
X397718Y103551D01*
X397781Y103711D01*
X397848Y103869D01*
X397918Y104026D01*
X397993Y104181D01*
X398071Y104334D01*
X398152Y104485D01*
X398238Y104634D01*
X398327Y104782D01*
X398419Y104926D01*
X398515Y105069D01*
X398614Y105209D01*
X398717Y105347D01*
X398823Y105482D01*
X398932Y105615D01*
X399045Y105745D01*
X399160Y105872D01*
X399279Y105997D01*
X399400Y106118D01*
X399525Y106237D01*
X399652Y106352D01*
X399782Y106465D01*
X399915Y106574D01*
X400050Y106680D01*
X400188Y106783D01*
X400328Y106882D01*
X400471Y106978D01*
X400615Y107070D01*
X400763Y107159D01*
X400912Y107245D01*
X401063Y107326D01*
X401216Y107404D01*
X401371Y107479D01*
X401528Y107549D01*
X401686Y107616D01*
X401846Y107679D01*
X402007Y107738D01*
X402170Y107793D01*
X402334Y107844D01*
X402500Y107891D01*
X402666Y107934D01*
X402833Y107973D01*
X403002Y108009D01*
X403171Y108039D01*
X403340Y108066D01*
X403511Y108089D01*
X403682Y108108D01*
X403853Y108122D01*
X404024Y108133D01*
X404196Y108139D01*
X404368Y108141D01*
X414006Y92139D02*
X419340Y92139D01*
X419456Y92141D01*
X419573Y92147D01*
X419689Y92156D01*
X419804Y92169D01*
X419919Y92186D01*
X420034Y92207D01*
X420147Y92232D01*
X420260Y92260D01*
X420372Y92292D01*
X420483Y92328D01*
X420593Y92367D01*
X420701Y92410D01*
X420808Y92456D01*
X420913Y92506D01*
X421016Y92559D01*
X421118Y92615D01*
X421218Y92675D01*
X421316Y92738D01*
X421411Y92805D01*
X421505Y92874D01*
X421596Y92946D01*
X421685Y93021D01*
X421771Y93100D01*
X421854Y93181D01*
X421935Y93264D01*
X422014Y93350D01*
X422089Y93439D01*
X422161Y93530D01*
X422230Y93624D01*
X422297Y93719D01*
X422360Y93817D01*
X422420Y93917D01*
X422476Y94019D01*
X422529Y94122D01*
X422579Y94227D01*
X422625Y94334D01*
X422668Y94442D01*
X422707Y94552D01*
X422743Y94663D01*
X422775Y94775D01*
X422803Y94888D01*
X422828Y95001D01*
X422849Y95116D01*
X422866Y95231D01*
X422879Y95346D01*
X422888Y95462D01*
X422894Y95579D01*
X422896Y95695D01*
X422896Y97473D01*
X422894Y97589D01*
X422888Y97706D01*
X422879Y97822D01*
X422866Y97937D01*
X422849Y98052D01*
X422828Y98167D01*
X422803Y98280D01*
X422775Y98393D01*
X422743Y98505D01*
X422707Y98616D01*
X422668Y98726D01*
X422625Y98834D01*
X422579Y98941D01*
X422529Y99046D01*
X422476Y99149D01*
X422420Y99251D01*
X422360Y99351D01*
X422297Y99449D01*
X422230Y99544D01*
X422161Y99638D01*
X422089Y99729D01*
X422014Y99818D01*
X421935Y99904D01*
X421854Y99987D01*
X421771Y100068D01*
X421685Y100147D01*
X421596Y100222D01*
X421505Y100294D01*
X421411Y100363D01*
X421316Y100430D01*
X421218Y100493D01*
X421118Y100553D01*
X421016Y100609D01*
X420913Y100662D01*
X420808Y100712D01*
X420701Y100758D01*
X420593Y100801D01*
X420483Y100840D01*
X420372Y100876D01*
X420260Y100908D01*
X420147Y100936D01*
X420034Y100961D01*
X419919Y100982D01*
X419804Y100999D01*
X419689Y101012D01*
X419573Y101021D01*
X419456Y101027D01*
X419340Y101029D01*
X414006Y101029D01*
X414006Y108141D01*
X422896Y108141D01*
X430757Y104585D02*
X435202Y108141D01*
X435202Y92139D01*
X430757Y92139D02*
X439647Y92139D01*
X447507Y100140D02*
X447511Y100455D01*
X447522Y100769D01*
X447541Y101084D01*
X447567Y101397D01*
X447601Y101710D01*
X447642Y102022D01*
X447691Y102333D01*
X447747Y102643D01*
X447810Y102952D01*
X447881Y103258D01*
X447959Y103563D01*
X448044Y103866D01*
X448137Y104167D01*
X448237Y104466D01*
X448344Y104762D01*
X448457Y105056D01*
X448578Y105346D01*
X448706Y105634D01*
X448841Y105919D01*
X448841Y105918D02*
X448879Y106024D01*
X448922Y106129D01*
X448967Y106233D01*
X449017Y106335D01*
X449070Y106435D01*
X449126Y106534D01*
X449186Y106630D01*
X449249Y106724D01*
X449315Y106816D01*
X449384Y106906D01*
X449456Y106993D01*
X449532Y107078D01*
X449610Y107160D01*
X449691Y107239D01*
X449774Y107316D01*
X449861Y107389D01*
X449949Y107460D01*
X450040Y107527D01*
X450134Y107592D01*
X450229Y107653D01*
X450327Y107710D01*
X450426Y107765D01*
X450527Y107815D01*
X450630Y107863D01*
X450735Y107907D01*
X450841Y107947D01*
X450948Y107983D01*
X451057Y108016D01*
X451166Y108045D01*
X451277Y108070D01*
X451388Y108091D01*
X451500Y108109D01*
X451613Y108122D01*
X451726Y108132D01*
X451839Y108138D01*
X451952Y108140D01*
X452065Y108138D01*
X452178Y108132D01*
X452291Y108122D01*
X452404Y108109D01*
X452516Y108091D01*
X452627Y108070D01*
X452738Y108045D01*
X452847Y108016D01*
X452956Y107983D01*
X453063Y107947D01*
X453169Y107907D01*
X453274Y107863D01*
X453377Y107815D01*
X453478Y107765D01*
X453577Y107710D01*
X453675Y107653D01*
X453770Y107592D01*
X453864Y107527D01*
X453955Y107460D01*
X454043Y107389D01*
X454130Y107316D01*
X454213Y107239D01*
X454294Y107160D01*
X454372Y107078D01*
X454448Y106993D01*
X454520Y106906D01*
X454589Y106816D01*
X454655Y106724D01*
X454718Y106630D01*
X454778Y106534D01*
X454834Y106435D01*
X454887Y106335D01*
X454937Y106233D01*
X454982Y106129D01*
X455025Y106024D01*
X455063Y105918D01*
X455063Y105919D02*
X455198Y105634D01*
X455326Y105346D01*
X455447Y105056D01*
X455560Y104762D01*
X455667Y104466D01*
X455767Y104167D01*
X455860Y103866D01*
X455945Y103563D01*
X456023Y103258D01*
X456094Y102952D01*
X456157Y102643D01*
X456213Y102333D01*
X456262Y102022D01*
X456303Y101710D01*
X456337Y101397D01*
X456363Y101084D01*
X456382Y100769D01*
X456393Y100455D01*
X456397Y100140D01*
X447507Y100140D02*
X447511Y99825D01*
X447522Y99511D01*
X447541Y99196D01*
X447567Y98883D01*
X447601Y98570D01*
X447642Y98258D01*
X447691Y97947D01*
X447747Y97637D01*
X447810Y97328D01*
X447881Y97022D01*
X447959Y96717D01*
X448044Y96414D01*
X448137Y96113D01*
X448237Y95814D01*
X448344Y95518D01*
X448457Y95224D01*
X448578Y94934D01*
X448706Y94646D01*
X448841Y94361D01*
X448879Y94255D01*
X448922Y94150D01*
X448967Y94046D01*
X449017Y93944D01*
X449070Y93844D01*
X449126Y93745D01*
X449186Y93649D01*
X449249Y93555D01*
X449315Y93463D01*
X449384Y93373D01*
X449456Y93286D01*
X449532Y93201D01*
X449610Y93119D01*
X449691Y93040D01*
X449774Y92963D01*
X449861Y92890D01*
X449949Y92819D01*
X450040Y92752D01*
X450134Y92687D01*
X450229Y92626D01*
X450327Y92569D01*
X450426Y92514D01*
X450527Y92464D01*
X450630Y92416D01*
X450735Y92372D01*
X450841Y92332D01*
X450948Y92296D01*
X451057Y92263D01*
X451166Y92234D01*
X451277Y92209D01*
X451388Y92188D01*
X451500Y92170D01*
X451613Y92157D01*
X451726Y92147D01*
X451839Y92141D01*
X451952Y92139D01*
X455063Y94361D02*
X455198Y94646D01*
X455326Y94934D01*
X455447Y95224D01*
X455560Y95518D01*
X455667Y95814D01*
X455767Y96113D01*
X455860Y96414D01*
X455945Y96717D01*
X456023Y97022D01*
X456094Y97328D01*
X456157Y97637D01*
X456213Y97947D01*
X456262Y98258D01*
X456303Y98570D01*
X456337Y98883D01*
X456363Y99196D01*
X456382Y99511D01*
X456393Y99825D01*
X456397Y100140D01*
X455063Y94361D02*
X455025Y94255D01*
X454982Y94150D01*
X454937Y94046D01*
X454887Y93944D01*
X454834Y93844D01*
X454778Y93745D01*
X454718Y93649D01*
X454655Y93555D01*
X454589Y93463D01*
X454520Y93373D01*
X454448Y93286D01*
X454372Y93201D01*
X454294Y93119D01*
X454213Y93040D01*
X454130Y92963D01*
X454043Y92890D01*
X453955Y92819D01*
X453864Y92752D01*
X453770Y92687D01*
X453675Y92626D01*
X453577Y92569D01*
X453478Y92514D01*
X453377Y92464D01*
X453274Y92416D01*
X453169Y92372D01*
X453063Y92332D01*
X452956Y92296D01*
X452847Y92263D01*
X452738Y92234D01*
X452627Y92209D01*
X452516Y92188D01*
X452404Y92170D01*
X452291Y92157D01*
X452178Y92147D01*
X452065Y92141D01*
X451952Y92139D01*
X448396Y95695D02*
X455508Y104585D01*
D19*
X450850Y128270D03*
D20*
X450850Y134620D03*
D21*
X452120Y137160D03*
D10*
X441960Y135890D02*
X441962Y135961D01*
X441968Y136032D01*
X441978Y136103D01*
X441992Y136173D01*
X442010Y136242D01*
X442031Y136309D01*
X442057Y136376D01*
X442086Y136441D01*
X442118Y136504D01*
X442155Y136566D01*
X442194Y136625D01*
X442237Y136682D01*
X442283Y136736D01*
X442332Y136788D01*
X442384Y136837D01*
X442438Y136883D01*
X442495Y136926D01*
X442554Y136965D01*
X442616Y137002D01*
X442679Y137034D01*
X442744Y137063D01*
X442811Y137089D01*
X442878Y137110D01*
X442947Y137128D01*
X443017Y137142D01*
X443088Y137152D01*
X443159Y137158D01*
X443230Y137160D01*
X443301Y137158D01*
X443372Y137152D01*
X443443Y137142D01*
X443513Y137128D01*
X443582Y137110D01*
X443649Y137089D01*
X443716Y137063D01*
X443781Y137034D01*
X443844Y137002D01*
X443906Y136965D01*
X443965Y136926D01*
X444022Y136883D01*
X444076Y136837D01*
X444128Y136788D01*
X444177Y136736D01*
X444223Y136682D01*
X444266Y136625D01*
X444305Y136566D01*
X444342Y136504D01*
X444374Y136441D01*
X444403Y136376D01*
X444429Y136309D01*
X444450Y136242D01*
X444468Y136173D01*
X444482Y136103D01*
X444492Y136032D01*
X444498Y135961D01*
X444500Y135890D01*
X444498Y135819D01*
X444492Y135748D01*
X444482Y135677D01*
X444468Y135607D01*
X444450Y135538D01*
X444429Y135471D01*
X444403Y135404D01*
X444374Y135339D01*
X444342Y135276D01*
X444305Y135214D01*
X444266Y135155D01*
X444223Y135098D01*
X444177Y135044D01*
X444128Y134992D01*
X444076Y134943D01*
X444022Y134897D01*
X443965Y134854D01*
X443906Y134815D01*
X443844Y134778D01*
X443781Y134746D01*
X443716Y134717D01*
X443649Y134691D01*
X443582Y134670D01*
X443513Y134652D01*
X443443Y134638D01*
X443372Y134628D01*
X443301Y134622D01*
X443230Y134620D01*
X443159Y134622D01*
X443088Y134628D01*
X443017Y134638D01*
X442947Y134652D01*
X442878Y134670D01*
X442811Y134691D01*
X442744Y134717D01*
X442679Y134746D01*
X442616Y134778D01*
X442554Y134815D01*
X442495Y134854D01*
X442438Y134897D01*
X442384Y134943D01*
X442332Y134992D01*
X442283Y135044D01*
X442237Y135098D01*
X442194Y135155D01*
X442155Y135214D01*
X442118Y135276D01*
X442086Y135339D01*
X442057Y135404D01*
X442031Y135471D01*
X442010Y135538D01*
X441992Y135607D01*
X441978Y135677D01*
X441968Y135748D01*
X441962Y135819D01*
X441960Y135890D01*
D22*
X394970Y128270D03*
D23*
X408940Y128270D03*
D24*
X411480Y127000D03*
D10*
X408940Y135890D02*
X408942Y135961D01*
X408948Y136032D01*
X408958Y136103D01*
X408972Y136173D01*
X408990Y136242D01*
X409011Y136309D01*
X409037Y136376D01*
X409066Y136441D01*
X409098Y136504D01*
X409135Y136566D01*
X409174Y136625D01*
X409217Y136682D01*
X409263Y136736D01*
X409312Y136788D01*
X409364Y136837D01*
X409418Y136883D01*
X409475Y136926D01*
X409534Y136965D01*
X409596Y137002D01*
X409659Y137034D01*
X409724Y137063D01*
X409791Y137089D01*
X409858Y137110D01*
X409927Y137128D01*
X409997Y137142D01*
X410068Y137152D01*
X410139Y137158D01*
X410210Y137160D01*
X410281Y137158D01*
X410352Y137152D01*
X410423Y137142D01*
X410493Y137128D01*
X410562Y137110D01*
X410629Y137089D01*
X410696Y137063D01*
X410761Y137034D01*
X410824Y137002D01*
X410886Y136965D01*
X410945Y136926D01*
X411002Y136883D01*
X411056Y136837D01*
X411108Y136788D01*
X411157Y136736D01*
X411203Y136682D01*
X411246Y136625D01*
X411285Y136566D01*
X411322Y136504D01*
X411354Y136441D01*
X411383Y136376D01*
X411409Y136309D01*
X411430Y136242D01*
X411448Y136173D01*
X411462Y136103D01*
X411472Y136032D01*
X411478Y135961D01*
X411480Y135890D01*
X411478Y135819D01*
X411472Y135748D01*
X411462Y135677D01*
X411448Y135607D01*
X411430Y135538D01*
X411409Y135471D01*
X411383Y135404D01*
X411354Y135339D01*
X411322Y135276D01*
X411285Y135214D01*
X411246Y135155D01*
X411203Y135098D01*
X411157Y135044D01*
X411108Y134992D01*
X411056Y134943D01*
X411002Y134897D01*
X410945Y134854D01*
X410886Y134815D01*
X410824Y134778D01*
X410761Y134746D01*
X410696Y134717D01*
X410629Y134691D01*
X410562Y134670D01*
X410493Y134652D01*
X410423Y134638D01*
X410352Y134628D01*
X410281Y134622D01*
X410210Y134620D01*
X410139Y134622D01*
X410068Y134628D01*
X409997Y134638D01*
X409927Y134652D01*
X409858Y134670D01*
X409791Y134691D01*
X409724Y134717D01*
X409659Y134746D01*
X409596Y134778D01*
X409534Y134815D01*
X409475Y134854D01*
X409418Y134897D01*
X409364Y134943D01*
X409312Y134992D01*
X409263Y135044D01*
X409217Y135098D01*
X409174Y135155D01*
X409135Y135214D01*
X409098Y135276D01*
X409066Y135339D01*
X409037Y135404D01*
X409011Y135471D01*
X408990Y135538D01*
X408972Y135607D01*
X408958Y135677D01*
X408948Y135748D01*
X408942Y135819D01*
X408940Y135890D01*
D23*
X401320Y128270D03*
D24*
X403860Y127000D03*
D10*
X401320Y135890D02*
X401322Y135961D01*
X401328Y136032D01*
X401338Y136103D01*
X401352Y136173D01*
X401370Y136242D01*
X401391Y136309D01*
X401417Y136376D01*
X401446Y136441D01*
X401478Y136504D01*
X401515Y136566D01*
X401554Y136625D01*
X401597Y136682D01*
X401643Y136736D01*
X401692Y136788D01*
X401744Y136837D01*
X401798Y136883D01*
X401855Y136926D01*
X401914Y136965D01*
X401976Y137002D01*
X402039Y137034D01*
X402104Y137063D01*
X402171Y137089D01*
X402238Y137110D01*
X402307Y137128D01*
X402377Y137142D01*
X402448Y137152D01*
X402519Y137158D01*
X402590Y137160D01*
X402661Y137158D01*
X402732Y137152D01*
X402803Y137142D01*
X402873Y137128D01*
X402942Y137110D01*
X403009Y137089D01*
X403076Y137063D01*
X403141Y137034D01*
X403204Y137002D01*
X403266Y136965D01*
X403325Y136926D01*
X403382Y136883D01*
X403436Y136837D01*
X403488Y136788D01*
X403537Y136736D01*
X403583Y136682D01*
X403626Y136625D01*
X403665Y136566D01*
X403702Y136504D01*
X403734Y136441D01*
X403763Y136376D01*
X403789Y136309D01*
X403810Y136242D01*
X403828Y136173D01*
X403842Y136103D01*
X403852Y136032D01*
X403858Y135961D01*
X403860Y135890D01*
X403858Y135819D01*
X403852Y135748D01*
X403842Y135677D01*
X403828Y135607D01*
X403810Y135538D01*
X403789Y135471D01*
X403763Y135404D01*
X403734Y135339D01*
X403702Y135276D01*
X403665Y135214D01*
X403626Y135155D01*
X403583Y135098D01*
X403537Y135044D01*
X403488Y134992D01*
X403436Y134943D01*
X403382Y134897D01*
X403325Y134854D01*
X403266Y134815D01*
X403204Y134778D01*
X403141Y134746D01*
X403076Y134717D01*
X403009Y134691D01*
X402942Y134670D01*
X402873Y134652D01*
X402803Y134638D01*
X402732Y134628D01*
X402661Y134622D01*
X402590Y134620D01*
X402519Y134622D01*
X402448Y134628D01*
X402377Y134638D01*
X402307Y134652D01*
X402238Y134670D01*
X402171Y134691D01*
X402104Y134717D01*
X402039Y134746D01*
X401976Y134778D01*
X401914Y134815D01*
X401855Y134854D01*
X401798Y134897D01*
X401744Y134943D01*
X401692Y134992D01*
X401643Y135044D01*
X401597Y135098D01*
X401554Y135155D01*
X401515Y135214D01*
X401478Y135276D01*
X401446Y135339D01*
X401417Y135404D01*
X401391Y135471D01*
X401370Y135538D01*
X401352Y135607D01*
X401338Y135677D01*
X401328Y135748D01*
X401322Y135819D01*
X401320Y135890D01*
X457200Y120650D02*
X457202Y120721D01*
X457208Y120792D01*
X457218Y120863D01*
X457232Y120933D01*
X457250Y121002D01*
X457271Y121069D01*
X457297Y121136D01*
X457326Y121201D01*
X457358Y121264D01*
X457395Y121326D01*
X457434Y121385D01*
X457477Y121442D01*
X457523Y121496D01*
X457572Y121548D01*
X457624Y121597D01*
X457678Y121643D01*
X457735Y121686D01*
X457794Y121725D01*
X457856Y121762D01*
X457919Y121794D01*
X457984Y121823D01*
X458051Y121849D01*
X458118Y121870D01*
X458187Y121888D01*
X458257Y121902D01*
X458328Y121912D01*
X458399Y121918D01*
X458470Y121920D01*
X458541Y121918D01*
X458612Y121912D01*
X458683Y121902D01*
X458753Y121888D01*
X458822Y121870D01*
X458889Y121849D01*
X458956Y121823D01*
X459021Y121794D01*
X459084Y121762D01*
X459146Y121725D01*
X459205Y121686D01*
X459262Y121643D01*
X459316Y121597D01*
X459368Y121548D01*
X459417Y121496D01*
X459463Y121442D01*
X459506Y121385D01*
X459545Y121326D01*
X459582Y121264D01*
X459614Y121201D01*
X459643Y121136D01*
X459669Y121069D01*
X459690Y121002D01*
X459708Y120933D01*
X459722Y120863D01*
X459732Y120792D01*
X459738Y120721D01*
X459740Y120650D01*
X459738Y120579D01*
X459732Y120508D01*
X459722Y120437D01*
X459708Y120367D01*
X459690Y120298D01*
X459669Y120231D01*
X459643Y120164D01*
X459614Y120099D01*
X459582Y120036D01*
X459545Y119974D01*
X459506Y119915D01*
X459463Y119858D01*
X459417Y119804D01*
X459368Y119752D01*
X459316Y119703D01*
X459262Y119657D01*
X459205Y119614D01*
X459146Y119575D01*
X459084Y119538D01*
X459021Y119506D01*
X458956Y119477D01*
X458889Y119451D01*
X458822Y119430D01*
X458753Y119412D01*
X458683Y119398D01*
X458612Y119388D01*
X458541Y119382D01*
X458470Y119380D01*
X458399Y119382D01*
X458328Y119388D01*
X458257Y119398D01*
X458187Y119412D01*
X458118Y119430D01*
X458051Y119451D01*
X457984Y119477D01*
X457919Y119506D01*
X457856Y119538D01*
X457794Y119575D01*
X457735Y119614D01*
X457678Y119657D01*
X457624Y119703D01*
X457572Y119752D01*
X457523Y119804D01*
X457477Y119858D01*
X457434Y119915D01*
X457395Y119974D01*
X457358Y120036D01*
X457326Y120099D01*
X457297Y120164D01*
X457271Y120231D01*
X457250Y120298D01*
X457232Y120367D01*
X457218Y120437D01*
X457208Y120508D01*
X457202Y120579D01*
X457200Y120650D01*
D20*
X450850Y121920D03*
D21*
X449580Y119380D03*
D25*
X421640Y128270D02*
X421642Y128412D01*
X421648Y128555D01*
X421658Y128697D01*
X421672Y128839D01*
X421690Y128980D01*
X421712Y129121D01*
X421738Y129261D01*
X421767Y129400D01*
X421801Y129539D01*
X421839Y129676D01*
X421880Y129813D01*
X421925Y129948D01*
X421974Y130082D01*
X422027Y130214D01*
X422083Y130345D01*
X422143Y130474D01*
X422207Y130602D01*
X422274Y130727D01*
X422345Y130851D01*
X422419Y130973D01*
X422496Y131092D01*
X422577Y131210D01*
X422661Y131325D01*
X422748Y131437D01*
X422839Y131547D01*
X422932Y131655D01*
X423029Y131760D01*
X423128Y131862D01*
X423230Y131961D01*
X423335Y132058D01*
X423443Y132151D01*
X423553Y132242D01*
X423665Y132329D01*
X423780Y132413D01*
X423898Y132494D01*
X424017Y132571D01*
X424139Y132645D01*
X424263Y132716D01*
X424388Y132783D01*
X424516Y132847D01*
X424645Y132907D01*
X424776Y132963D01*
X424908Y133016D01*
X425042Y133065D01*
X425177Y133110D01*
X425314Y133151D01*
X425451Y133189D01*
X425590Y133223D01*
X425729Y133252D01*
X425869Y133278D01*
X426010Y133300D01*
X426151Y133318D01*
X426293Y133332D01*
X426435Y133342D01*
X426578Y133348D01*
X426720Y133350D01*
X426862Y133348D01*
X427005Y133342D01*
X427147Y133332D01*
X427289Y133318D01*
X427430Y133300D01*
X427571Y133278D01*
X427711Y133252D01*
X427850Y133223D01*
X427989Y133189D01*
X428126Y133151D01*
X428263Y133110D01*
X428398Y133065D01*
X428532Y133016D01*
X428664Y132963D01*
X428795Y132907D01*
X428924Y132847D01*
X429052Y132783D01*
X429177Y132716D01*
X429301Y132645D01*
X429423Y132571D01*
X429542Y132494D01*
X429660Y132413D01*
X429775Y132329D01*
X429887Y132242D01*
X429997Y132151D01*
X430105Y132058D01*
X430210Y131961D01*
X430312Y131862D01*
X430411Y131760D01*
X430508Y131655D01*
X430601Y131547D01*
X430692Y131437D01*
X430779Y131325D01*
X430863Y131210D01*
X430944Y131092D01*
X431021Y130973D01*
X431095Y130851D01*
X431166Y130727D01*
X431233Y130602D01*
X431297Y130474D01*
X431357Y130345D01*
X431413Y130214D01*
X431466Y130082D01*
X431515Y129948D01*
X431560Y129813D01*
X431601Y129676D01*
X431639Y129539D01*
X431673Y129400D01*
X431702Y129261D01*
X431728Y129121D01*
X431750Y128980D01*
X431768Y128839D01*
X431782Y128697D01*
X431792Y128555D01*
X431798Y128412D01*
X431800Y128270D01*
X431798Y128128D01*
X431792Y127985D01*
X431782Y127843D01*
X431768Y127701D01*
X431750Y127560D01*
X431728Y127419D01*
X431702Y127279D01*
X431673Y127140D01*
X431639Y127001D01*
X431601Y126864D01*
X431560Y126727D01*
X431515Y126592D01*
X431466Y126458D01*
X431413Y126326D01*
X431357Y126195D01*
X431297Y126066D01*
X431233Y125938D01*
X431166Y125813D01*
X431095Y125689D01*
X431021Y125567D01*
X430944Y125448D01*
X430863Y125330D01*
X430779Y125215D01*
X430692Y125103D01*
X430601Y124993D01*
X430508Y124885D01*
X430411Y124780D01*
X430312Y124678D01*
X430210Y124579D01*
X430105Y124482D01*
X429997Y124389D01*
X429887Y124298D01*
X429775Y124211D01*
X429660Y124127D01*
X429542Y124046D01*
X429423Y123969D01*
X429301Y123895D01*
X429177Y123824D01*
X429052Y123757D01*
X428924Y123693D01*
X428795Y123633D01*
X428664Y123577D01*
X428532Y123524D01*
X428398Y123475D01*
X428263Y123430D01*
X428126Y123389D01*
X427989Y123351D01*
X427850Y123317D01*
X427711Y123288D01*
X427571Y123262D01*
X427430Y123240D01*
X427289Y123222D01*
X427147Y123208D01*
X427005Y123198D01*
X426862Y123192D01*
X426720Y123190D01*
X426578Y123192D01*
X426435Y123198D01*
X426293Y123208D01*
X426151Y123222D01*
X426010Y123240D01*
X425869Y123262D01*
X425729Y123288D01*
X425590Y123317D01*
X425451Y123351D01*
X425314Y123389D01*
X425177Y123430D01*
X425042Y123475D01*
X424908Y123524D01*
X424776Y123577D01*
X424645Y123633D01*
X424516Y123693D01*
X424388Y123757D01*
X424263Y123824D01*
X424139Y123895D01*
X424017Y123969D01*
X423898Y124046D01*
X423780Y124127D01*
X423665Y124211D01*
X423553Y124298D01*
X423443Y124389D01*
X423335Y124482D01*
X423230Y124579D01*
X423128Y124678D01*
X423029Y124780D01*
X422932Y124885D01*
X422839Y124993D01*
X422748Y125103D01*
X422661Y125215D01*
X422577Y125330D01*
X422496Y125448D01*
X422419Y125567D01*
X422345Y125689D01*
X422274Y125813D01*
X422207Y125938D01*
X422143Y126066D01*
X422083Y126195D01*
X422027Y126326D01*
X421974Y126458D01*
X421925Y126592D01*
X421880Y126727D01*
X421839Y126864D01*
X421801Y127001D01*
X421767Y127140D01*
X421738Y127279D01*
X421712Y127419D01*
X421690Y127560D01*
X421672Y127701D01*
X421658Y127843D01*
X421648Y127985D01*
X421642Y128128D01*
X421640Y128270D01*
M02*
