G04 EAGLE Gerber RS-274X export*
G75*
%MOMM*%
%FSLAX34Y34*%
%LPD*%
%INTop copper*%
%IPPOS*%
%AMOC8*
5,1,8,0,0,1.08239X$1,22.5*%
G01*
%ADD10C,0.000000*%
%ADD11P,2.927973X8X292.500000*%
%ADD12P,2.144431X8X292.500000*%
%ADD13R,1.300000X1.500000*%
%ADD14R,1.500000X1.300000*%
%ADD15R,1.600000X1.000000*%
%ADD16R,2.200000X2.400000*%
%ADD17C,1.524000*%
%ADD18R,1.600200X1.168400*%
%ADD19R,1.500000X0.500000*%
%ADD20R,0.500000X1.500000*%
%ADD21R,1.200000X1.200000*%
%ADD22C,1.676400*%
%ADD23C,1.208000*%
%ADD24C,1.600000*%
%ADD25C,0.654800*%
%ADD26C,0.406400*%
%ADD27C,0.304800*%
%ADD28C,0.609600*%


D10*
X0Y0D02*
X680000Y0D01*
X680000Y250000D01*
X0Y250000D01*
X0Y0D01*
D11*
X219952Y153402D03*
D12*
X268974Y202424D03*
X297422Y153148D03*
X297422Y96252D03*
X268974Y46976D03*
X219698Y18528D03*
X162802Y18528D03*
X113526Y46976D03*
X85078Y96252D03*
X85078Y153148D03*
X113526Y202424D03*
X162802Y230872D03*
X219698Y230872D03*
D13*
X540238Y72275D03*
X521238Y72275D03*
X541825Y100850D03*
X522825Y100850D03*
D14*
X537950Y43800D03*
X537950Y24800D03*
X526175Y208712D03*
X526175Y227712D03*
X343412Y59945D03*
X343412Y40945D03*
D13*
X327838Y163788D03*
X346838Y163788D03*
X520125Y127400D03*
X539125Y127400D03*
X478638Y227761D03*
X497638Y227761D03*
X380087Y224586D03*
X361087Y224586D03*
D15*
X582675Y231225D03*
X638675Y231225D03*
X582675Y199225D03*
X638675Y199225D03*
D16*
X450324Y224586D03*
X408324Y224586D03*
D13*
X145720Y164289D03*
X126720Y164289D03*
D17*
X570765Y46700D02*
X586005Y46700D01*
X586005Y72100D02*
X570765Y72100D01*
X570765Y97500D02*
X586005Y97500D01*
X586005Y122900D02*
X570765Y122900D01*
X570765Y148300D02*
X586005Y148300D01*
D18*
X46955Y184905D03*
X46955Y169665D03*
D13*
X286350Y21313D03*
X305350Y21313D03*
D17*
X46990Y217805D02*
X46990Y233045D01*
X72390Y233045D02*
X72390Y217805D01*
D14*
X83185Y15583D03*
X83185Y34583D03*
X525463Y155600D03*
X525463Y174600D03*
X496888Y184175D03*
X496888Y203175D03*
X552450Y174650D03*
X552450Y193650D03*
D19*
X484276Y75761D03*
X484276Y83761D03*
X484276Y91761D03*
X484276Y99761D03*
X484276Y107761D03*
X484276Y115761D03*
X484276Y123761D03*
X484276Y131761D03*
X484276Y139761D03*
X484276Y147761D03*
X484276Y155761D03*
D20*
X466276Y173761D03*
X458276Y173761D03*
X450276Y173761D03*
X442276Y173761D03*
X434276Y173761D03*
X426276Y173761D03*
X418276Y173761D03*
X410276Y173761D03*
X402276Y173761D03*
X394276Y173761D03*
X386276Y173761D03*
D19*
X368276Y155761D03*
X368276Y147761D03*
X368276Y139761D03*
X368276Y131761D03*
X368276Y123761D03*
X368276Y115761D03*
X368276Y107761D03*
X368276Y99761D03*
X368276Y91761D03*
X368276Y83761D03*
X368276Y75761D03*
D20*
X386276Y57761D03*
X394276Y57761D03*
X402276Y57761D03*
X410276Y57761D03*
X418276Y57761D03*
X426276Y57761D03*
X434276Y57761D03*
X442276Y57761D03*
X450276Y57761D03*
X458276Y57761D03*
X466276Y57761D03*
D13*
X449463Y26825D03*
X430463Y26825D03*
D21*
X503600Y26825D03*
X482600Y26825D03*
D22*
X53721Y52959D03*
X53721Y27559D03*
X53721Y78359D03*
D23*
X655025Y75575D03*
X655025Y91575D03*
X655025Y59575D03*
X629025Y67575D03*
X629025Y83575D03*
D24*
X642025Y112075D03*
X642025Y39075D03*
D17*
X665780Y155595D02*
X665780Y170835D01*
X640380Y170835D02*
X640380Y155595D01*
D11*
X267018Y153353D03*
X173038Y153353D03*
X173038Y105093D03*
X220028Y105093D03*
X267018Y105093D03*
D25*
X349454Y213600D03*
X511733Y227789D03*
X367975Y166450D03*
D26*
X367975Y165100D01*
X577060Y124225D02*
X578385Y122900D01*
X394300Y45050D02*
X390525Y41275D01*
D25*
X371475Y41275D03*
D26*
X390525Y41275D01*
X346838Y163788D02*
X346113Y165100D01*
X367975Y165100D01*
X394300Y57736D02*
X394300Y45050D01*
X394300Y57736D02*
X394276Y57761D01*
X484276Y107761D02*
X503239Y107761D01*
X506984Y111506D01*
D25*
X506984Y111506D03*
D26*
X458276Y74168D02*
X458276Y57761D01*
X458276Y74168D02*
X454152Y74168D01*
D25*
X454152Y74168D03*
D26*
X442276Y157734D02*
X442276Y173761D01*
X442276Y157734D02*
X434848Y157734D01*
D25*
X434848Y157734D03*
D26*
X368276Y155761D02*
X367975Y156061D01*
X367975Y165100D01*
X361087Y224586D02*
X360439Y224586D01*
X349454Y213600D01*
X526175Y227712D02*
X527008Y228545D01*
X583170Y228545D01*
X577060Y124225D02*
X542300Y124225D01*
X539125Y127400D01*
D25*
X520700Y25400D03*
D26*
X371475Y41275D02*
X343743Y41275D01*
X343412Y40945D01*
X497666Y227789D02*
X511733Y227789D01*
X497666Y227789D02*
X497638Y227761D01*
X511733Y227789D02*
X526098Y227789D01*
X526175Y227712D01*
X520700Y25400D02*
X537350Y25400D01*
X537950Y24800D01*
X520700Y25400D02*
X505025Y25400D01*
X503600Y26825D01*
X583170Y230730D02*
X582675Y231225D01*
X583170Y230730D02*
X583170Y228545D01*
X126720Y164289D02*
X126708Y164277D01*
X83185Y46038D02*
X83185Y34583D01*
D25*
X83185Y46038D03*
D26*
X64890Y169665D02*
X46955Y169665D01*
X64890Y169665D02*
X65088Y169863D01*
D25*
X65088Y169863D03*
D26*
X119558Y171450D02*
X126720Y164289D01*
X119558Y171450D02*
X114300Y171450D01*
D25*
X114300Y171450D03*
D26*
X540238Y72275D02*
X578210Y72275D01*
X578385Y72100D01*
X611525Y67575D02*
X629025Y67575D01*
X611525Y67575D02*
X607000Y72100D01*
X578385Y72100D01*
X498790Y91761D02*
X484276Y91761D01*
X518275Y72275D02*
X521238Y72275D01*
X518275Y72275D02*
X498790Y91761D01*
X484276Y99761D02*
X521736Y99761D01*
X522825Y100850D01*
X541825Y100850D02*
X575035Y100850D01*
X578385Y97500D01*
X635000Y97500D02*
X641350Y91150D01*
X635000Y97500D02*
X578385Y97500D01*
X641350Y91150D02*
X641350Y84800D01*
X654650Y75950D02*
X655025Y75575D01*
X654650Y75950D02*
X650200Y75950D01*
X641350Y84800D01*
X368265Y147750D02*
X334850Y147750D01*
X368265Y147750D02*
X368276Y147761D01*
X450276Y173761D02*
X450276Y189026D01*
X466090Y83761D02*
X484276Y83761D01*
X466090Y83761D02*
X408373Y83761D01*
X450276Y147828D02*
X450276Y173761D01*
X393700Y147761D02*
X368276Y147761D01*
X334850Y147750D02*
X327838Y154763D01*
X327838Y163788D01*
X498475Y208712D02*
X526175Y208712D01*
X498475Y208712D02*
X469962Y208712D01*
X450276Y189026D01*
X552450Y193650D02*
X552450Y203200D01*
X546938Y208712D02*
X526175Y208712D01*
X546938Y208712D02*
X552450Y203200D01*
X466276Y83575D02*
X466276Y57761D01*
X466276Y83575D02*
X466090Y83761D01*
D27*
X496888Y203175D02*
X498475Y204763D01*
X498475Y208712D01*
D28*
X643488Y59575D02*
X655025Y59575D01*
X638175Y54263D02*
X631825Y54263D01*
X638175Y54263D02*
X643488Y59575D01*
X470696Y47625D02*
X466911Y51411D01*
X470696Y47625D02*
X537845Y47625D01*
X537950Y46700D02*
X578385Y46700D01*
X624263Y46700D01*
X631825Y54263D01*
X537950Y46700D02*
X537950Y43800D01*
X537845Y43905D01*
X537845Y47625D01*
D25*
X393700Y133350D03*
D26*
X393700Y147761D01*
X402590Y83820D02*
X386276Y67506D01*
X402590Y83820D02*
X408313Y83820D01*
X408373Y83761D01*
X386276Y59690D02*
X386276Y57761D01*
X386276Y59690D02*
X386276Y67506D01*
X386021Y59945D02*
X343412Y59945D01*
X386021Y59945D02*
X386276Y59690D01*
X466276Y57761D02*
X466276Y52046D01*
X466911Y51411D01*
X450208Y147761D02*
X450276Y147828D01*
X450208Y147761D02*
X393700Y147761D01*
X393700Y92710D02*
X402590Y83820D01*
X393700Y92710D02*
X393700Y133350D01*
X474281Y123761D02*
X484276Y123761D01*
X466090Y115570D02*
X466090Y83761D01*
X466090Y115570D02*
X474281Y123761D01*
X484276Y115761D02*
X495786Y115761D01*
X507425Y127400D02*
X520125Y127400D01*
X507425Y127400D02*
X495786Y115761D01*
X434276Y173761D02*
X434276Y211037D01*
X450324Y224586D01*
X450999Y227761D01*
X478638Y227761D01*
X426300Y209110D02*
X408324Y224586D01*
X426300Y209110D02*
X426300Y173785D01*
X426276Y173761D01*
X408324Y224586D02*
X380087Y224586D01*
X210794Y162560D02*
X197485Y162560D01*
X184150Y175895D01*
X157326Y175895D02*
X145720Y164289D01*
X157326Y175895D02*
X184150Y175895D01*
X210794Y162560D02*
X219952Y153402D01*
X394276Y173761D02*
X394450Y173935D01*
X312789Y202424D02*
X268974Y202424D01*
X312789Y202424D02*
X325348Y189865D01*
X394450Y189865D02*
X394450Y173935D01*
X394450Y189865D02*
X325348Y189865D01*
X303553Y230872D02*
X219698Y230872D01*
X334320Y200105D02*
X402300Y200105D01*
X334320Y200105D02*
X303553Y230872D01*
X402300Y200105D02*
X402300Y173785D01*
X402276Y173761D01*
X213602Y185787D02*
X168517Y230872D01*
X162802Y230872D01*
X316540Y179150D02*
X380886Y179150D01*
X386276Y173761D01*
X309903Y185787D02*
X213602Y185787D01*
X309903Y185787D02*
X316540Y179150D01*
X176426Y202424D02*
X113526Y202424D01*
X176426Y202424D02*
X203510Y175340D01*
X314325Y163513D02*
X314325Y147638D01*
X322202Y139761D01*
X368276Y139761D01*
X302498Y175340D02*
X203510Y175340D01*
X302498Y175340D02*
X314325Y163513D01*
X312740Y131761D02*
X368276Y131761D01*
X312740Y131761D02*
X311150Y133350D01*
X104876Y133350D02*
X85078Y153148D01*
X104876Y133350D02*
X311150Y133350D01*
X304865Y123761D02*
X368276Y123761D01*
X304865Y123761D02*
X303213Y125413D01*
X114239Y125413D01*
X85078Y96252D01*
X113526Y46976D02*
X150053Y83503D01*
X229553Y83503D01*
X250825Y104775D01*
X266700Y104775D01*
X277686Y115761D02*
X368276Y115761D01*
X277686Y115761D02*
X267018Y105093D01*
X266700Y104775D01*
X236552Y77075D02*
X305550Y77075D01*
X178005Y18528D02*
X162802Y18528D01*
X178005Y18528D02*
X236552Y77075D01*
X328236Y99761D02*
X368276Y99761D01*
X328236Y99761D02*
X305550Y77075D01*
X219393Y45403D02*
X219393Y18834D01*
X219698Y18528D01*
X219393Y45403D02*
X241540Y67550D01*
X318250Y67550D01*
X342461Y91761D02*
X368276Y91761D01*
X342461Y91761D02*
X318250Y67550D01*
X390525Y28575D02*
X402300Y40350D01*
X330113Y28575D02*
X311712Y46976D01*
X268974Y46976D01*
X330113Y28575D02*
X390525Y28575D01*
X402300Y40350D02*
X402300Y57736D01*
X402276Y57761D01*
X368276Y107761D02*
X308931Y107761D01*
X297422Y96252D01*
X351731Y83761D02*
X368276Y83761D01*
X351731Y83761D02*
X346710Y78740D01*
D25*
X346710Y78740D03*
D26*
X410276Y57761D02*
X410276Y32451D01*
X393700Y15875D01*
X310788Y15875D01*
X305350Y21313D01*
D25*
X241985Y55215D03*
D26*
X46990Y225425D02*
X46955Y225390D01*
X46955Y184905D01*
X261818Y21313D02*
X286350Y21313D01*
X46955Y184905D02*
X31750Y184905D01*
X31750Y74930D02*
X53721Y52959D01*
X31750Y74930D02*
X31750Y184905D01*
X241985Y55215D02*
X241985Y41145D01*
X261818Y21313D01*
X83185Y15583D02*
X78715Y11113D01*
X33338Y11113D01*
X22225Y22225D01*
X22225Y47625D01*
D25*
X22225Y47625D03*
D26*
X458276Y173761D02*
X458276Y185226D01*
X463550Y190500D01*
X473075Y190500D01*
X479400Y184175D01*
X515888Y184175D02*
X525463Y174600D01*
D25*
X502920Y151130D03*
D26*
X499110Y154940D01*
X496888Y184175D02*
X479400Y184175D01*
X496888Y184175D02*
X515888Y184175D01*
X499110Y181953D02*
X499110Y154940D01*
X499110Y181953D02*
X496888Y184175D01*
X525463Y155600D02*
X542950Y155600D01*
X552450Y165100D01*
X552450Y174650D01*
X571525Y174650D01*
X582675Y175300D02*
X582675Y199225D01*
X571675Y174800D02*
X571525Y174650D01*
X582175Y174800D02*
X582675Y175300D01*
X628795Y174800D02*
X640380Y163215D01*
X628795Y174800D02*
X582175Y174800D01*
X571675Y174800D01*
X525463Y155600D02*
X518770Y155600D01*
X509270Y165100D01*
D25*
X509270Y165100D03*
X383540Y85090D03*
D26*
X383540Y78740D01*
X381000Y76200D01*
X368715Y76200D02*
X368276Y75761D01*
X368715Y76200D02*
X381000Y76200D01*
X418276Y57761D02*
X418276Y38925D01*
X430375Y26825D02*
X430463Y26825D01*
X430375Y26825D02*
X418276Y38925D01*
X449463Y26825D02*
X482600Y26825D01*
X484276Y139761D02*
X471231Y139761D01*
X464820Y133350D01*
D25*
X464820Y133350D03*
X416560Y118110D03*
D26*
X466531Y147761D02*
X484276Y147761D01*
X466531Y147761D02*
X436880Y118110D01*
X416560Y118110D01*
X463101Y155761D02*
X484276Y155761D01*
X463101Y155761D02*
X462280Y154940D01*
D25*
X462280Y154940D03*
M02*
