M48
;GenerationSoftware,Autodesk,EAGLE,9.6.2*%
;CreationDate,2021-02-23T22:49:33Z*%
FMAT,2
ICI,OFF
METRIC,TZ,000.000
T7C0.350
T6C0.700
T5C0.800
T4C0.850
T3C1.016
T2C1.321
T1C1.803
%
G90
M71
T1
X22003Y10509
X17304Y10509
X17304Y15335
X26702Y15335
X26702Y10509
X21995Y15340
T2
X26897Y4698
X21970Y1853
X16280Y1853
X11353Y4698
X8508Y9625
X8508Y15315
X16280Y23087
X11353Y20242
X21970Y23087
X26897Y20242
X29742Y15315
X29742Y9625
T3
X57838Y7210
X57838Y9750
X57838Y12290
X57838Y14830
X4699Y22542
X7239Y22542
X64038Y16321
X66578Y16321
X57838Y4670
T4
X64202Y11207
X64202Y3907
T5
X5372Y5296
X5372Y2756
X5372Y7836
T6
X65502Y7557
X65502Y5957
X62902Y6757
X62902Y8358
X65502Y9158
T7
X34945Y21360
X51173Y22779
X36798Y16645
X37148Y4128
X46507Y10770
X45415Y7417
X52070Y2540
X24952Y4758
X43866Y15773
X2223Y4763
X46037Y14922
X11430Y17145
X6509Y16986
X8319Y4604
M30