G04 EAGLE Gerber RS-274X export*
G75*
%MOMM*%
%FSLAX34Y34*%
%LPD*%
%INBottom copper*%
%IPPOS*%
%AMOC8*
5,1,8,0,0,1.08239X$1,22.5*%
G01*
%ADD10C,0.000000*%
%ADD11P,2.927973X8X292.500000*%
%ADD12P,2.144431X8X292.500000*%
%ADD13C,1.524000*%
%ADD14R,1.600200X1.168400*%
%ADD15C,1.676400*%
%ADD16C,1.208000*%
%ADD17C,1.600000*%
%ADD18C,0.654800*%
%ADD19C,0.406400*%

G36*
X676890Y2552D02*
X676890Y2552D01*
X676956Y2554D01*
X676999Y2572D01*
X677046Y2580D01*
X677103Y2614D01*
X677163Y2639D01*
X677198Y2670D01*
X677239Y2695D01*
X677281Y2746D01*
X677329Y2790D01*
X677351Y2832D01*
X677380Y2869D01*
X677401Y2931D01*
X677432Y2990D01*
X677440Y3044D01*
X677452Y3081D01*
X677451Y3121D01*
X677459Y3175D01*
X677459Y246825D01*
X677448Y246890D01*
X677446Y246956D01*
X677428Y246999D01*
X677420Y247046D01*
X677386Y247103D01*
X677361Y247163D01*
X677330Y247198D01*
X677305Y247239D01*
X677254Y247281D01*
X677210Y247329D01*
X677168Y247351D01*
X677131Y247380D01*
X677069Y247401D01*
X677010Y247432D01*
X676956Y247440D01*
X676919Y247452D01*
X676879Y247451D01*
X676825Y247459D01*
X3175Y247459D01*
X3110Y247448D01*
X3044Y247446D01*
X3001Y247428D01*
X2954Y247420D01*
X2897Y247386D01*
X2837Y247361D01*
X2802Y247330D01*
X2761Y247305D01*
X2719Y247254D01*
X2671Y247210D01*
X2649Y247168D01*
X2620Y247131D01*
X2599Y247069D01*
X2568Y247010D01*
X2560Y246956D01*
X2548Y246919D01*
X2549Y246879D01*
X2541Y246825D01*
X2541Y53888D01*
X2552Y53823D01*
X2554Y53757D01*
X2572Y53713D01*
X2580Y53667D01*
X2614Y53610D01*
X2639Y53549D01*
X2670Y53514D01*
X2695Y53474D01*
X2746Y53432D01*
X2790Y53384D01*
X2832Y53362D01*
X2869Y53332D01*
X2931Y53311D01*
X2990Y53281D01*
X3044Y53273D01*
X3081Y53260D01*
X3121Y53262D01*
X3175Y53253D01*
X43180Y53253D01*
X43245Y53265D01*
X43311Y53267D01*
X43354Y53285D01*
X43401Y53293D01*
X43458Y53327D01*
X43518Y53351D01*
X43553Y53383D01*
X43594Y53407D01*
X43636Y53458D01*
X43684Y53503D01*
X43706Y53545D01*
X43735Y53581D01*
X43756Y53644D01*
X43787Y53702D01*
X43795Y53757D01*
X43807Y53794D01*
X43807Y53819D01*
X43807Y53821D01*
X43807Y53838D01*
X43814Y53888D01*
X43814Y54930D01*
X45323Y58571D01*
X48109Y61357D01*
X51750Y62866D01*
X55692Y62866D01*
X59061Y61470D01*
X59114Y61458D01*
X59164Y61437D01*
X59223Y61435D01*
X59280Y61422D01*
X59334Y61430D01*
X59388Y61427D01*
X59444Y61445D01*
X59503Y61454D01*
X59550Y61479D01*
X59602Y61496D01*
X59659Y61538D01*
X59700Y61560D01*
X59720Y61584D01*
X59752Y61607D01*
X76314Y78169D01*
X223961Y78169D01*
X249571Y52560D01*
X249605Y52535D01*
X249634Y52504D01*
X249697Y52472D01*
X249755Y52431D01*
X249796Y52421D01*
X249834Y52401D01*
X249923Y52388D01*
X249972Y52375D01*
X249993Y52378D01*
X250019Y52374D01*
X251513Y52374D01*
X254324Y49563D01*
X254324Y45587D01*
X251513Y42776D01*
X247537Y42776D01*
X244726Y45587D01*
X244726Y47081D01*
X244719Y47123D01*
X244721Y47165D01*
X244699Y47232D01*
X244687Y47302D01*
X244665Y47338D01*
X244652Y47379D01*
X244598Y47452D01*
X244572Y47495D01*
X244556Y47508D01*
X244540Y47529D01*
X221200Y70870D01*
X221169Y70892D01*
X221153Y70910D01*
X221150Y70911D01*
X221136Y70926D01*
X221074Y70958D01*
X221016Y70998D01*
X220975Y71009D01*
X220937Y71028D01*
X220847Y71041D01*
X220799Y71054D01*
X220778Y71052D01*
X220752Y71056D01*
X79523Y71056D01*
X79482Y71048D01*
X79439Y71050D01*
X79372Y71029D01*
X79303Y71016D01*
X79266Y70995D01*
X79226Y70982D01*
X79153Y70928D01*
X79109Y70902D01*
X79099Y70889D01*
X79093Y70886D01*
X79089Y70880D01*
X79075Y70870D01*
X63783Y55578D01*
X63752Y55534D01*
X63713Y55495D01*
X63688Y55442D01*
X63655Y55394D01*
X63641Y55341D01*
X63618Y55292D01*
X63614Y55233D01*
X63599Y55176D01*
X63605Y55123D01*
X63600Y55069D01*
X63617Y54999D01*
X63622Y54953D01*
X63628Y54942D01*
X63628Y50988D01*
X62119Y47347D01*
X59333Y44561D01*
X55692Y43052D01*
X51750Y43052D01*
X48109Y44561D01*
X45322Y47347D01*
X45238Y47552D01*
X45184Y47636D01*
X45132Y47723D01*
X45123Y47731D01*
X45117Y47741D01*
X45036Y47801D01*
X44958Y47865D01*
X44947Y47869D01*
X44937Y47876D01*
X44841Y47904D01*
X44745Y47937D01*
X44734Y47936D01*
X44722Y47940D01*
X44622Y47933D01*
X44521Y47930D01*
X44510Y47926D01*
X44498Y47925D01*
X44406Y47883D01*
X44313Y47846D01*
X44304Y47838D01*
X44294Y47833D01*
X44222Y47762D01*
X44148Y47694D01*
X44142Y47684D01*
X44134Y47675D01*
X44091Y47584D01*
X44045Y47495D01*
X44043Y47482D01*
X44039Y47472D01*
X44035Y47427D01*
X44017Y47309D01*
X44017Y34738D01*
X44022Y34712D01*
X44020Y34686D01*
X44042Y34602D01*
X44057Y34517D01*
X44071Y34494D01*
X44077Y34469D01*
X44127Y34398D01*
X44171Y34324D01*
X44192Y34307D01*
X44207Y34286D01*
X44278Y34237D01*
X44345Y34183D01*
X44371Y34174D01*
X44393Y34159D01*
X44476Y34138D01*
X44558Y34111D01*
X44584Y34112D01*
X44610Y34105D01*
X44696Y34115D01*
X44782Y34117D01*
X44807Y34127D01*
X44833Y34130D01*
X44910Y34169D01*
X44990Y34202D01*
X45010Y34220D01*
X45033Y34232D01*
X45127Y34327D01*
X45156Y34353D01*
X45159Y34359D01*
X45165Y34365D01*
X45390Y34675D01*
X46605Y35890D01*
X47996Y36901D01*
X49528Y37681D01*
X51163Y38213D01*
X52452Y38417D01*
X52452Y28194D01*
X52463Y28129D01*
X52465Y28064D01*
X52483Y28020D01*
X52491Y27973D01*
X52525Y27917D01*
X52550Y27856D01*
X52581Y27821D01*
X52606Y27780D01*
X52657Y27739D01*
X52701Y27690D01*
X52743Y27668D01*
X52780Y27639D01*
X52842Y27618D01*
X52901Y27588D01*
X52955Y27579D01*
X52992Y27567D01*
X53032Y27568D01*
X53086Y27560D01*
X53722Y27560D01*
X53722Y27558D01*
X53086Y27558D01*
X53021Y27546D01*
X52955Y27545D01*
X52912Y27527D01*
X52865Y27518D01*
X52808Y27485D01*
X52748Y27460D01*
X52713Y27428D01*
X52672Y27404D01*
X52631Y27353D01*
X52582Y27309D01*
X52560Y27267D01*
X52531Y27230D01*
X52510Y27168D01*
X52479Y27109D01*
X52471Y27055D01*
X52459Y27018D01*
X52460Y26978D01*
X52452Y26924D01*
X52452Y16701D01*
X51163Y16905D01*
X49528Y17437D01*
X47996Y18217D01*
X46605Y19228D01*
X45390Y20443D01*
X45165Y20753D01*
X45146Y20771D01*
X45132Y20794D01*
X45065Y20848D01*
X45003Y20908D01*
X44979Y20919D01*
X44958Y20935D01*
X44877Y20963D01*
X44797Y20997D01*
X44771Y20999D01*
X44745Y21007D01*
X44659Y21005D01*
X44573Y21009D01*
X44548Y21001D01*
X44521Y21001D01*
X44441Y20968D01*
X44359Y20943D01*
X44338Y20926D01*
X44313Y20916D01*
X44250Y20858D01*
X44181Y20805D01*
X44167Y20783D01*
X44148Y20765D01*
X44108Y20688D01*
X44063Y20615D01*
X44057Y20589D01*
X44045Y20565D01*
X44025Y20433D01*
X44018Y20395D01*
X44019Y20388D01*
X44017Y20380D01*
X44017Y13716D01*
X44029Y13651D01*
X44031Y13585D01*
X44049Y13542D01*
X44057Y13495D01*
X44091Y13438D01*
X44115Y13378D01*
X44147Y13343D01*
X44171Y13302D01*
X44222Y13260D01*
X44267Y13212D01*
X44309Y13190D01*
X44345Y13161D01*
X44408Y13140D01*
X44466Y13109D01*
X44521Y13101D01*
X44558Y13089D01*
X44597Y13090D01*
X44652Y13082D01*
X126852Y13082D01*
X126893Y13089D01*
X126936Y13087D01*
X127003Y13109D01*
X127072Y13121D01*
X127109Y13143D01*
X127149Y13156D01*
X127222Y13210D01*
X127266Y13236D01*
X127279Y13252D01*
X127300Y13268D01*
X154102Y40069D01*
X230073Y40069D01*
X244175Y25968D01*
X244210Y25943D01*
X244238Y25912D01*
X244301Y25880D01*
X244359Y25839D01*
X244400Y25829D01*
X244438Y25809D01*
X244528Y25796D01*
X244576Y25783D01*
X244597Y25786D01*
X244623Y25782D01*
X331639Y25782D01*
X331681Y25789D01*
X331723Y25787D01*
X331790Y25809D01*
X331860Y25821D01*
X331896Y25843D01*
X331937Y25856D01*
X332010Y25910D01*
X332053Y25936D01*
X332066Y25952D01*
X332087Y25968D01*
X455390Y149271D01*
X455415Y149305D01*
X455446Y149334D01*
X455478Y149397D01*
X455519Y149455D01*
X455529Y149496D01*
X455549Y149534D01*
X455562Y149623D01*
X455575Y149672D01*
X455572Y149693D01*
X455576Y149719D01*
X455576Y151213D01*
X458387Y154024D01*
X462363Y154024D01*
X465174Y151213D01*
X465174Y147237D01*
X462363Y144426D01*
X460869Y144426D01*
X460827Y144419D01*
X460785Y144421D01*
X460718Y144399D01*
X460648Y144387D01*
X460612Y144365D01*
X460571Y144352D01*
X460498Y144298D01*
X460455Y144272D01*
X460442Y144256D01*
X460421Y144240D01*
X334848Y18668D01*
X241414Y18668D01*
X239145Y20937D01*
X239145Y20938D01*
X227312Y32770D01*
X227278Y32794D01*
X227249Y32826D01*
X227186Y32858D01*
X227128Y32898D01*
X227087Y32909D01*
X227049Y32928D01*
X226960Y32941D01*
X226911Y32954D01*
X226890Y32952D01*
X226864Y32956D01*
X157311Y32956D01*
X157269Y32948D01*
X157227Y32950D01*
X157160Y32929D01*
X157090Y32916D01*
X157054Y32895D01*
X157013Y32882D01*
X156940Y32828D01*
X156897Y32802D01*
X156884Y32786D01*
X156863Y32770D01*
X130061Y5968D01*
X44652Y5968D01*
X44587Y5957D01*
X44521Y5955D01*
X44477Y5937D01*
X44431Y5929D01*
X44374Y5895D01*
X44313Y5870D01*
X44278Y5839D01*
X44238Y5814D01*
X44196Y5763D01*
X44148Y5719D01*
X44126Y5677D01*
X44096Y5640D01*
X44075Y5578D01*
X44045Y5519D01*
X44037Y5465D01*
X44024Y5428D01*
X44026Y5388D01*
X44017Y5334D01*
X44017Y3175D01*
X44029Y3110D01*
X44031Y3044D01*
X44049Y3001D01*
X44057Y2954D01*
X44091Y2897D01*
X44115Y2837D01*
X44147Y2802D01*
X44171Y2761D01*
X44222Y2719D01*
X44267Y2671D01*
X44309Y2649D01*
X44345Y2620D01*
X44408Y2599D01*
X44466Y2568D01*
X44521Y2560D01*
X44558Y2548D01*
X44597Y2549D01*
X44652Y2541D01*
X676825Y2541D01*
X676890Y2552D01*
G37*
%LPC*%
G36*
X166803Y138302D02*
X166803Y138302D01*
X157987Y147118D01*
X157987Y159587D01*
X166803Y168403D01*
X168847Y168403D01*
X168911Y168414D01*
X168977Y168416D01*
X169021Y168434D01*
X169067Y168442D01*
X169124Y168476D01*
X169185Y168501D01*
X169220Y168532D01*
X169261Y168557D01*
X169302Y168608D01*
X169351Y168652D01*
X169372Y168694D01*
X169402Y168731D01*
X169423Y168793D01*
X169453Y168852D01*
X169461Y168906D01*
X169474Y168943D01*
X169473Y168983D01*
X169481Y169037D01*
X169481Y185685D01*
X208652Y224856D01*
X208689Y224910D01*
X208734Y224958D01*
X208753Y225001D01*
X208780Y225040D01*
X208796Y225104D01*
X208822Y225164D01*
X208824Y225212D01*
X208836Y225257D01*
X208829Y225323D01*
X208832Y225388D01*
X208817Y225433D01*
X208813Y225480D01*
X208783Y225539D01*
X208763Y225602D01*
X208731Y225646D01*
X208713Y225682D01*
X208684Y225709D01*
X208652Y225753D01*
X208267Y226137D01*
X208267Y235607D01*
X214963Y242303D01*
X224433Y242303D01*
X231129Y235607D01*
X231129Y226137D01*
X224433Y219441D01*
X214963Y219441D01*
X214579Y219826D01*
X214525Y219863D01*
X214477Y219908D01*
X214433Y219927D01*
X214395Y219954D01*
X214331Y219970D01*
X214270Y219996D01*
X214223Y219998D01*
X214177Y220010D01*
X214112Y220003D01*
X214046Y220006D01*
X214001Y219992D01*
X213954Y219987D01*
X213895Y219957D01*
X213832Y219937D01*
X213788Y219905D01*
X213753Y219887D01*
X213726Y219858D01*
X213682Y219826D01*
X176780Y182924D01*
X176756Y182889D01*
X176724Y182860D01*
X176692Y182798D01*
X176652Y182740D01*
X176641Y182699D01*
X176622Y182661D01*
X176609Y182571D01*
X176596Y182523D01*
X176598Y182502D01*
X176594Y182476D01*
X176594Y169037D01*
X176606Y168972D01*
X176608Y168906D01*
X176626Y168863D01*
X176634Y168816D01*
X176667Y168759D01*
X176692Y168699D01*
X176724Y168664D01*
X176748Y168623D01*
X176799Y168581D01*
X176844Y168533D01*
X176886Y168511D01*
X176922Y168482D01*
X176984Y168461D01*
X177043Y168430D01*
X177098Y168422D01*
X177135Y168410D01*
X177174Y168411D01*
X177228Y168403D01*
X179272Y168403D01*
X188088Y159587D01*
X188088Y147118D01*
X179272Y138302D01*
X166803Y138302D01*
G37*
%LPD*%
%LPC*%
G36*
X260783Y138302D02*
X260783Y138302D01*
X251967Y147118D01*
X251967Y159587D01*
X260783Y168403D01*
X264783Y168403D01*
X264848Y168414D01*
X264914Y168416D01*
X264957Y168434D01*
X265004Y168442D01*
X265061Y168476D01*
X265121Y168501D01*
X265156Y168532D01*
X265197Y168557D01*
X265239Y168608D01*
X265287Y168652D01*
X265309Y168694D01*
X265338Y168731D01*
X265359Y168793D01*
X265390Y168852D01*
X265398Y168906D01*
X265410Y168943D01*
X265409Y168983D01*
X265417Y169037D01*
X265417Y190359D01*
X265406Y190424D01*
X265404Y190490D01*
X265386Y190533D01*
X265378Y190580D01*
X265344Y190637D01*
X265319Y190697D01*
X265288Y190732D01*
X265263Y190773D01*
X265212Y190815D01*
X265168Y190863D01*
X265126Y190885D01*
X265089Y190914D01*
X265027Y190935D01*
X264968Y190966D01*
X264914Y190974D01*
X264877Y190986D01*
X264837Y190985D01*
X264783Y190993D01*
X264239Y190993D01*
X257543Y197689D01*
X257543Y207159D01*
X264239Y213855D01*
X273709Y213855D01*
X280405Y207159D01*
X280405Y197689D01*
X273709Y190993D01*
X273165Y190993D01*
X273100Y190982D01*
X273034Y190980D01*
X272991Y190962D01*
X272944Y190954D01*
X272887Y190920D01*
X272827Y190895D01*
X272792Y190864D01*
X272751Y190839D01*
X272709Y190788D01*
X272661Y190744D01*
X272639Y190702D01*
X272610Y190665D01*
X272589Y190603D01*
X272558Y190544D01*
X272550Y190490D01*
X272538Y190453D01*
X272539Y190413D01*
X272531Y190359D01*
X272531Y169037D01*
X272542Y168972D01*
X272544Y168906D01*
X272562Y168863D01*
X272570Y168816D01*
X272604Y168759D01*
X272629Y168699D01*
X272660Y168664D01*
X272685Y168623D01*
X272736Y168581D01*
X272780Y168533D01*
X272822Y168511D01*
X272859Y168482D01*
X272921Y168461D01*
X272980Y168430D01*
X273034Y168422D01*
X273071Y168410D01*
X273111Y168411D01*
X273165Y168403D01*
X273252Y168403D01*
X282068Y159587D01*
X282068Y147118D01*
X273252Y138302D01*
X260783Y138302D01*
G37*
%LPD*%
%LPC*%
G36*
X166803Y90042D02*
X166803Y90042D01*
X157987Y98858D01*
X157987Y111327D01*
X166803Y120143D01*
X179272Y120143D01*
X188088Y111327D01*
X188088Y98858D01*
X179272Y90042D01*
X166803Y90042D01*
G37*
%LPD*%
%LPC*%
G36*
X213793Y90042D02*
X213793Y90042D01*
X204977Y98858D01*
X204977Y111327D01*
X213793Y120143D01*
X226262Y120143D01*
X235078Y111327D01*
X235078Y98858D01*
X226262Y90042D01*
X213793Y90042D01*
G37*
%LPD*%
%LPC*%
G36*
X260783Y90042D02*
X260783Y90042D01*
X251967Y98858D01*
X251967Y111327D01*
X260783Y120143D01*
X273252Y120143D01*
X282068Y111327D01*
X282068Y98858D01*
X273252Y90042D01*
X260783Y90042D01*
G37*
%LPD*%
%LPC*%
G36*
X213718Y138352D02*
X213718Y138352D01*
X204902Y147168D01*
X204902Y159636D01*
X213718Y168452D01*
X226186Y168452D01*
X235002Y159636D01*
X235002Y147168D01*
X226186Y138352D01*
X213718Y138352D01*
G37*
%LPD*%
%LPC*%
G36*
X653520Y52010D02*
X653520Y52010D01*
X652413Y52469D01*
X652383Y52475D01*
X652242Y52513D01*
X651947Y52546D01*
X651916Y52544D01*
X651876Y52550D01*
X651259Y52550D01*
X651211Y52542D01*
X651163Y52543D01*
X651086Y52519D01*
X651039Y52511D01*
X650526Y52690D01*
X650477Y52698D01*
X650388Y52722D01*
X649800Y52788D01*
X649790Y52796D01*
X649756Y52810D01*
X649726Y52830D01*
X649652Y52849D01*
X649581Y52876D01*
X649544Y52877D01*
X649538Y52878D01*
X649032Y53196D01*
X648985Y53215D01*
X648904Y53258D01*
X648345Y53453D01*
X648338Y53464D01*
X648308Y53484D01*
X648283Y53511D01*
X648215Y53546D01*
X648151Y53588D01*
X648116Y53597D01*
X648111Y53599D01*
X647688Y54022D01*
X647646Y54051D01*
X647577Y54111D01*
X647075Y54426D01*
X647071Y54437D01*
X647045Y54464D01*
X647027Y54496D01*
X646969Y54545D01*
X646916Y54600D01*
X646884Y54617D01*
X646879Y54620D01*
X646561Y55127D01*
X646527Y55164D01*
X646472Y55238D01*
X646054Y55656D01*
X646051Y55669D01*
X646033Y55700D01*
X646022Y55735D01*
X645976Y55796D01*
X645937Y55862D01*
X645909Y55885D01*
X645905Y55890D01*
X645708Y56454D01*
X645683Y56498D01*
X645646Y56582D01*
X645331Y57083D01*
X645332Y57096D01*
X645321Y57131D01*
X645318Y57167D01*
X645287Y57237D01*
X645264Y57310D01*
X645241Y57338D01*
X645239Y57344D01*
X645172Y57938D01*
X645158Y57986D01*
X645140Y58076D01*
X644945Y58635D01*
X644948Y58647D01*
X644945Y58684D01*
X644951Y58720D01*
X644936Y58795D01*
X644929Y58871D01*
X644914Y58904D01*
X644912Y58910D01*
X644979Y59504D01*
X644976Y59554D01*
X644979Y59646D01*
X644913Y60234D01*
X644919Y60245D01*
X644924Y60282D01*
X644938Y60315D01*
X644940Y60392D01*
X644950Y60467D01*
X644943Y60503D01*
X644943Y60509D01*
X645140Y61074D01*
X645148Y61123D01*
X645172Y61212D01*
X645238Y61800D01*
X645246Y61810D01*
X645260Y61844D01*
X645280Y61874D01*
X645299Y61948D01*
X645326Y62019D01*
X645327Y62056D01*
X645328Y62062D01*
X645646Y62568D01*
X645665Y62615D01*
X645708Y62696D01*
X645903Y63255D01*
X645914Y63262D01*
X645934Y63292D01*
X645961Y63317D01*
X645996Y63385D01*
X646038Y63449D01*
X646047Y63484D01*
X646049Y63489D01*
X646472Y63912D01*
X646501Y63954D01*
X646561Y64023D01*
X646876Y64525D01*
X646888Y64530D01*
X646914Y64555D01*
X646946Y64573D01*
X646995Y64631D01*
X647050Y64684D01*
X647067Y64716D01*
X647070Y64721D01*
X647577Y65039D01*
X647614Y65073D01*
X647688Y65128D01*
X648106Y65546D01*
X648119Y65549D01*
X648150Y65567D01*
X648185Y65578D01*
X648246Y65624D01*
X648312Y65663D01*
X648335Y65691D01*
X648340Y65695D01*
X648904Y65892D01*
X648948Y65917D01*
X649032Y65954D01*
X649533Y66269D01*
X649546Y66268D01*
X649581Y66279D01*
X649617Y66282D01*
X649687Y66313D01*
X649760Y66336D01*
X649788Y66359D01*
X649794Y66361D01*
X650388Y66428D01*
X650436Y66442D01*
X650526Y66460D01*
X651046Y66642D01*
X651073Y66628D01*
X651074Y66627D01*
X651153Y66616D01*
X651200Y66602D01*
X651226Y66605D01*
X651259Y66600D01*
X651876Y66600D01*
X651877Y66600D01*
X651878Y66600D01*
X651907Y66605D01*
X651947Y66604D01*
X652242Y66637D01*
X652272Y66646D01*
X652413Y66681D01*
X653156Y66989D01*
X653231Y67037D01*
X653310Y67079D01*
X653325Y67097D01*
X653345Y67110D01*
X653399Y67181D01*
X653457Y67248D01*
X653466Y67271D01*
X653480Y67290D01*
X653506Y67375D01*
X653537Y67458D01*
X653537Y67482D01*
X653544Y67505D01*
X653538Y67593D01*
X653539Y67682D01*
X653531Y67705D01*
X653529Y67728D01*
X653493Y67810D01*
X653462Y67893D01*
X653447Y67911D01*
X653437Y67933D01*
X653375Y67996D01*
X653317Y68064D01*
X653294Y68078D01*
X653280Y68093D01*
X653234Y68114D01*
X653156Y68161D01*
X652413Y68469D01*
X652395Y68473D01*
X652391Y68475D01*
X652376Y68477D01*
X652242Y68513D01*
X651947Y68546D01*
X651916Y68544D01*
X651876Y68550D01*
X651259Y68550D01*
X651211Y68542D01*
X651163Y68543D01*
X651086Y68519D01*
X651039Y68511D01*
X650526Y68690D01*
X650477Y68698D01*
X650388Y68722D01*
X649800Y68788D01*
X649790Y68796D01*
X649756Y68810D01*
X649726Y68830D01*
X649652Y68849D01*
X649581Y68876D01*
X649544Y68877D01*
X649538Y68878D01*
X649032Y69196D01*
X648985Y69215D01*
X648904Y69258D01*
X648345Y69453D01*
X648338Y69464D01*
X648308Y69484D01*
X648283Y69511D01*
X648215Y69546D01*
X648151Y69588D01*
X648116Y69597D01*
X648111Y69599D01*
X647688Y70022D01*
X647646Y70051D01*
X647577Y70111D01*
X647075Y70426D01*
X647071Y70437D01*
X647045Y70464D01*
X647027Y70496D01*
X646969Y70545D01*
X646916Y70600D01*
X646884Y70617D01*
X646879Y70620D01*
X646561Y71127D01*
X646527Y71164D01*
X646472Y71238D01*
X646054Y71656D01*
X646051Y71669D01*
X646033Y71700D01*
X646022Y71735D01*
X645976Y71796D01*
X645937Y71862D01*
X645909Y71885D01*
X645905Y71890D01*
X645708Y72454D01*
X645683Y72498D01*
X645646Y72582D01*
X645331Y73083D01*
X645332Y73096D01*
X645321Y73131D01*
X645318Y73167D01*
X645287Y73237D01*
X645264Y73310D01*
X645241Y73338D01*
X645239Y73344D01*
X645172Y73938D01*
X645158Y73986D01*
X645140Y74076D01*
X644945Y74635D01*
X644948Y74647D01*
X644945Y74684D01*
X644951Y74720D01*
X644936Y74795D01*
X644929Y74871D01*
X644914Y74904D01*
X644912Y74910D01*
X644979Y75504D01*
X644976Y75554D01*
X644979Y75646D01*
X644913Y76234D01*
X644919Y76245D01*
X644924Y76282D01*
X644938Y76315D01*
X644940Y76392D01*
X644950Y76467D01*
X644943Y76503D01*
X644943Y76509D01*
X645140Y77074D01*
X645148Y77123D01*
X645172Y77212D01*
X645238Y77800D01*
X645246Y77810D01*
X645260Y77844D01*
X645280Y77874D01*
X645299Y77948D01*
X645326Y78019D01*
X645327Y78056D01*
X645328Y78062D01*
X645646Y78568D01*
X645665Y78615D01*
X645708Y78696D01*
X645903Y79255D01*
X645914Y79262D01*
X645934Y79292D01*
X645961Y79317D01*
X645996Y79385D01*
X646038Y79449D01*
X646047Y79484D01*
X646049Y79489D01*
X646472Y79912D01*
X646501Y79954D01*
X646561Y80023D01*
X646876Y80525D01*
X646887Y80529D01*
X646914Y80555D01*
X646946Y80573D01*
X646995Y80631D01*
X647050Y80684D01*
X647067Y80716D01*
X647070Y80721D01*
X647577Y81039D01*
X647614Y81073D01*
X647688Y81128D01*
X648106Y81546D01*
X648119Y81549D01*
X648150Y81567D01*
X648185Y81578D01*
X648246Y81624D01*
X648312Y81663D01*
X648335Y81691D01*
X648340Y81695D01*
X648904Y81892D01*
X648948Y81917D01*
X649032Y81954D01*
X649533Y82269D01*
X649546Y82268D01*
X649581Y82279D01*
X649617Y82282D01*
X649687Y82313D01*
X649760Y82336D01*
X649788Y82359D01*
X649794Y82361D01*
X650388Y82428D01*
X650427Y82440D01*
X650438Y82439D01*
X650460Y82447D01*
X650526Y82460D01*
X650547Y82467D01*
X650580Y82485D01*
X650603Y82492D01*
X650615Y82501D01*
X650650Y82514D01*
X650694Y82550D01*
X650743Y82577D01*
X650779Y82621D01*
X650823Y82657D01*
X650851Y82706D01*
X650887Y82749D01*
X650906Y82802D01*
X650935Y82851D01*
X650944Y82907D01*
X650963Y82960D01*
X650963Y83017D01*
X650972Y83073D01*
X650961Y83128D01*
X650961Y83184D01*
X650941Y83237D01*
X650930Y83293D01*
X650901Y83341D01*
X650881Y83394D01*
X650843Y83436D01*
X650814Y83485D01*
X650770Y83520D01*
X650732Y83562D01*
X650682Y83589D01*
X650638Y83624D01*
X650575Y83647D01*
X650535Y83669D01*
X650503Y83673D01*
X650462Y83688D01*
X649679Y83843D01*
X648630Y84278D01*
X648216Y84449D01*
X647108Y85190D01*
X646899Y85329D01*
X645779Y86449D01*
X644899Y87766D01*
X644293Y89230D01*
X644079Y90306D01*
X646678Y90306D01*
X646679Y90298D01*
X647049Y89241D01*
X647071Y89204D01*
X647097Y89140D01*
X647693Y88192D01*
X647723Y88161D01*
X647763Y88105D01*
X648555Y87313D01*
X648591Y87289D01*
X648642Y87243D01*
X649590Y86647D01*
X649630Y86632D01*
X649691Y86599D01*
X650748Y86229D01*
X650790Y86223D01*
X650857Y86204D01*
X651969Y86079D01*
X651994Y86081D01*
X652025Y86076D01*
X658025Y86076D01*
X658049Y86081D01*
X658081Y86079D01*
X659194Y86204D01*
X659235Y86218D01*
X659302Y86229D01*
X660359Y86599D01*
X660380Y86611D01*
X660396Y86615D01*
X660419Y86630D01*
X660460Y86647D01*
X661408Y87243D01*
X661439Y87273D01*
X661495Y87313D01*
X662287Y88105D01*
X662311Y88141D01*
X662357Y88192D01*
X662953Y89140D01*
X662968Y89180D01*
X663001Y89241D01*
X663371Y90298D01*
X663372Y90306D01*
X665971Y90306D01*
X665757Y89230D01*
X665151Y87766D01*
X664271Y86449D01*
X663151Y85329D01*
X661834Y84449D01*
X660370Y83843D01*
X659588Y83688D01*
X659535Y83667D01*
X659479Y83656D01*
X659432Y83626D01*
X659380Y83606D01*
X659337Y83568D01*
X659288Y83538D01*
X659254Y83493D01*
X659212Y83456D01*
X659186Y83406D01*
X659151Y83360D01*
X659134Y83307D01*
X659108Y83258D01*
X659100Y83201D01*
X659083Y83146D01*
X659086Y83091D01*
X659079Y83035D01*
X659091Y82979D01*
X659094Y82922D01*
X659116Y82871D01*
X659129Y82817D01*
X659160Y82769D01*
X659183Y82716D01*
X659221Y82676D01*
X659252Y82629D01*
X659298Y82595D01*
X659338Y82554D01*
X659397Y82523D01*
X659433Y82496D01*
X659465Y82487D01*
X659481Y82476D01*
X659489Y82474D01*
X659504Y82467D01*
X659525Y82459D01*
X659574Y82451D01*
X659662Y82428D01*
X660250Y82362D01*
X660260Y82354D01*
X660294Y82340D01*
X660324Y82320D01*
X660398Y82301D01*
X660469Y82274D01*
X660506Y82273D01*
X660512Y82272D01*
X661018Y81954D01*
X661065Y81935D01*
X661146Y81892D01*
X661705Y81697D01*
X661712Y81686D01*
X661742Y81666D01*
X661767Y81639D01*
X661835Y81604D01*
X661899Y81562D01*
X661934Y81553D01*
X661939Y81551D01*
X662362Y81128D01*
X662404Y81099D01*
X662473Y81039D01*
X662975Y80724D01*
X662979Y80713D01*
X663005Y80686D01*
X663023Y80654D01*
X663081Y80605D01*
X663134Y80550D01*
X663166Y80533D01*
X663171Y80530D01*
X663489Y80023D01*
X663523Y79986D01*
X663578Y79912D01*
X663996Y79494D01*
X663999Y79481D01*
X664017Y79450D01*
X664028Y79415D01*
X664074Y79354D01*
X664113Y79288D01*
X664141Y79265D01*
X664145Y79260D01*
X664342Y78696D01*
X664367Y78652D01*
X664404Y78568D01*
X664719Y78067D01*
X664718Y78054D01*
X664729Y78019D01*
X664732Y77983D01*
X664763Y77913D01*
X664786Y77840D01*
X664809Y77812D01*
X664811Y77806D01*
X664878Y77212D01*
X664892Y77164D01*
X664910Y77074D01*
X665105Y76515D01*
X665102Y76503D01*
X665105Y76466D01*
X665099Y76430D01*
X665114Y76355D01*
X665121Y76279D01*
X665136Y76246D01*
X665138Y76240D01*
X665071Y75646D01*
X665074Y75596D01*
X665071Y75504D01*
X665137Y74916D01*
X665131Y74905D01*
X665126Y74868D01*
X665112Y74835D01*
X665110Y74758D01*
X665100Y74683D01*
X665107Y74647D01*
X665107Y74641D01*
X664910Y74076D01*
X664902Y74027D01*
X664878Y73938D01*
X664812Y73350D01*
X664804Y73340D01*
X664790Y73306D01*
X664770Y73276D01*
X664751Y73202D01*
X664724Y73131D01*
X664723Y73094D01*
X664722Y73088D01*
X664404Y72582D01*
X664385Y72535D01*
X664342Y72454D01*
X664147Y71895D01*
X664136Y71888D01*
X664116Y71858D01*
X664089Y71833D01*
X664054Y71765D01*
X664012Y71701D01*
X664003Y71666D01*
X664001Y71661D01*
X663578Y71238D01*
X663549Y71196D01*
X663489Y71127D01*
X663174Y70625D01*
X663163Y70621D01*
X663136Y70595D01*
X663104Y70577D01*
X663055Y70519D01*
X663000Y70466D01*
X662984Y70434D01*
X662980Y70429D01*
X662473Y70111D01*
X662436Y70077D01*
X662362Y70022D01*
X661944Y69604D01*
X661931Y69601D01*
X661900Y69583D01*
X661865Y69572D01*
X661804Y69526D01*
X661738Y69487D01*
X661715Y69459D01*
X661710Y69455D01*
X661146Y69258D01*
X661102Y69233D01*
X661018Y69196D01*
X660517Y68881D01*
X660504Y68882D01*
X660469Y68871D01*
X660433Y68868D01*
X660363Y68837D01*
X660290Y68814D01*
X660262Y68791D01*
X660256Y68789D01*
X659662Y68722D01*
X659614Y68708D01*
X659524Y68690D01*
X659004Y68508D01*
X658976Y68523D01*
X658897Y68534D01*
X658850Y68548D01*
X658824Y68545D01*
X658791Y68550D01*
X658174Y68550D01*
X658144Y68545D01*
X658103Y68546D01*
X657808Y68513D01*
X657778Y68504D01*
X657637Y68469D01*
X656894Y68161D01*
X656819Y68113D01*
X656740Y68070D01*
X656725Y68053D01*
X656705Y68040D01*
X656651Y67969D01*
X656593Y67902D01*
X656584Y67879D01*
X656570Y67860D01*
X656545Y67775D01*
X656513Y67692D01*
X656513Y67668D01*
X656506Y67645D01*
X656512Y67556D01*
X656511Y67468D01*
X656519Y67445D01*
X656521Y67422D01*
X656557Y67340D01*
X656588Y67257D01*
X656603Y67239D01*
X656613Y67217D01*
X656675Y67153D01*
X656733Y67086D01*
X656756Y67072D01*
X656770Y67057D01*
X656816Y67036D01*
X656894Y66989D01*
X657637Y66681D01*
X657667Y66675D01*
X657808Y66637D01*
X658103Y66604D01*
X658134Y66606D01*
X658172Y66600D01*
X658173Y66600D01*
X658174Y66600D01*
X658791Y66600D01*
X658839Y66608D01*
X658887Y66607D01*
X658964Y66631D01*
X659011Y66639D01*
X659524Y66460D01*
X659573Y66452D01*
X659662Y66428D01*
X660250Y66362D01*
X660260Y66354D01*
X660294Y66340D01*
X660324Y66320D01*
X660398Y66301D01*
X660469Y66274D01*
X660506Y66273D01*
X660512Y66272D01*
X661018Y65954D01*
X661065Y65935D01*
X661146Y65892D01*
X661705Y65697D01*
X661712Y65686D01*
X661742Y65666D01*
X661767Y65639D01*
X661835Y65604D01*
X661899Y65562D01*
X661934Y65553D01*
X661939Y65551D01*
X662362Y65128D01*
X662404Y65099D01*
X662473Y65039D01*
X662975Y64724D01*
X662979Y64713D01*
X663005Y64686D01*
X663023Y64654D01*
X663081Y64605D01*
X663134Y64550D01*
X663166Y64533D01*
X663171Y64530D01*
X663489Y64023D01*
X663523Y63986D01*
X663578Y63912D01*
X663996Y63494D01*
X663999Y63481D01*
X664017Y63450D01*
X664028Y63415D01*
X664074Y63354D01*
X664113Y63288D01*
X664141Y63265D01*
X664145Y63260D01*
X664342Y62696D01*
X664367Y62652D01*
X664404Y62568D01*
X664719Y62067D01*
X664718Y62054D01*
X664729Y62019D01*
X664732Y61983D01*
X664763Y61913D01*
X664786Y61840D01*
X664809Y61812D01*
X664811Y61806D01*
X664878Y61212D01*
X664892Y61164D01*
X664910Y61074D01*
X665105Y60515D01*
X665102Y60503D01*
X665105Y60466D01*
X665099Y60430D01*
X665114Y60355D01*
X665121Y60279D01*
X665136Y60246D01*
X665138Y60240D01*
X665071Y59646D01*
X665074Y59596D01*
X665071Y59504D01*
X665137Y58916D01*
X665131Y58905D01*
X665126Y58868D01*
X665112Y58835D01*
X665110Y58758D01*
X665100Y58683D01*
X665107Y58647D01*
X665107Y58641D01*
X664910Y58076D01*
X664902Y58027D01*
X664878Y57938D01*
X664812Y57350D01*
X664804Y57340D01*
X664790Y57306D01*
X664770Y57276D01*
X664751Y57202D01*
X664724Y57131D01*
X664723Y57094D01*
X664722Y57088D01*
X664404Y56582D01*
X664385Y56535D01*
X664342Y56454D01*
X664147Y55895D01*
X664136Y55888D01*
X664116Y55858D01*
X664089Y55833D01*
X664054Y55765D01*
X664012Y55701D01*
X664003Y55666D01*
X664001Y55661D01*
X663578Y55238D01*
X663549Y55196D01*
X663489Y55127D01*
X663174Y54625D01*
X663163Y54621D01*
X663136Y54595D01*
X663104Y54577D01*
X663055Y54519D01*
X663000Y54466D01*
X662983Y54434D01*
X662980Y54429D01*
X662473Y54111D01*
X662436Y54077D01*
X662362Y54022D01*
X661944Y53604D01*
X661931Y53601D01*
X661900Y53583D01*
X661865Y53572D01*
X661804Y53526D01*
X661738Y53487D01*
X661715Y53459D01*
X661710Y53455D01*
X661146Y53258D01*
X661117Y53242D01*
X661114Y53241D01*
X661097Y53231D01*
X661018Y53196D01*
X660517Y52881D01*
X660504Y52882D01*
X660469Y52871D01*
X660433Y52868D01*
X660363Y52837D01*
X660290Y52814D01*
X660262Y52791D01*
X660256Y52789D01*
X659662Y52722D01*
X659614Y52708D01*
X659524Y52690D01*
X659004Y52508D01*
X658976Y52523D01*
X658897Y52534D01*
X658850Y52548D01*
X658824Y52545D01*
X658791Y52550D01*
X658174Y52550D01*
X658144Y52545D01*
X658103Y52546D01*
X657808Y52513D01*
X657778Y52504D01*
X657637Y52469D01*
X656530Y52010D01*
X653520Y52010D01*
G37*
%LPD*%
%LPC*%
G36*
X568946Y37555D02*
X568946Y37555D01*
X565585Y38947D01*
X563012Y41520D01*
X561620Y44881D01*
X561620Y48519D01*
X563012Y51880D01*
X565585Y54453D01*
X568946Y55845D01*
X587824Y55845D01*
X591185Y54453D01*
X593758Y51880D01*
X595150Y48519D01*
X595150Y44881D01*
X593758Y41520D01*
X591185Y38947D01*
X587824Y37555D01*
X568946Y37555D01*
G37*
%LPD*%
%LPC*%
G36*
X568946Y139155D02*
X568946Y139155D01*
X565585Y140547D01*
X563012Y143120D01*
X561620Y146481D01*
X561620Y150119D01*
X563012Y153480D01*
X565585Y156053D01*
X568946Y157445D01*
X587824Y157445D01*
X591185Y156053D01*
X593758Y153480D01*
X595150Y150119D01*
X595150Y146481D01*
X593758Y143120D01*
X591185Y140547D01*
X587824Y139155D01*
X568946Y139155D01*
G37*
%LPD*%
%LPC*%
G36*
X568946Y88355D02*
X568946Y88355D01*
X565585Y89747D01*
X563012Y92320D01*
X561620Y95681D01*
X561620Y99319D01*
X563012Y102680D01*
X565585Y105253D01*
X568946Y106645D01*
X587824Y106645D01*
X591185Y105253D01*
X593758Y102680D01*
X595150Y99319D01*
X595150Y95681D01*
X593758Y92320D01*
X591185Y89747D01*
X587824Y88355D01*
X568946Y88355D01*
G37*
%LPD*%
%LPC*%
G36*
X45171Y208660D02*
X45171Y208660D01*
X41810Y210052D01*
X39237Y212625D01*
X37845Y215986D01*
X37845Y234864D01*
X39237Y238225D01*
X41810Y240798D01*
X45171Y242190D01*
X48809Y242190D01*
X52170Y240798D01*
X54743Y238225D01*
X56135Y234864D01*
X56135Y215986D01*
X54743Y212625D01*
X52170Y210052D01*
X48809Y208660D01*
X45171Y208660D01*
G37*
%LPD*%
%LPC*%
G36*
X638561Y146450D02*
X638561Y146450D01*
X635200Y147842D01*
X632627Y150415D01*
X631235Y153776D01*
X631235Y172654D01*
X632627Y176015D01*
X635200Y178588D01*
X638561Y179980D01*
X642199Y179980D01*
X645560Y178588D01*
X648133Y176015D01*
X649525Y172654D01*
X649525Y153776D01*
X648133Y150415D01*
X645560Y147842D01*
X642199Y146450D01*
X638561Y146450D01*
G37*
%LPD*%
%LPC*%
G36*
X568946Y62955D02*
X568946Y62955D01*
X565585Y64347D01*
X563012Y66920D01*
X561620Y70281D01*
X561620Y73919D01*
X563012Y77280D01*
X565585Y79853D01*
X568946Y81245D01*
X587824Y81245D01*
X591185Y79853D01*
X593758Y77280D01*
X595150Y73919D01*
X595150Y70281D01*
X593758Y66920D01*
X591185Y64347D01*
X587824Y62955D01*
X568946Y62955D01*
G37*
%LPD*%
%LPC*%
G36*
X627520Y60010D02*
X627520Y60010D01*
X626413Y60469D01*
X626383Y60475D01*
X626242Y60513D01*
X625947Y60546D01*
X625916Y60544D01*
X625876Y60550D01*
X625259Y60550D01*
X625211Y60542D01*
X625163Y60543D01*
X625086Y60519D01*
X625039Y60511D01*
X624526Y60690D01*
X624477Y60698D01*
X624388Y60722D01*
X623800Y60788D01*
X623790Y60796D01*
X623756Y60810D01*
X623726Y60830D01*
X623652Y60849D01*
X623581Y60876D01*
X623544Y60877D01*
X623538Y60878D01*
X623032Y61196D01*
X622985Y61215D01*
X622904Y61258D01*
X622345Y61453D01*
X622338Y61464D01*
X622308Y61484D01*
X622283Y61511D01*
X622215Y61546D01*
X622151Y61588D01*
X622116Y61597D01*
X622111Y61599D01*
X621688Y62022D01*
X621646Y62051D01*
X621577Y62111D01*
X621075Y62426D01*
X621071Y62437D01*
X621045Y62464D01*
X621027Y62496D01*
X620969Y62545D01*
X620916Y62600D01*
X620884Y62617D01*
X620879Y62620D01*
X620561Y63127D01*
X620527Y63164D01*
X620472Y63238D01*
X620054Y63656D01*
X620051Y63669D01*
X620033Y63700D01*
X620022Y63735D01*
X619976Y63796D01*
X619937Y63862D01*
X619909Y63885D01*
X619905Y63890D01*
X619708Y64454D01*
X619683Y64498D01*
X619646Y64582D01*
X619331Y65083D01*
X619332Y65096D01*
X619321Y65131D01*
X619318Y65167D01*
X619287Y65237D01*
X619264Y65310D01*
X619241Y65338D01*
X619239Y65344D01*
X619172Y65938D01*
X619158Y65986D01*
X619140Y66076D01*
X618945Y66635D01*
X618948Y66647D01*
X618945Y66684D01*
X618951Y66720D01*
X618936Y66795D01*
X618929Y66871D01*
X618914Y66904D01*
X618912Y66910D01*
X618979Y67504D01*
X618976Y67554D01*
X618979Y67646D01*
X618913Y68234D01*
X618919Y68245D01*
X618924Y68282D01*
X618938Y68315D01*
X618940Y68392D01*
X618950Y68467D01*
X618943Y68503D01*
X618943Y68509D01*
X619140Y69074D01*
X619148Y69123D01*
X619172Y69212D01*
X619238Y69800D01*
X619246Y69810D01*
X619260Y69844D01*
X619280Y69874D01*
X619299Y69948D01*
X619326Y70019D01*
X619327Y70056D01*
X619328Y70062D01*
X619646Y70568D01*
X619665Y70615D01*
X619708Y70696D01*
X619903Y71255D01*
X619914Y71262D01*
X619934Y71292D01*
X619961Y71317D01*
X619996Y71385D01*
X620038Y71449D01*
X620047Y71484D01*
X620049Y71489D01*
X620472Y71912D01*
X620501Y71954D01*
X620561Y72023D01*
X620876Y72525D01*
X620887Y72529D01*
X620914Y72555D01*
X620946Y72573D01*
X620995Y72631D01*
X621050Y72684D01*
X621066Y72716D01*
X621070Y72721D01*
X621577Y73039D01*
X621613Y73072D01*
X621654Y73096D01*
X621667Y73112D01*
X621688Y73128D01*
X622106Y73546D01*
X622119Y73549D01*
X622150Y73567D01*
X622185Y73578D01*
X622246Y73624D01*
X622312Y73663D01*
X622335Y73691D01*
X622340Y73695D01*
X622904Y73892D01*
X622948Y73917D01*
X623032Y73954D01*
X623533Y74269D01*
X623546Y74268D01*
X623581Y74279D01*
X623617Y74282D01*
X623687Y74313D01*
X623760Y74336D01*
X623788Y74359D01*
X623794Y74361D01*
X624388Y74428D01*
X624436Y74442D01*
X624526Y74460D01*
X625046Y74642D01*
X625074Y74627D01*
X625153Y74616D01*
X625200Y74602D01*
X625226Y74605D01*
X625259Y74600D01*
X625876Y74600D01*
X625906Y74605D01*
X625947Y74604D01*
X626242Y74637D01*
X626272Y74646D01*
X626413Y74681D01*
X627157Y74989D01*
X627231Y75037D01*
X627310Y75080D01*
X627325Y75097D01*
X627345Y75110D01*
X627399Y75181D01*
X627457Y75248D01*
X627466Y75271D01*
X627480Y75290D01*
X627506Y75375D01*
X627537Y75458D01*
X627537Y75482D01*
X627544Y75505D01*
X627538Y75594D01*
X627539Y75682D01*
X627531Y75705D01*
X627529Y75728D01*
X627493Y75810D01*
X627462Y75893D01*
X627447Y75911D01*
X627437Y75933D01*
X627375Y75997D01*
X627317Y76064D01*
X627295Y76078D01*
X627280Y76093D01*
X627234Y76114D01*
X627156Y76161D01*
X626413Y76469D01*
X626383Y76475D01*
X626242Y76513D01*
X625947Y76546D01*
X625916Y76544D01*
X625876Y76550D01*
X625259Y76550D01*
X625211Y76542D01*
X625163Y76543D01*
X625086Y76519D01*
X625039Y76511D01*
X624526Y76690D01*
X624477Y76698D01*
X624388Y76722D01*
X623800Y76788D01*
X623790Y76796D01*
X623756Y76810D01*
X623726Y76830D01*
X623652Y76849D01*
X623581Y76876D01*
X623544Y76877D01*
X623538Y76878D01*
X623032Y77196D01*
X622985Y77215D01*
X622904Y77258D01*
X622345Y77453D01*
X622338Y77464D01*
X622308Y77484D01*
X622283Y77511D01*
X622215Y77546D01*
X622151Y77588D01*
X622116Y77597D01*
X622111Y77599D01*
X621688Y78022D01*
X621646Y78051D01*
X621577Y78111D01*
X621075Y78426D01*
X621071Y78437D01*
X621045Y78464D01*
X621027Y78496D01*
X620969Y78545D01*
X620916Y78600D01*
X620884Y78617D01*
X620879Y78620D01*
X620561Y79127D01*
X620527Y79164D01*
X620472Y79238D01*
X620054Y79656D01*
X620051Y79669D01*
X620033Y79700D01*
X620022Y79735D01*
X619976Y79796D01*
X619937Y79862D01*
X619909Y79885D01*
X619905Y79890D01*
X619708Y80454D01*
X619683Y80498D01*
X619646Y80582D01*
X619331Y81083D01*
X619332Y81096D01*
X619321Y81131D01*
X619318Y81167D01*
X619287Y81237D01*
X619264Y81310D01*
X619241Y81338D01*
X619239Y81344D01*
X619172Y81938D01*
X619158Y81986D01*
X619140Y82076D01*
X618945Y82635D01*
X618948Y82647D01*
X618945Y82684D01*
X618951Y82720D01*
X618936Y82795D01*
X618929Y82871D01*
X618914Y82904D01*
X618912Y82910D01*
X618979Y83504D01*
X618976Y83554D01*
X618979Y83646D01*
X618913Y84234D01*
X618919Y84245D01*
X618924Y84282D01*
X618938Y84315D01*
X618940Y84392D01*
X618950Y84467D01*
X618943Y84503D01*
X618943Y84509D01*
X619140Y85074D01*
X619148Y85123D01*
X619172Y85212D01*
X619238Y85800D01*
X619246Y85810D01*
X619260Y85844D01*
X619280Y85874D01*
X619299Y85948D01*
X619326Y86019D01*
X619327Y86056D01*
X619328Y86062D01*
X619646Y86568D01*
X619652Y86581D01*
X619659Y86590D01*
X619671Y86626D01*
X619708Y86696D01*
X619903Y87255D01*
X619914Y87262D01*
X619934Y87292D01*
X619961Y87317D01*
X619996Y87385D01*
X620038Y87449D01*
X620047Y87484D01*
X620049Y87489D01*
X620472Y87912D01*
X620501Y87954D01*
X620561Y88023D01*
X620876Y88525D01*
X620887Y88529D01*
X620914Y88555D01*
X620946Y88573D01*
X620995Y88631D01*
X621050Y88684D01*
X621067Y88716D01*
X621070Y88721D01*
X621577Y89039D01*
X621614Y89073D01*
X621688Y89128D01*
X622106Y89546D01*
X622119Y89549D01*
X622150Y89567D01*
X622185Y89578D01*
X622246Y89624D01*
X622312Y89663D01*
X622335Y89691D01*
X622340Y89695D01*
X622904Y89892D01*
X622948Y89917D01*
X623032Y89954D01*
X623533Y90269D01*
X623546Y90268D01*
X623581Y90279D01*
X623617Y90282D01*
X623687Y90313D01*
X623760Y90336D01*
X623788Y90359D01*
X623794Y90361D01*
X624388Y90428D01*
X624436Y90442D01*
X624526Y90460D01*
X625046Y90642D01*
X625074Y90627D01*
X625153Y90616D01*
X625200Y90602D01*
X625226Y90605D01*
X625259Y90600D01*
X625876Y90600D01*
X625906Y90605D01*
X625947Y90604D01*
X626242Y90637D01*
X626272Y90646D01*
X626413Y90681D01*
X627520Y91140D01*
X630530Y91140D01*
X631637Y90681D01*
X631667Y90675D01*
X631808Y90637D01*
X632103Y90604D01*
X632134Y90606D01*
X632174Y90600D01*
X632791Y90600D01*
X632839Y90608D01*
X632887Y90607D01*
X632964Y90631D01*
X633011Y90639D01*
X633524Y90460D01*
X633573Y90452D01*
X633662Y90428D01*
X634250Y90362D01*
X634260Y90354D01*
X634294Y90340D01*
X634324Y90320D01*
X634398Y90301D01*
X634469Y90274D01*
X634506Y90273D01*
X634512Y90272D01*
X635018Y89954D01*
X635065Y89935D01*
X635146Y89892D01*
X635705Y89697D01*
X635712Y89686D01*
X635742Y89666D01*
X635767Y89639D01*
X635835Y89604D01*
X635899Y89562D01*
X635934Y89553D01*
X635939Y89551D01*
X636362Y89128D01*
X636404Y89099D01*
X636473Y89039D01*
X636975Y88724D01*
X636980Y88712D01*
X637005Y88686D01*
X637023Y88654D01*
X637081Y88605D01*
X637134Y88550D01*
X637166Y88533D01*
X637171Y88530D01*
X637489Y88023D01*
X637523Y87986D01*
X637578Y87912D01*
X637996Y87494D01*
X637999Y87481D01*
X638017Y87450D01*
X638028Y87415D01*
X638074Y87354D01*
X638113Y87288D01*
X638141Y87265D01*
X638145Y87260D01*
X638342Y86696D01*
X638367Y86652D01*
X638404Y86568D01*
X638719Y86067D01*
X638718Y86054D01*
X638729Y86019D01*
X638732Y85983D01*
X638763Y85913D01*
X638786Y85840D01*
X638809Y85812D01*
X638811Y85806D01*
X638878Y85212D01*
X638892Y85164D01*
X638910Y85074D01*
X639105Y84515D01*
X639102Y84503D01*
X639105Y84466D01*
X639099Y84430D01*
X639114Y84355D01*
X639121Y84279D01*
X639136Y84246D01*
X639138Y84240D01*
X639071Y83646D01*
X639074Y83596D01*
X639071Y83504D01*
X639137Y82916D01*
X639131Y82905D01*
X639126Y82868D01*
X639112Y82835D01*
X639110Y82758D01*
X639100Y82683D01*
X639107Y82647D01*
X639107Y82641D01*
X638910Y82076D01*
X638902Y82027D01*
X638878Y81938D01*
X638812Y81350D01*
X638803Y81340D01*
X638790Y81306D01*
X638770Y81276D01*
X638751Y81202D01*
X638724Y81130D01*
X638723Y81094D01*
X638722Y81088D01*
X638404Y80582D01*
X638385Y80535D01*
X638342Y80454D01*
X638147Y79895D01*
X638136Y79888D01*
X638116Y79858D01*
X638089Y79833D01*
X638054Y79765D01*
X638012Y79701D01*
X638003Y79666D01*
X638001Y79661D01*
X637578Y79238D01*
X637549Y79196D01*
X637489Y79127D01*
X637174Y78625D01*
X637163Y78621D01*
X637136Y78595D01*
X637104Y78577D01*
X637055Y78519D01*
X637000Y78466D01*
X636983Y78434D01*
X636980Y78429D01*
X636473Y78111D01*
X636436Y78077D01*
X636362Y78022D01*
X635944Y77604D01*
X635931Y77601D01*
X635900Y77583D01*
X635865Y77572D01*
X635804Y77526D01*
X635738Y77487D01*
X635715Y77459D01*
X635710Y77455D01*
X635146Y77258D01*
X635102Y77233D01*
X635018Y77196D01*
X634517Y76881D01*
X634504Y76882D01*
X634469Y76871D01*
X634433Y76868D01*
X634363Y76837D01*
X634290Y76814D01*
X634262Y76791D01*
X634256Y76789D01*
X633662Y76722D01*
X633614Y76708D01*
X633524Y76690D01*
X633004Y76508D01*
X632976Y76523D01*
X632897Y76534D01*
X632850Y76548D01*
X632824Y76545D01*
X632791Y76550D01*
X632174Y76550D01*
X632144Y76545D01*
X632103Y76546D01*
X631808Y76513D01*
X631778Y76504D01*
X631637Y76469D01*
X630894Y76161D01*
X630819Y76113D01*
X630740Y76071D01*
X630725Y76053D01*
X630705Y76040D01*
X630651Y75969D01*
X630593Y75902D01*
X630584Y75879D01*
X630570Y75860D01*
X630544Y75775D01*
X630513Y75692D01*
X630513Y75668D01*
X630506Y75645D01*
X630512Y75556D01*
X630511Y75468D01*
X630519Y75445D01*
X630521Y75422D01*
X630557Y75340D01*
X630588Y75257D01*
X630603Y75239D01*
X630613Y75217D01*
X630675Y75153D01*
X630733Y75086D01*
X630756Y75072D01*
X630770Y75057D01*
X630816Y75036D01*
X630893Y74989D01*
X631637Y74681D01*
X631667Y74675D01*
X631808Y74637D01*
X632103Y74604D01*
X632134Y74606D01*
X632174Y74600D01*
X632791Y74600D01*
X632839Y74608D01*
X632887Y74607D01*
X632964Y74631D01*
X633011Y74639D01*
X633524Y74460D01*
X633573Y74452D01*
X633662Y74428D01*
X634250Y74362D01*
X634260Y74354D01*
X634294Y74340D01*
X634324Y74320D01*
X634398Y74301D01*
X634469Y74274D01*
X634506Y74273D01*
X634512Y74272D01*
X635018Y73954D01*
X635065Y73935D01*
X635146Y73892D01*
X635705Y73696D01*
X635712Y73686D01*
X635742Y73666D01*
X635767Y73639D01*
X635835Y73604D01*
X635899Y73562D01*
X635934Y73553D01*
X635939Y73551D01*
X636362Y73128D01*
X636397Y73104D01*
X636425Y73073D01*
X636448Y73061D01*
X636473Y73039D01*
X636975Y72724D01*
X636980Y72712D01*
X637005Y72686D01*
X637023Y72654D01*
X637081Y72605D01*
X637134Y72550D01*
X637167Y72533D01*
X637171Y72530D01*
X637489Y72023D01*
X637523Y71986D01*
X637578Y71912D01*
X637996Y71494D01*
X637999Y71481D01*
X638017Y71450D01*
X638028Y71415D01*
X638074Y71354D01*
X638113Y71288D01*
X638141Y71265D01*
X638145Y71260D01*
X638342Y70696D01*
X638367Y70652D01*
X638404Y70568D01*
X638719Y70067D01*
X638718Y70054D01*
X638729Y70019D01*
X638732Y69983D01*
X638763Y69913D01*
X638786Y69840D01*
X638809Y69812D01*
X638811Y69806D01*
X638878Y69212D01*
X638892Y69164D01*
X638910Y69074D01*
X639105Y68515D01*
X639102Y68503D01*
X639105Y68466D01*
X639099Y68430D01*
X639114Y68355D01*
X639121Y68279D01*
X639136Y68246D01*
X639138Y68240D01*
X639071Y67646D01*
X639074Y67596D01*
X639071Y67504D01*
X639137Y66916D01*
X639131Y66905D01*
X639126Y66868D01*
X639112Y66835D01*
X639110Y66758D01*
X639100Y66683D01*
X639107Y66647D01*
X639107Y66641D01*
X638910Y66076D01*
X638902Y66027D01*
X638878Y65938D01*
X638812Y65350D01*
X638804Y65340D01*
X638790Y65306D01*
X638770Y65276D01*
X638751Y65202D01*
X638724Y65131D01*
X638723Y65094D01*
X638722Y65088D01*
X638404Y64582D01*
X638385Y64535D01*
X638342Y64454D01*
X638147Y63895D01*
X638136Y63888D01*
X638116Y63858D01*
X638089Y63833D01*
X638054Y63765D01*
X638012Y63701D01*
X638003Y63666D01*
X638001Y63661D01*
X637578Y63238D01*
X637549Y63196D01*
X637489Y63127D01*
X637174Y62625D01*
X637163Y62621D01*
X637136Y62595D01*
X637104Y62577D01*
X637055Y62519D01*
X637000Y62466D01*
X636983Y62434D01*
X636980Y62429D01*
X636473Y62111D01*
X636436Y62077D01*
X636362Y62022D01*
X635944Y61604D01*
X635931Y61601D01*
X635900Y61583D01*
X635865Y61572D01*
X635804Y61526D01*
X635738Y61487D01*
X635715Y61459D01*
X635710Y61455D01*
X635146Y61258D01*
X635102Y61233D01*
X635018Y61196D01*
X634517Y60881D01*
X634504Y60882D01*
X634469Y60871D01*
X634433Y60868D01*
X634363Y60837D01*
X634290Y60814D01*
X634262Y60791D01*
X634256Y60789D01*
X633662Y60722D01*
X633614Y60708D01*
X633524Y60690D01*
X633004Y60508D01*
X632976Y60523D01*
X632897Y60534D01*
X632850Y60548D01*
X632824Y60545D01*
X632791Y60550D01*
X632174Y60550D01*
X632144Y60545D01*
X632103Y60546D01*
X631808Y60513D01*
X631778Y60504D01*
X631637Y60469D01*
X630530Y60010D01*
X627520Y60010D01*
G37*
%LPD*%
%LPC*%
G36*
X108791Y190993D02*
X108791Y190993D01*
X102095Y197689D01*
X102095Y207159D01*
X108791Y213855D01*
X118261Y213855D01*
X124957Y207159D01*
X124957Y197689D01*
X118261Y190993D01*
X108791Y190993D01*
G37*
%LPD*%
%LPC*%
G36*
X292687Y84821D02*
X292687Y84821D01*
X285991Y91517D01*
X285991Y100987D01*
X292687Y107683D01*
X302157Y107683D01*
X308853Y100987D01*
X308853Y91517D01*
X302157Y84821D01*
X292687Y84821D01*
G37*
%LPD*%
%LPC*%
G36*
X158067Y219441D02*
X158067Y219441D01*
X151371Y226137D01*
X151371Y235607D01*
X158067Y242303D01*
X167537Y242303D01*
X174233Y235607D01*
X174233Y226137D01*
X167537Y219441D01*
X158067Y219441D01*
G37*
%LPD*%
%LPC*%
G36*
X80343Y84821D02*
X80343Y84821D01*
X73647Y91517D01*
X73647Y100987D01*
X80343Y107683D01*
X89813Y107683D01*
X96509Y100987D01*
X96509Y91517D01*
X89813Y84821D01*
X80343Y84821D01*
G37*
%LPD*%
%LPC*%
G36*
X158067Y7097D02*
X158067Y7097D01*
X151371Y13793D01*
X151371Y23263D01*
X158067Y29959D01*
X167537Y29959D01*
X174233Y23263D01*
X174233Y13793D01*
X167537Y7097D01*
X158067Y7097D01*
G37*
%LPD*%
%LPC*%
G36*
X292687Y141717D02*
X292687Y141717D01*
X285991Y148413D01*
X285991Y157883D01*
X292687Y164579D01*
X302157Y164579D01*
X308853Y157883D01*
X308853Y148413D01*
X302157Y141717D01*
X292687Y141717D01*
G37*
%LPD*%
%LPC*%
G36*
X214963Y7097D02*
X214963Y7097D01*
X208267Y13793D01*
X208267Y23263D01*
X214963Y29959D01*
X224433Y29959D01*
X231129Y23263D01*
X231129Y13793D01*
X224433Y7097D01*
X214963Y7097D01*
G37*
%LPD*%
%LPC*%
G36*
X264239Y35545D02*
X264239Y35545D01*
X257543Y42241D01*
X257543Y51711D01*
X264239Y58407D01*
X273709Y58407D01*
X280405Y51711D01*
X280405Y42241D01*
X273709Y35545D01*
X264239Y35545D01*
G37*
%LPD*%
%LPC*%
G36*
X80343Y141717D02*
X80343Y141717D01*
X73647Y148413D01*
X73647Y157883D01*
X80343Y164579D01*
X89813Y164579D01*
X96509Y157883D01*
X96509Y148413D01*
X89813Y141717D01*
X80343Y141717D01*
G37*
%LPD*%
%LPC*%
G36*
X108791Y35545D02*
X108791Y35545D01*
X102095Y42241D01*
X102095Y51711D01*
X108791Y58407D01*
X118261Y58407D01*
X124957Y51711D01*
X124957Y42241D01*
X118261Y35545D01*
X108791Y35545D01*
G37*
%LPD*%
%LPC*%
G36*
X51750Y68452D02*
X51750Y68452D01*
X48109Y69961D01*
X45323Y72747D01*
X43814Y76388D01*
X43814Y80330D01*
X45323Y83971D01*
X48109Y86757D01*
X51750Y88266D01*
X55692Y88266D01*
X59333Y86757D01*
X62119Y83971D01*
X63628Y80330D01*
X63628Y76388D01*
X62119Y72747D01*
X59333Y69961D01*
X55692Y68452D01*
X51750Y68452D01*
G37*
%LPD*%
G36*
X658049Y54081D02*
X658049Y54081D01*
X658081Y54079D01*
X659194Y54204D01*
X659235Y54218D01*
X659302Y54229D01*
X660359Y54599D01*
X660380Y54611D01*
X660396Y54615D01*
X660419Y54630D01*
X660460Y54647D01*
X661408Y55243D01*
X661439Y55273D01*
X661495Y55313D01*
X662287Y56105D01*
X662311Y56141D01*
X662357Y56192D01*
X662953Y57140D01*
X662968Y57180D01*
X663001Y57241D01*
X663371Y58298D01*
X663377Y58340D01*
X663396Y58407D01*
X663521Y59519D01*
X663518Y59554D01*
X663523Y59584D01*
X663519Y59600D01*
X663521Y59631D01*
X663396Y60744D01*
X663382Y60785D01*
X663371Y60852D01*
X663001Y61909D01*
X662979Y61946D01*
X662953Y62010D01*
X662357Y62958D01*
X662327Y62989D01*
X662287Y63045D01*
X661495Y63837D01*
X661459Y63861D01*
X661408Y63907D01*
X660460Y64503D01*
X660420Y64518D01*
X660359Y64551D01*
X659302Y64921D01*
X659260Y64927D01*
X659194Y64946D01*
X658081Y65071D01*
X658056Y65069D01*
X658025Y65074D01*
X652025Y65074D01*
X652001Y65069D01*
X651969Y65071D01*
X650857Y64946D01*
X650815Y64932D01*
X650748Y64921D01*
X649691Y64551D01*
X649654Y64529D01*
X649635Y64521D01*
X649630Y64520D01*
X649626Y64518D01*
X649590Y64503D01*
X648642Y63907D01*
X648611Y63877D01*
X648555Y63837D01*
X647763Y63045D01*
X647739Y63009D01*
X647693Y62958D01*
X647097Y62010D01*
X647082Y61970D01*
X647049Y61909D01*
X646679Y60852D01*
X646673Y60810D01*
X646654Y60744D01*
X646529Y59631D01*
X646533Y59588D01*
X646532Y59584D01*
X646527Y59551D01*
X646530Y59538D01*
X646529Y59519D01*
X646654Y58407D01*
X646668Y58365D01*
X646679Y58298D01*
X647049Y57241D01*
X647071Y57204D01*
X647097Y57140D01*
X647693Y56192D01*
X647723Y56161D01*
X647763Y56105D01*
X648555Y55313D01*
X648591Y55289D01*
X648642Y55243D01*
X649590Y54647D01*
X649630Y54632D01*
X649691Y54599D01*
X650748Y54229D01*
X650790Y54223D01*
X650857Y54204D01*
X651969Y54079D01*
X651994Y54081D01*
X652025Y54076D01*
X658025Y54076D01*
X658049Y54081D01*
G37*
G36*
X632049Y62081D02*
X632049Y62081D01*
X632081Y62079D01*
X633194Y62204D01*
X633235Y62218D01*
X633302Y62229D01*
X634359Y62599D01*
X634380Y62611D01*
X634396Y62615D01*
X634419Y62630D01*
X634460Y62647D01*
X635408Y63243D01*
X635439Y63273D01*
X635495Y63313D01*
X636287Y64105D01*
X636311Y64141D01*
X636357Y64192D01*
X636953Y65140D01*
X636968Y65180D01*
X637001Y65241D01*
X637371Y66298D01*
X637377Y66340D01*
X637396Y66407D01*
X637521Y67519D01*
X637518Y67554D01*
X637523Y67584D01*
X637519Y67600D01*
X637521Y67631D01*
X637396Y68744D01*
X637382Y68785D01*
X637371Y68852D01*
X637001Y69909D01*
X636979Y69946D01*
X636953Y70010D01*
X636357Y70958D01*
X636327Y70989D01*
X636287Y71045D01*
X635495Y71837D01*
X635459Y71861D01*
X635408Y71907D01*
X634460Y72503D01*
X634420Y72518D01*
X634359Y72551D01*
X633302Y72921D01*
X633260Y72927D01*
X633194Y72946D01*
X632081Y73071D01*
X632056Y73069D01*
X632025Y73074D01*
X626025Y73074D01*
X626001Y73069D01*
X625969Y73071D01*
X624857Y72946D01*
X624815Y72932D01*
X624748Y72921D01*
X623691Y72551D01*
X623654Y72529D01*
X623635Y72521D01*
X623630Y72520D01*
X623626Y72518D01*
X623590Y72503D01*
X622642Y71907D01*
X622611Y71877D01*
X622555Y71837D01*
X621763Y71045D01*
X621739Y71009D01*
X621693Y70958D01*
X621097Y70010D01*
X621082Y69970D01*
X621049Y69909D01*
X620679Y68852D01*
X620673Y68810D01*
X620654Y68744D01*
X620529Y67631D01*
X620533Y67588D01*
X620532Y67584D01*
X620527Y67551D01*
X620530Y67538D01*
X620529Y67519D01*
X620654Y66407D01*
X620668Y66365D01*
X620679Y66298D01*
X621049Y65241D01*
X621071Y65204D01*
X621097Y65140D01*
X621693Y64192D01*
X621723Y64161D01*
X621763Y64105D01*
X622555Y63313D01*
X622591Y63289D01*
X622642Y63243D01*
X623590Y62647D01*
X623630Y62632D01*
X623691Y62599D01*
X624748Y62229D01*
X624790Y62223D01*
X624857Y62204D01*
X625969Y62079D01*
X625994Y62081D01*
X626025Y62076D01*
X632025Y62076D01*
X632049Y62081D01*
G37*
G36*
X658049Y70081D02*
X658049Y70081D01*
X658081Y70079D01*
X659194Y70204D01*
X659235Y70218D01*
X659302Y70229D01*
X660359Y70599D01*
X660380Y70611D01*
X660396Y70615D01*
X660419Y70630D01*
X660460Y70647D01*
X661408Y71243D01*
X661439Y71273D01*
X661495Y71313D01*
X662287Y72105D01*
X662311Y72141D01*
X662357Y72192D01*
X662953Y73140D01*
X662968Y73180D01*
X663001Y73241D01*
X663371Y74298D01*
X663377Y74340D01*
X663396Y74407D01*
X663521Y75519D01*
X663518Y75554D01*
X663523Y75584D01*
X663519Y75600D01*
X663521Y75631D01*
X663396Y76744D01*
X663382Y76785D01*
X663371Y76852D01*
X663001Y77909D01*
X662979Y77946D01*
X662953Y78010D01*
X662357Y78958D01*
X662327Y78989D01*
X662287Y79045D01*
X661495Y79837D01*
X661459Y79861D01*
X661408Y79907D01*
X660460Y80503D01*
X660420Y80518D01*
X660359Y80551D01*
X659302Y80921D01*
X659260Y80927D01*
X659194Y80946D01*
X658081Y81071D01*
X658056Y81069D01*
X658025Y81074D01*
X652025Y81074D01*
X652001Y81069D01*
X651969Y81071D01*
X650857Y80946D01*
X650815Y80932D01*
X650748Y80921D01*
X649691Y80551D01*
X649654Y80529D01*
X649635Y80521D01*
X649630Y80520D01*
X649626Y80518D01*
X649590Y80503D01*
X648642Y79907D01*
X648611Y79877D01*
X648555Y79837D01*
X647763Y79045D01*
X647739Y79009D01*
X647693Y78958D01*
X647097Y78010D01*
X647082Y77970D01*
X647049Y77909D01*
X646679Y76852D01*
X646673Y76810D01*
X646654Y76744D01*
X646529Y75631D01*
X646533Y75588D01*
X646532Y75584D01*
X646527Y75551D01*
X646530Y75538D01*
X646529Y75519D01*
X646654Y74407D01*
X646668Y74365D01*
X646679Y74298D01*
X647049Y73241D01*
X647071Y73204D01*
X647097Y73140D01*
X647693Y72192D01*
X647723Y72161D01*
X647763Y72105D01*
X648555Y71313D01*
X648591Y71289D01*
X648642Y71243D01*
X649590Y70647D01*
X649630Y70632D01*
X649691Y70599D01*
X650748Y70229D01*
X650790Y70223D01*
X650857Y70204D01*
X651969Y70079D01*
X651994Y70081D01*
X652025Y70076D01*
X658025Y70076D01*
X658049Y70081D01*
G37*
G36*
X632049Y78081D02*
X632049Y78081D01*
X632081Y78079D01*
X633194Y78204D01*
X633235Y78218D01*
X633302Y78229D01*
X634359Y78599D01*
X634380Y78611D01*
X634396Y78615D01*
X634419Y78630D01*
X634460Y78647D01*
X635408Y79243D01*
X635439Y79273D01*
X635495Y79313D01*
X636287Y80105D01*
X636311Y80141D01*
X636357Y80192D01*
X636953Y81140D01*
X636968Y81180D01*
X637001Y81241D01*
X637371Y82298D01*
X637377Y82340D01*
X637396Y82407D01*
X637521Y83519D01*
X637518Y83554D01*
X637523Y83584D01*
X637519Y83600D01*
X637521Y83631D01*
X637396Y84744D01*
X637382Y84785D01*
X637371Y84852D01*
X637001Y85909D01*
X636979Y85946D01*
X636953Y86010D01*
X636357Y86958D01*
X636327Y86989D01*
X636287Y87045D01*
X635495Y87837D01*
X635459Y87861D01*
X635408Y87907D01*
X634460Y88503D01*
X634420Y88518D01*
X634359Y88551D01*
X633302Y88921D01*
X633260Y88927D01*
X633194Y88946D01*
X632081Y89071D01*
X632056Y89069D01*
X632025Y89074D01*
X626025Y89074D01*
X626001Y89069D01*
X625969Y89071D01*
X624857Y88946D01*
X624815Y88932D01*
X624748Y88921D01*
X623691Y88551D01*
X623654Y88529D01*
X623635Y88521D01*
X623630Y88520D01*
X623626Y88518D01*
X623590Y88503D01*
X622642Y87907D01*
X622611Y87877D01*
X622555Y87837D01*
X621763Y87045D01*
X621739Y87009D01*
X621693Y86958D01*
X621097Y86010D01*
X621082Y85970D01*
X621049Y85909D01*
X620679Y84852D01*
X620673Y84810D01*
X620654Y84744D01*
X620529Y83631D01*
X620533Y83588D01*
X620532Y83584D01*
X620527Y83551D01*
X620530Y83538D01*
X620529Y83519D01*
X620654Y82407D01*
X620668Y82365D01*
X620679Y82298D01*
X621049Y81241D01*
X621071Y81204D01*
X621097Y81140D01*
X621693Y80192D01*
X621723Y80161D01*
X621763Y80105D01*
X622555Y79313D01*
X622591Y79289D01*
X622642Y79243D01*
X623590Y78647D01*
X623630Y78632D01*
X623691Y78599D01*
X624748Y78229D01*
X624790Y78223D01*
X624857Y78204D01*
X625969Y78079D01*
X625994Y78081D01*
X626025Y78076D01*
X632025Y78076D01*
X632049Y78081D01*
G37*
%LPC*%
G36*
X667049Y164484D02*
X667049Y164484D01*
X667049Y180921D01*
X668159Y180746D01*
X669680Y180251D01*
X671105Y179525D01*
X672399Y178585D01*
X673530Y177454D01*
X674470Y176160D01*
X675196Y174735D01*
X675691Y173214D01*
X675941Y171635D01*
X675941Y164484D01*
X667049Y164484D01*
G37*
%LPD*%
%LPC*%
G36*
X73659Y226694D02*
X73659Y226694D01*
X73659Y243131D01*
X74769Y242956D01*
X76290Y242461D01*
X77715Y241735D01*
X79009Y240795D01*
X80140Y239664D01*
X81080Y238370D01*
X81806Y236945D01*
X82301Y235424D01*
X82551Y233845D01*
X82551Y226694D01*
X73659Y226694D01*
G37*
%LPD*%
%LPC*%
G36*
X579654Y124169D02*
X579654Y124169D01*
X579654Y133061D01*
X586805Y133061D01*
X588384Y132811D01*
X589905Y132316D01*
X591330Y131590D01*
X592624Y130650D01*
X593755Y129519D01*
X594695Y128225D01*
X595421Y126800D01*
X595916Y125279D01*
X596091Y124169D01*
X579654Y124169D01*
G37*
%LPD*%
%LPC*%
G36*
X560679Y124169D02*
X560679Y124169D01*
X560854Y125279D01*
X561349Y126800D01*
X562075Y128225D01*
X563015Y129519D01*
X564146Y130650D01*
X565440Y131590D01*
X566865Y132316D01*
X568386Y132811D01*
X569965Y133061D01*
X577116Y133061D01*
X577116Y124169D01*
X560679Y124169D01*
G37*
%LPD*%
%LPC*%
G36*
X667049Y161946D02*
X667049Y161946D01*
X675941Y161946D01*
X675941Y154795D01*
X675691Y153216D01*
X675196Y151695D01*
X674470Y150270D01*
X673530Y148976D01*
X672399Y147845D01*
X671105Y146905D01*
X669680Y146179D01*
X668159Y145684D01*
X667049Y145509D01*
X667049Y161946D01*
G37*
%LPD*%
%LPC*%
G36*
X73659Y224156D02*
X73659Y224156D01*
X82551Y224156D01*
X82551Y217005D01*
X82301Y215426D01*
X81806Y213905D01*
X81080Y212480D01*
X80140Y211186D01*
X79009Y210055D01*
X77715Y209115D01*
X76290Y208389D01*
X74769Y207894D01*
X73659Y207719D01*
X73659Y224156D01*
G37*
%LPD*%
%LPC*%
G36*
X62229Y226694D02*
X62229Y226694D01*
X62229Y233845D01*
X62479Y235424D01*
X62974Y236945D01*
X63700Y238370D01*
X64640Y239664D01*
X65771Y240795D01*
X67065Y241735D01*
X68490Y242461D01*
X70011Y242956D01*
X71121Y243131D01*
X71121Y226694D01*
X62229Y226694D01*
G37*
%LPD*%
%LPC*%
G36*
X579654Y112739D02*
X579654Y112739D01*
X579654Y121631D01*
X596091Y121631D01*
X595916Y120521D01*
X595421Y119000D01*
X594695Y117575D01*
X593755Y116281D01*
X592624Y115150D01*
X591330Y114210D01*
X589905Y113484D01*
X588384Y112989D01*
X586805Y112739D01*
X579654Y112739D01*
G37*
%LPD*%
%LPC*%
G36*
X655619Y164484D02*
X655619Y164484D01*
X655619Y171635D01*
X655869Y173214D01*
X656364Y174735D01*
X657090Y176160D01*
X658030Y177454D01*
X659161Y178585D01*
X660455Y179525D01*
X661880Y180251D01*
X663401Y180746D01*
X664511Y180921D01*
X664511Y164484D01*
X655619Y164484D01*
G37*
%LPD*%
%LPC*%
G36*
X569965Y112739D02*
X569965Y112739D01*
X568386Y112989D01*
X566865Y113484D01*
X565440Y114210D01*
X564146Y115150D01*
X563015Y116281D01*
X562075Y117575D01*
X561349Y119000D01*
X560854Y120521D01*
X560679Y121631D01*
X577116Y121631D01*
X577116Y112739D01*
X569965Y112739D01*
G37*
%LPD*%
%LPC*%
G36*
X663401Y145684D02*
X663401Y145684D01*
X661880Y146179D01*
X660455Y146905D01*
X659161Y147845D01*
X658030Y148976D01*
X657090Y150270D01*
X656364Y151695D01*
X655869Y153216D01*
X655619Y154795D01*
X655619Y161946D01*
X664511Y161946D01*
X664511Y145509D01*
X663401Y145684D01*
G37*
%LPD*%
%LPC*%
G36*
X70011Y207894D02*
X70011Y207894D01*
X68490Y208389D01*
X67065Y209115D01*
X65771Y210055D01*
X64640Y211186D01*
X63700Y212480D01*
X62974Y213905D01*
X62479Y215426D01*
X62229Y217005D01*
X62229Y224156D01*
X71121Y224156D01*
X71121Y207719D01*
X70011Y207894D01*
G37*
%LPD*%
%LPC*%
G36*
X54990Y28828D02*
X54990Y28828D01*
X54990Y38417D01*
X56279Y38213D01*
X57914Y37681D01*
X59446Y36901D01*
X60837Y35890D01*
X62052Y34675D01*
X63063Y33284D01*
X63843Y31752D01*
X64375Y30117D01*
X64579Y28828D01*
X54990Y28828D01*
G37*
%LPD*%
%LPC*%
G36*
X54990Y26290D02*
X54990Y26290D01*
X64579Y26290D01*
X64375Y25001D01*
X63843Y23366D01*
X63063Y21834D01*
X62052Y20443D01*
X60837Y19228D01*
X59446Y18217D01*
X57914Y17437D01*
X56279Y16905D01*
X54990Y16701D01*
X54990Y26290D01*
G37*
%LPD*%
%LPC*%
G36*
X629603Y28534D02*
X629603Y28534D01*
X627786Y28855D01*
X626884Y29183D01*
X626053Y29485D01*
X625088Y30043D01*
X624456Y30408D01*
X623043Y31593D01*
X621858Y33006D01*
X620935Y34603D01*
X620305Y36336D01*
X620045Y37806D01*
X622648Y37806D01*
X622672Y37563D01*
X622684Y37525D01*
X622691Y37467D01*
X623118Y36060D01*
X623137Y36025D01*
X623156Y35970D01*
X623849Y34673D01*
X623874Y34642D01*
X623903Y34592D01*
X624836Y33455D01*
X624867Y33430D01*
X624905Y33386D01*
X626042Y32453D01*
X626077Y32434D01*
X626123Y32399D01*
X627420Y31706D01*
X627458Y31694D01*
X627510Y31668D01*
X628917Y31241D01*
X628956Y31238D01*
X629013Y31222D01*
X630476Y31078D01*
X630498Y31080D01*
X630525Y31076D01*
X640756Y31076D01*
X640756Y28534D01*
X629603Y28534D01*
G37*
%LPD*%
%LPC*%
G36*
X629603Y101534D02*
X629603Y101534D01*
X627786Y101855D01*
X626352Y102376D01*
X626053Y102485D01*
X624654Y103293D01*
X624456Y103408D01*
X623043Y104593D01*
X621858Y106006D01*
X620935Y107603D01*
X620305Y109336D01*
X620045Y110806D01*
X622648Y110806D01*
X622672Y110563D01*
X622684Y110525D01*
X622691Y110467D01*
X623118Y109060D01*
X623137Y109025D01*
X623156Y108970D01*
X623849Y107673D01*
X623874Y107642D01*
X623903Y107592D01*
X624836Y106455D01*
X624867Y106430D01*
X624905Y106386D01*
X626042Y105453D01*
X626077Y105434D01*
X626123Y105399D01*
X627420Y104706D01*
X627458Y104694D01*
X627510Y104668D01*
X628917Y104241D01*
X628956Y104238D01*
X629013Y104222D01*
X630476Y104078D01*
X630498Y104080D01*
X630525Y104076D01*
X640756Y104076D01*
X640756Y101534D01*
X629603Y101534D01*
G37*
%LPD*%
%LPC*%
G36*
X643294Y101534D02*
X643294Y101534D01*
X643294Y104076D01*
X653525Y104076D01*
X653546Y104080D01*
X653574Y104078D01*
X655037Y104222D01*
X655075Y104234D01*
X655133Y104241D01*
X656540Y104668D01*
X656575Y104687D01*
X656630Y104706D01*
X657927Y105399D01*
X657958Y105424D01*
X658009Y105453D01*
X659145Y106386D01*
X659170Y106417D01*
X659214Y106455D01*
X660147Y107592D01*
X660166Y107627D01*
X660201Y107673D01*
X660894Y108970D01*
X660906Y109008D01*
X660932Y109060D01*
X661359Y110467D01*
X661362Y110506D01*
X661378Y110563D01*
X661402Y110806D01*
X664005Y110806D01*
X663745Y109336D01*
X663115Y107603D01*
X662192Y106006D01*
X661007Y104593D01*
X659594Y103408D01*
X657997Y102485D01*
X656264Y101855D01*
X654447Y101534D01*
X643294Y101534D01*
G37*
%LPD*%
%LPC*%
G36*
X643294Y28534D02*
X643294Y28534D01*
X643294Y31076D01*
X653525Y31076D01*
X653546Y31080D01*
X653574Y31078D01*
X655037Y31222D01*
X655075Y31234D01*
X655133Y31241D01*
X656540Y31668D01*
X656575Y31687D01*
X656630Y31706D01*
X657927Y32399D01*
X657958Y32424D01*
X658009Y32453D01*
X659145Y33386D01*
X659170Y33417D01*
X659214Y33455D01*
X660147Y34592D01*
X660166Y34627D01*
X660201Y34673D01*
X660894Y35970D01*
X660906Y36008D01*
X660932Y36060D01*
X661359Y37467D01*
X661362Y37506D01*
X661378Y37563D01*
X661402Y37806D01*
X664005Y37806D01*
X663745Y36336D01*
X663115Y34603D01*
X662192Y33006D01*
X661007Y31593D01*
X659594Y30408D01*
X657997Y29485D01*
X656264Y28855D01*
X654447Y28534D01*
X643294Y28534D01*
G37*
%LPD*%
%LPC*%
G36*
X620045Y113344D02*
X620045Y113344D01*
X620305Y114814D01*
X620753Y116045D01*
X620935Y116547D01*
X621651Y117787D01*
X621858Y118144D01*
X622824Y119296D01*
X623043Y119557D01*
X624456Y120742D01*
X626053Y121665D01*
X627786Y122295D01*
X629603Y122616D01*
X640756Y122616D01*
X640756Y120074D01*
X630525Y120074D01*
X630504Y120070D01*
X630476Y120072D01*
X629013Y119928D01*
X628975Y119916D01*
X628917Y119909D01*
X627510Y119482D01*
X627475Y119463D01*
X627420Y119444D01*
X626123Y118751D01*
X626092Y118726D01*
X626042Y118697D01*
X624905Y117764D01*
X624880Y117734D01*
X624836Y117695D01*
X623903Y116559D01*
X623884Y116523D01*
X623849Y116477D01*
X623156Y115180D01*
X623144Y115142D01*
X623118Y115090D01*
X622691Y113683D01*
X622688Y113644D01*
X622672Y113587D01*
X622648Y113344D01*
X620045Y113344D01*
G37*
%LPD*%
%LPC*%
G36*
X620045Y40344D02*
X620045Y40344D01*
X620305Y41814D01*
X620918Y43500D01*
X620935Y43547D01*
X621847Y45125D01*
X621858Y45144D01*
X623038Y46551D01*
X623043Y46557D01*
X624456Y47742D01*
X626053Y48665D01*
X627786Y49295D01*
X629603Y49616D01*
X640756Y49616D01*
X640756Y47074D01*
X630525Y47074D01*
X630504Y47070D01*
X630476Y47072D01*
X629013Y46928D01*
X628975Y46916D01*
X628917Y46909D01*
X627510Y46482D01*
X627475Y46463D01*
X627420Y46444D01*
X626123Y45751D01*
X626092Y45726D01*
X626042Y45697D01*
X624905Y44764D01*
X624880Y44734D01*
X624836Y44695D01*
X623903Y43559D01*
X623884Y43523D01*
X623849Y43477D01*
X623156Y42180D01*
X623144Y42142D01*
X623118Y42090D01*
X622691Y40683D01*
X622688Y40644D01*
X622672Y40587D01*
X622648Y40344D01*
X620045Y40344D01*
G37*
%LPD*%
%LPC*%
G36*
X661402Y40344D02*
X661402Y40344D01*
X661378Y40587D01*
X661366Y40625D01*
X661359Y40683D01*
X660932Y42090D01*
X660913Y42125D01*
X660894Y42180D01*
X660201Y43477D01*
X660176Y43508D01*
X660147Y43559D01*
X659214Y44695D01*
X659184Y44720D01*
X659145Y44764D01*
X658009Y45697D01*
X657973Y45716D01*
X657927Y45751D01*
X656630Y46444D01*
X656592Y46456D01*
X656540Y46482D01*
X655133Y46909D01*
X655094Y46912D01*
X655037Y46928D01*
X653574Y47072D01*
X653552Y47070D01*
X653525Y47074D01*
X643294Y47074D01*
X643294Y49616D01*
X654447Y49616D01*
X656264Y49295D01*
X657997Y48665D01*
X659594Y47742D01*
X660845Y46692D01*
X661007Y46557D01*
X662192Y45144D01*
X663115Y43547D01*
X663745Y41814D01*
X664005Y40344D01*
X661402Y40344D01*
G37*
%LPD*%
%LPC*%
G36*
X661402Y113344D02*
X661402Y113344D01*
X661378Y113587D01*
X661366Y113625D01*
X661359Y113683D01*
X660932Y115090D01*
X660913Y115125D01*
X660894Y115180D01*
X660201Y116477D01*
X660176Y116508D01*
X660147Y116559D01*
X659214Y117695D01*
X659184Y117720D01*
X659145Y117764D01*
X658009Y118697D01*
X657973Y118716D01*
X657927Y118751D01*
X656630Y119444D01*
X656592Y119456D01*
X656540Y119482D01*
X655133Y119909D01*
X655094Y119912D01*
X655037Y119928D01*
X653574Y120072D01*
X653552Y120070D01*
X653525Y120074D01*
X643294Y120074D01*
X643294Y122616D01*
X654447Y122616D01*
X656264Y122295D01*
X657997Y121665D01*
X659594Y120742D01*
X660708Y119808D01*
X661007Y119557D01*
X662192Y118144D01*
X663115Y116547D01*
X663745Y114814D01*
X664005Y113344D01*
X661402Y113344D01*
G37*
%LPD*%
%LPC*%
G36*
X644079Y92844D02*
X644079Y92844D01*
X644293Y93920D01*
X644899Y95384D01*
X645680Y96552D01*
X645779Y96701D01*
X646899Y97821D01*
X648216Y98701D01*
X649680Y99307D01*
X651233Y99616D01*
X651888Y99616D01*
X651919Y99621D01*
X651949Y99619D01*
X652064Y99647D01*
X652109Y99655D01*
X652118Y99661D01*
X652131Y99664D01*
X652522Y99826D01*
X653756Y100071D01*
X653756Y97074D01*
X652025Y97074D01*
X652001Y97069D01*
X651969Y97071D01*
X650857Y96946D01*
X650815Y96932D01*
X650748Y96921D01*
X649691Y96551D01*
X649654Y96529D01*
X649635Y96521D01*
X649630Y96520D01*
X649626Y96518D01*
X649590Y96503D01*
X648642Y95907D01*
X648611Y95877D01*
X648555Y95837D01*
X647763Y95045D01*
X647739Y95009D01*
X647693Y94958D01*
X647097Y94010D01*
X647082Y93970D01*
X647049Y93909D01*
X646679Y92852D01*
X646678Y92844D01*
X644079Y92844D01*
G37*
%LPD*%
%LPC*%
G36*
X663372Y92844D02*
X663372Y92844D01*
X663371Y92852D01*
X663001Y93909D01*
X662979Y93946D01*
X662953Y94010D01*
X662357Y94958D01*
X662327Y94989D01*
X662287Y95045D01*
X661495Y95837D01*
X661459Y95861D01*
X661408Y95907D01*
X660460Y96503D01*
X660420Y96518D01*
X660359Y96551D01*
X659302Y96921D01*
X659260Y96927D01*
X659194Y96946D01*
X658081Y97071D01*
X658056Y97069D01*
X658025Y97074D01*
X656294Y97074D01*
X656294Y100071D01*
X657528Y99826D01*
X657919Y99664D01*
X657949Y99657D01*
X657976Y99643D01*
X658093Y99626D01*
X658138Y99616D01*
X658149Y99618D01*
X658162Y99616D01*
X658817Y99616D01*
X660370Y99307D01*
X661834Y98701D01*
X663151Y97821D01*
X664271Y96701D01*
X665151Y95384D01*
X665757Y93920D01*
X665971Y92844D01*
X663372Y92844D01*
G37*
%LPD*%
%LPC*%
G36*
X72389Y225424D02*
X72389Y225424D01*
X72389Y225426D01*
X72391Y225426D01*
X72391Y225424D01*
X72389Y225424D01*
G37*
%LPD*%
%LPC*%
G36*
X578384Y122899D02*
X578384Y122899D01*
X578384Y122901D01*
X578386Y122901D01*
X578386Y122899D01*
X578384Y122899D01*
G37*
%LPD*%
%LPC*%
G36*
X665779Y163214D02*
X665779Y163214D01*
X665779Y163216D01*
X665781Y163216D01*
X665781Y163214D01*
X665779Y163214D01*
G37*
%LPD*%
D10*
X0Y0D02*
X680000Y0D01*
X680000Y250000D01*
X0Y250000D01*
X0Y0D01*
D11*
X219952Y153402D03*
D12*
X268974Y202424D03*
X297422Y153148D03*
X297422Y96252D03*
X268974Y46976D03*
X219698Y18528D03*
X162802Y18528D03*
X113526Y46976D03*
X85078Y96252D03*
X85078Y153148D03*
X113526Y202424D03*
X162802Y230872D03*
X219698Y230872D03*
D13*
X570765Y46700D02*
X586005Y46700D01*
X586005Y72100D02*
X570765Y72100D01*
X570765Y97500D02*
X586005Y97500D01*
X586005Y122900D02*
X570765Y122900D01*
X570765Y148300D02*
X586005Y148300D01*
D14*
X21918Y19170D03*
X21918Y34410D03*
D13*
X46990Y217805D02*
X46990Y233045D01*
X72390Y233045D02*
X72390Y217805D01*
D15*
X53721Y52959D03*
X53721Y27559D03*
X53721Y78359D03*
D16*
X655025Y75575D03*
X655025Y91575D03*
X655025Y59575D03*
X629025Y67575D03*
X629025Y83575D03*
D17*
X642025Y112075D03*
X642025Y39075D03*
D13*
X665780Y155595D02*
X665780Y170835D01*
X640380Y170835D02*
X640380Y155595D01*
D11*
X267018Y153353D03*
X173038Y153353D03*
X173038Y105093D03*
X220028Y105093D03*
X267018Y105093D03*
D18*
X349454Y213600D03*
X511733Y227789D03*
X367975Y166450D03*
X371475Y41275D03*
X465074Y107696D03*
X454152Y74168D03*
X438658Y157734D03*
X520700Y25400D03*
X83185Y46038D03*
X65088Y169863D03*
X114300Y171450D03*
D19*
X268974Y155309D02*
X268974Y202424D01*
X268974Y155309D02*
X267018Y153353D01*
X219698Y230872D02*
X173038Y184212D01*
X173038Y153353D01*
D18*
X460375Y149225D03*
D19*
X228600Y36513D02*
X155575Y36513D01*
X228600Y36513D02*
X242888Y22225D01*
X31563Y9525D02*
X21918Y19170D01*
X31563Y9525D02*
X128588Y9525D01*
X155575Y36513D01*
X333375Y22225D02*
X460375Y149225D01*
X333375Y22225D02*
X242888Y22225D01*
D18*
X249525Y47575D03*
D19*
X222488Y74613D01*
X77788Y74613D01*
X56134Y52959D01*
X53721Y52959D01*
D18*
X22225Y47625D03*
D19*
X21918Y47318D01*
X21918Y34410D01*
M02*
