G04 EAGLE Gerber RS-274X export*
G75*
%MOMM*%
%FSLAX34Y34*%
%LPD*%
%INTop solder mask*%
%IPPOS*%
%AMOC8*
5,1,8,0,0,1.08239X$1,22.5*%
G01*
%ADD10C,0.000000*%
%ADD11P,3.037944X8X292.500000*%
%ADD12P,2.254402X8X292.500000*%
%ADD13R,1.401600X1.601600*%
%ADD14R,1.601600X1.401600*%
%ADD15R,1.701600X1.101600*%
%ADD16R,2.301600X2.501600*%
%ADD17C,1.625600*%
%ADD18R,1.701800X1.270000*%
%ADD19R,1.828800X0.152400*%
%ADD20R,1.601600X0.601600*%
%ADD21R,0.601600X1.601600*%
%ADD22R,1.301600X1.301600*%
%ADD23C,1.778000*%
%ADD24C,1.309600*%
%ADD25C,1.701600*%


D10*
X0Y0D02*
X680000Y0D01*
X680000Y250000D01*
X0Y250000D01*
X0Y0D01*
D11*
X219952Y153402D03*
D12*
X268974Y202424D03*
X297422Y153148D03*
X297422Y96252D03*
X268974Y46976D03*
X219698Y18528D03*
X162802Y18528D03*
X113526Y46976D03*
X85078Y96252D03*
X85078Y153148D03*
X113526Y202424D03*
X162802Y230872D03*
X219698Y230872D03*
D13*
X540238Y72275D03*
X521238Y72275D03*
X541825Y100850D03*
X522825Y100850D03*
D14*
X537950Y43800D03*
X537950Y24800D03*
X526175Y208712D03*
X526175Y227712D03*
X343412Y65025D03*
X343412Y46025D03*
D13*
X327838Y163788D03*
X346838Y163788D03*
X520125Y127400D03*
X539125Y127400D03*
X478638Y227761D03*
X497638Y227761D03*
X380087Y224586D03*
X361087Y224586D03*
D15*
X582675Y231225D03*
X638675Y231225D03*
X582675Y199225D03*
X638675Y199225D03*
D16*
X450324Y224586D03*
X408324Y224586D03*
D13*
X145720Y164289D03*
X126720Y164289D03*
D17*
X570765Y46700D02*
X586005Y46700D01*
X586005Y72100D02*
X570765Y72100D01*
X570765Y97500D02*
X586005Y97500D01*
X586005Y122900D02*
X570765Y122900D01*
X570765Y148300D02*
X586005Y148300D01*
D18*
X46955Y184905D03*
X46955Y169665D03*
D19*
X46955Y177285D03*
D13*
X286350Y21313D03*
X305350Y21313D03*
D17*
X46990Y217805D02*
X46990Y233045D01*
X72390Y233045D02*
X72390Y217805D01*
D14*
X83185Y15583D03*
X83185Y34583D03*
X525463Y155600D03*
X525463Y174600D03*
X496888Y184175D03*
X496888Y203175D03*
X552450Y174650D03*
X552450Y193650D03*
D20*
X484276Y75761D03*
X484276Y83761D03*
X484276Y91761D03*
X484276Y99761D03*
X484276Y107761D03*
X484276Y115761D03*
X484276Y123761D03*
X484276Y131761D03*
X484276Y139761D03*
X484276Y147761D03*
X484276Y155761D03*
D21*
X466276Y173761D03*
X458276Y173761D03*
X450276Y173761D03*
X442276Y173761D03*
X434276Y173761D03*
X426276Y173761D03*
X418276Y173761D03*
X410276Y173761D03*
X402276Y173761D03*
X394276Y173761D03*
X386276Y173761D03*
D20*
X368276Y155761D03*
X368276Y147761D03*
X368276Y139761D03*
X368276Y131761D03*
X368276Y123761D03*
X368276Y115761D03*
X368276Y107761D03*
X368276Y99761D03*
X368276Y91761D03*
X368276Y83761D03*
X368276Y75761D03*
D21*
X386276Y57761D03*
X394276Y57761D03*
X402276Y57761D03*
X410276Y57761D03*
X418276Y57761D03*
X426276Y57761D03*
X434276Y57761D03*
X442276Y57761D03*
X450276Y57761D03*
X458276Y57761D03*
X466276Y57761D03*
D13*
X449463Y26825D03*
X430463Y26825D03*
D22*
X503600Y26825D03*
X482600Y26825D03*
D23*
X53721Y52959D03*
X53721Y27559D03*
X53721Y78359D03*
D24*
X655025Y75575D03*
X655025Y91575D03*
X655025Y59575D03*
X629025Y67575D03*
X629025Y83575D03*
D25*
X642025Y112075D03*
X642025Y39075D03*
D17*
X665780Y155595D02*
X665780Y170835D01*
X640380Y170835D02*
X640380Y155595D01*
D11*
X267018Y153353D03*
X173038Y153353D03*
X173038Y105093D03*
X220028Y105093D03*
X267018Y105093D03*
M02*
